<svg width="160" height="160" viewBox="0 0 160 160" fill="none" xmlns="http://www.w3.org/2000/svg">
<g filter="url(#filter0_d)">
<rect x="40" y="20" width="80" height="80" rx="8" fill="#F0F4F7"/>
<path d="M104 67.6667C104 66.2 102.8 65 101.333 65H96V70.3333H101.333C102.8 70.3333 104 69.1333 104 67.6667Z" fill='currentColor'/>
<path d="M101.333 75.6665H96V80.9998H101.333C102.8 80.9998 104 79.7998 104 78.3332C104 76.8665 102.8 75.6665 101.333 75.6665Z" fill="currentColor"/>
<path d="M90.6667 62.3335H85.3333C82.4 62.3335 80 64.7335 80 67.6668H77.3333C75.8667 67.6668 74.6667 68.8668 74.6667 70.3335V75.6668C74.6667 77.1335 75.8667 78.3335 77.3333 78.3335H80C80 81.2668 82.4 83.6668 85.3333 83.6668H90.6667C92.1333 83.6668 93.3333 82.4668 93.3333 81.0002V65.0002C93.3333 63.5335 92.1333 62.3335 90.6667 62.3335Z" fill="currentColor"/>
<path d="M61.3333 65C61.3333 62.0667 63.7333 59.6667 66.6667 59.6667H70.6667C75.8133 59.6667 80 55.48 80 50.3333C80 45.1867 75.8133 41 70.6667 41H61.3333C59.8667 41 58.6667 42.2 58.6667 43.6667C58.6667 45.1333 59.8667 46.3333 61.3333 46.3333H70.6667C72.88 46.3333 74.6667 48.12 74.6667 50.3333C74.6667 52.5467 72.88 54.3333 70.6667 54.3333H66.6667C60.7733 54.3333 56 59.1067 56 65C56 70.8933 60.7733 75.6667 66.6667 75.6667H72V70.3333H66.6667C63.7333 70.3333 61.3333 67.9333 61.3333 65Z" fill="currentColor"/>
</g>
<defs>
<filter id="filter0_d" x="0" y="0" width="160" height="160" filterUnits="userSpaceOnUse" color-interpolation-filters="sRGB">
<feFlood flood-opacity="0" result="BackgroundImageFix"/>
<feColorMatrix in="SourceAlpha" type="matrix" values="0 0 0 0 0 0 0 0 0 0 0 0 0 0 0 0 0 0 127 0" result="hardAlpha"/>
<feOffset dy="20"/>
<feGaussianBlur stdDeviation="20"/>
<feColorMatrix type="matrix" values="0 0 0 0 0.2775 0 0 0 0 0.225 0 0 0 0 0.6 0 0 0 0.4 0"/>
<feBlend mode="normal" in2="BackgroundImageFix" result="effect1_dropShadow"/>
<feBlend mode="normal" in="SourceGraphic" in2="effect1_dropShadow" result="shape"/>
</filter>
</defs>
</svg>
