<svg width="97" height="96" viewBox="0 0 97 96" fill="none" xmlns="http://www.w3.org/2000/svg">
<path d="M96.5 21.8182V4.36364C96.5 1.96364 94.5364 0 92.1364 0H74.6818C72.2818 0 70.3182 1.96364 70.3182 4.36364V8.72727H26.6818V4.36364C26.6818 1.96364 24.7182 0 22.3182 0H4.86364C2.46364 0 0.5 1.96364 0.5 4.36364V21.8182C0.5 24.2182 2.46364 26.1818 4.86364 26.1818H9.22727V69.8182H4.86364C2.46364 69.8182 0.5 71.7818 0.5 74.1818V91.6364C0.5 94.0364 2.46364 96 4.86364 96H22.3182C24.7182 96 26.6818 94.0364 26.6818 91.6364V87.2727H70.3182V91.6364C70.3182 94.0364 72.2818 96 74.6818 96H92.1364C94.5364 96 96.5 94.0364 96.5 91.6364V74.1818C96.5 71.7818 94.5364 69.8182 92.1364 69.8182H87.7727V26.1818H92.1364C94.5364 26.1818 96.5 24.2182 96.5 21.8182ZM9.22727 8.72727H17.9545V17.4545H9.22727V8.72727ZM17.9545 87.2727H9.22727V78.5455H17.9545V87.2727ZM70.3182 78.5455H26.6818V74.1818C26.6818 71.7818 24.7182 69.8182 22.3182 69.8182H17.9545V26.1818H22.3182C24.7182 26.1818 26.6818 24.2182 26.6818 21.8182V17.4545H70.3182V21.8182C70.3182 24.2182 72.2818 26.1818 74.6818 26.1818H79.0455V69.8182H74.6818C72.2818 69.8182 70.3182 71.7818 70.3182 74.1818V78.5455ZM87.7727 87.2727H79.0455V78.5455H87.7727V87.2727ZM79.0455 17.4545V8.72727H87.7727V17.4545H79.0455ZM52.6018 29.0182C51.9473 27.3164 50.2891 26.1818 48.4564 26.1818C46.6236 26.1818 44.9655 27.3164 44.3545 29.0182L32.2673 61.0036C31.4382 63.1418 33.0091 65.4545 35.3218 65.4545C36.7182 65.4545 37.94 64.5818 38.42 63.2727L40.82 56.7273H56.0491L58.4927 63.3164C58.9727 64.5818 60.1945 65.4545 61.5909 65.4545H61.6345C63.9473 65.4545 65.5182 63.1418 64.7327 61.0036L52.6018 29.0182ZM42.7836 51.2291L48.5 34.5164L54.1727 51.2291H42.7836Z" fill="#9AA8FF"/>
</svg>
