<svg width="160" height="160" viewBox="0 0 160 160" fill="none" xmlns="http://www.w3.org/2000/svg">
<g filter="url(#filter0_d)">
<rect x="40" y="20" width="80" height="80" rx="8" fill="#27292E"/>
<path d="M104 69.6V40.8C104 38.16 101.84 36 99.2 36H70.4C67.76 36 65.6 38.16 65.6 40.8V69.6C65.6 72.24 67.76 74.4 70.4 74.4H99.2C101.84 74.4 104 72.24 104 69.6ZM78.56 61.272L82.472 66.504L88.664 58.776C89.144 58.176 90.056 58.176 90.536 58.776L97.64 67.656C98.264 68.448 97.712 69.6 96.704 69.6H72.8C71.816 69.6 71.24 68.472 71.84 67.68L76.64 61.272C77.12 60.648 78.08 60.648 78.56 61.272ZM56 48V79.2C56 81.84 58.16 84 60.8 84H92C93.32 84 94.4 82.92 94.4 81.6C94.4 80.28 93.32 79.2 92 79.2H63.2C61.88 79.2 60.8 78.12 60.8 76.8V48C60.8 46.68 59.72 45.6 58.4 45.6C57.08 45.6 56 46.68 56 48Z" fill="#A6B7FF"/>
</g>
<defs>
<filter id="filter0_d" x="0" y="0" width="160" height="160" filterUnits="userSpaceOnUse" color-interpolation-filters="sRGB">
<feFlood flood-opacity="0" result="BackgroundImageFix"/>
<feColorMatrix in="SourceAlpha" type="matrix" values="0 0 0 0 0 0 0 0 0 0 0 0 0 0 0 0 0 0 127 0" result="hardAlpha"/>
<feOffset dy="20"/>
<feGaussianBlur stdDeviation="20"/>
<feColorMatrix type="matrix" values="0 0 0 0 0.2775 0 0 0 0 0.225 0 0 0 0 0.6 0 0 0 0.4 0"/>
<feBlend mode="normal" in2="BackgroundImageFix" result="effect1_dropShadow"/>
<feBlend mode="normal" in="SourceGraphic" in2="effect1_dropShadow" result="shape"/>
</filter>
</defs>
</svg>
