<svg width="96" height="96" viewBox="0 0 96 96" fill="none" xmlns="http://www.w3.org/2000/svg">
<path d="M96 67.2V9.6C96 4.32 91.68 0 86.4 0H28.8C23.52 0 19.2 4.32 19.2 9.6V67.2C19.2 72.48 23.52 76.8 28.8 76.8H86.4C91.68 76.8 96 72.48 96 67.2ZM45.12 50.544L52.944 61.008L65.328 45.552C66.288 44.352 68.112 44.352 69.072 45.552L83.28 63.312C84.528 64.896 83.424 67.2 81.408 67.2H33.6C31.632 67.2 30.48 64.944 31.68 63.36L41.28 50.544C42.24 49.296 44.16 49.296 45.12 50.544ZM0 24V86.4C0 91.68 4.32 96 9.6 96H72C74.64 96 76.8 93.84 76.8 91.2C76.8 88.56 74.64 86.4 72 86.4H14.4C11.76 86.4 9.6 84.24 9.6 81.6V24C9.6 21.36 7.44 19.2 4.8 19.2C2.16 19.2 0 21.36 0 24Z" fill="#9AA8FF"/>
</svg>
