<svg width="160" height="166" viewBox="0 0 160 166" fill="none" xmlns="http://www.w3.org/2000/svg">
<g filter="url(#filter0_d)">
<rect x="40" y="20" width="80" height="85.3443" rx="8" fill="#27292E"/>
<path d="M95.5098 42.588C95.2965 42.588 95.0831 42.5347 94.8964 42.428C89.7753 39.7874 85.3478 38.6672 80.04 38.6672C74.7589 38.6672 69.7446 39.9208 65.1836 42.428C64.5435 42.7747 63.7433 42.5347 63.3699 41.8945C63.0232 41.2544 63.2632 40.4276 63.9034 40.0808C68.8644 37.387 74.3055 36 80.04 36C85.7212 36 90.6822 37.2536 96.1233 40.0542C96.7901 40.4009 97.0302 41.2011 96.6834 41.8412C96.4434 42.3213 95.9899 42.588 95.5098 42.588ZM57.342 56.5909C57.0753 56.5909 56.8086 56.5109 56.5685 56.3508C55.9551 55.9241 55.8217 55.0972 56.2485 54.4838C58.889 50.7497 62.2497 47.8158 66.2505 45.762C74.6256 41.4411 85.3478 41.4144 93.7495 45.7353C97.7503 47.7891 101.111 50.6963 103.752 54.4038C104.178 54.9906 104.045 55.8441 103.431 56.2708C102.818 56.6976 101.991 56.5642 101.564 55.9507C99.1639 52.5901 96.1233 49.9495 92.5226 48.1091C84.8677 44.1883 75.079 44.1883 67.4508 48.1358C63.8234 50.0029 60.7827 52.6701 58.3822 56.0308C58.1689 56.4042 57.7688 56.5909 57.342 56.5909ZM74.0121 88.7841C73.6654 88.7841 73.3186 88.6508 73.0786 88.3841C70.7581 86.0636 69.5045 84.5699 67.7175 81.3426C65.8771 78.0619 64.9169 74.0611 64.9169 69.7669C64.9169 61.8453 71.6916 55.3906 80.0133 55.3906C88.335 55.3906 95.1098 61.8453 95.1098 69.7669C95.1098 70.5137 94.523 71.1005 93.7762 71.1005C93.0293 71.1005 92.4425 70.5137 92.4425 69.7669C92.4425 63.3123 86.8681 58.0578 80.0133 58.0578C73.1586 58.0578 67.5841 63.3123 67.5841 69.7669C67.5841 73.6077 68.4376 77.1551 70.0646 80.0357C71.7717 83.103 72.9452 84.4099 74.999 86.4903C75.5057 87.0238 75.5057 87.8506 74.999 88.3841C74.7056 88.6508 74.3588 88.7841 74.0121 88.7841ZM93.136 83.8498C89.962 83.8498 87.1615 83.0496 84.8677 81.476C80.8935 78.7821 78.5197 74.4079 78.5197 69.7669C78.5197 69.0201 79.1065 68.4333 79.8533 68.4333C80.6001 68.4333 81.1869 69.0201 81.1869 69.7669C81.1869 73.5277 83.1073 77.0751 86.3613 79.2622C88.255 80.5424 90.4688 81.1559 93.136 81.1559C93.7762 81.1559 94.843 81.0759 95.9099 80.8892C96.6301 80.7558 97.3235 81.2359 97.4569 81.9827C97.5903 82.7029 97.1102 83.3964 96.3633 83.5297C94.843 83.8231 93.5094 83.8498 93.136 83.8498ZM87.7749 89.3442C87.6682 89.3442 87.5349 89.3176 87.4282 89.2909C83.1873 88.1173 80.4134 86.5437 77.5062 83.6898C73.7721 79.9823 71.7183 75.048 71.7183 69.7669C71.7183 65.446 75.3991 61.9253 79.9333 61.9253C84.4676 61.9253 88.1483 65.446 88.1483 69.7669C88.1483 72.6208 90.6288 74.9413 93.6961 74.9413C96.7634 74.9413 99.2439 72.6208 99.2439 69.7669C99.2439 59.7115 90.5755 51.5498 79.9066 51.5498C72.3318 51.5498 65.397 55.764 62.2764 62.2987C61.2362 64.4592 60.7027 66.993 60.7027 69.7669C60.7027 71.8473 60.8894 75.128 62.4898 79.3955C62.7565 80.089 62.4097 80.8625 61.7163 81.1026C61.0228 81.3693 60.2493 80.9959 60.0092 80.3291C58.7023 76.835 58.0622 73.3676 58.0622 69.7669C58.0622 66.5663 58.6756 63.659 59.8759 61.1251C63.4233 53.6836 71.2916 48.856 79.9066 48.856C92.0425 48.856 101.911 58.2179 101.911 69.7402C101.911 74.0611 98.2304 77.5818 93.6961 77.5818C89.1619 77.5818 85.4811 74.0611 85.4811 69.7402C85.4811 66.8863 83.0006 64.5658 79.9333 64.5658C76.866 64.5658 74.3855 66.8863 74.3855 69.7402C74.3855 74.3012 76.1459 78.5687 79.3732 81.7694C81.9071 84.2765 84.3342 85.6635 88.095 86.7037C88.8151 86.8904 89.2152 87.6372 89.0285 88.3307C88.8952 88.9442 88.335 89.3442 87.7749 89.3442Z" fill="#A6B7FF"/>
</g>
<defs>
<filter id="filter0_d" x="0" y="0" width="160" height="165.344" filterUnits="userSpaceOnUse" color-interpolation-filters="sRGB">
<feFlood flood-opacity="0" result="BackgroundImageFix"/>
<feColorMatrix in="SourceAlpha" type="matrix" values="0 0 0 0 0 0 0 0 0 0 0 0 0 0 0 0 0 0 127 0" result="hardAlpha"/>
<feOffset dy="20"/>
<feGaussianBlur stdDeviation="20"/>
<feColorMatrix type="matrix" values="0 0 0 0 0.2775 0 0 0 0 0.225 0 0 0 0 0.6 0 0 0 0.4 0"/>
<feBlend mode="normal" in2="BackgroundImageFix" result="effect1_dropShadow"/>
<feBlend mode="normal" in="SourceGraphic" in2="effect1_dropShadow" result="shape"/>
</filter>
</defs>
</svg>
