<svg width="160" height="160" viewBox="0 0 160 160" fill="none" xmlns="http://www.w3.org/2000/svg">
<g filter="url(#filter0_d)">
<rect x="40" y="20" width="80" height="80" rx="8" fill="#F0F4F7"/>
<path d="M64 76H96C98.2 76 100 74.2 100 72C100 69.8 98.2 68 96 68H64C61.8 68 60 69.8 60 72C60 74.2 61.8 76 64 76ZM64 70H68V74H64V70ZM60 48C60 50.2 61.8 52 64 52H96C98.2 52 100 50.2 100 48C100 45.8 98.2 44 96 44H64C61.8 44 60 45.8 60 48ZM68 50H64V46H68V50ZM64 64H96C98.2 64 100 62.2 100 60C100 57.8 98.2 56 96 56H64C61.8 56 60 57.8 60 60C60 62.2 61.8 64 64 64ZM64 58H68V62H64V58Z" fill="currentColor"/>
</g>
<defs>
<filter id="filter0_d" x="0" y="0" width="160" height="160" filterUnits="userSpaceOnUse" color-interpolation-filters="sRGB">
<feFlood flood-opacity="0" result="BackgroundImageFix"/>
<feColorMatrix in="SourceAlpha" type="matrix" values="0 0 0 0 0 0 0 0 0 0 0 0 0 0 0 0 0 0 127 0" result="hardAlpha"/>
<feOffset dy="20"/>
<feGaussianBlur stdDeviation="20"/>
<feColorMatrix type="matrix" values="0 0 0 0 0.2775 0 0 0 0 0.225 0 0 0 0 0.6 0 0 0 0.4 0"/>
<feBlend mode="normal" in2="BackgroundImageFix" result="effect1_dropShadow"/>
<feBlend mode="normal" in="SourceGraphic" in2="effect1_dropShadow" result="shape"/>
</filter>
</defs>
</svg>
