<svg width="160" height="167" viewBox="0 0 160 167" fill="none" xmlns="http://www.w3.org/2000/svg">
<g filter="url(#filter0_d)">
<rect x="40" y="20" width="80" height="86.4" rx="8" fill="#F0F4F7"/>
<path d="M99.2 44H60.8C58.16 44 56 46.16 56 48.8V77.6C56 80.24 58.16 82.4 60.8 82.4H99.2C101.84 82.4 104 80.24 104 77.6V48.8C104 46.16 101.84 44 99.2 44ZM98.24 54.2L82.544 64.016C80.984 65 79.016 65 77.456 64.016L61.76 54.2C61.16 53.816 60.8 53.168 60.8 52.472C60.8 50.864 62.552 49.904 63.92 50.744L80 60.8L96.08 50.744C97.448 49.904 99.2 50.864 99.2 52.472C99.2 53.168 98.84 53.816 98.24 54.2Z" fill="currentColor"/>
</g>
<defs>
<filter id="filter0_d" x="0" y="0" width="160" height="166.4" filterUnits="userSpaceOnUse" color-interpolation-filters="sRGB">
<feFlood flood-opacity="0" result="BackgroundImageFix"/>
<feColorMatrix in="SourceAlpha" type="matrix" values="0 0 0 0 0 0 0 0 0 0 0 0 0 0 0 0 0 0 127 0" result="hardAlpha"/>
<feOffset dy="20"/>
<feGaussianBlur stdDeviation="20"/>
<feColorMatrix type="matrix" values="0 0 0 0 0.2775 0 0 0 0 0.225 0 0 0 0 0.6 0 0 0 0.4 0"/>
<feBlend mode="normal" in2="BackgroundImageFix" result="effect1_dropShadow"/>
<feBlend mode="normal" in="SourceGraphic" in2="effect1_dropShadow" result="shape"/>
</filter>
</defs>
</svg>
