<svg width="16" height="18" viewBox="0 0 16 18" fill="none" xmlns="http://www.w3.org/2000/svg">
<path d="M7.99992 9.61541C8.36805 9.61541 8.66659 9.33984 8.66659 9.00003C8.66659 8.66021 8.36805 8.38464 7.99992 8.38464C7.63179 8.38464 7.33325 8.66021 7.33325 9.00003C7.33325 9.33984 7.63179 9.61541 7.99992 9.61541Z" fill="#82848E" stroke="#82848E" stroke-width="1.5" stroke-linecap="round" stroke-linejoin="round"/>
<path d="M7.99992 17.0001C8.36805 17.0001 8.66659 16.7245 8.66659 16.3847C8.66659 16.0449 8.36805 15.7693 7.99992 15.7693C7.63179 15.7693 7.33325 16.0449 7.33325 16.3847C7.33325 16.7245 7.63179 17.0001 7.99992 17.0001Z" fill="#82848E" stroke="#82848E" stroke-width="1.5" stroke-linecap="round" stroke-linejoin="round"/>
<path d="M7.99992 2.23077C8.36805 2.23077 8.66659 1.95525 8.66659 1.61538C8.66659 1.27552 8.36805 1 7.99992 1C7.63179 1 7.33325 1.27552 7.33325 1.61538C7.33325 1.95525 7.63179 2.23077 7.99992 2.23077Z" fill="#82848E" stroke="#82848E" stroke-width="1.5" stroke-linecap="round" stroke-linejoin="round"/>
</svg>
