<svg id="Moon" xmlns="http://www.w3.org/2000/svg" width="25" height="25" viewBox="0 0 25 25">
  <path id="Path_10092" data-name="Path 10092" d="M12.723,22.86a10.558,10.558,0,0,1-2.879-20.7.657.657,0,0,1,.707.227.631.631,0,0,1,.05.708A8.256,8.256,0,0,0,9.455,7.245a8.367,8.367,0,0,0,8.347,8.36,8.266,8.266,0,0,0,4.067-1.141.629.629,0,0,1,.707.05.645.645,0,0,1,.226.708A10.613,10.613,0,0,1,12.723,22.86Zm-4-18.909A9.255,9.255,0,1,0,21.041,16.293a9.267,9.267,0,0,1-3.3.609A9.656,9.656,0,0,1,8.111,7.253a9.308,9.308,0,0,1,.608-3.3Z"/>
  <rect id="Rectangle_31" data-name="Rectangle 31" width="25" height="25" fill="none"/>
</svg>
