<svg width="24" height="24" viewBox="0 0 24 24" fill="none" xmlns="http://www.w3.org/2000/svg">
<path d="M11.9999 8.39998C12.2207 8.39998 12.3999 8.22089 12.3999 7.99998C12.3999 7.77906 12.2207 7.59998 11.9999 7.59998C11.779 7.59998 11.5999 7.77906 11.5999 7.99998C11.5999 8.22089 11.779 8.39998 11.9999 8.39998Z" fill="#82848E" stroke="#82848E" stroke-width="1.5" stroke-linecap="round" stroke-linejoin="round"/>
<path d="M11.9999 16.4C12.2207 16.4 12.3999 16.2209 12.3999 16C12.3999 15.7791 12.2207 15.6 11.9999 15.6C11.779 15.6 11.5999 15.7791 11.5999 16C11.5999 16.2209 11.779 16.4 11.9999 16.4Z" fill="#82848E" stroke="#82848E" stroke-width="1.5" stroke-linecap="round" stroke-linejoin="round"/>
<path d="M11.9999 12.4C12.2207 12.4 12.3999 12.2209 12.3999 12C12.3999 11.7791 12.2207 11.6 11.9999 11.6C11.779 11.6 11.5999 11.7791 11.5999 12C11.5999 12.2209 11.779 12.4 11.9999 12.4Z" fill="#82848E" stroke="#82848E" stroke-width="1.5" stroke-linecap="round" stroke-linejoin="round"/>
<path d="M12 20C16.4182 20 20 16.4182 20 12C20 7.58172 16.4182 4 12 4C7.58172 4 4 7.58172 4 12C4 16.4182 7.58172 20 12 20Z" stroke="#82848E" stroke-width="1.5" stroke-linecap="round" stroke-linejoin="round"/>
</svg>
