<svg version="1.0" xmlns="http://www.w3.org/2000/svg"
     width="20" height="20" viewBox="0 0 512.000000 512.000000"
 preserveAspectRatio="xMidYMid meet">

<g transform="translate(0.000000,512.000000) scale(0.100000,-0.100000)"
   fill="#82848E" stroke="none">
<path d="M805 5105 c-208 -45 -371 -176 -460 -370 -64 -138 -60 7 -60 -2175 0
-2183 -4 -2037 60 -2175 87 -188 261 -328 460 -370 108 -23 2841 -22 2952 1
230 47 414 212 491 438 l27 81 3 560 3 560 238 240 c207 208 242 249 269 306
45 95 59 196 39 293 -48 235 -231 389 -464 390 l-82 1 -3 850 -3 850 -27 81
c-77 226 -261 391 -491 438 -67 14 -244 16 -1484 15 -1125 0 -1420 -3 -1468
-14z m2967 -318 c73 -36 139 -102 175 -175 l28 -57 3 -920 3 -919 -705 -706
c-469 -469 -710 -717 -720 -740 -19 -48 -126 -596 -126 -650 0 -76 51 -130
129 -137 37 -4 424 65 641 114 15 3 170 150 403 382 l378 376 -3 -395 -3 -395
-27 -56 c-36 -72 -105 -141 -176 -176 l-57 -28 -1430 0 -1430 0 -62 29 c-103
47 -178 141 -202 254 -16 75 -16 3869 0 3944 29 134 119 231 254 274 32 10
330 12 1455 11 l1415 -2 57 -28z m640 -2207 c46 -13 103 -76 118 -130 13 -48
6 -92 -21 -135 -10 -16 -334 -346 -721 -732 l-703 -703 -153 -31 c-85 -17
-156 -28 -159 -26 -2 3 8 72 23 154 l27 148 711 714 c486 487 724 719 751 732
46 21 74 23 127 9z"/>
<path d="M1064 4251 c-53 -32 -74 -68 -74 -125 0 -112 63 -155 225 -156 118 0
176 22 209 79 40 70 12 172 -58 205 -52 25 -260 23 -302 -3z"/>
<path d="M1770 4252 c-49 -26 -84 -97 -75 -153 10 -58 68 -115 127 -124 24 -3
406 -5 849 -3 l806 3 37 29 c39 30 66 78 66 119 0 12 -10 43 -22 67 -43 85 18
80 -923 80 -783 0 -832 -1 -865 -18z"/>
<path d="M1087 3616 c-70 -25 -97 -66 -97 -146 0 -45 4 -55 39 -93 l40 -42
148 -3 c174 -3 200 6 234 84 36 81 6 158 -75 195 -51 23 -229 26 -289 5z"/>
<path d="M1784 3611 c-48 -22 -80 -62 -89 -113 -9 -50 23 -121 67 -148 32 -20
47 -20 873 -20 826 0 841 0 873 20 43 27 76 99 68 149 -8 49 -34 82 -86 109
l-44 22 -811 0 c-768 0 -812 -1 -851 -19z"/>
<path d="M1070 2963 c-107 -54 -107 -212 0 -265 33 -17 111 -18 1214 -18
l1178 0 39 22 c50 28 84 93 75 146 -6 41 -29 76 -70 106 -27 21 -33 21 -1214
24 -1115 2 -1189 1 -1222 -15z"/>
<path d="M1065 2311 c-53 -33 -69 -58 -72 -119 -5 -74 19 -115 83 -143 39 -18
62 -20 169 -17 133 3 154 11 198 69 47 63 20 172 -53 210 -51 28 -281 28 -325
0z"/>
<path d="M1770 2311 c-50 -26 -84 -96 -75 -151 9 -52 55 -106 103 -120 24 -7
168 -10 419 -8 367 3 383 4 409 24 51 37 69 71 69 127 0 39 -6 61 -24 86 -43
60 -50 61 -478 61 -360 0 -391 -1 -423 -19z"/>
</g>
</svg>
