<svg width="20" height="20" viewBox="0 0 20 20" fill="none" xmlns="http://www.w3.org/2000/svg">
<path d="M8.1901 8.38998C7.6201 8.38998 7.1701 8.88998 7.1701 9.49998C7.1701 10.11 7.6301 10.61 8.1901 10.61C8.7601 10.61 9.2101 10.11 9.2101 9.49998C9.2201 8.88998 8.7601 8.38998 8.1901 8.38998ZM11.8401 8.38998C11.2701 8.38998 10.8201 8.88998 10.8201 9.49998C10.8201 10.11 11.2801 10.61 11.8401 10.61C12.4101 10.61 12.8601 10.11 12.8601 9.49998C12.8601 8.88998 12.4101 8.38998 11.8401 8.38998Z" fill="#82848E"/>
<path d="M16.7001 0H3.30006C2.17006 0 1.25006 0.92 1.25006 2.06V15.58C1.25006 16.72 2.17006 17.64 3.30006 17.64H14.6401L14.1101 15.79L15.3901 16.98L16.6001 18.1L18.7501 20V2.06C18.7501 0.92 17.8301 0 16.7001 0ZM12.8401 13.06C12.8401 13.06 12.4801 12.63 12.1801 12.25C13.4901 11.88 13.9901 11.06 13.9901 11.06C13.5801 11.33 13.1901 11.52 12.8401 11.65C12.3401 11.86 11.8601 12 11.3901 12.08C10.5336 12.2377 9.65527 12.2343 8.80006 12.07C8.29798 11.9718 7.80593 11.8278 7.33006 11.64C7.07922 11.5435 6.83531 11.4299 6.60006 11.3C6.57006 11.28 6.54006 11.27 6.51006 11.25C6.49006 11.24 6.48006 11.23 6.47006 11.22C6.29006 11.12 6.19006 11.05 6.19006 11.05C6.19006 11.05 6.67006 11.85 7.94006 12.23C7.64006 12.61 7.27006 13.06 7.27006 13.06C5.06006 12.99 4.22006 11.54 4.22006 11.54C4.22006 8.32 5.66006 5.71 5.66006 5.71C7.10006 4.63 8.47006 4.66 8.47006 4.66L8.57006 4.78C6.77006 5.3 5.94006 6.09 5.94006 6.09C5.94006 6.09 6.16006 5.97 6.53006 5.8C7.60006 5.33 8.45006 5.2 8.80006 5.17C8.86006 5.16 8.91006 5.15 8.97006 5.15C10.7042 4.91529 12.4678 5.24487 14.0001 6.09C14.0001 6.09 13.2101 5.34 11.5101 4.82L11.6501 4.66C11.6501 4.66 13.0201 4.63 14.4601 5.71C14.4601 5.71 15.9001 8.32 15.9001 11.54C15.9001 11.54 15.0501 12.99 12.8401 13.06Z" fill="#82848E"/>
</svg>
