<svg width="70" height="32" viewBox="0 0 70 32" fill="none" xmlns="http://www.w3.org/2000/svg">
<path d="M34.6709 0.319732V31.6802H0.531968V0.319732H34.6709ZM34.9888 0H0.21405V31.9999H34.9888V0.00266298V0Z" fill="#5B48D1"/>
<path d="M16.3062 5.87556V5.84622L16.4096 5.48654C16.4096 5.45188 16.436 5.43593 16.4652 5.43593H16.4996L17.3474 5.72635V4.84974C17.3461 4.84023 17.3471 4.83056 17.3501 4.82145C17.353 4.81234 17.358 4.80403 17.3647 4.79712C17.3713 4.79021 17.3793 4.78489 17.3883 4.78154C17.3972 4.7782 17.4068 4.77692 17.4163 4.7778H17.7686C17.8137 4.7778 17.8349 4.80178 17.8349 4.84974V5.73166L18.6827 5.44125H18.7171C18.7311 5.44164 18.7446 5.44691 18.7552 5.45612C18.7658 5.46532 18.7729 5.47798 18.7754 5.49186L18.8787 5.85159C18.8787 5.86754 18.8787 5.87556 18.8787 5.88088C18.8785 5.89555 18.8738 5.90978 18.8652 5.92169C18.8567 5.93361 18.8448 5.94262 18.831 5.94749L17.9832 6.21393L18.5131 6.93865C18.5238 6.95273 18.5311 6.96918 18.5343 6.9866C18.5334 6.9967 18.5303 7.00644 18.5253 7.01516C18.5202 7.02392 18.5134 7.03145 18.5052 7.03726L18.219 7.24772C18.2015 7.25885 18.1814 7.26525 18.1607 7.26638C18.1507 7.26589 18.1409 7.26269 18.1325 7.25703C18.1241 7.25142 18.1174 7.24359 18.1131 7.23443L17.5832 6.50971L17.0533 7.23443C17.049 7.24359 17.0423 7.25142 17.0339 7.25703C17.0255 7.26269 17.0157 7.26589 17.0056 7.26638C16.9851 7.26456 16.9652 7.25816 16.9473 7.24772L16.6612 7.03726C16.653 7.0316 16.6463 7.02407 16.6417 7.01521C16.6371 7.0064 16.6347 6.9966 16.6347 6.9866C16.6368 6.96883 16.6442 6.95209 16.6559 6.93865L17.1858 6.21393L16.338 5.94749C16.3264 5.93991 16.3171 5.92903 16.3115 5.91628C16.3058 5.90348 16.304 5.88935 16.3062 5.87556Z" fill="#5B48D1"/>
<path d="M21.1096 7.12435V7.09506L21.213 6.73533C21.2149 6.7212 21.2219 6.7083 21.2326 6.699C21.2434 6.68965 21.2571 6.68458 21.2713 6.68472H21.3057L22.1561 6.9805V6.10119C22.1549 6.09169 22.1558 6.08204 22.1588 6.07293C22.1618 6.06382 22.1668 6.0555 22.1734 6.04861C22.18 6.04167 22.1881 6.03635 22.197 6.03301C22.2059 6.02966 22.2155 6.02838 22.225 6.02926H22.58C22.5895 6.02838 22.5991 6.02966 22.608 6.03301C22.6169 6.03635 22.625 6.04167 22.6316 6.04861C22.6383 6.0555 22.6432 6.06382 22.6462 6.07293C22.6492 6.08204 22.6501 6.09169 22.6489 6.10119V6.9805L23.4967 6.69004H23.5285C23.5576 6.69004 23.5761 6.7087 23.5868 6.7407L23.6901 7.10038C23.6913 7.11013 23.6913 7.11997 23.6901 7.12967C23.6898 7.14434 23.6851 7.15862 23.6766 7.17048C23.6681 7.1824 23.6561 7.19141 23.6424 7.19628L22.7946 7.46277L23.3245 8.18749C23.3362 8.20093 23.3436 8.21767 23.3457 8.23544C23.3455 8.24534 23.343 8.25509 23.3384 8.2639C23.3338 8.27266 23.3272 8.28024 23.3192 8.28605L23.0331 8.49656C23.0156 8.50828 22.9956 8.51562 22.9748 8.51788C22.9645 8.5166 22.9548 8.51276 22.9465 8.50671C22.9382 8.50065 22.9314 8.49258 22.9271 8.48322L22.3972 7.7585L21.8673 8.48322C21.8629 8.49258 21.8563 8.50065 21.8479 8.50671C21.8396 8.51276 21.8299 8.5166 21.8197 8.51788C21.7989 8.51512 21.779 8.50784 21.7614 8.49656L21.4752 8.28605C21.4666 8.28074 21.4594 8.2733 21.4543 8.26449C21.4492 8.25563 21.4464 8.24564 21.4461 8.23544C21.4493 8.21797 21.4565 8.20152 21.4673 8.18749L21.9972 7.46277L21.152 7.19628C21.1384 7.19023 21.127 7.18003 21.1194 7.16714C21.1118 7.15424 21.1084 7.13932 21.1096 7.12435Z" fill="#5B48D1"/>
<path d="M24.678 10.7297V10.7004L24.7813 10.3406C24.7832 10.3265 24.7902 10.3136 24.8009 10.3042C24.8117 10.2949 24.8254 10.2899 24.8396 10.29H24.874L25.7191 10.5804V9.69851C25.7179 9.68901 25.7188 9.67931 25.7218 9.6702C25.7248 9.6611 25.7298 9.65278 25.7364 9.64588C25.743 9.63899 25.7511 9.63367 25.76 9.63033C25.7689 9.62698 25.7785 9.6257 25.788 9.62659H26.1404C26.1499 9.6257 26.1594 9.62698 26.1684 9.63033C26.1773 9.63367 26.1854 9.63899 26.192 9.64588C26.1986 9.65278 26.2036 9.6611 26.2066 9.6702C26.2096 9.67931 26.2105 9.68901 26.2093 9.69851V10.5804L27.0544 10.29H27.0888C27.1027 10.2909 27.1159 10.2963 27.1265 10.3054C27.137 10.3146 27.1442 10.3269 27.1471 10.3406L27.2504 10.7004C27.2504 10.7163 27.2504 10.7243 27.2504 10.7297C27.2502 10.7443 27.2455 10.7585 27.2369 10.7705C27.2284 10.7824 27.2165 10.7914 27.2027 10.7963L26.3576 11.0627L26.8875 11.7874C26.8973 11.802 26.9045 11.8183 26.9087 11.8354C26.9078 11.8452 26.905 11.8547 26.9004 11.8633C26.8959 11.8721 26.8897 11.8797 26.8822 11.886L26.5934 12.0965C26.5761 12.1086 26.556 12.1159 26.5351 12.1178C26.5249 12.1166 26.5152 12.1127 26.5068 12.1067C26.4985 12.1006 26.4918 12.0926 26.4874 12.0832L25.9576 11.3585L25.4277 12.0832C25.4233 12.0926 25.4166 12.1006 25.4083 12.1067C25.4 12.1127 25.3902 12.1166 25.38 12.1178C25.3601 12.115 25.3411 12.1077 25.3244 12.0965L25.0356 11.886C25.0272 11.8806 25.0204 11.873 25.0158 11.8642C25.0112 11.8553 25.0089 11.8454 25.0091 11.8354C25.0133 11.8183 25.0205 11.802 25.0303 11.7874L25.5602 11.0627L24.7124 10.7963C24.7011 10.7894 24.6919 10.7796 24.6859 10.7678C24.6798 10.7561 24.677 10.7428 24.678 10.7297Z" fill="#5B48D1"/>
<path d="M26.0236 15.5788V15.5495L26.1269 15.1898C26.1288 15.1756 26.1358 15.1628 26.1466 15.1534C26.1573 15.1441 26.171 15.139 26.1852 15.1392H26.2197L27.0648 15.4296V14.5477C27.0636 14.5382 27.0644 14.5285 27.0674 14.5194C27.0704 14.5102 27.0754 14.5019 27.082 14.495C27.0887 14.4881 27.0967 14.4828 27.1057 14.4795C27.1146 14.4761 27.1242 14.4749 27.1337 14.4757H27.486C27.4955 14.4749 27.5051 14.4761 27.514 14.4795C27.523 14.4828 27.531 14.4881 27.5377 14.495C27.5443 14.5019 27.5493 14.5102 27.5522 14.5194C27.5552 14.5285 27.5562 14.5382 27.5549 14.5477V15.4296L28.4027 15.1392H28.4345C28.4636 15.1392 28.4822 15.1578 28.4927 15.1898L28.5961 15.5495C28.5973 15.5592 28.5973 15.5691 28.5961 15.5788C28.5958 15.5935 28.5911 15.6077 28.5826 15.6196C28.5741 15.6315 28.5622 15.6405 28.5484 15.6454L27.7006 15.9118L28.2305 16.6366C28.2415 16.6505 28.2488 16.667 28.2517 16.6845C28.2515 16.6945 28.249 16.7042 28.2444 16.713C28.2398 16.7218 28.2332 16.7294 28.2252 16.7352L27.9364 16.9456C27.9201 16.9576 27.9009 16.9649 27.8808 16.967C27.8706 16.9657 27.8608 16.9619 27.8525 16.9558C27.8441 16.9498 27.8375 16.9417 27.8331 16.9324L27.3032 16.2076L26.7734 16.9324C26.769 16.9417 26.7623 16.9498 26.754 16.9558C26.7456 16.9619 26.7359 16.9657 26.7257 16.967C26.705 16.9643 26.685 16.957 26.6674 16.9456L26.3813 16.7352C26.3726 16.7298 26.3654 16.7224 26.3603 16.7136C26.3552 16.7047 26.3524 16.6948 26.3521 16.6845C26.3563 16.6674 26.3635 16.6512 26.3733 16.6366L26.9032 15.9118L26.0581 15.6454C26.0468 15.6386 26.0376 15.6287 26.0315 15.617C26.0254 15.6052 26.0227 15.592 26.0236 15.5788Z" fill="#5B48D1"/>
<path d="M24.6772 20.5357V20.5064L24.7806 20.1467C24.7819 20.1324 24.7887 20.1191 24.7996 20.1096C24.8104 20.1002 24.8245 20.0953 24.8389 20.0961H24.8733L25.7184 20.3865V19.5046C25.7184 19.4593 25.7422 19.438 25.7873 19.4353H26.1396C26.149 19.434 26.1585 19.4348 26.1675 19.4379C26.1764 19.4409 26.1846 19.4459 26.1913 19.4527C26.198 19.4594 26.203 19.4675 26.206 19.4765C26.209 19.4856 26.2099 19.4952 26.2085 19.5046V20.3892L27.0536 20.0961H27.0881C27.1021 20.0965 27.1156 20.1017 27.1262 20.111C27.1368 20.1202 27.144 20.1328 27.1464 20.1467L27.2497 20.5064C27.2503 20.5162 27.2503 20.526 27.2497 20.5357C27.2497 20.5501 27.245 20.5642 27.2365 20.5757C27.2279 20.5872 27.2158 20.5956 27.202 20.5996L26.3569 20.8661L26.8868 21.5882C26.8971 21.6034 26.9044 21.6206 26.9079 21.6388C26.9056 21.6584 26.8962 21.6764 26.8814 21.6894L26.5927 21.8999C26.5753 21.9114 26.5551 21.9178 26.5344 21.9185C26.524 21.9179 26.5141 21.9142 26.5056 21.9081C26.4972 21.902 26.4907 21.8936 26.4867 21.8839L25.9568 21.1592L25.427 21.8839C25.423 21.8936 25.4165 21.902 25.4081 21.9081C25.3996 21.9142 25.3896 21.9179 25.3793 21.9185C25.3595 21.917 25.3404 21.9106 25.3237 21.8999L25.0349 21.6894C25.0267 21.6838 25.02 21.6762 25.0154 21.6674C25.0108 21.6586 25.0084 21.6488 25.0084 21.6388C25.0119 21.6206 25.0192 21.6034 25.0296 21.5882L25.5595 20.8661L24.7117 20.5996C24.7004 20.5935 24.6911 20.5842 24.685 20.5728C24.6789 20.5615 24.6762 20.5486 24.6772 20.5357Z" fill="#5B48D1"/>
<path d="M21.1092 24.0977V24.0684L21.2125 23.7087C21.2144 23.6945 21.2214 23.6816 21.2321 23.6723C21.2428 23.663 21.2566 23.6579 21.2708 23.6581H21.3052L22.1504 23.9485V23.0745C22.1491 23.065 22.15 23.0554 22.153 23.0463C22.156 23.0372 22.161 23.0288 22.1676 23.0219C22.1742 23.015 22.1823 23.0097 22.1912 23.0063C22.2002 23.003 22.2097 23.0017 22.2192 23.0026H22.5796C22.5891 23.0017 22.5986 23.003 22.6076 23.0063C22.6165 23.0097 22.6245 23.015 22.6312 23.0219C22.6378 23.0288 22.6428 23.0372 22.6457 23.0463C22.6487 23.0554 22.6497 23.065 22.6484 23.0745V23.9565L23.4962 23.666H23.528C23.5571 23.666 23.5757 23.682 23.5863 23.7167L23.6896 24.0764C23.6908 24.0861 23.6908 24.096 23.6896 24.1057C23.6893 24.1203 23.6846 24.1346 23.6761 24.1465C23.6676 24.1584 23.6556 24.1674 23.6419 24.1723L22.7941 24.4388L23.324 25.1635C23.3358 25.1769 23.3431 25.1937 23.3452 25.2114C23.345 25.2213 23.3425 25.2311 23.3379 25.2399C23.3333 25.2486 23.3267 25.2563 23.3187 25.262L23.0325 25.4725C23.0151 25.4843 22.9952 25.4916 22.9743 25.4939C22.9641 25.4926 22.9543 25.4887 22.946 25.4827C22.9377 25.4766 22.931 25.4686 22.9266 25.4592L22.3967 24.7345L21.8669 25.4592C21.8625 25.4686 21.8558 25.4766 21.8474 25.4827C21.8391 25.4887 21.8294 25.4926 21.8192 25.4939C21.7984 25.4911 21.7786 25.4838 21.7609 25.4725L21.4748 25.262C21.4661 25.2567 21.4589 25.2493 21.4538 25.2405C21.4487 25.2316 21.4459 25.2216 21.4457 25.2114C21.4488 25.194 21.4561 25.1775 21.4668 25.1635L21.9967 24.4388L21.1516 24.1723C21.1375 24.1661 21.1257 24.1555 21.1181 24.142C21.1104 24.1286 21.1073 24.113 21.1092 24.0977Z" fill="#5B48D1"/>
<path d="M16.2979 25.4271V25.3978L16.4012 25.038C16.4012 25.0034 16.4277 24.9874 16.4569 24.9874H16.4913L17.3391 25.2778V24.3959C17.3379 24.3864 17.3388 24.3768 17.3418 24.3677C17.3448 24.3586 17.3497 24.3502 17.3564 24.3433C17.363 24.3364 17.371 24.3311 17.38 24.3277C17.3889 24.3244 17.3985 24.3231 17.408 24.324H17.7603C17.8054 24.324 17.8265 24.348 17.8265 24.3959V25.2778L18.6743 24.9874H18.7088C18.7228 24.9878 18.7362 24.9931 18.7469 25.0023C18.7575 25.0116 18.7646 25.0242 18.7671 25.038L18.8704 25.3978C18.871 25.4075 18.871 25.4173 18.8704 25.4271C18.8704 25.4415 18.8657 25.4555 18.8571 25.467C18.8485 25.4786 18.8364 25.487 18.8227 25.491L17.9749 25.7575L18.5048 26.4822C18.5146 26.4968 18.5218 26.5131 18.526 26.5301C18.5253 26.5406 18.5223 26.5509 18.5173 26.5601C18.5122 26.5693 18.5052 26.5772 18.4968 26.5835L18.2107 26.7913C18.1933 26.803 18.1733 26.8103 18.1524 26.8126C18.142 26.8119 18.1321 26.8082 18.1237 26.8021C18.1152 26.796 18.1087 26.7876 18.1047 26.778L17.5749 26.0532L17.045 26.778C17.0411 26.7876 17.0345 26.796 17.0261 26.8021C17.0177 26.8082 17.0077 26.8119 16.9973 26.8126C16.9767 26.8095 16.9569 26.8022 16.9391 26.7913L16.6529 26.5835C16.6444 26.5775 16.6374 26.5696 16.6328 26.5603C16.6282 26.5509 16.626 26.5406 16.6264 26.5301C16.6293 26.5126 16.6366 26.4961 16.6476 26.4822L17.1775 25.7575L16.3297 25.491C16.3189 25.4845 16.3102 25.475 16.3045 25.4637C16.2989 25.4524 16.2966 25.4397 16.2979 25.4271Z" fill="#5B48D1"/>
<path d="M11.2488 24.0977V24.0684L11.3495 23.7087C11.3495 23.6767 11.3786 23.6581 11.4078 23.6581H11.4422L12.29 23.9485V23.0745C12.2887 23.065 12.2897 23.0554 12.2926 23.0463C12.2956 23.0372 12.3006 23.0288 12.3072 23.0219C12.3138 23.015 12.3219 23.0097 12.3309 23.0063C12.3398 23.003 12.3494 23.0017 12.3589 23.0026H12.7086C12.7181 23.0017 12.7276 23.003 12.7366 23.0063C12.7455 23.0097 12.7536 23.015 12.7602 23.0219C12.7668 23.0288 12.7718 23.0372 12.7748 23.0463C12.7778 23.0554 12.7787 23.065 12.7775 23.0745V23.9565L13.6252 23.666H13.6597C13.6862 23.666 13.7047 23.682 13.718 23.7167L13.8186 24.0764C13.8198 24.0861 13.8198 24.096 13.8186 24.1057C13.8184 24.1203 13.8137 24.1346 13.8051 24.1465C13.7966 24.1584 13.7847 24.1674 13.7709 24.1723L12.9232 24.4388L13.453 25.1635C13.4632 25.1776 13.4696 25.1941 13.4716 25.2114C13.4714 25.2213 13.4688 25.2311 13.4642 25.2399C13.4597 25.2486 13.4531 25.2563 13.4451 25.262L13.1589 25.4725C13.1415 25.4843 13.1215 25.4916 13.1007 25.4939C13.0905 25.4926 13.0807 25.4887 13.0724 25.4827C13.0641 25.4766 13.0574 25.4686 13.053 25.4592L12.5231 24.7345L11.9933 25.4592C11.9889 25.4686 11.9822 25.4766 11.9738 25.4827C11.9655 25.4887 11.9558 25.4926 11.9456 25.4939C11.9249 25.4907 11.9051 25.4835 11.8873 25.4725L11.6012 25.262C11.5925 25.2567 11.5853 25.2493 11.5802 25.2405C11.5751 25.2316 11.5723 25.2216 11.572 25.2114C11.5752 25.194 11.5825 25.1775 11.5932 25.1635L12.1231 24.4388L11.2753 24.1723C11.2641 24.1638 11.2556 24.1522 11.2509 24.139C11.2462 24.1257 11.2455 24.1114 11.2488 24.0977Z" fill="#5B48D1"/>
<path d="M7.72768 20.5357V20.5064L7.82837 20.1467C7.82837 20.1121 7.8575 20.0961 7.88667 20.0961H7.92109L8.76887 20.3865V19.5046C8.76887 19.4593 8.79007 19.438 8.83774 19.4353H9.18745C9.1968 19.434 9.20634 19.4348 9.2153 19.4379C9.22426 19.4409 9.23244 19.4459 9.23909 19.4527C9.2458 19.4594 9.25079 19.4675 9.25383 19.4765C9.25681 19.4856 9.25765 19.4952 9.25632 19.5046V20.3892L10.1041 20.0961H10.1386C10.1651 20.0961 10.1836 20.1121 10.1968 20.1467L10.2975 20.5064C10.299 20.5161 10.299 20.526 10.2975 20.5357C10.2975 20.5501 10.2929 20.5642 10.2842 20.5757C10.2757 20.5872 10.2636 20.5956 10.2498 20.5996L9.40205 20.8661L9.9319 21.5882C9.94193 21.6034 9.9483 21.6207 9.95045 21.6388C9.94986 21.6487 9.94722 21.6583 9.94267 21.667C9.93807 21.6757 9.9317 21.6834 9.92397 21.6894L9.63785 21.8999C9.62032 21.911 9.60025 21.9174 9.57955 21.9185C9.56917 21.9179 9.55923 21.9142 9.55077 21.9081C9.54235 21.902 9.53579 21.8936 9.53187 21.8839L9.00202 21.1592L8.47213 21.8839C8.46821 21.8936 8.46165 21.902 8.45323 21.9081C8.44481 21.9142 8.43483 21.9179 8.42445 21.9185C8.40389 21.9167 8.38402 21.9104 8.3662 21.8999L8.08003 21.6894C8.07186 21.6838 8.0652 21.6762 8.06055 21.6674C8.05595 21.6586 8.05355 21.6488 8.05355 21.6388C8.05575 21.6207 8.06211 21.6034 8.0721 21.5882L8.60195 20.8661L7.75421 20.5996C7.74437 20.5925 7.73669 20.5827 7.73204 20.5714C7.72734 20.5602 7.72587 20.5478 7.72768 20.5357Z" fill="#5B48D1"/>
<path d="M6.43737 15.5788V15.5495L6.54071 15.1898C6.54203 15.1759 6.54844 15.163 6.55872 15.1536C6.56905 15.1442 6.58241 15.1391 6.59632 15.1392H6.63078L7.47856 15.4296V14.5477C7.47729 14.5382 7.47822 14.5285 7.4812 14.5194C7.48419 14.5102 7.48918 14.5019 7.49579 14.495C7.5024 14.4881 7.51048 14.4828 7.51943 14.4795C7.52834 14.4761 7.53794 14.4749 7.54743 14.4757H7.89978C7.94482 14.4757 7.96602 14.4997 7.96602 14.5477V15.4296L8.8138 15.1392H8.84821C8.86211 15.14 8.87533 15.1454 8.88586 15.1546C8.89638 15.1637 8.90362 15.1761 8.90651 15.1898L9.00985 15.5495C9.00985 15.5655 9.00985 15.5735 9.00985 15.5788C9.0096 15.5935 9.0049 15.6077 8.99639 15.6196C8.98782 15.6315 8.97588 15.6405 8.96217 15.6454L8.11439 15.9118L8.64423 16.6366C8.65407 16.6512 8.66122 16.6674 8.66543 16.6845C8.66455 16.6946 8.66146 16.7044 8.65642 16.7131C8.65138 16.7218 8.64453 16.7294 8.6363 16.7352L8.35013 16.9456C8.33271 16.9574 8.31274 16.9647 8.29188 16.967C8.28165 16.9657 8.27196 16.9619 8.26359 16.9558C8.25527 16.9498 8.24856 16.9417 8.2442 16.9324L7.71431 16.2076L7.18446 16.9324C7.18006 16.9417 7.1734 16.9498 7.16503 16.9558C7.15671 16.9619 7.14697 16.9657 7.13678 16.967C7.11613 16.9639 7.0963 16.9566 7.07848 16.9456L6.79236 16.7352C6.78404 16.7297 6.77719 16.7222 6.77259 16.7133C6.76794 16.7045 6.76564 16.6946 6.76588 16.6845C6.76872 16.667 6.77606 16.6505 6.78708 16.6366L7.31692 15.9118L6.46914 15.6454C6.45837 15.6382 6.44971 15.6282 6.44413 15.6165C6.4385 15.6048 6.4362 15.5917 6.43737 15.5788Z" fill="#5B48D1"/>
<path d="M7.72718 10.7297V10.7004L7.82783 10.3406C7.82783 10.3087 7.85695 10.29 7.88613 10.29H7.92054L8.76832 10.5804V9.69851C8.7671 9.68901 8.76803 9.67931 8.77101 9.6702C8.774 9.6611 8.77894 9.65278 8.7856 9.64588C8.79221 9.63899 8.80029 9.63367 8.8092 9.63033C8.81816 9.62698 8.8277 9.6257 8.8372 9.62659H9.1869C9.23463 9.62659 9.25583 9.65056 9.25583 9.69851V10.5804L10.1036 10.29H10.138C10.1645 10.29 10.1831 10.3087 10.1963 10.3406L10.297 10.7004C10.2982 10.7101 10.2982 10.7199 10.297 10.7297C10.2967 10.7443 10.292 10.7585 10.2835 10.7705C10.275 10.7824 10.263 10.7914 10.2493 10.7963L9.4015 11.0627L9.9314 11.7874C9.94085 11.8019 9.94716 11.8182 9.9499 11.8354C9.94971 11.8453 9.94721 11.8551 9.94261 11.8638C9.93801 11.8726 9.93145 11.8802 9.92342 11.886L9.6373 12.0965C9.61987 12.1083 9.59985 12.1155 9.579 12.1178C9.56882 12.1166 9.55908 12.1127 9.55076 12.1067C9.54239 12.1006 9.53573 12.0926 9.53132 12.0832L9.00148 11.3585L8.47163 12.0832C8.46723 12.0926 8.46052 12.1006 8.4522 12.1067C8.44388 12.1127 8.43413 12.1166 8.4239 12.1178C8.4033 12.1147 8.38347 12.1075 8.36565 12.0965L8.07953 11.886C8.07116 11.8806 8.06436 11.873 8.05971 11.8642C8.05506 11.8553 8.05276 11.8454 8.053 11.8354C8.05574 11.8182 8.06206 11.8019 8.07155 11.7874L8.60145 11.0627L7.75367 10.7963C7.74383 10.7884 7.73619 10.7782 7.73154 10.7665C7.72689 10.7548 7.72537 10.7421 7.72718 10.7297Z" fill="#5B48D1"/>
<path d="M11.1874 7.12435V7.09506L11.2907 6.73533C11.2921 6.72145 11.2985 6.70855 11.3087 6.6992C11.3191 6.68984 11.3324 6.68467 11.3463 6.68472H11.3808L12.2471 6.9805V6.10119C12.2459 6.09169 12.2468 6.08204 12.2498 6.07293C12.2528 6.06382 12.2578 6.0555 12.2644 6.04861C12.271 6.04167 12.279 6.03635 12.288 6.03301C12.2969 6.02966 12.3065 6.02838 12.316 6.02926H12.6684C12.7134 6.02926 12.7346 6.05324 12.7346 6.10119V6.9805L13.5824 6.69004H13.6168C13.6307 6.69093 13.6439 6.69634 13.6544 6.7055C13.665 6.71461 13.6722 6.72701 13.6751 6.7407L13.7784 7.10038C13.7784 7.11638 13.7784 7.12435 13.7784 7.12967C13.7781 7.14434 13.7734 7.15862 13.7649 7.17048C13.7564 7.1824 13.7444 7.19141 13.7307 7.19628L12.883 7.46277L13.4128 8.18749C13.4235 8.20152 13.4308 8.21797 13.434 8.23544C13.4331 8.24549 13.43 8.25523 13.425 8.264C13.42 8.27271 13.4131 8.28024 13.4048 8.28605L13.1187 8.49656C13.1013 8.50828 13.0813 8.51562 13.0605 8.51788C13.0502 8.5166 13.0405 8.51276 13.0322 8.50671C13.0238 8.50065 13.0171 8.49258 13.0127 8.48322L12.4829 7.7585L11.953 8.48322C11.9486 8.49258 11.942 8.50065 11.9336 8.50671C11.9253 8.51276 11.9155 8.5166 11.9054 8.51788C11.8847 8.51473 11.8649 8.50749 11.8471 8.49656L11.5609 8.28605C11.5526 8.28059 11.5458 8.27306 11.5411 8.26419C11.5365 8.25533 11.5342 8.24544 11.5345 8.23544C11.5365 8.21767 11.5439 8.20093 11.5557 8.18749L12.0855 7.46277L11.2377 7.19628C11.2226 7.1916 11.2095 7.182 11.2004 7.16896C11.1912 7.15596 11.1867 7.14026 11.1874 7.12435Z" fill="#5B48D1"/>
<path d="M69.7614 0.00268555H34.9865V31.9999H69.7614V0.00268555Z" fill="#5B48D1"/>
<path d="M42.6057 11.0898H43.6469V10.7994H42.6057V10.0533H43.9939V9.76291H42.3143V12.2835H42.6057V11.0898Z" fill="#FCFDFF" stroke="#FCFDFF" stroke-width="0.58" stroke-miterlimit="10"/>
<path d="M45.9998 9.76291L45.0991 12.2835H45.409L45.6739 11.5241H46.5747L46.8397 12.2835H47.1496L46.2356 9.76291H45.9998ZM45.7641 11.239L46.1164 10.2052L46.4688 11.239H45.7641Z" fill="#FCFDFF" stroke="#FCFDFF" stroke-width="0.58" stroke-miterlimit="10"/>
<path d="M49.9078 11.993H49.3302V10.0533H49.8892V9.76291H48.4771V10.0533H49.036V11.993H48.4586V12.2835H49.9078V11.993Z" fill="#FCFDFF" stroke="#FCFDFF" stroke-width="0.58" stroke-miterlimit="10"/>
<path d="M51.7592 11.2441H52.4323L52.888 12.2939H53.2135L52.7264 11.1908L52.933 11.0816L53.1078 10.8151L53.2032 10.4688L53.0999 10.109L52.8351 9.84259L52.5091 9.75732H51.4572V12.2779H51.7489L51.7592 11.2441ZM51.7592 10.0637H52.4797L52.6863 10.125L52.8376 10.2769L52.8983 10.4901L52.8376 10.6979L52.7367 10.8498L52.5248 10.9537H51.7592V10.0637Z" fill="#FCFDFF" stroke="#FCFDFF" stroke-width="0.58" stroke-miterlimit="10"/>
<path d="M43.8138 15.2835L43.5701 15.033L43.1754 14.8785H42.2534V17.3991H43.1754L43.5701 17.2445L43.8138 16.9967L43.9675 16.6823L44.047 16.3706V15.907L43.9675 15.5952L43.8138 15.2835ZM43.7529 16.3493L43.6867 16.6157L43.5701 16.8448L43.4085 17.0127L43.1171 17.1326H42.5475V15.1929H43.1224L43.4032 15.3101L43.5701 15.4807L43.6893 15.7098L43.7529 15.9763V16.3493Z" fill="#FCFDFF" stroke="#FCFDFF" stroke-width="0.58" stroke-miterlimit="10"/>
<path d="M45.9998 14.8785L45.0991 17.3991H45.409L45.6739 16.6397H46.5747L46.8397 17.3991H47.1496L46.2356 14.8785H45.9998ZM45.7641 16.3546L46.1164 15.3208L46.4688 16.3546H45.7641Z" fill="#FCFDFF" stroke="#FCFDFF" stroke-width="0.58" stroke-miterlimit="10"/>
<path d="M49.0303 17.3991H49.3215V15.1689H50.1429V14.8785H48.2221V15.1689H49.0303V17.3991Z" fill="#FCFDFF" stroke="#FCFDFF" stroke-width="0.58" stroke-miterlimit="10"/>
<path d="M52.138 14.8785L51.2241 17.3991H51.5339L51.7987 16.6397H52.7024L52.9672 17.3991H53.2771L52.3631 14.8785H52.138ZM51.8996 16.3546L52.252 15.3208L52.6069 16.3546H51.8996Z" fill="#FCFDFF" stroke="#FCFDFF" stroke-width="0.58" stroke-miterlimit="10"/>
<path d="M43.5297 21.2093L42.7853 21.0042L42.6051 20.8736L42.5601 20.7963L42.5283 20.6391L42.5813 20.4553L42.7111 20.3247L42.923 20.2555H43.2012L43.5191 20.3407L43.7205 20.4606L43.8794 20.2128L43.6489 20.0716L43.2409 19.965H42.87L42.5468 20.0716L42.3216 20.3087L42.2263 20.6098L42.2739 20.9029L42.3905 21.0894L42.6555 21.2786L43.3761 21.4757L43.5403 21.5716L43.6225 21.7342V21.9474L43.5721 22.0513L43.4873 22.1499L43.2224 22.2538H42.9204L42.6025 22.1578L42.4567 22.0593L42.3905 21.974L42.1786 22.1792L42.2607 22.2778L42.4726 22.4269L42.8568 22.5442H43.2727L43.6569 22.403L43.8264 22.2058L43.9139 22.0166V21.6703L43.8026 21.3985L43.5297 21.2093Z" fill="#FCFDFF" stroke="#FCFDFF" stroke-width="0.58" stroke-miterlimit="10"/>
<path d="M46.8708 20.33L46.6191 20.0929L46.2668 19.965H45.9648L45.6124 20.0929L45.3607 20.33L45.1991 20.6471L45.1276 20.9668V21.5237L45.1964 21.8381L45.3634 22.1685L45.6018 22.4136L45.9621 22.5522H46.28L46.6403 22.4136L46.8788 22.1685L47.0404 21.8461L47.1092 21.5317V20.9748L47.0377 20.6551L46.8708 20.33ZM46.8099 21.4917L46.7542 21.7582L46.6297 22.0033L46.4708 22.1605L46.2059 22.2564H45.9992L45.7475 22.1605L45.5886 22.0033L45.4641 21.7582L45.4084 21.4917V20.9908L45.4614 20.7537L45.5912 20.4872L45.7581 20.3354L45.9992 20.2501H46.2059L46.4496 20.3354L46.6139 20.4872L46.7436 20.7537L46.7966 20.9908L46.8099 21.4917Z" fill="#FCFDFF" stroke="#FCFDFF" stroke-width="0.58" stroke-miterlimit="10"/>
<path d="M48.6376 20.7776L48.7568 20.5405L48.9264 20.37L49.1782 20.2555H49.4562L49.7211 20.37L49.8297 20.4579L49.9516 20.5965L50.1611 20.3993L50.0231 20.2341L49.8645 20.1116L49.4988 19.965H49.1278L48.7568 20.1276L48.5131 20.3674L48.3594 20.6817L48.2932 20.9935V21.5157L48.3594 21.8195L48.5131 22.1365L48.7489 22.3763L49.1278 22.5442H49.4988L49.8645 22.3976L50.0231 22.2751L50.1611 22.1099L49.9516 21.9127L49.8327 22.0513L49.724 22.1392L49.4562 22.2538H49.1782L48.9237 22.1339L48.7568 21.9633L48.6376 21.7289L48.5846 21.4917V21.0148L48.6376 20.7776Z" fill="#FCFDFF" stroke="#FCFDFF" stroke-width="0.58" stroke-miterlimit="10"/>
<path d="M52.3973 20.2839H52.9593V19.9934H51.5446V20.2839H52.1036V22.2236H51.526V22.514H52.975V22.2236H52.3973V20.2839Z" fill="#FCFDFF" stroke="#FCFDFF" stroke-width="0.58" stroke-miterlimit="10"/>
<path d="M54.5889 22.514H56.1974V22.2236H54.8806V21.3203H55.8024V21.0272H54.8806V20.2839H56.1974V19.9934H54.5889V22.514Z" fill="#FCFDFF" stroke="#FCFDFF" stroke-width="0.58" stroke-miterlimit="10"/>
<path d="M57.4283 20.2839H58.2335V22.514H58.5277V20.2839H59.3491V19.9934H57.4283V20.2839Z" fill="#FCFDFF" stroke="#FCFDFF" stroke-width="0.58" stroke-miterlimit="10"/>
<path d="M62.141 19.9934L61.4577 21.0965L60.7743 19.9934H60.4243L61.3118 21.387V22.514H61.6035V21.387L62.491 19.9934H62.141Z" fill="#FCFDFF" stroke="#FCFDFF" stroke-width="0.58" stroke-miterlimit="10"/>
</svg>
