<svg width="20" height="20" viewBox="0 0 20 20" fill="none" xmlns="http://www.w3.org/2000/svg">
<g clip-path="url(#clip0_3416_93755)">
<path fill-rule="evenodd" clip-rule="evenodd" d="M10.0001 0C4.47506 0 6.10352e-05 4.475 6.10352e-05 10C6.10352e-05 14.425 2.86256 18.1625 6.83756 19.4875C7.33756 19.575 7.52506 19.275 7.52506 19.0125C7.52506 18.775 7.51256 17.9875 7.51256 17.15C5.00006 17.6125 4.35006 16.5375 4.15006 15.975C4.03756 15.6875 3.55006 14.8 3.12506 14.5625C2.77506 14.375 2.27506 13.9125 3.11256 13.9C3.90006 13.8875 4.46256 14.625 4.65006 14.925C5.55006 16.4375 6.98756 16.0125 7.56256 15.75C7.65006 15.1 7.91256 14.6625 8.20006 14.4125C5.97506 14.1625 3.65006 13.3 3.65006 9.475C3.65006 8.3875 4.03756 7.4875 4.67506 6.7875C4.57506 6.5375 4.22506 5.5125 4.77506 4.1375C4.77506 4.1375 5.61256 3.875 7.52506 5.1625C8.32506 4.9375 9.17506 4.825 10.0251 4.825C10.8751 4.825 11.7251 4.9375 12.5251 5.1625C14.4376 3.8625 15.2751 4.1375 15.2751 4.1375C15.8251 5.5125 15.4751 6.5375 15.3751 6.7875C16.0126 7.4875 16.4001 8.375 16.4001 9.475C16.4001 13.3125 14.0626 14.1625 11.8376 14.4125C12.2001 14.725 12.5126 15.325 12.5126 16.2625C12.5126 17.6 12.5001 18.675 12.5001 19.0125C12.5001 19.275 12.6876 19.5875 13.1876 19.4875C15.1727 18.8173 16.8977 17.5414 18.1198 15.8395C19.3419 14.1375 19.9995 12.0952 20.0001 10C20.0001 4.475 15.5251 0 10.0001 0Z" fill="#5B48D1"/>
</g>
<defs>
<clipPath id="clip0_3416_93755">
<rect width="20" height="20" fill="white"/>
</clipPath>
</defs>
</svg>
