<svg width="145" height="24" viewBox="0 0 145 24" fill="none" xmlns="http://www.w3.org/2000/svg">
<path d="M35.1622 4.18042V16.7902H41.5305V20.0207H31.4609V4.18042H35.1622Z" fill="#82848E"/>
<path d="M46.1678 7.35962H42.8256V20.0207H46.1678V7.35962Z" fill="#82848E"/>
<path d="M51.4676 7.35963V9.12251H51.5402C51.9142 8.43351 52.4879 7.87409 53.1857 7.51795C53.8285 7.19214 54.5382 7.02073 55.2586 7.01732C56.0103 6.99097 56.7594 7.11912 57.4597 7.39386C57.9962 7.62094 58.4635 7.98545 58.8146 8.45073C59.1612 8.94082 59.3988 9.49966 59.5113 10.0895C59.6484 10.7943 59.7142 11.511 59.7079 12.2289V20.0164H56.3656V12.8708C56.417 12.0628 56.2548 11.2555 55.8955 10.5302C55.7116 10.2636 55.4594 10.0513 55.1653 9.91581C54.8713 9.78029 54.5463 9.72649 54.2243 9.76006C53.8496 9.72844 53.4728 9.79002 53.1276 9.93932C52.7824 10.0886 52.4793 10.321 52.2454 10.6158C51.818 11.1806 51.6343 12.1091 51.6343 13.3971V20.0207H48.2963V7.35963H51.4676Z" fill="#82848E"/>
<path d="M69.7945 20.0207V18.2578H69.7262C69.3461 18.9002 68.7668 19.4005 68.0764 19.6827C67.4321 20.0033 66.723 20.1717 66.0035 20.1747C65.2527 20.1992 64.5045 20.0741 63.8024 19.8068C63.2645 19.5903 62.796 19.2307 62.4475 18.767C62.1022 18.3433 61.8633 17.843 61.7509 17.3079C61.6138 16.6032 61.5479 15.8864 61.5543 15.1685V7.35962H64.8965V14.5096C64.8452 15.3175 65.0073 16.1248 65.3667 16.8501C65.5506 17.1168 65.8027 17.329 66.0968 17.4645C66.3908 17.6 66.7159 17.6538 67.0378 17.6203C67.4125 17.6519 67.7893 17.5903 68.1345 17.441C68.4797 17.2917 68.7828 17.0593 69.0167 16.7645C69.4441 16.1997 69.6279 15.2755 69.6279 13.9833V7.35962H72.9744V20.0207H69.7945Z" fill="#82848E"/>
<path d="M78.2486 7.35963V9.07116H78.2956C78.702 8.44934 79.2461 7.92957 79.8855 7.55217C80.5367 7.18393 81.2748 6.99772 82.0225 7.01304C82.7509 7.00413 83.4717 7.1622 84.1296 7.47515C84.7995 7.82393 85.3159 8.40956 85.5785 9.11823C85.9655 8.53536 86.4654 8.03627 87.0488 7.65059C87.699 7.21535 88.468 6.99261 89.2499 7.01304C89.8548 7.01372 90.4565 7.10162 91.0364 7.27405C91.5619 7.42258 92.046 7.69055 92.4511 8.05708C92.8619 8.44816 93.1752 8.93035 93.3657 9.46481C93.6032 10.1376 93.7162 10.8481 93.6991 11.5614V20.0335H90.3526V12.8365C90.3526 12.4087 90.3526 12.0107 90.3056 11.6385C90.2859 11.298 90.1987 10.9649 90.0491 10.6586C89.9081 10.3828 89.6917 10.1528 89.4251 9.99539C89.0798 9.81692 88.6935 9.73279 88.3053 9.7515C87.9057 9.73317 87.5093 9.83127 87.1642 10.0339C86.878 10.2158 86.6426 10.4676 86.4803 10.7656C86.3074 11.0858 86.1958 11.4355 86.1512 11.7968C86.0947 12.1821 86.0661 12.5711 86.0657 12.9606V20.0207H82.7235V12.9178C82.7235 12.5413 82.7235 12.1733 82.6978 11.8053C82.6874 11.4575 82.621 11.1137 82.5012 10.787C82.3856 10.4841 82.1797 10.2241 81.9114 10.0425C81.5438 9.82969 81.1212 9.73137 80.6976 9.76005C80.4854 9.76796 80.2754 9.8054 80.0736 9.8713C79.7947 9.95728 79.5379 10.1033 79.3214 10.2992C79.0492 10.5417 78.8357 10.8432 78.6974 11.1806C78.5056 11.6587 78.4168 12.172 78.4366 12.6868V20.0207H75.0944V7.35963H78.2486Z" fill="#82848E"/>
<path d="M99.3194 4.18042V16.7902H105.688V20.0207H95.6224V4.18042H99.3194Z" fill="#82848E"/>
<path d="M115.159 20.0507L118.407 20.0207C118.407 20.0207 118.364 17.7743 118.364 17.2052V10.6158C118.397 9.96283 118.224 9.31606 117.869 8.76738C117.539 8.30242 117.098 7.92736 116.586 7.67628C116.049 7.40907 115.471 7.23131 114.877 7.14998C114.26 7.06157 113.637 7.01724 113.013 7.01733C112.337 7.01743 111.663 7.08624 111 7.22272C110.365 7.35109 109.757 7.58696 109.201 7.92017C108.622 8.26413 108.141 8.75135 107.804 9.33506C107.467 9.91876 107.286 10.5793 107.278 11.2534H110.624C110.626 10.9757 110.685 10.7014 110.798 10.448C110.912 10.1946 111.076 9.96756 111.282 9.78146C111.739 9.47005 112.286 9.31953 112.838 9.35358C113.123 9.34964 113.407 9.36968 113.689 9.41348C113.931 9.44573 114.164 9.52884 114.372 9.65738C114.572 9.78371 114.734 9.96093 114.843 10.1708C114.975 10.4497 115.036 10.7568 115.022 11.0651C115.038 11.2166 115.019 11.3698 114.966 11.5125C114.912 11.6551 114.826 11.7833 114.714 11.8867C114.453 12.0952 114.147 12.2415 113.821 12.3145C113.4 12.4199 112.971 12.4942 112.539 12.537C112.052 12.5841 111.556 12.6483 111.056 12.7296C110.551 12.8129 110.052 12.9243 109.56 13.0633C109.081 13.1905 108.629 13.4036 108.226 13.6923C107.83 13.9839 107.508 14.365 107.286 14.8048C107.023 15.3585 106.896 15.9676 106.919 16.5805C106.901 17.1675 107.01 17.7513 107.239 18.2921C107.447 18.6859 107.755 19.018 108.132 19.2548C108.52 19.5726 108.97 19.8058 109.453 19.9394C109.981 20.0922 110.528 20.1672 111.077 20.1619C111.828 20.1615 112.575 20.0461 113.291 19.8196C114 19.6584 114.652 19.3063 115.176 18.8013C115.176 19.0152 115.176 19.4431 115.176 19.4431L115.159 20.0507ZM115.022 15.1215C115.017 15.3834 114.997 15.6448 114.962 15.9045C114.919 16.2453 114.812 16.5749 114.646 16.8758C114.453 17.213 114.176 17.4945 113.842 17.693C113.375 17.9487 112.844 18.0673 112.312 18.0353C112.057 18.0389 111.802 18.0174 111.552 17.9712C111.317 17.9307 111.093 17.8434 110.893 17.7144C110.703 17.5897 110.548 17.4171 110.445 17.2138C110.328 16.9697 110.273 16.7011 110.282 16.4308C110.27 16.152 110.325 15.8744 110.445 15.6221C110.546 15.4172 110.692 15.2374 110.872 15.0958C111.064 14.9502 111.28 14.8374 111.509 14.762C111.752 14.6808 112.001 14.6165 112.253 14.5695C112.518 14.5181 112.782 14.4796 113.052 14.4454C113.321 14.4112 113.573 14.3727 113.817 14.3213C114.049 14.2778 114.278 14.2163 114.501 14.1373C114.697 14.0745 114.877 13.971 115.031 13.8335L115.022 15.1215Z" fill="#82848E"/>
<path d="M132.259 10.6971C132.006 9.93959 131.61 9.23792 131.092 8.63039C130.657 8.11195 130.115 7.6944 129.502 7.40664C128.931 7.15168 128.312 7.01906 127.686 7.01727C126.937 7.01565 126.196 7.17011 125.51 7.47083C124.822 7.76283 124.24 8.26232 123.848 8.89996H123.801V4.19324H120.459V20.0249H123.638V18.399H123.685C124.029 19.0268 124.602 19.4974 125.284 19.7126C126.049 20.011 126.865 20.1563 127.686 20.1405C128.312 20.1371 128.931 20.003 129.502 19.7468C130.12 19.4695 130.67 19.0607 131.114 18.5487C131.62 18.0142 132.01 17.3804 132.259 16.6874C132.577 15.7218 132.729 14.7089 132.708 13.6923C132.729 12.6756 132.577 11.6629 132.259 10.6971ZM129.199 15.2412C129.1 15.6958 128.923 16.13 128.678 16.5248C128.453 16.8839 128.15 17.1881 127.793 17.4148C127.4 17.6325 126.959 17.7467 126.511 17.7467C126.062 17.7467 125.621 17.6325 125.228 17.4148C124.865 17.1904 124.559 16.8842 124.335 16.5206C124.089 16.1257 123.913 15.6915 123.814 15.2369C123.705 14.738 123.65 14.2286 123.651 13.7179C123.65 13.2001 123.704 12.6836 123.814 12.1775C123.913 11.7229 124.089 11.2887 124.335 10.8939C124.555 10.5178 124.861 10.1996 125.228 9.96539C125.621 9.74773 126.062 9.63354 126.511 9.63354C126.959 9.63354 127.4 9.74773 127.793 9.96539C128.149 10.1939 128.45 10.4995 128.673 10.8597C128.919 11.2545 129.096 11.6887 129.195 12.1433C129.304 12.6494 129.359 13.1659 129.357 13.6837C129.361 14.2 129.308 14.7151 129.199 15.2198V15.2412Z" fill="#82848E"/>
<path d="M137.123 16.8757C137.263 17.1384 137.46 17.3664 137.7 17.5432C137.944 17.7199 138.22 17.849 138.512 17.924C138.823 18.0054 139.144 18.0456 139.465 18.0438C139.708 18.0467 139.95 18.0223 140.187 17.9711C140.437 17.9196 140.676 17.8286 140.897 17.7015C141.108 17.5813 141.289 17.4144 141.427 17.2137C141.574 16.9846 141.647 16.7157 141.636 16.4435C141.636 15.9215 141.303 15.5279 140.636 15.2669C139.727 14.9366 138.794 14.6749 137.845 14.4838C137.358 14.3683 136.884 14.2357 136.422 14.0773C135.982 13.9352 135.566 13.7291 135.187 13.4655C134.834 13.2161 134.541 12.8898 134.332 12.5113C134.099 12.0796 133.986 11.5937 134.003 11.1035C133.973 10.4057 134.131 9.71266 134.46 9.09677C134.752 8.58626 135.17 8.15909 135.674 7.85591C136.202 7.54506 136.781 7.33063 137.384 7.22264C138.019 7.09836 138.664 7.03674 139.311 7.03865C139.956 7.03699 140.599 7.10151 141.23 7.2312C141.819 7.35197 142.382 7.57653 142.893 7.89442C143.384 8.21152 143.799 8.63389 144.107 9.131C144.452 9.7242 144.65 10.392 144.684 11.0779H141.504C141.512 10.8067 141.449 10.5381 141.321 10.2992C141.193 10.0602 141.004 9.85948 140.773 9.7172C140.292 9.47133 139.757 9.34927 139.217 9.36206C139.013 9.36302 138.809 9.37588 138.606 9.40057C138.4 9.42228 138.198 9.47568 138.008 9.55888C137.827 9.63817 137.669 9.76003 137.546 9.91403C137.402 10.1245 137.337 10.3792 137.363 10.6331C137.389 10.8869 137.504 11.1234 137.687 11.3004C137.939 11.5121 138.229 11.6733 138.542 11.7753C138.939 11.9116 139.345 12.0231 139.756 12.1091C140.213 12.2032 140.675 12.3102 141.145 12.4257C141.626 12.543 142.102 12.6859 142.568 12.8536C143.012 13.006 143.43 13.2253 143.807 13.504C144.16 13.7747 144.452 14.1175 144.662 14.5095C144.895 14.9675 145.008 15.4766 144.991 15.99C145.017 16.6607 144.849 17.3247 144.508 17.9026C144.2 18.4472 143.768 18.9118 143.248 19.259C142.704 19.6001 142.101 19.8339 141.47 19.9479C140.799 20.0887 140.116 20.159 139.431 20.1576C138.735 20.1595 138.042 20.0849 137.362 19.9351C136.721 19.8039 136.11 19.5559 135.559 19.2034C135.034 18.8532 134.595 18.3879 134.276 17.8427C133.916 17.2605 133.723 16.5895 133.721 15.9044H136.901C136.891 16.2419 136.967 16.5762 137.123 16.8757Z" fill="#82848E"/>
<path d="M27.5118 16.5933L23.7507 10.0724L23.5797 9.77714H20.5152L21.8829 7.40667L22.0496 7.11143L21.8829 6.81619L18.1132 0.29524L17.9508 0H9.74046L9.5695 0.29524L5.80838 6.81619L5.63742 7.11143L5.80838 7.40667L7.17606 9.77714H4.10305L3.93209 10.0724L0.17096 16.5933L0 16.8886L0.17096 17.1838L3.93209 23.7048L4.10305 24H12.3049L12.4758 23.7048L13.8392 21.3343L15.2069 23.7048L15.3779 24H23.5797L23.7507 23.7048L27.5118 17.1838L27.6827 16.8886L27.5118 16.5933ZM16.0788 10.2992V10.2692L17.6046 7.22696H20.8401L19.0236 10.2992H16.0788ZM19.498 10.8083L22.7463 16.7303H19.5536L17.173 12.3658L16.3182 10.7869L19.498 10.8083ZM15.6172 10.1836L13.8264 13.4869H10.8346L14.1042 7.22696H17.1388L15.6172 10.1836ZM10.4884 13.1788L8.89421 10.5302L12.1937 4.27884L13.7837 7.03013L10.4884 13.1788ZM10.1807 13.4484H6.33408L4.79116 10.7698L8.63777 10.834L10.1807 13.4484ZM10.5611 13.8506H10.6124L13.8521 13.8891L14.7624 15.6648L15.271 16.6875L8.16336 16.5933L6.61189 13.8335L10.5611 13.8506ZM15.0915 15.4894L14.2154 13.6923L15.7796 10.6586H15.8138L16.831 12.5156L19.1903 16.9699L17.4807 20.0806L16.2412 17.7272L15.0915 15.4894ZM17.6559 20.624L19.6262 17.1667L19.6604 17.1153H22.7847L19.4938 23.0629L16.2412 23.1057L17.6559 20.624ZM19.9895 10.8083H23.101L26.4988 16.7303H23.896H23.1822L19.9895 10.8083ZM17.4721 6.84614H14.1042L12.5143 4.08629H19.186L20.8272 6.84614H17.4721ZM12.2963 3.71403L11.8518 2.99519L10.5696 0.889998H17.3696L18.9723 3.70547L12.2963 3.71403ZM11.5398 3.20057L11.9672 3.91514L8.6164 10.158L6.79567 7.03013L10.2149 1.07399L11.5398 3.20057ZM7.83853 16.7773L6.23578 19.5415L2.87641 13.795L4.47489 10.9453L7.83853 16.7773ZM6.02635 19.918L5.79983 20.3459L4.45352 22.849L1.03431 16.9485L2.64988 14.1672L6.02635 19.918ZM4.80398 23.08L6.12893 20.5127L6.35972 20.0849H13.3178L11.6296 23.0415L4.80398 23.08ZM6.56915 19.7254L8.15908 16.9656L14.9975 17.0811L13.3947 19.7254H6.56915ZM15.4548 17.1153L15.9036 17.8941L17.2499 20.5384L15.9079 22.9517L14.023 19.5842L15.4548 17.1153ZM19.9041 23.0544L23.2762 17.1153H23.8917L26.5031 17.1453L23.0796 23.0715L19.9041 23.0544Z" fill="#82848E"/>
</svg>
