<svg width="85" height="21" viewBox="0 0 85 21" fill="none" xmlns="http://www.w3.org/2000/svg">
<path d="M20.1747 18.5549H22.2511V13.7195H27.014V11.991H22.2511V8.90082H27.5177V7.1723H20.1747V18.5549Z" fill="#CCD3FF"/>
<path d="M31.7167 18.7272C33.0656 18.7272 33.8715 18.0992 34.2409 17.3822H34.3081V18.5549H36.2558V12.8414C36.2558 10.5849 34.4032 9.9068 32.7634 9.9068C30.9556 9.9068 29.5676 10.7071 29.1198 12.2634L31.0115 12.5301C31.213 11.9466 31.7839 11.4463 32.7746 11.4463C33.7148 11.4463 34.2297 11.9243 34.2297 12.7636V12.7969C34.2297 13.3749 33.6197 13.4027 32.1029 13.5639C30.4351 13.7418 28.84 14.2364 28.84 16.1595C28.84 17.838 30.0769 18.7272 31.7167 18.7272ZM32.2429 17.2488C31.3977 17.2488 30.7933 16.8653 30.7933 16.1261C30.7933 15.3536 31.4705 15.0312 32.3772 14.9034C32.9089 14.8311 33.9723 14.6977 34.2353 14.4865V15.4925C34.2353 16.4429 33.463 17.2488 32.2429 17.2488Z" fill="#CCD3FF"/>
<path d="M38.293 18.5549H40.3191V10.018H38.293V18.5549ZM39.3116 8.80634C39.9553 8.80634 40.4814 8.31724 40.4814 7.71698C40.4814 7.11117 39.9553 6.62207 39.3116 6.62207C38.6624 6.62207 38.1363 7.11117 38.1363 7.71698C38.1363 8.31724 38.6624 8.80634 39.3116 8.80634Z" fill="#CCD3FF"/>
<path d="M42.4025 18.5549H44.4286V13.5361C44.4286 12.4523 45.2513 11.6853 46.3651 11.6853C46.7065 11.6853 47.1318 11.7465 47.3053 11.8021V9.95127C47.1206 9.91792 46.8016 9.89569 46.5777 9.89569C45.5927 9.89569 44.77 10.4515 44.4565 11.4408H44.367V10.018H42.4025V18.5549Z" fill="#CCD3FF"/>
<path d="M51.4876 18.705C52.9651 18.705 53.6311 17.8324 53.9502 17.2099H54.0733V18.5549H56.0658V7.1723H54.0341V11.4297H53.9502C53.6423 10.8127 53.0099 9.9068 51.4932 9.9068C49.5063 9.9068 47.9448 11.4519 47.9448 14.2976C47.9448 17.1099 49.4615 18.705 51.4876 18.705ZM52.0528 17.0543C50.7152 17.0543 50.01 15.8871 50.01 14.2864C50.01 12.6969 50.704 11.5575 52.0528 11.5575C53.3569 11.5575 54.0733 12.6302 54.0733 14.2864C54.0733 15.9427 53.3457 17.0543 52.0528 17.0543Z" fill="#CCD3FF"/>
<path d="M58.2247 18.5549H60.2508V13.5361C60.2508 12.4523 61.0735 11.6853 62.1873 11.6853C62.5287 11.6853 62.9541 11.7465 63.1276 11.8021V9.95127C62.9429 9.91792 62.6239 9.89569 62.4 9.89569C61.4149 9.89569 60.5922 10.4515 60.2788 11.4408H60.1892V10.018H58.2247V18.5549Z" fill="#CCD3FF"/>
<path d="M64.4736 18.5549H66.4997V10.018H64.4736V18.5549ZM65.4922 8.80634C66.1359 8.80634 66.662 8.31724 66.662 7.71698C66.662 7.11117 66.1359 6.62207 65.4922 6.62207C64.843 6.62207 64.3169 7.11117 64.3169 7.71698C64.3169 8.31724 64.843 8.80634 65.4922 8.80634Z" fill="#CCD3FF"/>
<path d="M76.2619 10.018H74.1072L72.1259 16.3596H72.0363L70.0606 10.018H67.9003L70.9617 18.5549H73.2005L76.2619 10.018Z" fill="#CCD3FF"/>
<path d="M81.1774 18.7217C83.181 18.7217 84.5578 17.749 84.916 16.2651L83.0243 16.0539C82.7501 16.7764 82.0784 17.1543 81.2053 17.1543C79.8957 17.1543 79.0282 16.2984 79.0114 14.8367H85V14.2198C85 11.224 83.1866 9.9068 81.071 9.9068C78.6084 9.9068 77.0021 11.702 77.0021 14.3365C77.0021 17.0154 78.586 18.7217 81.1774 18.7217ZM79.017 13.4805C79.0785 12.3912 79.8901 11.4741 81.099 11.4741C82.2631 11.4741 83.0467 12.3189 83.0579 13.4805H79.017Z" fill="#CCD3FF"/>
<path fill-rule="evenodd" clip-rule="evenodd" d="M9.43255 0.975567C9.14822 0.735481 8.71116 0.936147 8.71116 1.30677V3.78389L14.2259 6.36333C14.686 6.57854 14.9796 7.0382 14.9796 7.54326V16.0862C14.9796 17.0721 13.9205 17.7015 13.0456 17.2356L12.8304 17.1211V17.7942C12.8304 18.668 11.9821 19.2946 11.1393 19.0433L4.38333 17.0288C3.82794 16.8632 3.44765 16.3555 3.44765 15.7796V7.75669H1.31339C1.0716 7.75669 0.875593 7.95134 0.875593 8.19145V19.6957C0.875593 19.9358 1.0716 20.1305 1.31339 20.1305H15.3229C15.5647 20.1305 15.7607 19.9358 15.7607 19.6957V6.52C15.7607 6.39249 15.7043 6.2714 15.6065 6.1888L9.43255 0.975567ZM3.44765 6.88719H1.31339C0.588024 6.88719 0 7.47112 0 8.19145V19.6957C0 20.4161 0.588025 21 1.31339 21H15.3229C16.0482 21 16.6363 20.4161 16.6363 19.6957V6.52C16.6363 6.13745 16.4671 5.77419 16.1737 5.52639L9.99975 0.313155C9.14676 -0.407098 7.83556 0.194895 7.83556 1.30677V3.37434L5.32069 2.19804C4.44955 1.79057 3.44765 2.42172 3.44765 3.37796V6.88719ZM4.32324 7.75669V15.7796C4.32324 15.9716 4.45001 16.1408 4.63513 16.196L11.3911 18.2106C11.672 18.2943 11.9548 18.0854 11.9548 17.7942V16.6548L8.52831 14.8303C8.10176 14.6032 7.83556 14.1615 7.83556 13.6809V7.75669H4.32324ZM7.83556 6.88719H4.32324V3.37796C4.32324 3.05922 4.65721 2.84883 4.94759 2.98465L7.83556 4.33547V6.88719ZM8.71116 7.75669V13.6809C8.71116 13.8411 8.79989 13.9883 8.94207 14.064L11.9548 15.6682V8.19145C11.9548 7.95134 11.7588 7.75669 11.517 7.75669H8.71116ZM12.8304 16.1344V8.19145C12.8304 7.47112 12.2424 6.88719 11.517 6.88719H8.71116V4.74502L13.8528 7.14995C14.0061 7.22169 14.104 7.37491 14.104 7.54326V16.0862C14.104 16.4148 13.751 16.6246 13.4593 16.4693L12.8304 16.1344Z" fill="#CCD3FF"/>
</svg>
