<svg width="20" height="20" viewBox="0 0 20 20" fill="none" xmlns="http://www.w3.org/2000/svg">
<path d="M3.57088 6.0575C3.58049 5.96184 3.56738 5.86527 3.53263 5.77564C3.49788 5.68601 3.44246 5.60584 3.37088 5.54166L1.89588 3.76416V3.4975H6.47755L10.0192 11.2642L13.1325 3.4975H17.5V3.76333L16.2376 4.9725C16.1847 5.01365 16.1439 5.0682 16.1192 5.13049C16.0946 5.19277 16.0871 5.26051 16.0975 5.32666V14.215C16.087 14.2812 16.0944 14.349 16.119 14.4113C16.1436 14.4736 16.1846 14.5281 16.2376 14.5692L17.4701 15.7783V16.0442H11.2734V15.7783L12.5475 14.5392C12.6742 14.4142 12.6742 14.3767 12.6742 14.1858V7.00083L9.12505 16.015H8.64588L4.51422 7.00083V13.0417C4.48005 13.2958 4.56422 13.5517 4.74338 13.7358L6.40338 15.75V16.0158H1.69672V15.75L3.35672 13.7358C3.44405 13.6448 3.50889 13.5347 3.54608 13.4141C3.58326 13.2936 3.59176 13.1661 3.57088 13.0417V6.0575Z" fill="#82848E"/>
</svg>
