<svg width="17" height="14" viewBox="0 0 17 14" fill="none" xmlns="http://www.w3.org/2000/svg">
<path d="M2.57088 3.0575C2.58049 2.96184 2.56738 2.86527 2.53263 2.77564C2.49788 2.68601 2.44246 2.60584 2.37088 2.54166L0.895883 0.764164V0.497498H5.47755L9.01922 8.26416L12.1325 0.497498H16.5V0.763331L15.2376 1.9725C15.1847 2.01365 15.1439 2.0682 15.1192 2.13049C15.0946 2.19277 15.0871 2.26051 15.0975 2.32666V11.215C15.087 11.2812 15.0944 11.349 15.119 11.4113C15.1436 11.4736 15.1846 11.5281 15.2376 11.5692L16.4701 12.7783V13.0442H10.2734V12.7783L11.5475 11.5392C11.6742 11.4142 11.6742 11.3767 11.6742 11.1858V4.00083L8.12505 13.015H7.64588L3.51422 4.00083V10.0417C3.48005 10.2958 3.56422 10.5517 3.74338 10.7358L5.40338 12.75V13.0158H0.696716V12.75L2.35672 10.7358C2.44405 10.6448 2.50889 10.5347 2.54608 10.4141C2.58326 10.2936 2.59176 10.1661 2.57088 10.0417V3.0575Z" fill="#5B48D1"/>
</svg>
