<svg width="96" height="24" viewBox="0 0 96 24" fill="none" xmlns="http://www.w3.org/2000/svg">
<path d="M54.7651 7.77479L53.327 17.8563C53.3263 17.8596 53.3245 17.8625 53.3219 17.8646C53.3193 17.8667 53.3162 17.8678 53.3129 17.8678C53.3095 17.8678 53.3063 17.8667 53.3038 17.8646C53.3012 17.8625 53.2994 17.8596 53.2987 17.8563L52.0357 7.77416C52.0352 7.77056 52.0335 7.76727 52.0308 7.76481C52.0282 7.76241 52.0249 7.76102 52.0212 7.76089H48.4372C48.4336 7.76089 48.4301 7.76222 48.4275 7.76468C48.4248 7.76715 48.4231 7.77049 48.4228 7.77416L47.1591 17.8563C47.1584 17.8596 47.1567 17.8625 47.1541 17.8646C47.1515 17.8667 47.1483 17.8678 47.1449 17.8678C47.1417 17.8678 47.1385 17.8667 47.1359 17.8646C47.1333 17.8625 47.1316 17.8596 47.1309 17.8563L45.6928 7.77479C45.6925 7.77132 45.6909 7.76809 45.6883 7.76576C45.6857 7.76342 45.6824 7.76216 45.679 7.76216H43.4936C43.4914 7.76222 43.4894 7.76273 43.4875 7.76367C43.4856 7.76456 43.484 7.76588 43.4826 7.76746C43.4813 7.76904 43.4802 7.77094 43.4796 7.77296C43.479 7.77498 43.4789 7.77713 43.4791 7.77921L45.3031 19.4471C45.3038 19.4505 45.3054 19.4536 45.3081 19.4558C45.3108 19.458 45.3141 19.4592 45.3176 19.4591H48.894C48.8974 19.4593 48.9007 19.4582 48.9033 19.4559C48.9059 19.4537 48.9075 19.4505 48.9078 19.4471L50.2129 9.38203C50.2136 9.37875 50.2154 9.37584 50.218 9.37376C50.2205 9.37167 50.2237 9.37047 50.227 9.37047C50.2303 9.37047 50.2336 9.37167 50.2361 9.37376C50.2387 9.37584 50.2405 9.37875 50.2412 9.38203L51.5463 19.4471C51.5467 19.4506 51.5485 19.4538 51.5512 19.456C51.5538 19.4582 51.5572 19.4593 51.5607 19.4591H55.1372C55.1406 19.4591 55.1438 19.4579 55.1465 19.4557C55.149 19.4535 55.1508 19.4505 55.1515 19.4471L56.9749 7.77921C56.9753 7.77713 56.9752 7.77504 56.9747 7.77302C56.9742 7.771 56.9733 7.76911 56.972 7.76746C56.9706 7.76588 56.969 7.76456 56.9671 7.76361C56.9652 7.76273 56.9632 7.76222 56.9612 7.76216H54.7757C54.7722 7.76222 54.7689 7.76355 54.7663 7.76588C54.7636 7.76816 54.7619 7.77132 54.7613 7.77479" fill="#5B48D1"/>
<path d="M94.9027 8.32419C94.6385 8.02855 94.3123 7.79625 93.9477 7.64429C93.5825 7.49234 93.1885 7.42457 92.7938 7.4461C92.263 7.42608 91.7378 7.56194 91.2823 7.83699C90.8268 8.11204 90.4603 8.51448 90.2282 8.99524H90.2194C90.0726 8.5741 89.8116 8.20248 89.4665 7.92206C89.0467 7.59503 88.5259 7.42621 87.9951 7.44484C87.4843 7.43398 86.9818 7.5764 86.552 7.85391C86.1893 8.10408 85.9038 8.45101 85.7262 8.85573V7.77686C85.7262 7.77301 85.725 7.76935 85.7218 7.76663C85.7193 7.76385 85.7156 7.76234 85.7118 7.76234H83.5785C83.5747 7.76234 83.5709 7.76385 83.5684 7.76663C83.5659 7.76935 83.564 7.77301 83.564 7.77686V19.4455C83.564 19.4473 83.5647 19.4492 83.5653 19.4509C83.5659 19.4526 83.5672 19.4542 83.5684 19.4555C83.5697 19.4568 83.5716 19.4578 83.5728 19.4585C83.5747 19.4591 83.5766 19.4594 83.5785 19.4593H85.7118C85.7137 19.4594 85.7156 19.4591 85.7174 19.4585C85.7193 19.4578 85.7206 19.4568 85.7218 19.4555C85.7237 19.4542 85.7243 19.4526 85.725 19.4509C85.7262 19.4492 85.7262 19.4473 85.7262 19.4455V11.4698C85.7018 10.9619 85.8436 10.4599 86.1284 10.04C86.2552 9.87004 86.4221 9.73425 86.6134 9.64476C86.8048 9.55533 87.0156 9.51503 87.2265 9.52741C87.404 9.51958 87.581 9.55337 87.7435 9.62594C87.9054 9.69857 88.049 9.80815 88.162 9.94596C88.413 10.2608 88.541 10.6565 88.5234 11.0595V19.4455C88.5234 19.4473 88.524 19.4492 88.5247 19.4509C88.5253 19.4526 88.5265 19.4542 88.5278 19.4555C88.5291 19.4568 88.5309 19.4578 88.5322 19.4585C88.5341 19.4591 88.5359 19.4594 88.5378 19.4593H90.6712C90.6731 19.4594 90.6749 19.4591 90.6768 19.4585C90.6787 19.4578 90.6799 19.4568 90.6812 19.4555C90.6825 19.4542 90.6837 19.4526 90.6843 19.4509C90.685 19.4492 90.6856 19.4473 90.6856 19.4455V11.6068C90.6398 11.0439 90.7872 10.4822 91.1035 10.0154C91.2302 9.85697 91.3921 9.73046 91.576 9.64583C91.7604 9.56126 91.9612 9.5209 92.1632 9.52804C92.3515 9.51029 92.541 9.54017 92.7141 9.61507C92.888 9.68998 93.0398 9.80739 93.1565 9.95669C93.3861 10.3111 93.5003 10.7289 93.4821 11.1517V19.4455C93.4821 19.4473 93.4828 19.4492 93.4834 19.4509C93.484 19.4526 93.4853 19.4542 93.4865 19.4555C93.4878 19.4568 93.4897 19.4578 93.4909 19.4585C93.4928 19.4591 93.4947 19.4594 93.4966 19.4593H95.6443V10.5589C95.6776 9.74745 95.4153 8.95173 94.9058 8.32166" fill="#5B48D1"/>
<path d="M69.9004 18.187L68.5495 19.7053C68.5463 19.7078 68.5432 19.7092 68.5388 19.7092C68.535 19.7092 68.5319 19.7078 68.5288 19.7053L66.1482 17.6296C66.1457 17.628 66.1432 17.6271 66.1401 17.6271C66.1369 17.6271 66.1344 17.628 66.1319 17.6296L63.2845 19.3025C62.8202 19.5754 62.2915 19.7184 61.7536 19.7167C60.9465 19.7112 60.1712 19.3991 59.5831 18.8429C59.28 18.5584 59.0399 18.2128 58.8785 17.8286C58.7171 17.4444 58.638 17.0303 58.6464 16.6133C58.6462 16.0668 58.7897 15.53 59.0626 15.0575C59.3355 14.585 59.728 14.1937 60.2 13.9234L65.9506 10.5946C65.9531 10.5934 65.9543 10.5915 65.9562 10.5893C65.9575 10.5871 65.9581 10.5846 65.9581 10.582V9.84596C65.9581 9.84192 65.9562 9.83806 65.9537 9.83522C65.9506 9.83238 65.9468 9.8308 65.943 9.8308H59.2293C59.2274 9.8308 59.2256 9.83042 59.2239 9.82966C59.2222 9.82891 59.2206 9.82783 59.2193 9.82651C59.218 9.82512 59.217 9.82354 59.2163 9.82177C59.2157 9.82 59.2155 9.81811 59.2155 9.81627V7.77659C59.2155 7.77293 59.217 7.76939 59.2196 7.7668C59.2222 7.76415 59.2256 7.7627 59.2293 7.7627H67.9973C68.0011 7.7627 68.0048 7.76415 68.0074 7.76674C68.0099 7.76933 68.0117 7.77286 68.0117 7.77659V16.5142C68.0117 16.5182 68.0136 16.5221 68.0168 16.5248L69.8991 18.1662C69.9004 18.1675 69.9016 18.1691 69.9022 18.1709C69.9035 18.1727 69.9035 18.1747 69.9035 18.1766C69.9035 18.1786 69.9035 18.1805 69.9022 18.1824C69.9016 18.1841 69.9004 18.1857 69.8991 18.187H69.9004ZM62.2574 17.509L65.9518 15.3526C65.9537 15.3513 65.9562 15.3495 65.9575 15.3473C65.9587 15.3451 65.9594 15.3425 65.9594 15.3399V13.0042C65.9594 13.0017 65.9587 12.9992 65.9568 12.9971C65.9556 12.9949 65.9537 12.9932 65.9518 12.9919C65.9493 12.9907 65.9468 12.99 65.9443 12.9899C65.9418 12.9898 65.9399 12.9905 65.9374 12.9916L61.2315 15.7143C61.0704 15.8007 60.936 15.9302 60.8432 16.0885C60.7505 16.2468 60.7029 16.4276 60.7057 16.6114C60.7124 16.8836 60.8229 17.1429 61.0143 17.3355C61.2057 17.5281 61.4635 17.6393 61.7341 17.646C61.9184 17.6494 62.1001 17.6015 62.2592 17.5078" fill="#5B48D1"/>
<path d="M80.1751 8.58044C79.8243 8.21488 79.4027 7.92549 78.9358 7.73008C78.4696 7.53467 77.9683 7.43734 77.4632 7.44416C76.8747 7.42831 76.2911 7.55532 75.7622 7.81446C75.2326 8.07353 74.7733 8.45709 74.4226 8.93267C74.4213 8.93418 74.4201 8.93532 74.4182 8.93614C74.4163 8.93696 74.4144 8.93734 74.4125 8.93734C74.4107 8.93734 74.4088 8.93696 74.4069 8.93614C74.4056 8.93532 74.4038 8.93418 74.4025 8.93267L73.046 7.68025C73.0447 7.67886 73.0435 7.67778 73.0416 7.67702C73.0397 7.67627 73.0378 7.67589 73.0359 7.67589C73.034 7.67589 73.0322 7.67627 73.0303 7.67702C73.029 7.67778 73.0271 7.67886 73.0259 7.68025L71.6894 9.18208C71.6882 9.18334 71.6869 9.18492 71.6863 9.18663C71.6856 9.18839 71.685 9.19029 71.685 9.19218C71.685 9.19401 71.6856 9.19591 71.6863 9.19768C71.6869 9.19938 71.6882 9.20096 71.6894 9.20222L73.6169 10.9616C73.6188 10.9629 73.6195 10.9646 73.6207 10.9665C73.6213 10.9684 73.6213 10.9703 73.6213 10.9724V17.3925C73.6213 17.3944 73.6213 17.3962 73.6207 17.398C73.6201 17.3997 73.6188 17.4014 73.6176 17.4027C73.6163 17.4041 73.6151 17.4052 73.6132 17.4059C73.6113 17.4066 73.6094 17.407 73.6075 17.407H71.6919C71.6882 17.407 71.6844 17.4085 71.6819 17.4112C71.6787 17.4139 71.6775 17.4177 71.6775 17.4215V19.4378C71.6775 19.4417 71.6787 19.4454 71.6819 19.4481C71.6844 19.4508 71.6882 19.4524 71.6919 19.4524H78.5939C78.5976 19.4524 78.6014 19.4508 78.6039 19.4481C78.6071 19.4454 78.6083 19.4417 78.6083 19.4378V17.4228C78.6083 17.4189 78.6071 17.4152 78.6039 17.4125C78.6014 17.4098 78.5976 17.4083 78.5939 17.4083H75.6687C75.6668 17.4083 75.6649 17.4079 75.6631 17.4071C75.6618 17.4064 75.6599 17.4054 75.6587 17.404C75.6574 17.4026 75.6562 17.4011 75.6555 17.3993C75.6549 17.3975 75.6543 17.3956 75.6543 17.3937V11.4061C75.6449 10.9417 75.8061 10.4901 76.1073 10.1379C76.4085 9.78574 76.8276 9.5578 77.2856 9.49768C77.5366 9.47418 77.7895 9.50349 78.0279 9.5837C78.267 9.66397 78.486 9.79338 78.6723 9.96372C78.8587 10.1341 79.008 10.3416 79.1103 10.5731C79.2119 10.8045 79.2653 11.0549 79.2659 11.3082V11.9749C79.2659 11.9788 79.2678 11.9825 79.2703 11.9853C79.2728 11.9882 79.2765 11.9898 79.2803 11.99H81.2882C81.29 11.99 81.2919 11.9896 81.2938 11.9888C81.2957 11.9881 81.2976 11.9869 81.2988 11.9855C81.3001 11.9841 81.3013 11.9824 81.302 11.9806C81.3026 11.9788 81.3026 11.9768 81.3026 11.9749V11.3082C81.3095 10.8001 81.2122 10.2959 81.0184 9.82679C80.8238 9.35772 80.5365 8.93355 80.1732 8.58044" fill="#5B48D1"/>
<path d="M41.3818 14.5984C41.247 14.2769 41.0376 13.9924 40.7712 13.7689C40.4972 13.5062 40.1708 13.3051 39.8138 13.1787C39.4579 13.0142 39.0882 12.8823 38.7088 12.7848C38.328 12.6824 37.917 12.5751 37.4539 12.4868C36.7593 12.3782 36.0882 12.1515 35.4693 11.8164C35.2891 11.7139 35.1383 11.5664 35.0313 11.3882C34.9243 11.2099 34.8649 11.0069 34.8585 10.7988C34.8522 10.5907 34.8994 10.3844 34.9953 10.2C35.0913 10.0155 35.2329 9.8591 35.4065 9.74573C35.9394 9.41131 36.5813 9.30003 37.1948 9.43582C37.7824 9.58361 38.3226 9.88076 38.7634 10.2987C38.8544 10.3796 39.7843 11.2394 39.7673 11.2589L41.1044 9.735C41.1044 9.735 40.4607 9.0791 40.1557 8.81207C39.4407 8.13653 38.5519 7.67599 37.5901 7.4826C36.5873 7.32426 35.5605 7.48051 34.6492 7.9302C34.4082 8.05538 34.1808 8.20563 33.9709 8.37843C33.5969 8.67458 33.2965 9.05422 33.0934 9.48735C32.8903 9.92043 32.7901 10.3951 32.8007 10.8739C32.764 11.3143 32.8377 11.7569 33.0149 12.1613C33.1922 12.5657 33.4673 12.919 33.8153 13.1888C34.6394 13.7497 35.5722 14.129 36.5523 14.3017C37.3252 14.4404 38.0797 14.6682 38.801 14.9803C38.9917 15.0422 39.1574 15.1644 39.2734 15.3288C39.3893 15.4932 39.4492 15.691 39.4442 15.8925C39.4564 16.1398 39.4016 16.3858 39.2857 16.6042C39.1697 16.8225 38.997 17.0051 38.7859 17.1324C38.2768 17.4255 37.7006 17.5806 37.114 17.5825C36.5273 17.5844 35.9502 17.433 35.4391 17.1431C35.0254 16.8693 34.6369 16.5587 34.2783 16.2151C33.9897 15.9677 33.7136 15.7019 33.4388 15.4424L33.4282 15.4311L32.1269 17.0093C32.1225 17.0143 32.7631 17.6058 32.817 17.657C33.6453 18.4974 34.6872 19.0928 35.8288 19.3784C36.2522 19.4646 36.6831 19.5069 37.115 19.5047C38.2604 19.5459 39.3855 19.1927 40.3044 18.5035C40.7342 18.1808 41.0798 17.7581 41.3116 17.2716C41.5434 16.7851 41.6544 16.2493 41.6352 15.7101C41.6358 15.3245 41.5478 14.9441 41.378 14.5984" fill="#5B48D1"/>
<path d="M10.9515 20.9065V14.7358L5.4758 11.6425L0 14.7358V20.9059L5.4758 23.9992L10.9515 20.9065Z" fill="#5B48D1"/>
<path d="M18.1023 6.56659L18.1281 6.57985L21.02 4.94545V1.64828L18.1023 0L15.2073 1.63565V1.66153V4.93093L18.1023 6.56659Z" fill="#5B48D1"/>
<path d="M12.5349 14.7364V20.9065L18.0106 23.9998L23.4876 20.9065V14.7364L18.0112 11.6432L12.5349 14.7364Z" fill="#5B48D1"/>
<path d="M14.5174 6.16554L13.7997 5.76026V2.12598L11.7033 0.866577L6.23315 3.95985V10.13L11.7084 13.2232L17.1841 10.13V7.6718L14.5174 6.16554Z" fill="#5B48D1"/>
</svg>
