<svg width="18" height="16" viewBox="0 0 18 16" fill="none" xmlns="http://www.w3.org/2000/svg">
<path d="M16.3847 8.66671C16.7245 8.66671 17.0001 8.36817 17.0001 8.00004C17.0001 7.63191 16.7245 7.33337 16.3847 7.33337C16.0449 7.33337 15.7693 7.63191 15.7693 8.00004C15.7693 8.36817 16.0449 8.66671 16.3847 8.66671Z" fill="#82848E" stroke="#82848E" stroke-width="1.5" stroke-linecap="round" stroke-linejoin="round"/>
<path d="M8.99991 8.66671C9.33972 8.66671 9.61529 8.36817 9.61529 8.00004C9.61529 7.63191 9.33972 7.33337 8.99991 7.33337C8.66009 7.33337 8.38452 7.63191 8.38452 8.00004C8.38452 8.36817 8.66009 8.66671 8.99991 8.66671Z" fill="#82848E" stroke="#82848E" stroke-width="1.5" stroke-linecap="round" stroke-linejoin="round"/>
<path d="M1.61538 8.66671C1.95525 8.66671 2.23077 8.36817 2.23077 8.00004C2.23077 7.63191 1.95525 7.33337 1.61538 7.33337C1.27552 7.33337 1 7.63191 1 8.00004C1 8.36817 1.27552 8.66671 1.61538 8.66671Z" fill="#82848E" stroke="#82848E" stroke-width="1.5" stroke-linecap="round" stroke-linejoin="round"/>
</svg>
