<svg width="25" height="24" viewBox="0 0 25 24" fill="none" xmlns="http://www.w3.org/2000/svg">
<path d="M23.4084 1.35424V1.35434L23.4087 3.5022V3.50239C23.4087 3.66631 23.3445 3.82131 23.2337 3.93385L23.2337 3.93388L14.6812 12.6213L14.6812 12.6213C14.2919 13.0168 14.0751 13.5508 14.0751 14.1052V22.6448C14.0751 23.0525 13.7055 23.3215 13.3531 23.232L13.3531 23.232L10.6865 22.5548C10.4325 22.4903 10.2419 22.2534 10.2419 21.9676V14.1052C10.2419 13.5509 10.0252 13.0168 9.6358 12.6213L1.08368 3.93381L1.08367 3.9338C0.972965 3.82134 0.908691 3.66633 0.908691 3.50225V1.35442C0.908691 1.00946 1.18091 0.75 1.492 0.75H22.8251C23.1363 0.75 23.4084 1.00945 23.4084 1.35424Z" stroke="currentColor" stroke-width="1.5" stroke-linecap="round" stroke-linejoin="round"/>
</svg>
