<svg width="16" height="16" viewBox="0 0 16 16" fill="none" xmlns="http://www.w3.org/2000/svg">
<path d="M9.77767 15.4668V10.3112C9.77767 10.0166 10.0164 9.77783 10.311 9.77783H15.4666C15.7612 9.77783 15.9999 10.0166 15.9999 10.3112V15.4668C15.9999 15.7613 15.7612 16.0001 15.4666 16.0001H10.311C10.0164 16.0001 9.77767 15.7613 9.77767 15.4668Z" fill="currentColor"/>
<path d="M0 15.4668V10.3112C0 10.0166 0.238784 9.77783 0.533337 9.77783H5.68893C5.98348 9.77783 6.22226 10.0166 6.22226 10.3112V15.4668C6.22226 15.7613 5.98348 16.0001 5.68893 16.0001H0.533337C0.238784 16.0001 0 15.7613 0 15.4668Z" fill="currentColor"/>
<path d="M9.77767 5.68893V0.533337C9.77767 0.238784 10.0164 0 10.311 0H15.4666C15.7612 0 15.9999 0.238784 15.9999 0.533337V5.68893C15.9999 5.98348 15.7612 6.22226 15.4666 6.22226H10.311C10.0164 6.22226 9.77767 5.98348 9.77767 5.68893Z" fill="currentColor"/>
<path d="M0 5.68893V0.533337C0 0.238784 0.238784 0 0.533337 0H5.68893C5.98348 0 6.22226 0.238784 6.22226 0.533337V5.68893C6.22226 5.98348 5.98348 6.22226 5.68893 6.22226H0.533337C0.238784 6.22226 0 5.98348 0 5.68893Z" fill="currentColor"/>
</svg>
