<svg width="24" height="24" viewBox="0 0 24 24" fill="none" xmlns="http://www.w3.org/2000/svg">
<path d="M7.99985 12.4C8.22077 12.4 8.39985 12.2209 8.39985 12C8.39985 11.7791 8.22077 11.6 7.99985 11.6C7.77894 11.6 7.59985 11.7791 7.59985 12C7.59985 12.2209 7.77894 12.4 7.99985 12.4Z" fill="#82848E" stroke="#82848E" stroke-width="1.5" stroke-linecap="round" stroke-linejoin="round"/>
<path d="M11.9999 12.4C12.2207 12.4 12.3999 12.2209 12.3999 12C12.3999 11.7791 12.2207 11.6 11.9999 11.6C11.779 11.6 11.5999 11.7791 11.5999 12C11.5999 12.2209 11.779 12.4 11.9999 12.4Z" fill="#82848E" stroke="#82848E" stroke-width="1.5" stroke-linecap="round" stroke-linejoin="round"/>
<path d="M15.9999 12.4C16.2207 12.4 16.3999 12.2209 16.3999 12C16.3999 11.7791 16.2207 11.6 15.9999 11.6C15.779 11.6 15.5999 11.7791 15.5999 12C15.5999 12.2209 15.779 12.4 15.9999 12.4Z" fill="#82848E" stroke="#82848E" stroke-width="1.5" stroke-linecap="round" stroke-linejoin="round"/>
<path d="M12 20C16.4182 20 20 16.4182 20 12C20 7.58172 16.4182 4 12 4C7.58172 4 4 7.58172 4 12C4 16.4182 7.58172 20 12 20Z" stroke="#82848E" stroke-width="1.5" stroke-linecap="round" stroke-linejoin="round"/>
</svg>
