<svg width="70" height="32" viewBox="0 0 70 32" fill="none" xmlns="http://www.w3.org/2000/svg">
<path d="M34.6707 0.319732V31.6802H0.531785V0.319732H34.6707ZM34.9886 0H0.213867V31.9999H34.9886V0.00266298V0Z" fill="#82848E"/>
<path d="M16.3066 5.87538V5.84604L16.4099 5.48636C16.4099 5.4517 16.4364 5.43575 16.4655 5.43575H16.5L17.3478 5.72616V4.84956C17.3465 4.84004 17.3474 4.83037 17.3504 4.82127C17.3534 4.81216 17.3584 4.80384 17.365 4.79693C17.3716 4.79003 17.3797 4.7847 17.3887 4.78136C17.3976 4.77801 17.4072 4.77673 17.4167 4.77761H17.769C17.814 4.77761 17.8352 4.80159 17.8352 4.84956V5.73148L18.683 5.44107H18.7174C18.7315 5.44146 18.7449 5.44673 18.7556 5.45594C18.7662 5.46514 18.7733 5.47779 18.7757 5.49168L18.8791 5.85141C18.8791 5.86736 18.8791 5.87538 18.8791 5.8807C18.8788 5.89537 18.8741 5.9096 18.8656 5.92151C18.857 5.93342 18.8452 5.94243 18.8314 5.94731L17.9836 6.21374L18.5135 6.93847C18.5242 6.95255 18.5315 6.96899 18.5347 6.98642C18.5338 6.99651 18.5307 7.00626 18.5256 7.01498C18.5206 7.02374 18.5138 7.03127 18.5055 7.03708L18.2194 7.24754C18.2018 7.25867 18.1818 7.26507 18.1611 7.2662C18.151 7.26571 18.1412 7.26251 18.1329 7.25685C18.1244 7.25123 18.1177 7.24341 18.1134 7.23425L17.5835 6.50952L17.0537 7.23425C17.0494 7.24341 17.0427 7.25123 17.0343 7.25685C17.0258 7.26251 17.0161 7.26571 17.006 7.2662C16.9855 7.26438 16.9655 7.25798 16.9477 7.24754L16.6616 7.03708C16.6534 7.03142 16.6467 7.02389 16.6421 7.01502C16.6375 7.00621 16.6351 6.99641 16.6351 6.98642C16.6372 6.96865 16.6446 6.95191 16.6563 6.93847L17.1862 6.21374L16.3384 5.94731C16.3267 5.93973 16.3175 5.92885 16.3118 5.9161C16.3062 5.9033 16.3043 5.88917 16.3066 5.87538Z" fill="#82848E"/>
<path d="M21.1096 7.12466V7.09537L21.213 6.73564C21.2149 6.72151 21.2219 6.70861 21.2326 6.69931C21.2434 6.68995 21.2571 6.68488 21.2713 6.68503H21.3057L22.1561 6.98081V6.1015C22.1549 6.09199 22.1558 6.08235 22.1588 6.07324C22.1618 6.06413 22.1668 6.05581 22.1734 6.04892C22.18 6.04198 22.1881 6.03666 22.197 6.03331C22.2059 6.02996 22.2155 6.02868 22.225 6.02957H22.58C22.5895 6.02868 22.5991 6.02996 22.608 6.03331C22.6169 6.03666 22.625 6.04198 22.6316 6.04892C22.6383 6.05581 22.6432 6.06413 22.6462 6.07324C22.6492 6.08235 22.6501 6.09199 22.6489 6.1015V6.98081L23.4967 6.69035H23.5285C23.5576 6.69035 23.5761 6.709 23.5868 6.741L23.6901 7.10068C23.6913 7.11043 23.6913 7.12028 23.6901 7.12998C23.6898 7.14465 23.6851 7.15892 23.6766 7.17079C23.6681 7.1827 23.6561 7.19171 23.6424 7.19659L22.7946 7.46307L23.3245 8.1878C23.3362 8.20124 23.3436 8.21798 23.3457 8.23575C23.3455 8.24564 23.343 8.25539 23.3384 8.2642C23.3338 8.27297 23.3272 8.28055 23.3192 8.28636L23.0331 8.49687C23.0156 8.50859 22.9956 8.51592 22.9748 8.51819C22.9645 8.51691 22.9548 8.51307 22.9465 8.50701C22.9382 8.50095 22.9314 8.49288 22.9271 8.48353L22.3972 7.7588L21.8673 8.48353C21.8629 8.49288 21.8563 8.50095 21.8479 8.50701C21.8396 8.51307 21.8299 8.51691 21.8197 8.51819C21.7989 8.51543 21.779 8.50814 21.7614 8.49687L21.4752 8.28636C21.4666 8.28104 21.4594 8.27361 21.4543 8.2648C21.4492 8.25593 21.4464 8.24594 21.4461 8.23575C21.4493 8.21827 21.4565 8.20183 21.4673 8.1878L21.9972 7.46307L21.152 7.19659C21.1384 7.19053 21.127 7.18034 21.1194 7.16744C21.1118 7.15454 21.1084 7.13963 21.1096 7.12466Z" fill="#82848E"/>
<path d="M24.6779 10.7293V10.7L24.7812 10.3403C24.7832 10.3262 24.7901 10.3133 24.8009 10.3039C24.8116 10.2946 24.8253 10.2895 24.8395 10.2897H24.874L25.7191 10.5801V9.69818C25.7178 9.68867 25.7188 9.67898 25.7217 9.66987C25.7247 9.66076 25.7297 9.65244 25.7363 9.64555C25.7429 9.63866 25.751 9.63334 25.7599 9.62999C25.7689 9.62664 25.7784 9.62536 25.7879 9.62625H26.1403C26.1498 9.62536 26.1594 9.62664 26.1683 9.62999C26.1772 9.63334 26.1853 9.63866 26.1919 9.64555C26.1985 9.65244 26.2035 9.66076 26.2065 9.66987C26.2095 9.67898 26.2104 9.68867 26.2092 9.69818V10.5801L27.0543 10.2897H27.0887C27.1027 10.2905 27.1159 10.2959 27.1264 10.3051C27.1369 10.3143 27.1442 10.3266 27.1471 10.3403L27.2504 10.7C27.2504 10.716 27.2504 10.724 27.2504 10.7293C27.2501 10.744 27.2454 10.7582 27.2369 10.7701C27.2284 10.782 27.2164 10.7911 27.2027 10.7959L26.3576 11.0624L26.8874 11.7871C26.8973 11.8017 26.9044 11.818 26.9086 11.835C26.9077 11.8448 26.9049 11.8543 26.9004 11.863C26.8958 11.8717 26.8896 11.8794 26.8821 11.8857L26.5933 12.0962C26.576 12.1082 26.556 12.1156 26.5351 12.1175C26.5248 12.1162 26.5151 12.1124 26.5068 12.1064C26.4984 12.1003 26.4917 12.0922 26.4874 12.0829L25.9575 11.3581L25.4276 12.0829C25.4232 12.0922 25.4166 12.1003 25.4082 12.1064C25.3999 12.1124 25.3901 12.1162 25.38 12.1175C25.36 12.1146 25.3411 12.1073 25.3243 12.0962L25.0355 11.8857C25.0272 11.8802 25.0204 11.8727 25.0157 11.8638C25.0111 11.855 25.0088 11.8451 25.0091 11.835C25.0132 11.818 25.0204 11.8017 25.0303 11.7871L25.5601 11.0624L24.7123 10.7959C24.7011 10.7891 24.6919 10.7792 24.6858 10.7675C24.6797 10.7558 24.677 10.7425 24.6779 10.7293Z" fill="#82848E"/>
<path d="M26.0236 15.5789V15.5496L26.1269 15.1899C26.1288 15.1758 26.1358 15.1629 26.1466 15.1535C26.1573 15.1442 26.171 15.1391 26.1852 15.1393H26.2197L27.0648 15.4297V14.5478C27.0636 14.5383 27.0644 14.5286 27.0674 14.5195C27.0704 14.5104 27.0754 14.502 27.082 14.4952C27.0887 14.4883 27.0967 14.4829 27.1057 14.4796C27.1146 14.4763 27.1242 14.475 27.1337 14.4759H27.486C27.4955 14.475 27.5051 14.4763 27.514 14.4796C27.523 14.4829 27.531 14.4883 27.5377 14.4952C27.5443 14.502 27.5493 14.5104 27.5522 14.5195C27.5552 14.5286 27.5562 14.5383 27.5549 14.5478V15.4297L28.4027 15.1393H28.4345C28.4636 15.1393 28.4822 15.158 28.4927 15.1899L28.5961 15.5496C28.5973 15.5593 28.5973 15.5692 28.5961 15.5789C28.5958 15.5936 28.5911 15.6078 28.5826 15.6197C28.5741 15.6316 28.5622 15.6407 28.5484 15.6455L27.7006 15.912L28.2305 16.6367C28.2415 16.6506 28.2488 16.6671 28.2517 16.6846C28.2515 16.6946 28.249 16.7043 28.2444 16.7131C28.2398 16.7219 28.2332 16.7295 28.2252 16.7353L27.9364 16.9458C27.9201 16.9577 27.9009 16.9651 27.8808 16.9671C27.8706 16.9659 27.8608 16.962 27.8525 16.956C27.8441 16.9499 27.8375 16.9418 27.8331 16.9325L27.3032 16.2077L26.7734 16.9325C26.769 16.9418 26.7623 16.9499 26.754 16.956C26.7456 16.962 26.7359 16.9659 26.7257 16.9671C26.705 16.9644 26.685 16.9571 26.6674 16.9458L26.3813 16.7353C26.3726 16.7299 26.3654 16.7226 26.3603 16.7137C26.3552 16.7048 26.3524 16.6949 26.3521 16.6846C26.3563 16.6675 26.3635 16.6513 26.3733 16.6367L26.9032 15.912L26.0581 15.6455C26.0468 15.6387 26.0376 15.6288 26.0315 15.6171C26.0254 15.6054 26.0227 15.5921 26.0236 15.5789Z" fill="#82848E"/>
<path d="M24.677 20.5356V20.5063L24.7803 20.1466C24.7817 20.1322 24.7885 20.1189 24.7993 20.1095C24.8102 20.1001 24.8243 20.0952 24.8386 20.0959H24.873L25.7182 20.3864V19.5044C25.7182 19.4591 25.742 19.4378 25.787 19.4352H26.1394C26.1487 19.4338 26.1583 19.4347 26.1672 19.4377C26.1762 19.4407 26.1844 19.4458 26.191 19.4526C26.1977 19.4592 26.2028 19.4674 26.2058 19.4764C26.2087 19.4855 26.2096 19.495 26.2083 19.5044V20.3891L27.0534 20.0959H27.0879C27.1019 20.0964 27.1153 20.1016 27.1259 20.1109C27.1366 20.1201 27.1437 20.1327 27.1461 20.1466L27.2494 20.5063C27.25 20.516 27.25 20.5258 27.2494 20.5356C27.2494 20.55 27.2448 20.564 27.2362 20.5756C27.2276 20.5871 27.2155 20.5955 27.2018 20.5995L26.3566 20.866L26.8865 21.588C26.8969 21.6033 26.9041 21.6205 26.9077 21.6387C26.9054 21.6582 26.8959 21.6763 26.8812 21.6893L26.5924 21.8998C26.575 21.9112 26.5549 21.9177 26.5341 21.9184C26.5237 21.9177 26.5138 21.9141 26.5054 21.908C26.497 21.9019 26.4904 21.8935 26.4864 21.8838L25.9566 21.1591L25.4268 21.8838C25.4228 21.8935 25.4162 21.9019 25.4078 21.908C25.3994 21.9141 25.3894 21.9177 25.379 21.9184C25.3593 21.9169 25.3402 21.9105 25.3234 21.8998L25.0347 21.6893C25.0265 21.6837 25.0198 21.6761 25.0152 21.6673C25.0105 21.6585 25.0081 21.6486 25.0081 21.6387C25.0117 21.6205 25.0189 21.6033 25.0293 21.588L25.5592 20.866L24.7114 20.5995C24.7001 20.5934 24.6909 20.5841 24.6848 20.5727C24.6786 20.5614 24.6759 20.5485 24.677 20.5356Z" fill="#82848E"/>
<path d="M21.1089 24.0973V24.068L21.2123 23.7083C21.2142 23.6942 21.2212 23.6813 21.2319 23.672C21.2426 23.6626 21.2564 23.6575 21.2706 23.6577H21.305L22.1501 23.9481V23.0742C22.1489 23.0647 22.1498 23.055 22.1528 23.0459C22.1557 23.0368 22.1607 23.0285 22.1673 23.0216C22.1739 23.0146 22.182 23.0093 22.191 23.006C22.1999 23.0026 22.2095 23.0013 22.219 23.0022H22.5793C22.5888 23.0013 22.5984 23.0026 22.6073 23.006C22.6162 23.0093 22.6243 23.0146 22.6309 23.0216C22.6375 23.0285 22.6425 23.0368 22.6455 23.0459C22.6485 23.055 22.6494 23.0647 22.6482 23.0742V23.9561L23.496 23.6657H23.5277C23.5569 23.6657 23.5754 23.6817 23.586 23.7163L23.6893 24.076C23.6906 24.0857 23.6906 24.0956 23.6893 24.1053C23.6891 24.12 23.6844 24.1342 23.6759 24.1461C23.6673 24.158 23.6554 24.167 23.6416 24.1719L22.7939 24.4384L23.3238 25.1631C23.3355 25.1766 23.3429 25.1933 23.345 25.2111C23.3447 25.221 23.3422 25.2307 23.3376 25.2395C23.333 25.2483 23.3265 25.2559 23.3184 25.2617L23.0323 25.4722C23.0149 25.4839 22.9949 25.4912 22.9741 25.4935C22.9638 25.4922 22.9541 25.4884 22.9458 25.4823C22.9374 25.4763 22.9307 25.4682 22.9263 25.4588L22.3965 24.7341L21.8666 25.4588C21.8622 25.4682 21.8556 25.4763 21.8472 25.4823C21.8389 25.4884 21.8291 25.4922 21.819 25.4935C21.7982 25.4907 21.7783 25.4835 21.7607 25.4722L21.4745 25.2617C21.4659 25.2564 21.4587 25.2489 21.4536 25.2401C21.4485 25.2312 21.4457 25.2213 21.4454 25.2111C21.4486 25.1936 21.4558 25.1771 21.4666 25.1631L21.9965 24.4384L21.1513 24.1719C21.1372 24.1657 21.1255 24.1551 21.1178 24.1417C21.1102 24.1282 21.1071 24.1127 21.1089 24.0973Z" fill="#82848E"/>
<path d="M16.2982 25.4276V25.3983L16.4015 25.0385C16.4015 25.0039 16.428 24.9879 16.4572 24.9879H16.4916L17.3394 25.2783V24.3964C17.3382 24.3869 17.3391 24.3773 17.3421 24.3682C17.3451 24.3591 17.35 24.3507 17.3567 24.3438C17.3633 24.3369 17.3713 24.3316 17.3803 24.3282C17.3892 24.3249 17.3988 24.3236 17.4083 24.3245H17.7606C17.8057 24.3245 17.8268 24.3485 17.8268 24.3964V25.2783L18.6746 24.9879H18.7091C18.7231 24.9883 18.7365 24.9936 18.7472 25.0028C18.7578 25.012 18.7649 25.0247 18.7674 25.0385L18.8707 25.3983C18.8713 25.408 18.8713 25.4178 18.8707 25.4276C18.8707 25.442 18.866 25.456 18.8575 25.4675C18.8488 25.4791 18.8367 25.4875 18.823 25.4915L17.9752 25.7579L18.5051 26.4827C18.5149 26.4973 18.5221 26.5135 18.5263 26.5306C18.5256 26.5411 18.5226 26.5513 18.5176 26.5606C18.5125 26.5698 18.5055 26.5777 18.4971 26.5839L18.211 26.7917C18.1936 26.8035 18.1736 26.8108 18.1527 26.8131C18.1423 26.8124 18.1324 26.8087 18.124 26.8026C18.1156 26.7965 18.109 26.7881 18.105 26.7784L17.5752 26.0537L17.0453 26.7784C17.0414 26.7881 17.0348 26.7965 17.0264 26.8026C17.018 26.8087 17.008 26.8124 16.9976 26.8131C16.977 26.81 16.9572 26.8027 16.9394 26.7917L16.6532 26.5839C16.6447 26.578 16.6377 26.5701 16.6331 26.5608C16.6285 26.5514 16.6263 26.5411 16.6267 26.5306C16.6296 26.5131 16.6369 26.4966 16.6479 26.4827L17.1778 25.7579L16.33 25.4915C16.3192 25.485 16.3105 25.4755 16.3049 25.4642C16.2992 25.4529 16.2969 25.4402 16.2982 25.4276Z" fill="#82848E"/>
<path d="M11.2491 24.0973V24.068L11.3498 23.7083C11.3498 23.6763 11.3789 23.6577 11.4081 23.6577H11.4425L12.2903 23.9481V23.0742C12.289 23.0647 12.29 23.055 12.293 23.0459C12.2959 23.0368 12.3009 23.0285 12.3075 23.0216C12.3141 23.0146 12.3222 23.0093 12.3312 23.006C12.3401 23.0026 12.3497 23.0013 12.3592 23.0022H12.7089C12.7184 23.0013 12.7279 23.0026 12.7369 23.006C12.7458 23.0093 12.7539 23.0146 12.7605 23.0216C12.7671 23.0285 12.7721 23.0368 12.7751 23.0459C12.7781 23.055 12.779 23.0647 12.7778 23.0742V23.9561L13.6255 23.6657H13.66C13.6865 23.6657 13.705 23.6817 13.7183 23.7163L13.819 24.076C13.8201 24.0857 13.8201 24.0956 13.819 24.1053C13.8187 24.12 13.814 24.1342 13.8054 24.1461C13.7969 24.158 13.785 24.167 13.7712 24.1719L12.9235 24.4384L13.4533 25.1631C13.4635 25.1772 13.4699 25.1937 13.4719 25.2111C13.4717 25.221 13.4691 25.2307 13.4645 25.2395C13.46 25.2483 13.4534 25.2559 13.4454 25.2617L13.1592 25.4722C13.1418 25.4839 13.1218 25.4912 13.101 25.4935C13.0908 25.4922 13.081 25.4884 13.0727 25.4823C13.0644 25.4763 13.0577 25.4682 13.0533 25.4588L12.5234 24.7341L11.9936 25.4588C11.9892 25.4682 11.9825 25.4763 11.9741 25.4823C11.9658 25.4884 11.9561 25.4922 11.9459 25.4935C11.9252 25.4903 11.9054 25.4831 11.8876 25.4722L11.6015 25.2617C11.5928 25.2564 11.5856 25.2489 11.5805 25.2401C11.5754 25.2312 11.5726 25.2213 11.5723 25.2111C11.5755 25.1936 11.5828 25.1771 11.5935 25.1631L12.1234 24.4384L11.2756 24.1719C11.2644 24.1635 11.2559 24.1519 11.2512 24.1386C11.2465 24.1254 11.2458 24.111 11.2491 24.0973Z" fill="#82848E"/>
<path d="M7.72731 20.5356V20.5063L7.82801 20.1466C7.82801 20.1119 7.85713 20.0959 7.88631 20.0959H7.92072L8.7685 20.3864V19.5044C8.7685 19.4591 8.7897 19.4378 8.83738 19.4352H9.18708C9.19643 19.4338 9.20598 19.4347 9.21494 19.4377C9.22389 19.4407 9.23207 19.4458 9.23873 19.4526C9.24543 19.4592 9.25043 19.4674 9.25346 19.4764C9.25645 19.4855 9.25728 19.495 9.25596 19.5044V20.3891L10.1037 20.0959H10.1382C10.1647 20.0959 10.1832 20.1119 10.1965 20.1466L10.2971 20.5063C10.2987 20.516 10.2987 20.5259 10.2971 20.5356C10.2971 20.55 10.2925 20.564 10.2839 20.5756C10.2753 20.5871 10.2632 20.5955 10.2495 20.5995L9.40169 20.866L9.93153 21.588C9.94157 21.6032 9.94793 21.6206 9.95008 21.6387C9.9495 21.6485 9.94685 21.6581 9.9423 21.6668C9.9377 21.6756 9.93134 21.6832 9.9236 21.6893L9.63748 21.8998C9.61996 21.9109 9.59989 21.9173 9.57918 21.9184C9.5688 21.9177 9.55887 21.9141 9.5504 21.908C9.54198 21.9019 9.53542 21.8935 9.5315 21.8838L9.00166 21.1591L8.47176 21.8838C8.46785 21.8935 8.46129 21.9019 8.45287 21.908C8.44445 21.9141 8.43446 21.9177 8.42408 21.9184C8.40352 21.9166 8.38365 21.9102 8.36583 21.8998L8.07966 21.6893C8.07149 21.6837 8.06483 21.6761 8.06018 21.6673C8.05558 21.6585 8.05318 21.6486 8.05318 21.6387C8.05538 21.6206 8.06175 21.6032 8.07173 21.588L8.60158 20.866L7.75385 20.5995C7.74401 20.5923 7.73632 20.5826 7.73167 20.5713C7.72697 20.56 7.7255 20.5477 7.72731 20.5356Z" fill="#82848E"/>
<path d="M6.4378 15.5789V15.5496L6.54113 15.1899C6.54246 15.176 6.54887 15.1631 6.55915 15.1537C6.56948 15.1444 6.58284 15.1392 6.59674 15.1393H6.6312L7.47899 15.4297V14.5478C7.47772 14.5383 7.47865 14.5286 7.48163 14.5195C7.48462 14.5104 7.48961 14.502 7.49622 14.4952C7.50283 14.4883 7.5109 14.4829 7.51986 14.4796C7.52877 14.4763 7.53837 14.475 7.54786 14.4759H7.90021C7.94525 14.4759 7.96644 14.4998 7.96644 14.5478V15.4297L8.81423 15.1393H8.84864C8.86254 15.1401 8.87576 15.1455 8.88628 15.1547C8.89681 15.1639 8.90405 15.1762 8.90694 15.1899L9.01028 15.5496C9.01028 15.5656 9.01028 15.5736 9.01028 15.5789C9.01003 15.5936 9.00533 15.6078 8.99681 15.6197C8.98825 15.6316 8.9763 15.6407 8.9626 15.6455L8.11481 15.912L8.64466 16.6367C8.6545 16.6513 8.66165 16.6675 8.66586 16.6846C8.66497 16.6947 8.66189 16.7045 8.65685 16.7132C8.65181 16.722 8.64495 16.7295 8.63673 16.7353L8.35056 16.9458C8.33314 16.9575 8.31316 16.9648 8.29231 16.9671C8.28208 16.9659 8.27239 16.962 8.26402 16.956C8.25569 16.9499 8.24899 16.9418 8.24463 16.9325L7.71474 16.2077L7.18489 16.9325C7.18048 16.9418 7.17383 16.9499 7.16546 16.956C7.15713 16.962 7.14739 16.9659 7.13721 16.9671C7.11655 16.964 7.09673 16.9567 7.07891 16.9458L6.79279 16.7353C6.78447 16.7298 6.77762 16.7223 6.77302 16.7134C6.76836 16.7046 6.76606 16.6947 6.76631 16.6846C6.76915 16.6671 6.77649 16.6506 6.7875 16.6367L7.31735 15.912L6.46957 15.6455C6.4588 15.6383 6.45013 15.6284 6.44455 15.6166C6.43892 15.6049 6.43662 15.5919 6.4378 15.5789Z" fill="#82848E"/>
<path d="M7.72731 10.7293V10.7L7.82795 10.3403C7.82795 10.3083 7.85707 10.2897 7.88625 10.2897H7.92066L8.76845 10.5801V9.69818C8.76722 9.68867 8.76815 9.67898 8.77114 9.66987C8.77412 9.66076 8.77907 9.65244 8.78572 9.64555C8.79233 9.63866 8.80041 9.63334 8.80932 9.62999C8.81828 9.62664 8.82782 9.62536 8.83732 9.62625H9.18702C9.23475 9.62625 9.25595 9.65022 9.25595 9.69818V10.5801L10.1037 10.2897H10.1381C10.1646 10.2897 10.1832 10.3083 10.1964 10.3403L10.2971 10.7C10.2983 10.7097 10.2983 10.7196 10.2971 10.7293C10.2968 10.744 10.2921 10.7582 10.2836 10.7701C10.2751 10.782 10.2632 10.7911 10.2494 10.7959L9.40163 11.0624L9.93152 11.7871C9.94097 11.8016 9.94728 11.8179 9.95002 11.835C9.94983 11.845 9.94733 11.8547 9.94273 11.8635C9.93813 11.8723 9.93157 11.8799 9.92354 11.8857L9.63742 12.0962C9.62 12.1079 9.59998 12.1152 9.57912 12.1175C9.56894 12.1162 9.5592 12.1124 9.55088 12.1064C9.54251 12.1003 9.53585 12.0922 9.53144 12.0829L9.0016 11.3581L8.47175 12.0829C8.46735 12.0922 8.46064 12.1003 8.45232 12.1064C8.444 12.1124 8.43426 12.1162 8.42403 12.1175C8.40342 12.1144 8.38359 12.1071 8.36577 12.0962L8.07965 11.8857C8.07128 11.8802 8.06448 11.8727 8.05983 11.8638C8.05518 11.855 8.05288 11.8451 8.05312 11.835C8.05587 11.8179 8.06218 11.8016 8.07168 11.7871L8.60157 11.0624L7.75379 10.7959C7.74395 10.7881 7.73631 10.7779 7.73166 10.7662C7.72701 10.7545 7.72549 10.7418 7.72731 10.7293Z" fill="#82848E"/>
<path d="M11.1876 7.12466V7.09537L11.2909 6.73564C11.2922 6.72175 11.2986 6.70886 11.3089 6.6995C11.3193 6.69015 11.3326 6.68498 11.3465 6.68503H11.381L12.2473 6.98081V6.1015C12.246 6.09199 12.247 6.08235 12.25 6.07324C12.2529 6.06413 12.2579 6.05581 12.2645 6.04892C12.2712 6.04198 12.2792 6.03666 12.2881 6.03331C12.2971 6.02996 12.3067 6.02868 12.3162 6.02957H12.6685C12.7136 6.02957 12.7348 6.05354 12.7348 6.1015V6.98081L13.5826 6.69035H13.617C13.6309 6.69123 13.6441 6.69665 13.6546 6.7058C13.6651 6.71491 13.6724 6.72732 13.6753 6.741L13.7786 7.10068C13.7786 7.11668 13.7786 7.12466 13.7786 7.12998C13.7783 7.14465 13.7736 7.15892 13.7651 7.17079C13.7566 7.1827 13.7446 7.19171 13.7309 7.19659L12.8831 7.46307L13.413 8.1878C13.4237 8.20183 13.431 8.21827 13.4342 8.23575C13.4333 8.24579 13.4302 8.25554 13.4252 8.2643C13.4201 8.27302 13.4133 8.28055 13.405 8.28636L13.1189 8.49687C13.1015 8.50859 13.0815 8.51592 13.0606 8.51819C13.0504 8.51691 13.0407 8.51307 13.0323 8.50701C13.024 8.50095 13.0173 8.49288 13.0129 8.48353L12.4831 7.7588L11.9532 8.48353C11.9488 8.49288 11.9422 8.50095 11.9338 8.50701C11.9255 8.51307 11.9157 8.51691 11.9055 8.51819C11.8849 8.51504 11.8651 8.5078 11.8472 8.49687L11.5611 8.28636C11.5528 8.28089 11.5459 8.27336 11.5413 8.2645C11.5367 8.25564 11.5344 8.24574 11.5346 8.23575C11.5366 8.21798 11.5441 8.20124 11.5558 8.1878L12.0857 7.46307L11.2379 7.19659C11.2228 7.19191 11.2097 7.18231 11.2005 7.16926C11.1914 7.15627 11.1868 7.14056 11.1876 7.12466Z" fill="#82848E"/>
<path d="M69.7612 0.00292969H34.9863V32.0002H69.7612V0.00292969Z" fill="#82848E"/>
<path d="M42.6059 11.0896H43.647V10.7992H42.6059V10.0531H43.9941V9.7627H42.3145V12.2833H42.6059V11.0896Z" fill="#2A2F3D" stroke="#2A2F3D" stroke-width="0.58" stroke-miterlimit="10"/>
<path d="M45.9994 9.7627L45.0986 12.2833H45.4086L45.6735 11.5239H46.5743L46.8392 12.2833H47.1492L46.2352 9.7627H45.9994ZM45.7636 11.2388L46.116 10.205L46.4683 11.2388H45.7636Z" fill="#2A2F3D" stroke="#2A2F3D" stroke-width="0.58" stroke-miterlimit="10"/>
<path d="M49.9081 11.9928H49.3305V10.0531H49.8895V9.7627H48.4775V10.0531H49.0363V11.9928H48.459V12.2833H49.9081V11.9928Z" fill="#2A2F3D" stroke="#2A2F3D" stroke-width="0.58" stroke-miterlimit="10"/>
<path d="M51.7591 11.2446H52.4321L52.8879 12.2944H53.2134L52.7263 11.1913L52.9329 11.0821L53.1077 10.8156L53.2031 10.4692L53.0998 10.1095L52.835 9.84308L52.509 9.75781H51.457V12.2784H51.7488L51.7591 11.2446ZM51.7591 10.0642H52.4796L52.6862 10.1255L52.8374 10.2774L52.8981 10.4906L52.8374 10.6984L52.7366 10.8502L52.5246 10.9542H51.7591V10.0642Z" fill="#2A2F3D" stroke="#2A2F3D" stroke-width="0.58" stroke-miterlimit="10"/>
<path d="M43.8143 15.2839L43.5706 15.0334L43.1758 14.8789H42.2539V17.3995H43.1758L43.5706 17.2449L43.8143 16.9971L43.968 16.6827L44.0475 16.371V15.9074L43.968 15.5956L43.8143 15.2839ZM43.7534 16.3497L43.6872 16.6161L43.5706 16.8452L43.409 17.0131L43.1176 17.133H42.548V15.1933H43.1229L43.4037 15.3105L43.5706 15.481L43.6898 15.7102L43.7534 15.9767V16.3497Z" fill="#2A2F3D" stroke="#2A2F3D" stroke-width="0.58" stroke-miterlimit="10"/>
<path d="M45.9994 14.8789L45.0986 17.3995H45.4086L45.6735 16.6401H46.5743L46.8392 17.3995H47.1492L46.2352 14.8789H45.9994ZM45.7636 16.355L46.116 15.3212L46.4683 16.355H45.7636Z" fill="#2A2F3D" stroke="#2A2F3D" stroke-width="0.58" stroke-miterlimit="10"/>
<path d="M49.0299 17.3995H49.3211V15.1693H50.1425V14.8789H48.2217V15.1693H49.0299V17.3995Z" fill="#2A2F3D" stroke="#2A2F3D" stroke-width="0.58" stroke-miterlimit="10"/>
<path d="M52.1375 14.8789L51.2236 17.3995H51.5335L51.7983 16.6401H52.7019L52.9668 17.3995H53.2766L52.3627 14.8789H52.1375ZM51.8992 16.355L52.2516 15.3212L52.6065 16.355H51.8992Z" fill="#2A2F3D" stroke="#2A2F3D" stroke-width="0.58" stroke-miterlimit="10"/>
<path d="M43.5299 21.2092L42.7854 21.004L42.6052 20.8734L42.5602 20.7962L42.5284 20.639L42.5814 20.4551L42.7112 20.3246L42.9232 20.2553H43.2013L43.5192 20.3405L43.7206 20.4604L43.8796 20.2127L43.6491 20.0714L43.241 19.9648H42.8701L42.547 20.0714L42.3217 20.3086L42.2264 20.6097L42.2741 20.9027L42.3906 21.0892L42.6556 21.2784L43.3762 21.4756L43.5404 21.5715L43.6226 21.734V21.9472L43.5723 22.0511L43.4875 22.1497L43.2225 22.2536H42.9205L42.6026 22.1577L42.4569 22.0591L42.3906 21.9739L42.1787 22.179L42.2608 22.2776L42.4728 22.4268L42.8569 22.544H43.2729L43.657 22.4028L43.8266 22.2056L43.914 22.0165V21.6701L43.8027 21.3983L43.5299 21.2092Z" fill="#2A2F3D" stroke="#2A2F3D" stroke-width="0.58" stroke-miterlimit="10"/>
<path d="M46.8712 20.3299L46.6195 20.0927L46.2672 19.9648H45.9651L45.6128 20.0927L45.3611 20.3299L45.1995 20.6469L45.1279 20.9667V21.5235L45.1968 21.838L45.3637 22.1684L45.6022 22.4135L45.9625 22.552H46.2804L46.6407 22.4135L46.8791 22.1684L47.0407 21.846L47.1096 21.5316V20.9747L47.0381 20.655L46.8712 20.3299ZM46.8103 21.4916L46.7546 21.758L46.6301 22.0031L46.4711 22.1603L46.2062 22.2563H45.9995L45.7479 22.1603L45.5889 22.0031L45.4644 21.758L45.4088 21.4916V20.9907L45.4618 20.7535L45.5916 20.4871L45.7585 20.3352L45.9995 20.2499H46.2062L46.4499 20.3352L46.6142 20.4871L46.744 20.7535L46.797 20.9907L46.8103 21.4916Z" fill="#2A2F3D" stroke="#2A2F3D" stroke-width="0.58" stroke-miterlimit="10"/>
<path d="M48.6374 20.7775L48.7566 20.5404L48.9261 20.3699L49.178 20.2553H49.456L49.7208 20.3699L49.8295 20.4578L49.9514 20.5963L50.1609 20.3992L50.0228 20.234L49.8642 20.1114L49.4986 19.9648H49.1275L48.7566 20.1274L48.5129 20.3672L48.3592 20.6816L48.293 20.9933V21.5156L48.3592 21.8193L48.5129 22.1364L48.7487 22.3762L49.1275 22.544H49.4986L49.8642 22.3975L50.0228 22.2749L50.1609 22.1097L49.9514 21.9126L49.8324 22.0511L49.7238 22.139L49.456 22.2536H49.178L48.9235 22.1337L48.7566 21.9632L48.6374 21.7287L48.5844 21.4916V21.0146L48.6374 20.7775Z" fill="#2A2F3D" stroke="#2A2F3D" stroke-width="0.58" stroke-miterlimit="10"/>
<path d="M52.3977 20.2836H52.9597V19.9932H51.545V20.2836H52.104V22.2233H51.5264V22.5137H52.9753V22.2233H52.3977V20.2836Z" fill="#2A2F3D" stroke="#2A2F3D" stroke-width="0.58" stroke-miterlimit="10"/>
<path d="M54.5889 22.5137H56.1974V22.2233H54.8806V21.32H55.8024V21.027H54.8806V20.2836H56.1974V19.9932H54.5889V22.5137Z" fill="#2A2F3D" stroke="#2A2F3D" stroke-width="0.58" stroke-miterlimit="10"/>
<path d="M57.4287 20.2836H58.234V22.5137H58.5281V20.2836H59.3495V19.9932H57.4287V20.2836Z" fill="#2A2F3D" stroke="#2A2F3D" stroke-width="0.58" stroke-miterlimit="10"/>
<path d="M62.1405 19.9932L61.4572 21.0962L60.7738 19.9932H60.4238L61.3113 21.3867V22.5137H61.6031V21.3867L62.4905 19.9932H62.1405Z" fill="#2A2F3D" stroke="#2A2F3D" stroke-width="0.58" stroke-miterlimit="10"/>
</svg>
