<svg width="145" height="24" viewBox="0 0 145 24" fill="none" xmlns="http://www.w3.org/2000/svg">
<path d="M35.1622 4.18066V16.7904H41.5305V20.0209H31.4609V4.18066H35.1622Z" fill="#82848E"/>
<path d="M46.168 7.35938H42.8257V20.0205H46.168V7.35938Z" fill="#82848E"/>
<path d="M51.4672 7.35935V9.12224H51.5399C51.9139 8.43324 52.4875 7.87382 53.1854 7.51767C53.8281 7.19186 54.5378 7.02045 55.2583 7.01705C56.01 6.9907 56.7591 7.11885 57.4594 7.39358C57.9959 7.62066 58.4631 7.98517 58.8142 8.45046C59.1609 8.94054 59.3984 9.49939 59.5109 10.0893C59.648 10.794 59.7138 11.5107 59.7075 12.2287V20.0162H56.3652V12.8705C56.4166 12.0625 56.2544 11.2553 55.8951 10.53C55.7112 10.2633 55.459 10.051 55.165 9.91553C54.8709 9.78002 54.5459 9.72622 54.224 9.75978C53.8492 9.72817 53.4725 9.78975 53.1272 9.93904C52.782 10.0883 52.479 10.3207 52.2451 10.6155C51.8177 11.1804 51.6339 12.1089 51.6339 13.3968V20.0204H48.2959V7.35935H51.4672Z" fill="#82848E"/>
<path d="M69.7944 20.0205V18.2576H69.726C69.346 18.8999 68.7667 19.4003 68.0763 19.6824C67.432 20.0031 66.7228 20.1714 66.0034 20.1745C65.2526 20.199 64.5044 20.0739 63.8023 19.8065C63.2644 19.59 62.7959 19.2305 62.4474 18.7668C62.1021 18.3431 61.8632 17.8428 61.7507 17.3077C61.6136 16.6029 61.5478 15.8862 61.5541 15.1683V7.35938H64.8964V14.5093C64.845 15.3173 65.0072 16.1246 65.3665 16.8498C65.5504 17.1165 65.8026 17.3288 66.0967 17.4643C66.3907 17.5998 66.7157 17.6536 67.0377 17.62C67.4124 17.6516 67.7892 17.5901 68.1344 17.4408C68.4796 17.2915 68.7827 17.0591 69.0165 16.7643C69.4439 16.1995 69.6277 15.2752 69.6277 13.983V7.35938H72.9743V20.0205H69.7944Z" fill="#82848E"/>
<path d="M78.2489 7.3596V9.07113H78.296C78.7024 8.4493 79.2464 7.92954 79.8859 7.55214C80.5371 7.18389 81.2752 6.99768 82.0229 7.01301C82.7513 7.0041 83.472 7.16217 84.13 7.47512C84.7998 7.8239 85.3162 8.40953 85.5789 9.1182C85.9658 8.53533 86.4658 8.03624 87.0491 7.65056C87.6993 7.21531 88.4683 6.99258 89.2502 7.01301C89.8552 7.01369 90.4569 7.10159 91.0368 7.27402C91.5623 7.42255 92.0464 7.69052 92.4515 8.05705C92.8622 8.44813 93.1755 8.93032 93.3661 9.46478C93.6036 10.1376 93.7166 10.8481 93.6995 11.5614V20.0335H90.3529V12.8365C90.3529 12.4086 90.3529 12.0107 90.3059 11.6384C90.2863 11.298 90.1991 10.9649 90.0495 10.6586C89.9085 10.3828 89.6921 10.1528 89.4255 9.99536C89.0801 9.81689 88.6939 9.73276 88.3057 9.75147C87.906 9.73314 87.5096 9.83124 87.1645 10.0339C86.8783 10.2158 86.643 10.4676 86.4807 10.7656C86.3078 11.0858 86.1962 11.4355 86.1516 11.7968C86.095 12.1821 86.0665 12.5711 86.0661 12.9606V20.0207H82.7238V12.9178C82.7238 12.5413 82.7238 12.1733 82.6982 11.8053C82.6877 11.4575 82.6213 11.1136 82.5016 10.7869C82.386 10.484 82.1801 10.2241 81.9118 10.0424C81.5442 9.82966 81.1216 9.73134 80.698 9.76002C80.4858 9.76793 80.2758 9.80537 80.0739 9.87127C79.795 9.95725 79.5383 10.1033 79.3217 10.2992C79.0495 10.5417 78.8361 10.8431 78.6977 11.1806C78.506 11.6587 78.4171 12.1719 78.437 12.6867V20.0207H75.0947V7.3596H78.2489Z" fill="#82848E"/>
<path d="M99.3191 4.18066V16.7904H105.687V20.0209H95.6221V4.18066H99.3191Z" fill="#82848E"/>
<path d="M115.159 20.0509L118.407 20.021C118.407 20.021 118.364 17.7746 118.364 17.2055V10.6161C118.397 9.96308 118.224 9.3163 117.868 8.76762C117.539 8.30266 117.098 7.9276 116.586 7.67652C116.049 7.40931 115.471 7.23155 114.877 7.15022C114.259 7.06181 113.637 7.01748 113.013 7.01758C112.337 7.01767 111.663 7.08649 111 7.22296C110.365 7.35133 109.757 7.5872 109.201 7.92041C108.622 8.26438 108.141 8.7516 107.804 9.3353C107.467 9.919 107.286 10.5796 107.278 11.2536H110.624C110.626 10.976 110.685 10.7017 110.798 10.4482C110.912 10.1948 111.076 9.96781 111.282 9.78171C111.739 9.4703 112.286 9.31978 112.838 9.35382C113.123 9.34988 113.407 9.36992 113.689 9.41373C113.931 9.44597 114.164 9.52908 114.372 9.65762C114.572 9.78395 114.734 9.96117 114.843 10.1711C114.975 10.4499 115.036 10.757 115.022 11.0654C115.038 11.2168 115.019 11.3701 114.966 11.5127C114.912 11.6554 114.826 11.7835 114.714 11.8869C114.453 12.0955 114.147 12.2418 113.821 12.3148C113.4 12.4201 112.971 12.4945 112.539 12.5373C112.052 12.5843 111.556 12.6485 111.056 12.7298C110.551 12.8131 110.052 12.9246 109.56 13.0636C109.081 13.1907 108.629 13.4039 108.226 13.6926C107.83 13.9841 107.508 14.3653 107.286 14.8051C107.022 15.3587 106.896 15.9679 106.918 16.5808C106.901 17.1677 107.01 17.7516 107.239 18.2923C107.447 18.6862 107.755 19.0182 108.132 19.2551C108.52 19.5728 108.97 19.806 109.453 19.9397C109.981 20.0925 110.528 20.1674 111.077 20.1622C111.828 20.1618 112.575 20.0463 113.291 19.8199C114 19.6586 114.652 19.3065 115.176 18.8015C115.176 19.0154 115.176 19.4433 115.176 19.4433L115.159 20.0509ZM115.022 15.1217C115.017 15.3836 114.997 15.645 114.962 15.9047C114.919 16.2456 114.812 16.5751 114.646 16.876C114.453 17.2132 114.176 17.4947 113.842 17.6933C113.375 17.949 112.844 18.0676 112.312 18.0356C112.057 18.0391 111.802 18.0176 111.552 17.9714C111.317 17.931 111.093 17.8437 110.893 17.7147C110.703 17.5899 110.548 17.4173 110.445 17.214C110.328 16.9699 110.273 16.7013 110.282 16.431C110.27 16.1522 110.325 15.8746 110.445 15.6223C110.546 15.4174 110.692 15.2377 110.872 15.096C111.064 14.9505 111.28 14.8377 111.509 14.7623C111.752 14.6811 112 14.6167 112.252 14.5697C112.517 14.5184 112.782 14.4799 113.052 14.4456C113.321 14.4114 113.573 14.3729 113.817 14.3216C114.049 14.278 114.278 14.2165 114.501 14.1376C114.697 14.0748 114.877 13.9713 115.031 13.8338L115.022 15.1217Z" fill="#82848E"/>
<path d="M132.26 10.6972C132.007 9.93971 131.611 9.23804 131.093 8.63051C130.658 8.11208 130.115 7.69452 129.503 7.40677C128.931 7.15181 128.312 7.01918 127.686 7.01739C126.938 7.01577 126.197 7.17024 125.511 7.47095C124.822 7.76296 124.241 8.26244 123.848 8.90008H123.801V4.19336H120.459V20.0251H123.639V18.3991H123.686C124.03 19.0269 124.602 19.4975 125.284 19.7127C126.049 20.0111 126.865 20.1565 127.686 20.1406C128.313 20.1372 128.931 20.0031 129.503 19.7469C130.121 19.4696 130.67 19.0608 131.114 18.5489C131.62 18.0143 132.01 17.3805 132.26 16.6876C132.578 15.7219 132.73 14.709 132.708 13.6924C132.729 12.6758 132.577 11.663 132.26 10.6972ZM129.199 15.2413C129.1 15.6959 128.924 16.1301 128.678 16.525C128.453 16.8841 128.151 17.1882 127.793 17.415C127.401 17.6326 126.96 17.7468 126.511 17.7468C126.062 17.7468 125.621 17.6326 125.229 17.415C124.866 17.1905 124.56 16.8843 124.336 16.5207C124.09 16.1258 123.913 15.6916 123.814 15.237C123.705 14.7381 123.651 14.2288 123.652 13.7181C123.65 13.2002 123.705 12.6838 123.814 12.1777C123.913 11.7231 124.09 11.2889 124.336 10.894C124.555 10.518 124.862 10.1997 125.229 9.96551C125.621 9.74785 126.062 9.63366 126.511 9.63366C126.96 9.63366 127.401 9.74785 127.793 9.96551C128.15 10.194 128.451 10.4996 128.674 10.8598C128.92 11.2546 129.096 11.6888 129.195 12.1434C129.305 12.6495 129.359 13.166 129.357 13.6838C129.361 14.2001 129.308 14.7152 129.199 15.2199V15.2413Z" fill="#82848E"/>
<path d="M137.123 16.8762C137.263 17.1389 137.46 17.3669 137.7 17.5437C137.944 17.7203 138.22 17.8495 138.512 17.9245C138.823 18.0058 139.143 18.0461 139.465 18.0443C139.708 18.0471 139.95 18.0227 140.187 17.9715C140.437 17.92 140.676 17.829 140.897 17.702C141.108 17.5817 141.289 17.4149 141.427 17.2142C141.574 16.9851 141.647 16.7162 141.636 16.444C141.636 15.922 141.303 15.5283 140.636 15.2673C139.727 14.9371 138.794 14.6754 137.845 14.4843C137.358 14.3688 136.883 14.2361 136.422 14.0778C135.982 13.9357 135.566 13.7295 135.187 13.4659C134.833 13.2165 134.541 12.8903 134.332 12.5117C134.099 12.08 133.986 11.5942 134.003 11.104C133.973 10.4062 134.131 9.71312 134.46 9.09723C134.752 8.58671 135.17 8.15955 135.674 7.85636C136.202 7.54552 136.781 7.33109 137.384 7.22309C138.019 7.09882 138.664 7.03719 139.311 7.03911C139.956 7.03745 140.599 7.10197 141.23 7.23165C141.819 7.35243 142.382 7.57699 142.893 7.89487C143.384 8.21197 143.798 8.63434 144.107 9.13146C144.452 9.72466 144.65 10.3924 144.684 11.0783H141.504C141.512 10.8072 141.449 10.5386 141.321 10.2996C141.193 10.0607 141.004 9.85994 140.773 9.71766C140.292 9.47179 139.757 9.34973 139.217 9.36251C139.013 9.36348 138.809 9.37634 138.606 9.40102C138.4 9.42274 138.198 9.47613 138.008 9.55934C137.827 9.63863 137.669 9.76049 137.546 9.91448C137.402 10.1249 137.337 10.3797 137.363 10.6335C137.389 10.8874 137.503 11.1238 137.687 11.3008C137.939 11.5126 138.229 11.6738 138.542 11.7758C138.939 11.9121 139.344 12.0235 139.756 12.1095C140.213 12.2037 140.675 12.3106 141.145 12.4262C141.626 12.5435 142.101 12.6863 142.568 12.854C143.012 13.0065 143.43 13.2258 143.807 13.5044C144.16 13.7752 144.452 14.1179 144.662 14.51C144.894 14.9679 145.008 15.4771 144.991 15.9904C145.017 16.6612 144.849 17.3252 144.508 17.9031C144.2 18.4477 143.768 18.9122 143.247 19.2595C142.704 19.6006 142.101 19.8344 141.469 19.9484C140.799 20.0892 140.116 20.1594 139.431 20.158C138.735 20.1599 138.041 20.0853 137.362 19.9355C136.721 19.8043 136.11 19.5563 135.559 19.2038C135.033 18.8536 134.595 18.3883 134.276 17.8432C133.916 17.2609 133.723 16.59 133.721 15.9049H136.901C136.891 16.2423 136.967 16.5767 137.123 16.8762Z" fill="#82848E"/>
<path d="M27.5118 16.5933L23.7507 10.0724L23.5797 9.77714H20.5152L21.8829 7.40667L22.0496 7.11143L21.8829 6.81619L18.1132 0.29524L17.9508 0H9.74046L9.5695 0.29524L5.80838 6.81619L5.63742 7.11143L5.80838 7.40667L7.17606 9.77714H4.10305L3.93209 10.0724L0.17096 16.5933L0 16.8886L0.17096 17.1838L3.93209 23.7048L4.10305 24H12.3049L12.4758 23.7048L13.8392 21.3343L15.2069 23.7048L15.3779 24H23.5797L23.7507 23.7048L27.5118 17.1838L27.6827 16.8886L27.5118 16.5933ZM16.0788 10.2992V10.2692L17.6046 7.22696H20.8401L19.0236 10.2992H16.0788ZM19.498 10.8083L22.7463 16.7303H19.5536L17.173 12.3658L16.3182 10.7869L19.498 10.8083ZM15.6172 10.1836L13.8264 13.4869H10.8346L14.1042 7.22696H17.1388L15.6172 10.1836ZM10.4884 13.1788L8.89421 10.5302L12.1937 4.27884L13.7837 7.03013L10.4884 13.1788ZM10.1807 13.4484H6.33408L4.79116 10.7698L8.63777 10.834L10.1807 13.4484ZM10.5611 13.8506H10.6124L13.8521 13.8891L14.7624 15.6648L15.271 16.6875L8.16336 16.5933L6.61189 13.8335L10.5611 13.8506ZM15.0915 15.4894L14.2154 13.6923L15.7796 10.6586H15.8138L16.831 12.5156L19.1903 16.9699L17.4807 20.0806L16.2412 17.7272L15.0915 15.4894ZM17.6559 20.624L19.6262 17.1667L19.6604 17.1153H22.7847L19.4938 23.0629L16.2412 23.1057L17.6559 20.624ZM19.9895 10.8083H23.101L26.4988 16.7303H23.896H23.1822L19.9895 10.8083ZM17.4721 6.84614H14.1042L12.5143 4.08629H19.186L20.8272 6.84614H17.4721ZM12.2963 3.71403L11.8518 2.99519L10.5696 0.889998H17.3696L18.9723 3.70547L12.2963 3.71403ZM11.5398 3.20057L11.9672 3.91514L8.6164 10.158L6.79567 7.03013L10.2149 1.07399L11.5398 3.20057ZM7.83853 16.7773L6.23578 19.5415L2.87641 13.795L4.47489 10.9453L7.83853 16.7773ZM6.02635 19.918L5.79983 20.3459L4.45352 22.849L1.03431 16.9485L2.64988 14.1672L6.02635 19.918ZM4.80398 23.08L6.12893 20.5127L6.35972 20.0849H13.3178L11.6296 23.0415L4.80398 23.08ZM6.56915 19.7254L8.15908 16.9656L14.9975 17.0811L13.3947 19.7254H6.56915ZM15.4548 17.1153L15.9036 17.8941L17.2499 20.5384L15.9079 22.9517L14.023 19.5842L15.4548 17.1153ZM19.9041 23.0544L23.2762 17.1153H23.8917L26.5031 17.1453L23.0796 23.0715L19.9041 23.0544Z" fill="#82848E"/>
</svg>
