<svg width="96" height="24" viewBox="0 0 96 24" fill="none" xmlns="http://www.w3.org/2000/svg">
<path d="M54.7656 7.77464L53.3275 17.8562C53.3268 17.8594 53.325 17.8623 53.3224 17.8644C53.3198 17.8665 53.3167 17.8677 53.3133 17.8677C53.31 17.8677 53.3068 17.8665 53.3042 17.8644C53.3017 17.8623 53.2999 17.8594 53.2992 17.8562L52.0362 7.77401C52.0357 7.77041 52.034 7.76712 52.0313 7.76466C52.0287 7.76226 52.0254 7.76087 52.0217 7.76074H48.4377C48.4341 7.76074 48.4306 7.76207 48.4279 7.76453C48.4252 7.76699 48.4236 7.77034 48.4232 7.77401L47.1596 17.8562C47.1589 17.8594 47.1572 17.8623 47.1546 17.8644C47.152 17.8665 47.1488 17.8677 47.1454 17.8677C47.1422 17.8677 47.139 17.8665 47.1364 17.8644C47.1338 17.8623 47.1321 17.8594 47.1314 17.8562L45.6933 7.77464C45.6929 7.77116 45.6914 7.76794 45.6888 7.76561C45.6862 7.76327 45.6829 7.76201 45.6795 7.76201H43.494C43.4919 7.76207 43.4898 7.76257 43.488 7.76352C43.4861 7.7644 43.4844 7.76573 43.4831 7.76731C43.4817 7.76889 43.4807 7.77078 43.4801 7.77281C43.4795 7.77483 43.4794 7.77697 43.4796 7.77906L45.3036 19.447C45.3042 19.4504 45.3059 19.4535 45.3086 19.4556C45.3113 19.4578 45.3146 19.459 45.318 19.459H48.8945C48.8979 19.4592 48.9012 19.458 48.9038 19.4558C48.9064 19.4535 48.908 19.4504 48.9083 19.447L50.2134 9.38188C50.2141 9.3786 50.2159 9.37569 50.2184 9.37361C50.221 9.37152 50.2242 9.37032 50.2275 9.37032C50.2308 9.37032 50.2341 9.37152 50.2366 9.37361C50.2391 9.37569 50.241 9.3786 50.2417 9.38188L51.5468 19.447C51.5472 19.4504 51.5489 19.4536 51.5516 19.4558C51.5543 19.458 51.5577 19.4592 51.5612 19.459H55.1377C55.141 19.4589 55.1443 19.4577 55.1469 19.4555C55.1495 19.4534 55.1513 19.4503 55.152 19.447L56.9754 7.77906C56.9758 7.77697 56.9757 7.77489 56.9752 7.77287C56.9746 7.77085 56.9738 7.76895 56.9724 7.76731C56.9711 7.76573 56.9695 7.76441 56.9676 7.76346C56.9657 7.76257 56.9637 7.76207 56.9617 7.76201H54.7762C54.7727 7.76207 54.7694 7.76339 54.7668 7.76573C54.7641 7.768 54.7624 7.77116 54.7618 7.77464" fill="#82848E"/>
<path d="M94.9031 8.32437C94.639 8.02873 94.3127 7.79643 93.9481 7.64448C93.583 7.49252 93.1889 7.42475 92.7943 7.44629C92.2634 7.42627 91.7383 7.56212 91.2827 7.83717C90.8272 8.11222 90.4608 8.51467 90.2286 8.99542H90.2198C90.073 8.57429 89.812 8.20267 89.4669 7.92225C89.0471 7.59521 88.5263 7.42639 87.9955 7.44502C87.4848 7.43416 86.9822 7.57658 86.5524 7.8541C86.1897 8.10427 85.9042 8.45119 85.7267 8.85591V7.77704C85.7267 7.77319 85.7254 7.76953 85.7223 7.76681C85.7198 7.76403 85.716 7.76252 85.7122 7.76252H83.5789C83.5751 7.76252 83.5714 7.76403 83.5688 7.76681C83.5663 7.76953 83.5645 7.77319 83.5645 7.77704V19.4457C83.5645 19.4475 83.5651 19.4494 83.5657 19.4511C83.5663 19.4528 83.5676 19.4544 83.5688 19.4557C83.5701 19.457 83.572 19.458 83.5732 19.4587C83.5751 19.4593 83.577 19.4596 83.5789 19.4595H85.7122C85.7141 19.4596 85.716 19.4593 85.7179 19.4587C85.7197 19.458 85.721 19.457 85.7223 19.4557C85.7241 19.4544 85.7248 19.4528 85.7254 19.4511C85.7266 19.4494 85.7267 19.4475 85.7267 19.4457V11.47C85.7022 10.9621 85.844 10.4601 86.1288 10.0402C86.2556 9.87022 86.4225 9.73443 86.6139 9.64494C86.8052 9.55551 87.0161 9.51521 87.2269 9.52759C87.4045 9.51976 87.5814 9.55355 87.7439 9.62612C87.9058 9.69875 88.0495 9.80833 88.1624 9.94614C88.4134 10.261 88.5414 10.6567 88.5238 11.0597V19.4457C88.5238 19.4475 88.5245 19.4494 88.5251 19.4511C88.5257 19.4528 88.527 19.4544 88.5282 19.4557C88.5295 19.457 88.5314 19.458 88.5326 19.4587C88.5345 19.4593 88.5364 19.4596 88.5383 19.4595H90.6716C90.6735 19.4596 90.6754 19.4593 90.6772 19.4587C90.6791 19.458 90.6804 19.457 90.6816 19.4557C90.6829 19.4544 90.6841 19.4528 90.6848 19.4511C90.6854 19.4494 90.686 19.4475 90.686 19.4457V11.607C90.6402 11.0441 90.7877 10.4824 91.1039 10.0155C91.2306 9.85715 91.3925 9.73064 91.5764 9.64601C91.7608 9.56144 91.9616 9.52109 92.1637 9.52822C92.3519 9.51048 92.5414 9.54035 92.7146 9.61526C92.8884 9.69016 93.0402 9.80757 93.1569 9.95688C93.3866 10.3113 93.5008 10.7291 93.4826 11.1519V19.4457C93.4826 19.4475 93.4832 19.4494 93.4838 19.4511C93.4844 19.4528 93.4857 19.4544 93.487 19.4557C93.4882 19.457 93.4901 19.458 93.4914 19.4587C93.4932 19.4593 93.4951 19.4596 93.497 19.4595H95.6448V10.5591C95.678 9.74763 95.4157 8.95191 94.9062 8.32184" fill="#82848E"/>
<path d="M69.9001 18.187L68.5492 19.7053C68.546 19.7078 68.5429 19.7092 68.5385 19.7092C68.5347 19.7092 68.5316 19.7078 68.5285 19.7053L66.1479 17.6296C66.1454 17.628 66.1429 17.6271 66.1398 17.6271C66.1366 17.6271 66.1341 17.628 66.1316 17.6296L63.2842 19.3025C62.8199 19.5754 62.2912 19.7184 61.7532 19.7167C60.9462 19.7112 60.1709 19.3991 59.5828 18.8429C59.2797 18.5584 59.0396 18.2128 58.8782 17.8286C58.7168 17.4444 58.6377 17.0303 58.6461 16.6133C58.6459 16.0668 58.7894 15.53 59.0623 15.0575C59.3352 14.585 59.7277 14.1937 60.1997 13.9234L65.9503 10.5946C65.9528 10.5934 65.954 10.5915 65.9559 10.5893C65.9572 10.5871 65.9578 10.5846 65.9578 10.582V9.84596C65.9578 9.84192 65.9559 9.83806 65.9534 9.83522C65.9503 9.83238 65.9465 9.8308 65.9427 9.8308H59.229C59.2271 9.8308 59.2252 9.83042 59.2236 9.82966C59.2219 9.82891 59.2203 9.82783 59.219 9.82651C59.2177 9.82512 59.2167 9.82354 59.216 9.82177C59.2154 9.82 59.2151 9.81811 59.2152 9.81627V7.77659C59.2152 7.77293 59.2167 7.76939 59.2193 7.7668C59.2219 7.76415 59.2253 7.7627 59.229 7.7627H67.997C68.0008 7.7627 68.0045 7.76415 68.0071 7.76674C68.0096 7.76933 68.0114 7.77286 68.0114 7.77659V16.5142C68.0114 16.5182 68.0133 16.5221 68.0165 16.5248L69.8988 18.1662C69.9001 18.1675 69.9013 18.1691 69.902 18.1709C69.9032 18.1727 69.9032 18.1747 69.9032 18.1766C69.9032 18.1786 69.9032 18.1805 69.902 18.1824C69.9013 18.1841 69.9001 18.1857 69.8988 18.187H69.9001ZM62.2571 17.509L65.9515 15.3526C65.9534 15.3513 65.9559 15.3495 65.9572 15.3473C65.9584 15.3451 65.9591 15.3425 65.9591 15.3399V13.0042C65.9591 13.0017 65.9584 12.9992 65.9565 12.9971C65.9553 12.9949 65.9534 12.9932 65.9515 12.9919C65.949 12.9907 65.9465 12.99 65.944 12.9899C65.9415 12.9898 65.9396 12.9905 65.9371 12.9916L61.2312 15.7143C61.0701 15.8007 60.9357 15.9302 60.8429 16.0885C60.7502 16.2468 60.7026 16.4276 60.7054 16.6114C60.7121 16.8836 60.8226 17.1429 61.014 17.3355C61.2054 17.5281 61.4632 17.6393 61.7338 17.646C61.9181 17.6494 62.0998 17.6015 62.2589 17.5078" fill="#82848E"/>
<path d="M80.1753 8.57998C79.8246 8.21442 79.4029 7.92503 78.9361 7.72962C78.4699 7.53421 77.9686 7.43688 77.4635 7.4437C76.8749 7.42785 76.2914 7.55486 75.7624 7.814C75.2329 8.07307 74.7736 8.45663 74.4228 8.93221C74.4216 8.93372 74.4203 8.93486 74.4184 8.93568C74.4166 8.9365 74.4147 8.93688 74.4128 8.93688C74.4109 8.93688 74.409 8.9365 74.4071 8.93568C74.4059 8.93486 74.404 8.93372 74.4028 8.93221L73.0462 7.67979C73.0449 7.6784 73.0437 7.67732 73.0418 7.67657C73.0399 7.67581 73.038 7.67543 73.0362 7.67543C73.0343 7.67543 73.0324 7.67581 73.0305 7.67657C73.0293 7.67732 73.0274 7.6784 73.0261 7.67979L71.6897 9.18162C71.6884 9.18288 71.6871 9.18446 71.6865 9.18617C71.6859 9.18794 71.6853 9.18983 71.6853 9.19172C71.6853 9.19356 71.6859 9.19545 71.6865 9.19722C71.6871 9.19893 71.6884 9.2005 71.6897 9.20177L73.6172 10.9612C73.6191 10.9625 73.6197 10.9642 73.6209 10.966C73.6216 10.9679 73.6216 10.9699 73.6216 10.9719V17.392C73.6216 17.3939 73.6216 17.3957 73.6209 17.3975C73.6203 17.3993 73.6191 17.4009 73.6178 17.4023C73.6166 17.4036 73.6153 17.4047 73.6134 17.4054C73.6115 17.4062 73.6097 17.4065 73.6078 17.4065H71.6922C71.6884 17.4065 71.6846 17.4081 71.6821 17.4108C71.679 17.4135 71.6777 17.4172 71.6777 17.4211V19.4374C71.6777 19.4412 71.679 19.4449 71.6821 19.4476C71.6846 19.4503 71.6884 19.4519 71.6922 19.4519H78.5941C78.5979 19.4519 78.6017 19.4503 78.6042 19.4476C78.6073 19.4449 78.6086 19.4412 78.6086 19.4374V17.4223C78.6086 17.4185 78.6073 17.4148 78.6042 17.412C78.6017 17.4093 78.5979 17.4078 78.5941 17.4078H75.6689C75.6671 17.4078 75.6652 17.4074 75.6633 17.4067C75.662 17.406 75.6602 17.4049 75.6589 17.4036C75.6577 17.4022 75.6564 17.4006 75.6558 17.3988C75.6551 17.3971 75.6545 17.3952 75.6545 17.3933V11.4056C75.6451 10.9412 75.8064 10.4896 76.1075 10.1375C76.4087 9.78528 76.8279 9.55735 77.2859 9.49722C77.5369 9.47372 77.7897 9.50303 78.0282 9.58324C78.2672 9.66351 78.4862 9.79293 78.6726 9.96326C78.8589 10.1336 79.0082 10.3411 79.1105 10.5726C79.2122 10.8041 79.2655 11.0544 79.2661 11.3078V11.9744C79.2661 11.9783 79.268 11.982 79.2705 11.9849C79.273 11.9877 79.2768 11.9894 79.2806 11.9896H81.2884C81.2903 11.9896 81.2922 11.9891 81.294 11.9884C81.2959 11.9876 81.2978 11.9865 81.2991 11.9851C81.3003 11.9836 81.3016 11.982 81.3022 11.9801C81.3028 11.9783 81.3028 11.9764 81.3028 11.9744V11.3078C81.3097 10.7996 81.2125 10.2955 81.0186 9.82634C80.8241 9.35726 80.5367 8.93309 80.1734 8.57998" fill="#82848E"/>
<path d="M41.3819 14.5988C41.2471 14.2772 41.0377 13.9928 40.7714 13.7693C40.4973 13.5066 40.1709 13.3054 39.8139 13.179C39.458 13.0145 39.0883 12.8827 38.7089 12.7851C38.3281 12.6828 37.9171 12.5755 37.454 12.4872C36.7594 12.3786 36.0883 12.1519 35.4694 11.8167C35.2893 11.7142 35.1384 11.5668 35.0314 11.3885C34.9245 11.2103 34.865 11.0073 34.8586 10.7992C34.8524 10.5911 34.8995 10.3848 34.9954 10.2004C35.0914 10.0159 35.233 9.85947 35.4066 9.7461C35.9395 9.41168 36.5814 9.30039 37.1949 9.43618C37.7826 9.58397 38.3227 9.88113 38.7635 10.2991C38.8545 10.38 39.7844 11.2397 39.7674 11.2593L41.1045 9.73536C41.1045 9.73536 40.4608 9.07947 40.1558 8.81244C39.4408 8.1369 38.5521 7.67635 37.5902 7.48296C36.5875 7.32463 35.5606 7.48088 34.6493 7.93056C34.4083 8.05574 34.1809 8.20599 33.971 8.37879C33.597 8.67494 33.2966 9.05458 33.0935 9.48772C32.8904 9.92079 32.7903 10.3955 32.8009 10.8742C32.7642 11.3146 32.8378 11.7573 33.0151 12.1617C33.1923 12.5661 33.4674 12.9193 33.8154 13.1892C34.6395 13.7501 35.5723 14.1293 36.5524 14.3021C37.3253 14.4408 38.0799 14.6686 38.8011 14.9807C38.9918 15.0425 39.1576 15.1648 39.2735 15.3292C39.3894 15.4936 39.4493 15.6913 39.4443 15.8929C39.4565 16.1401 39.4018 16.3861 39.2858 16.6045C39.1699 16.8229 38.9971 17.0055 38.786 17.1327C38.2769 17.4259 37.7007 17.581 37.1141 17.5829C36.5274 17.5848 35.9503 17.4334 35.4392 17.1435C35.0255 16.8697 34.637 16.5591 34.2784 16.2155C33.9898 15.968 33.7137 15.7023 33.4389 15.4428L33.4283 15.4314L32.127 17.0096C32.1226 17.0147 32.7632 17.6062 32.8172 17.6573C33.6455 18.4978 34.6873 19.0932 35.8289 19.3788C36.2523 19.465 36.6833 19.5073 37.1151 19.5051C38.2606 19.5463 39.3856 19.1931 40.3045 18.5039C40.7343 18.1812 41.0799 17.7585 41.3117 17.272C41.5435 16.7854 41.6545 16.2497 41.6353 15.7105C41.6359 15.3249 41.5479 14.9444 41.3781 14.5988" fill="#82848E"/>
<path d="M10.9515 20.9066V14.7359L5.4758 11.6426L0 14.7359V20.9059L5.4758 23.9992L10.9515 20.9066Z" fill="#82848E"/>
<path d="M18.1021 6.56659L18.1278 6.57985L21.0198 4.94545V1.64828L18.1021 0L15.207 1.63565V1.66153V4.93093L18.1021 6.56659Z" fill="#82848E"/>
<path d="M12.5352 14.7368V20.9069L18.0109 24.0002L23.4879 20.9069V14.7368L18.0115 11.6436L12.5352 14.7368Z" fill="#82848E"/>
<path d="M14.5176 6.16518L13.7999 5.75989V2.12562L11.7035 0.866211L6.2334 3.95948V10.1296L11.7086 13.2229L17.1843 10.1296V7.67143L14.5176 6.16518Z" fill="#82848E"/>
</svg>
