<svg width="16" height="16" viewBox="0 0 16 16" fill="none" xmlns="http://www.w3.org/2000/svg">
<path d="M4.70573 6.42688V4.86722C4.70573 4.7781 4.77796 4.70587 4.86707 4.70587H6.42674C6.51585 4.70587 6.58808 4.7781 6.58808 4.86722V6.42688C6.58808 6.516 6.51585 6.58822 6.42674 6.58822H4.86707C4.77796 6.58822 4.70573 6.516 4.70573 6.42688Z" fill="#82848E"/>
<path d="M14.1177 6.42688V4.86722C14.1177 4.7781 14.1899 4.70587 14.279 4.70587H15.8387C15.9278 4.70587 16 4.7781 16 4.86722V6.42688C16 6.516 15.9278 6.58822 15.8387 6.58822H14.279C14.1899 6.58822 14.1177 6.516 14.1177 6.42688Z" fill="#82848E"/>
<path d="M4.70573 15.8386V14.279C4.70573 14.1899 4.77796 14.1176 4.86707 14.1176H6.42674C6.51585 14.1176 6.58808 14.1899 6.58808 14.279V15.8386C6.58808 15.9278 6.51585 16 6.42674 16H4.86707C4.77796 16 4.70573 15.9278 4.70573 15.8386Z" fill="#82848E"/>
<path d="M14.1177 15.8386V14.279C14.1177 14.1899 14.1899 14.1176 14.279 14.1176H15.8387C15.9278 14.1176 16 14.1899 16 14.279V15.8386C16 15.9278 15.9278 16 15.8387 16H14.279C14.1899 16 14.1177 15.9278 14.1177 15.8386Z" fill="#82848E"/>
<path d="M0 6.42688V4.86722C0 4.7781 0.0722366 4.70587 0.161345 4.70587H1.72101C1.81012 4.70587 1.88235 4.7781 1.88235 4.86722V6.42688C1.88235 6.516 1.81012 6.58822 1.72101 6.58822H0.161345C0.0722366 6.58822 0 6.516 0 6.42688Z" fill="#82848E"/>
<path d="M9.41179 6.42688V4.86722C9.41179 4.7781 9.48402 4.70587 9.57313 4.70587H11.1328C11.2219 4.70587 11.2941 4.7781 11.2941 4.86722V6.42688C11.2941 6.516 11.2219 6.58822 11.1328 6.58822H9.57313C9.48402 6.58822 9.41179 6.516 9.41179 6.42688Z" fill="#82848E"/>
<path d="M0 15.8386V14.279C0 14.1899 0.0722366 14.1176 0.161345 14.1176H1.72101C1.81012 14.1176 1.88235 14.1899 1.88235 14.279V15.8386C1.88235 15.9278 1.81012 16 1.72101 16H0.161345C0.0722366 16 0 15.9278 0 15.8386Z" fill="#82848E"/>
<path d="M9.41179 15.8386V14.279C9.41179 14.1899 9.48402 14.1176 9.57313 14.1176H11.1328C11.2219 14.1176 11.2941 14.1899 11.2941 14.279V15.8386C11.2941 15.9278 11.2219 16 11.1328 16H9.57313C9.48402 16 9.41179 15.9278 9.41179 15.8386Z" fill="#82848E"/>
<path d="M4.70573 1.72101V0.161345C4.70573 0.0722366 4.77796 0 4.86707 0H6.42674C6.51585 0 6.58808 0.0722366 6.58808 0.161345V1.72101C6.58808 1.81012 6.51585 1.88235 6.42674 1.88235H4.86707C4.77796 1.88235 4.70573 1.81012 4.70573 1.72101Z" fill="#82848E"/>
<path d="M14.1177 1.72101V0.161345C14.1177 0.0722366 14.1899 0 14.279 0H15.8387C15.9278 0 16 0.0722366 16 0.161345V1.72101C16 1.81012 15.9278 1.88235 15.8387 1.88235H14.279C14.1899 1.88235 14.1177 1.81012 14.1177 1.72101Z" fill="#82848E"/>
<path d="M4.70573 11.1328V9.57313C4.70573 9.48402 4.77796 9.41178 4.86707 9.41178H6.42674C6.51585 9.41178 6.58808 9.48402 6.58808 9.57313V11.1328C6.58808 11.2219 6.51585 11.2941 6.42674 11.2941H4.86707C4.77796 11.2941 4.70573 11.2219 4.70573 11.1328Z" fill="#82848E"/>
<path d="M14.1177 11.1328V9.57313C14.1177 9.48402 14.1899 9.41178 14.279 9.41178H15.8387C15.9278 9.41178 16 9.48402 16 9.57313V11.1328C16 11.2219 15.9278 11.2941 15.8387 11.2941H14.279C14.1899 11.2941 14.1177 11.2219 14.1177 11.1328Z" fill="#82848E"/>
<path d="M0 1.72101V0.161345C0 0.0722366 0.0722366 0 0.161345 0H1.72101C1.81012 0 1.88235 0.0722366 1.88235 0.161345V1.72101C1.88235 1.81012 1.81012 1.88235 1.72101 1.88235H0.161345C0.0722366 1.88235 0 1.81012 0 1.72101Z" fill="#82848E"/>
<path d="M9.41179 1.72101V0.161345C9.41179 0.0722366 9.48402 0 9.57313 0H11.1328C11.2219 0 11.2941 0.0722366 11.2941 0.161345V1.72101C11.2941 1.81012 11.2219 1.88235 11.1328 1.88235H9.57313C9.48402 1.88235 9.41179 1.81012 9.41179 1.72101Z" fill="#82848E"/>
<path d="M0 11.1328V9.57313C0 9.48402 0.0722366 9.41178 0.161345 9.41178H1.72101C1.81012 9.41178 1.88235 9.48402 1.88235 9.57313V11.1328C1.88235 11.2219 1.81012 11.2941 1.72101 11.2941H0.161345C0.0722366 11.2941 0 11.2219 0 11.1328Z" fill="#82848E"/>
<path d="M9.41179 11.1328V9.57313C9.41179 9.48402 9.48402 9.41178 9.57313 9.41178H11.1328C11.2219 9.41178 11.2941 9.48402 11.2941 9.57313V11.1328C11.2941 11.2219 11.2219 11.2941 11.1328 11.2941H9.57313C9.48402 11.2941 9.41179 11.2219 9.41179 11.1328Z" fill="#82848E"/>
</svg>
