<svg width="24" height="24" viewBox="0 0 24 24" fill="none" xmlns="http://www.w3.org/2000/svg">
<path fill-rule="evenodd" clip-rule="evenodd" d="M12.75 3.75C12.75 3.33579 12.4142 3 12 3C11.5858 3 11.25 3.33579 11.25 3.75V8.14885C11.25 8.56306 11.5858 8.89885 12 8.89885C12.4142 8.89885 12.75 8.56306 12.75 8.14885V3.75ZM12 11.4481L12.5271 10.9146L12 10.3937L11.4728 10.9146L12 11.4481ZM10.9028 13.8212C11.2983 13.3165 11.6956 12.8651 12 12.5341C12.3044 12.8651 12.7016 13.3165 13.0971 13.8212C13.5052 14.3419 13.8991 14.904 14.1877 15.4383C14.4864 15.9916 14.625 16.4302 14.625 16.7267C14.625 18.2859 13.4205 19.4958 12 19.4958C10.5794 19.4958 9.375 18.2859 9.375 16.7267C9.375 16.4302 9.51356 15.9916 9.81228 15.4383C10.1008 14.904 10.4947 14.3419 10.9028 13.8212ZM12 11.4481C11.4728 10.9146 11.4727 10.9147 11.4726 10.9148L11.4724 10.9151L11.4716 10.9158L11.4691 10.9182L11.4606 10.9267L11.4298 10.9576C11.4033 10.9843 11.3651 11.023 11.317 11.0726C11.2208 11.1716 11.0845 11.3142 10.9213 11.4911C10.5958 11.8439 10.1599 12.3373 9.72215 12.896C9.2865 13.4519 8.83666 14.0881 8.4924 14.7256C8.15832 15.3444 7.875 16.0514 7.875 16.7267C7.875 19.0546 9.69251 20.9958 12 20.9958C14.3074 20.9958 16.125 19.0546 16.125 16.7267C16.125 16.0514 15.8416 15.3444 15.5076 14.7256C15.1633 14.0881 14.7135 13.4519 14.2778 12.896C13.84 12.3373 13.4041 11.8439 13.0786 11.4911C12.9155 11.3142 12.7791 11.1716 12.6829 11.0726C12.6348 11.023 12.5967 10.9843 12.5702 10.9576L12.5393 10.9267L12.5308 10.9182L12.5284 10.9158L12.5276 10.9151L12.5273 10.9148C12.5272 10.9147 12.5271 10.9146 12 11.4481ZM1.90069 7.07465C2.19024 6.77844 2.66508 6.77305 2.96128 7.06259L6.33626 10.3617C6.63246 10.6513 6.63786 11.1261 6.34831 11.4223C6.05876 11.7185 5.58392 11.7239 5.28772 11.4344L1.91274 8.13524C1.61654 7.84569 1.61114 7.37085 1.90069 7.07465ZM22.0867 8.13524C22.3829 7.84569 22.3883 7.37085 22.0988 7.07465C21.8093 6.77844 21.3344 6.77305 21.0382 7.06259L17.6632 10.3617C17.367 10.6513 17.3616 11.1261 17.6512 11.4223C17.9407 11.7185 18.4156 11.7239 18.7118 11.4344L22.0867 8.13524ZM0 18.0461C0 17.6319 0.335786 17.2961 0.75 17.2961H5.24997C5.66418 17.2961 5.99997 17.6319 5.99997 18.0461C5.99997 18.4603 5.66418 18.7961 5.24997 18.7961H0.75C0.335786 18.7961 0 18.4603 0 18.0461ZM18.7498 17.2961C18.3355 17.2961 17.9998 17.6319 17.9998 18.0461C17.9998 18.4603 18.3355 18.7961 18.7498 18.7961H23.2497C23.6639 18.7961 23.9997 18.4603 23.9997 18.0461C23.9997 17.6319 23.6639 17.2961 23.2497 17.2961H18.7498Z" fill="currenctColor"/>
</svg>
