<svg width="24" height="24" viewBox="0 0 24 24" fill="none" xmlns="http://www.w3.org/2000/svg">
<path fill-rule="evenodd" clip-rule="evenodd" d="M1.7545 12.3875L4.68464 2.5H19.3131L22.2432 12.3875H1.7545ZM20.7365 2.02382L23.8077 12.3875H23.9977V13.1375V21.5643C23.9977 22.3472 23.3684 22.9975 22.5728 22.9975H1.42493C0.629353 22.9975 0 22.3472 0 21.5643V13.1375V12.3875H0.19002L3.26127 2.02382L3.26127 2.02381C3.4398 1.42141 3.99141 1 4.62683 1H19.3709C20.0063 1 20.5578 1.42145 20.7364 2.02366L20.7365 2.02382ZM1.5 21.4975V13.8875H22.4977V21.4975H1.5ZM5.76391 17.135C6.07166 17.4122 6.09639 17.8864 5.81915 18.1942L5.80796 18.2066C5.53072 18.5144 5.0565 18.5391 4.74874 18.2619C4.44099 17.9846 4.41626 17.5104 4.6935 17.2026L4.70469 17.1902C4.98193 16.8825 5.45616 16.8577 5.76391 17.135ZM10.2624 17.135C10.5702 17.4122 10.5949 17.8864 10.3177 18.1942L10.3065 18.2066C10.0293 18.5144 9.55503 18.5391 9.24728 18.2619C8.93953 17.9846 8.91479 17.5104 9.19203 17.2026L9.20322 17.1902C9.48046 16.8825 9.95469 16.8577 10.2624 17.135Z" fill="currentColor"/>
</svg>
