<svg viewBox="0 0 42 42" fill="none" xmlns="http://www.w3.org/2000/svg">
<path d="M37.6008 16.1099L38.4768 16.3928L37.9335 17.1382C37.9226 17.1532 37.9154 17.1705 37.9124 17.1888C37.9123 17.1992 37.9148 17.2095 37.9196 17.2187C37.9243 17.2279 37.9313 17.2357 37.9398 17.2416L38.2367 17.4528C38.2544 17.4644 38.2746 17.4717 38.2957 17.4739C38.3063 17.4732 38.3166 17.4697 38.3255 17.4637C38.3343 17.4578 38.3415 17.4497 38.3462 17.4401L38.8853 16.6926L39.4286 17.4401C39.4334 17.4497 39.4405 17.4578 39.4494 17.4637C39.4583 17.4697 39.4685 17.4732 39.4792 17.4739C39.5004 17.4726 39.5209 17.4653 39.5381 17.4528L39.835 17.2416C39.8435 17.2355 39.8505 17.2276 39.8556 17.2185C39.8607 17.2094 39.8637 17.1993 39.8645 17.1888C39.8605 17.1708 39.8534 17.1537 39.8435 17.1382L39.2981 16.3928L40.1741 16.1099C40.1885 16.1054 40.2012 16.0965 40.2103 16.0843C40.2194 16.0722 40.2244 16.0575 40.2246 16.0423C40.2254 16.0325 40.2254 16.0226 40.2246 16.0127L40.1193 15.6411C40.1067 15.6052 40.0877 15.5883 40.0582 15.5883H40.0246L39.1485 15.8882V14.9781C39.1499 14.9683 39.149 14.9583 39.1459 14.9488C39.1428 14.9394 39.1376 14.9308 39.1307 14.9237C39.1238 14.9166 39.1154 14.9111 39.106 14.9078C39.0967 14.9044 39.0868 14.9032 39.0769 14.9042H38.7147C38.7049 14.9032 38.695 14.9044 38.6856 14.9078C38.6763 14.9111 38.6679 14.9166 38.661 14.9237C38.6541 14.9308 38.6489 14.9394 38.6458 14.9488C38.6427 14.9583 38.6418 14.9683 38.6432 14.9781V15.8882L37.7692 15.5883H37.7334C37.7019 15.5883 37.6829 15.6073 37.6724 15.6411L37.5671 16.0127V16.0423C37.5661 16.0556 37.5687 16.0688 37.5747 16.0807C37.5806 16.0926 37.5896 16.1027 37.6008 16.1099Z" fill="#82848E"/>
<path d="M35.7898 11.7962L36.6637 12.0791L36.1183 12.8202C36.1086 12.8351 36.1015 12.8515 36.0973 12.8688C36.0974 12.8794 36.1002 12.8897 36.1053 12.8989C36.1105 12.9082 36.1179 12.916 36.1268 12.9216L36.4216 13.1327C36.4404 13.1436 36.4611 13.1507 36.4826 13.1538C36.4933 13.153 36.5034 13.1492 36.512 13.1429C36.5205 13.1365 36.5272 13.1279 36.5311 13.118L37.0723 12.3705L37.6156 13.118C37.62 13.1275 37.6268 13.1358 37.6352 13.1421C37.6437 13.1483 37.6536 13.1524 37.664 13.1538C37.6857 13.1516 37.7066 13.1444 37.7251 13.1327L38.022 12.9216C38.0304 12.9156 38.0372 12.9077 38.042 12.8985C38.0468 12.8893 38.0493 12.8791 38.0494 12.8688C38.0462 12.8512 38.039 12.8345 38.0283 12.8202L37.485 12.0728L38.361 11.7898C38.3749 11.7847 38.387 11.7756 38.3956 11.7635C38.4043 11.7515 38.4091 11.7371 38.4094 11.7223C38.4104 11.7124 38.4104 11.7025 38.4094 11.6927L38.302 11.3211C38.2996 11.3071 38.2924 11.2944 38.2816 11.2851C38.2709 11.2759 38.2573 11.2707 38.2431 11.2704H38.2073L37.3334 11.5702V10.6602C37.3348 10.6504 37.3339 10.6405 37.3308 10.6311C37.3277 10.6218 37.3225 10.6133 37.3155 10.6063C37.3086 10.5993 37.3001 10.5941 37.2908 10.591C37.2814 10.5879 37.2715 10.587 37.2618 10.5884H36.8975C36.8879 10.5873 36.8782 10.5885 36.8692 10.5918C36.8601 10.595 36.8519 10.6003 36.8452 10.6072C36.8385 10.6142 36.8335 10.6225 36.8305 10.6317C36.8275 10.6409 36.8266 10.6506 36.828 10.6602V11.5702L35.952 11.2704H35.9162C35.9016 11.2703 35.8875 11.2757 35.8766 11.2854C35.8657 11.2952 35.8588 11.3086 35.8572 11.3232L35.7519 11.6927V11.7223C35.7498 11.737 35.7523 11.752 35.7591 11.7653C35.7659 11.7785 35.7767 11.7893 35.7898 11.7962Z" fill="#82848E"/>
<path d="M33.0207 8.04193L33.8946 8.32487L33.3492 9.07022C33.3393 9.08575 33.3322 9.10291 33.3282 9.1209C33.3285 9.13142 33.3313 9.14172 33.3365 9.15091C33.3416 9.1601 33.3489 9.16791 33.3577 9.17368L33.6546 9.38483C33.6721 9.3968 33.6924 9.40407 33.7135 9.40595C33.7244 9.40525 33.735 9.40153 33.7439 9.39519C33.7528 9.38885 33.7598 9.38015 33.7641 9.37005L34.3158 8.62892L34.8591 9.37427C34.8634 9.38437 34.8703 9.39307 34.8793 9.39941C34.8882 9.40575 34.8987 9.40947 34.9096 9.41017C34.9308 9.40859 34.9512 9.40129 34.9686 9.38905L35.2655 9.17791C35.2737 9.17168 35.2804 9.16372 35.2851 9.15459C35.2898 9.14546 35.2925 9.1354 35.2929 9.12512C35.2899 9.1068 35.2827 9.08945 35.2718 9.07444L34.7285 8.32909L35.6045 8.04615C35.6183 8.04083 35.6302 8.03161 35.6388 8.01961C35.6474 8.00761 35.6523 7.99335 35.653 7.97859C35.654 7.96806 35.654 7.95744 35.653 7.94691L35.5477 7.5774C35.535 7.54151 35.514 7.52462 35.4866 7.52462H35.4508L34.5769 7.82445V6.91862C34.5782 6.90879 34.5773 6.89878 34.5742 6.88935C34.5711 6.87992 34.5659 6.87132 34.559 6.8642C34.5521 6.85708 34.5437 6.85163 34.5344 6.84825C34.5251 6.84488 34.5152 6.84367 34.5053 6.84472H34.141C34.1313 6.84401 34.1216 6.84547 34.1126 6.84899C34.1035 6.85252 34.0954 6.85802 34.0887 6.8651C34.0821 6.87218 34.0771 6.88065 34.0741 6.88991C34.0711 6.89917 34.0702 6.90898 34.0715 6.91862V7.82867L33.1955 7.52884H33.1618C33.1469 7.52822 33.1322 7.53333 33.1209 7.54313C33.1095 7.55294 33.1023 7.5667 33.1007 7.58163L32.9955 7.95114V7.98281C32.9949 7.99394 32.997 8.00503 33.0013 8.01527C33.0057 8.02551 33.0123 8.03462 33.0207 8.04193Z" fill="#82848E"/>
<path d="M29.4388 5.04154L30.3148 5.32448L29.7715 6.0635C29.7608 6.0778 29.7535 6.09444 29.7504 6.11206C29.7503 6.12244 29.7528 6.13267 29.7575 6.14188C29.7623 6.15108 29.7693 6.15897 29.7778 6.16485L30.0747 6.376C30.093 6.38805 30.114 6.39531 30.1358 6.39711C30.1547 6.39711 30.1695 6.39711 30.1842 6.36333L30.7359 5.62853L31.2792 6.376C31.2832 6.38568 31.2899 6.394 31.2985 6.39999C31.3071 6.40597 31.3172 6.40937 31.3277 6.40978C31.3495 6.40826 31.3706 6.40098 31.3887 6.38866L31.6835 6.17752C31.692 6.1714 31.699 6.16351 31.7041 6.15439C31.7092 6.14527 31.7122 6.13515 31.713 6.12473C31.7089 6.10744 31.7017 6.09101 31.692 6.07617L31.1487 5.3287L32.0226 5.04576C32.037 5.0413 32.0497 5.03236 32.0588 5.02022C32.0679 5.00808 32.0729 4.99337 32.0731 4.9782C32.0747 4.96841 32.0747 4.95842 32.0731 4.94864L31.9678 4.57702C31.9655 4.5628 31.9583 4.54983 31.9476 4.54023C31.9369 4.53064 31.9232 4.52499 31.9089 4.52423H31.8731L30.9971 4.82406V3.91823C30.9971 3.86967 30.9739 3.84433 30.9276 3.84433H30.5633C30.5536 3.84362 30.5439 3.84508 30.5348 3.8486C30.5258 3.85213 30.5176 3.85763 30.511 3.86471C30.5043 3.87179 30.4993 3.88026 30.4964 3.88952C30.4934 3.89878 30.4925 3.90859 30.4938 3.91823V4.82828L29.6178 4.52845H29.582C29.5675 4.52881 29.5536 4.53432 29.5428 4.54399C29.532 4.55366 29.525 4.56686 29.523 4.58124L29.4156 4.95286V4.98242C29.4148 4.99338 29.4165 5.00438 29.4205 5.0146C29.4245 5.02483 29.4308 5.03403 29.4388 5.04154Z" fill="#82848E"/>
<path d="M25.2292 2.94905L26.1031 3.23199L25.5598 3.97945C25.5491 3.99376 25.5419 4.0104 25.5388 4.02802C25.5385 4.03843 25.5409 4.04873 25.5457 4.05797C25.5504 4.06721 25.5575 4.07507 25.5662 4.08081L25.8631 4.29195C25.8819 4.30278 25.9027 4.30994 25.9242 4.31307C25.9431 4.31307 25.9578 4.3004 25.9726 4.27717L26.5243 3.52971L27.0676 4.27717C27.0715 4.2871 27.0781 4.29573 27.0867 4.30208C27.0952 4.30843 27.1054 4.31223 27.116 4.31307C27.1377 4.31086 27.1586 4.30363 27.1771 4.29195L27.474 4.08081C27.4819 4.07431 27.4884 4.06628 27.4931 4.05721C27.4978 4.04814 27.5006 4.03821 27.5014 4.02802C27.4983 4.0104 27.4911 3.99376 27.4803 3.97945L26.937 3.23199L27.8109 2.94905C27.8254 2.94459 27.8381 2.93565 27.8472 2.92351C27.8563 2.91137 27.8613 2.89666 27.8615 2.88149C27.8625 2.87166 27.8625 2.86175 27.8615 2.85193L27.7372 2.47397C27.7348 2.45998 27.7276 2.44727 27.7168 2.43802C27.7061 2.42878 27.6924 2.42357 27.6783 2.42329H27.6425L26.7665 2.72313V1.82575C26.7665 1.77718 26.7433 1.75185 26.697 1.75185H26.3327C26.3231 1.7515 26.3135 1.75321 26.3047 1.75686C26.2958 1.76051 26.2878 1.76602 26.2812 1.77302C26.2747 1.78001 26.2696 1.78833 26.2665 1.79743C26.2634 1.80652 26.2623 1.81618 26.2632 1.82575V2.73579L25.3872 2.43596H25.3514C25.3371 2.43582 25.3232 2.44087 25.3124 2.45019C25.3016 2.45951 25.2945 2.47247 25.2924 2.48664L25.185 2.85826V2.88782C25.186 2.90114 25.1906 2.91393 25.1984 2.92475C25.2063 2.93556 25.2169 2.94398 25.2292 2.94905Z" fill="#82848E"/>
<path d="M15.9238 2.60908L16.7998 2.89624L16.2565 3.64371C16.2453 3.65854 16.238 3.67597 16.2354 3.69438C16.2353 3.70475 16.2378 3.71499 16.2425 3.7242C16.2473 3.7334 16.2543 3.74129 16.2628 3.74717L16.5597 3.95832C16.5774 3.96997 16.5976 3.97721 16.6187 3.97943C16.6295 3.9783 16.6398 3.97441 16.6486 3.96812C16.6575 3.96183 16.6646 3.95337 16.6692 3.94354L17.2083 3.19818L17.7516 3.95198C17.7562 3.96181 17.7633 3.97028 17.7722 3.97656C17.781 3.98285 17.7913 3.98675 17.8021 3.98788C17.8234 3.98662 17.8438 3.9793 17.8611 3.96676L18.158 3.75561C18.1663 3.74931 18.1731 3.74137 18.1782 3.73229C18.1833 3.72321 18.1864 3.71318 18.1875 3.70283C18.1838 3.68472 18.1767 3.6675 18.1664 3.65215L17.621 2.89624L18.497 2.6133C18.5115 2.60884 18.5242 2.5999 18.5333 2.58776C18.5423 2.57562 18.5474 2.56091 18.5476 2.54574C18.5482 2.53589 18.5482 2.52602 18.5476 2.51618L18.4423 2.14667C18.4296 2.11077 18.4107 2.09388 18.3812 2.09388H18.3475L17.4694 2.39582V1.48577C17.4708 1.47602 17.4699 1.46607 17.4668 1.45671C17.4637 1.44735 17.4585 1.43885 17.4516 1.43188C17.4446 1.42491 17.4361 1.41966 17.4268 1.41655C17.4175 1.41345 17.4075 1.41257 17.3978 1.41398H17.0356C16.9872 1.41398 16.964 1.43932 16.964 1.48577V2.39582L16.0901 2.09599H16.0543C16.0227 2.09599 16.0038 2.11288 15.9932 2.14878L15.888 2.51829V2.54785C15.8881 2.56029 15.8915 2.57248 15.8978 2.58321C15.9041 2.59395 15.913 2.60286 15.9238 2.60908Z" fill="#82848E"/>
<path d="M11.5016 4.06179L12.3776 4.34473L11.8343 5.09219C11.8231 5.10702 11.8159 5.12446 11.8132 5.14286C11.8131 5.15324 11.8156 5.16348 11.8204 5.17268C11.8251 5.18189 11.8321 5.18977 11.8406 5.19565L12.1375 5.4068C12.1558 5.41886 12.1768 5.42612 12.1986 5.42791C12.2176 5.42791 12.2323 5.41525 12.247 5.39202L12.7882 4.64667L13.3315 5.39202C13.3354 5.40195 13.342 5.41058 13.3506 5.41693C13.3592 5.42327 13.3693 5.42708 13.38 5.42791C13.4018 5.4264 13.4229 5.41911 13.441 5.4068L13.7358 5.19565C13.7441 5.18934 13.751 5.18141 13.756 5.17233C13.7611 5.16324 13.7643 5.15322 13.7653 5.14286C13.7617 5.12476 13.7545 5.10754 13.7443 5.09219L13.201 4.34473L14.0749 4.06179C14.0893 4.05732 14.102 4.04838 14.1111 4.03624C14.1202 4.0241 14.1252 4.00939 14.1254 3.99422C14.127 3.98443 14.127 3.97445 14.1254 3.96466L14.0201 3.59515C14.0201 3.55925 13.9885 3.54236 13.9612 3.54236H13.9254L13.0472 3.84853V2.94059C13.0472 2.88992 13.0241 2.86669 12.9777 2.86669H12.6134C12.6038 2.86598 12.5941 2.86744 12.585 2.87096C12.576 2.87449 12.5678 2.87999 12.5612 2.88707C12.5545 2.89415 12.5495 2.90262 12.5465 2.91188C12.5436 2.92114 12.5427 2.93095 12.544 2.94059V3.84853L11.6679 3.5487H11.6321C11.6175 3.54861 11.6034 3.55397 11.5925 3.56372C11.5816 3.57347 11.5747 3.58693 11.5732 3.60148L11.4658 3.97099V4.00055C11.466 4.013 11.4693 4.02518 11.4756 4.03592C11.4819 4.04665 11.4908 4.05557 11.5016 4.06179Z" fill="#82848E"/>
<path d="M7.53635 6.53434L8.41447 6.81728L7.87117 7.56474C7.86045 7.57905 7.85324 7.59568 7.85012 7.6133C7.84983 7.62371 7.85219 7.63402 7.85698 7.64326C7.86177 7.65249 7.86883 7.66035 7.87749 7.66609L8.17441 7.87724C8.19255 7.88796 8.21256 7.89512 8.23337 7.89835C8.24416 7.89723 8.25448 7.89333 8.26333 7.88704C8.27218 7.88076 8.27927 7.87229 8.28391 7.86246L8.82089 7.11922L9.36418 7.86668C9.36882 7.87651 9.37591 7.88498 9.38476 7.89126C9.39362 7.89755 9.40393 7.90145 9.41472 7.90258C9.43577 7.90036 9.45599 7.89312 9.47368 7.88146L9.7706 7.67031C9.77916 7.6643 9.78625 7.65644 9.79135 7.6473C9.79646 7.63816 9.79944 7.62798 9.80008 7.61753C9.79591 7.60024 9.78879 7.58381 9.77903 7.56896L9.23362 6.8215L10.1096 6.53856C10.1241 6.5341 10.1368 6.52516 10.1459 6.51302C10.1549 6.50088 10.16 6.48617 10.1602 6.47099C10.1608 6.46115 10.1608 6.45128 10.1602 6.44143L10.0465 6.06348C10.0338 6.0297 10.0149 6.0128 9.98539 6.0128H9.9517L9.07569 6.31263V5.41103C9.0771 5.40128 9.07623 5.39132 9.07313 5.38197C9.07003 5.37261 9.06479 5.36411 9.05784 5.35714C9.05089 5.35017 9.04241 5.34492 9.03308 5.34181C9.02375 5.3387 9.01382 5.33783 9.00409 5.33924H8.6419C8.59346 5.33924 8.5703 5.36458 8.5703 5.41103V6.32108L7.69639 6.02125H7.66059C7.62901 6.02125 7.61006 6.03814 7.59953 6.07404L7.49424 6.44355V6.47311C7.49523 6.48614 7.49965 6.49867 7.50705 6.50942C7.51445 6.52018 7.52456 6.52878 7.53635 6.53434Z" fill="#82848E"/>
<path d="M4.24294 9.90426L5.11895 10.1872L4.57565 10.9347C4.56493 10.949 4.55772 10.9656 4.55459 10.9832C4.5545 10.9936 4.55694 11.0038 4.56172 11.013C4.56649 11.0222 4.57345 11.0301 4.58197 11.036L4.87889 11.2472C4.89658 11.2588 4.9168 11.2661 4.93785 11.2683C4.94848 11.2676 4.95874 11.2641 4.96761 11.2581C4.97647 11.2522 4.98364 11.2441 4.98839 11.2345L5.52747 10.4976L6.07287 11.245C6.07689 11.2547 6.08358 11.2631 6.09216 11.269C6.10075 11.275 6.11086 11.2784 6.12131 11.2788C6.14257 11.2776 6.16303 11.2703 6.18027 11.2577L6.47719 11.0466C6.48564 11.0405 6.49265 11.0326 6.49774 11.0234C6.50283 11.0143 6.50588 11.0042 6.50667 10.9938C6.50249 10.9765 6.49537 10.9601 6.48561 10.9452L5.94231 10.1978L6.81622 9.91482C6.83068 9.91036 6.84337 9.90141 6.85245 9.88927C6.86153 9.87713 6.86654 9.86242 6.86676 9.84725C6.86837 9.83746 6.86837 9.82748 6.86676 9.81769L6.75304 9.44185C6.74041 9.40806 6.72146 9.38906 6.69408 9.38906H6.65828L5.78227 9.691V8.78095C5.78227 8.73239 5.75911 8.70705 5.71278 8.70705H5.34848C5.33873 8.70639 5.32895 8.70787 5.31982 8.71138C5.31069 8.71489 5.30244 8.72036 5.29562 8.72739C5.28881 8.73442 5.28361 8.74285 5.28037 8.7521C5.27713 8.76135 5.27594 8.7712 5.27688 8.78095V9.691L4.41351 9.39117H4.37771C4.34612 9.39117 4.32717 9.41017 4.31664 9.44396L4.20293 9.80713V9.83669C4.20258 9.85059 4.20616 9.8643 4.21323 9.87625C4.22031 9.8882 4.23061 9.89791 4.24294 9.90426Z" fill="#82848E"/>
<path d="M2.07815 14.1019L2.95416 14.3848L2.41087 15.1302C2.39968 15.145 2.39243 15.1625 2.38981 15.1809C2.38971 15.1912 2.39216 15.2015 2.39693 15.2107C2.4017 15.2199 2.40866 15.2278 2.41718 15.2337L2.7141 15.4448C2.73237 15.4569 2.75337 15.4641 2.77517 15.4659C2.79412 15.4659 2.80886 15.4659 2.8236 15.43L3.36058 14.6889L3.90598 15.4342C3.90967 15.4443 3.91622 15.4531 3.92483 15.4595C3.93344 15.4658 3.94372 15.4696 3.95441 15.4701C3.97627 15.4686 3.99734 15.4613 4.01548 15.449L4.31029 15.2379C4.31874 15.2318 4.32576 15.2239 4.33085 15.2147C4.33594 15.2056 4.33899 15.1955 4.33977 15.1851C4.33612 15.167 4.32897 15.1498 4.31872 15.1344L3.78174 14.3848L4.65564 14.1019C4.66994 14.0972 4.68245 14.0881 4.69149 14.0761C4.70052 14.064 4.70565 14.0494 4.70618 14.0343C4.70812 14.0239 4.70812 14.0131 4.70618 14.0027L4.60089 13.6332C4.58826 13.5973 4.56931 13.5804 4.54193 13.5804H4.50613L3.63012 13.8802V12.9723C3.63012 12.9237 3.60696 12.8984 3.56063 12.8984H3.18369C3.17394 12.8977 3.16416 12.8992 3.15503 12.9027C3.1459 12.9062 3.13765 12.9117 3.13083 12.9187C3.12402 12.9257 3.11882 12.9342 3.11558 12.9434C3.11235 12.9527 3.11116 12.9625 3.1121 12.9723V13.8802L2.23819 13.5825H2.20239C2.18779 13.5824 2.17368 13.5877 2.16278 13.5975C2.15189 13.6072 2.14499 13.6207 2.14343 13.6353L2.03603 14.0048V14.0364C2.03651 14.0501 2.04068 14.0635 2.0481 14.075C2.05551 14.0865 2.06589 14.0958 2.07815 14.1019Z" fill="#82848E"/>
<path d="M1.04423 18.6711L1.91814 18.954L1.37484 19.6994C1.36493 19.7149 1.35781 19.7321 1.35378 19.7501C1.3541 19.7606 1.35694 19.7709 1.36208 19.7801C1.36721 19.7893 1.37448 19.7971 1.38326 19.8028L1.67808 20.014C1.6965 20.0257 1.71742 20.033 1.73914 20.0351C1.74959 20.0347 1.7597 20.0313 1.76829 20.0253C1.77687 20.0193 1.78356 20.011 1.78758 20.0013L2.32877 19.2539L2.86996 19.9992C2.8847 20.0224 2.89944 20.033 2.91839 20.033C2.94031 20.0318 2.96146 20.0245 2.97946 20.0119L3.27637 19.8007C3.28454 19.7945 3.29123 19.7865 3.29596 19.7774C3.3007 19.7683 3.30336 19.7582 3.30375 19.7479C3.30079 19.7296 3.29358 19.7123 3.28269 19.6973L2.7394 18.9519L3.61541 18.669C3.62931 18.6639 3.64137 18.6547 3.65001 18.6427C3.65865 18.6306 3.66347 18.6162 3.66384 18.6014C3.66503 18.5916 3.66503 18.5817 3.66384 18.5718L3.55644 18.2002C3.55407 18.186 3.54693 18.173 3.53621 18.1634C3.5255 18.1539 3.51183 18.1482 3.49748 18.1474H3.46168L2.58146 18.4578V17.5478C2.58405 17.5381 2.58437 17.5279 2.58241 17.5181C2.58044 17.5082 2.57624 17.4989 2.57014 17.491C2.56403 17.483 2.55617 17.4766 2.54718 17.4721C2.53819 17.4677 2.52831 17.4654 2.51829 17.4654H2.14556C2.13589 17.4647 2.12617 17.4662 2.11713 17.4697C2.10809 17.4732 2.09994 17.4787 2.09329 17.4858C2.08663 17.4929 2.08163 17.5014 2.07865 17.5106C2.07568 17.5199 2.07479 17.5297 2.07607 17.5393V18.4494L1.20006 18.1496H1.16426C1.14979 18.1499 1.13591 18.1554 1.12511 18.1651C1.11431 18.1748 1.10729 18.188 1.1053 18.2023L1.00001 18.574V18.6035C0.999765 18.6179 1.00385 18.6321 1.01174 18.6441C1.01963 18.6562 1.03095 18.6656 1.04423 18.6711Z" fill="#82848E"/>
<path d="M1.06525 23.3353L1.94126 23.6183L1.39797 24.3657C1.38725 24.38 1.38003 24.3967 1.37691 24.4143C1.37662 24.4247 1.37899 24.435 1.38378 24.4443C1.38857 24.4535 1.39563 24.4614 1.40429 24.4671L1.7012 24.6782C1.71992 24.6894 1.7407 24.6966 1.76227 24.6994C1.78122 24.6994 1.79597 24.6867 1.81071 24.6635L2.35189 23.916L2.89519 24.6635C2.8991 24.6734 2.90571 24.682 2.91428 24.6884C2.92284 24.6947 2.93301 24.6985 2.94362 24.6994C2.96527 24.6969 2.98611 24.6897 3.00469 24.6782L3.2995 24.4671C3.30795 24.461 3.31497 24.4531 3.32006 24.444C3.32515 24.4348 3.3282 24.4247 3.32898 24.4143C3.32481 24.397 3.31769 24.3806 3.30793 24.3657L2.76463 23.6183L3.63854 23.3353C3.653 23.3309 3.66568 23.3219 3.67476 23.3098C3.68384 23.2977 3.68885 23.2829 3.68907 23.2678C3.69068 23.258 3.69068 23.248 3.68907 23.2382L3.58378 22.8666C3.58134 22.8526 3.57413 22.8399 3.56337 22.8306C3.55262 22.8214 3.53899 22.8162 3.52482 22.8159H3.48902L2.61301 23.1157V22.2057C2.61301 22.1571 2.58985 22.1318 2.54352 22.1318H2.1708C2.16104 22.1311 2.15126 22.1326 2.14213 22.1361C2.13301 22.1396 2.12475 22.1451 2.11794 22.1521C2.11113 22.1592 2.10592 22.1676 2.10269 22.1768C2.09945 22.1861 2.09826 22.1959 2.0992 22.2057V23.1157L1.2253 22.8159H1.1895C1.17521 22.8158 1.16136 22.8208 1.15052 22.8301C1.13968 22.8395 1.13257 22.8524 1.13053 22.8666L1.02314 23.2382V23.2678C1.02299 23.2819 1.02687 23.2958 1.03434 23.3077C1.0418 23.3197 1.05253 23.3293 1.06525 23.3353Z" fill="#82848E"/>
<path d="M2.14977 27.8898L3.02578 28.1728L2.48248 28.9202C2.47176 28.9345 2.46454 28.9512 2.46142 28.9688C2.46133 28.9792 2.46377 28.9894 2.46855 28.9986C2.47332 29.0078 2.48027 29.0157 2.4888 29.0216L2.78572 29.2327C2.80341 29.2444 2.82363 29.2516 2.84468 29.2538C2.85531 29.2531 2.86557 29.2496 2.87443 29.2437C2.8833 29.2378 2.89047 29.2296 2.89522 29.2201L3.4343 28.4726L3.9776 29.2201C3.98235 29.2296 3.98951 29.2378 3.99838 29.2437C4.00724 29.2496 4.0175 29.2531 4.02813 29.2538C4.04939 29.2526 4.06985 29.2453 4.0871 29.2327L4.38401 29.0216C4.39218 29.0153 4.39887 29.0074 4.4036 28.9983C4.40834 28.9891 4.41099 28.9791 4.41139 28.9688C4.40827 28.9512 4.40105 28.9345 4.39033 28.9202L3.84704 28.1728L4.72305 27.8898C4.73729 27.8853 4.7497 27.8763 4.75843 27.8641C4.76715 27.8519 4.77173 27.8372 4.77148 27.8223C4.77246 27.8124 4.77246 27.8025 4.77148 27.7927L4.66619 27.4211C4.65355 27.3873 4.6346 27.3683 4.60512 27.3683H4.56932L3.69542 27.6681V26.7581C3.69675 26.7482 3.69584 26.7382 3.69274 26.7288C3.68965 26.7194 3.68446 26.7108 3.67756 26.7036C3.67066 26.6965 3.66224 26.6911 3.65293 26.6877C3.64362 26.6843 3.63367 26.6831 3.62382 26.6842H3.25531C3.24546 26.6831 3.23551 26.6843 3.2262 26.6877C3.21689 26.6911 3.20847 26.6965 3.20157 26.7036C3.19467 26.7108 3.18948 26.7194 3.18639 26.7288C3.18329 26.7382 3.18238 26.7482 3.18371 26.7581V27.6681L2.3077 27.3767H2.27401C2.24242 27.3767 2.22347 27.3957 2.21294 27.4295L2.10765 27.8011V27.8307C2.10857 27.8435 2.11298 27.8558 2.12042 27.8662C2.12785 27.8766 2.138 27.8848 2.14977 27.8898Z" fill="#82848E"/>
<path d="M4.31453 32.0875L5.19054 32.3704L4.64514 33.1158C4.63489 33.1311 4.62774 33.1483 4.62408 33.1664C4.6244 33.177 4.62725 33.1873 4.63238 33.1964C4.63751 33.2056 4.64478 33.2135 4.65357 33.2192L4.95048 33.4304C4.96802 33.4423 4.98832 33.4496 5.00945 33.4515C5.02036 33.4508 5.03087 33.4471 5.03979 33.4407C5.04872 33.4344 5.05571 33.4257 5.05998 33.4156L5.59907 32.6681L6.14236 33.4135C6.14664 33.4236 6.15363 33.4323 6.16255 33.4386C6.17148 33.445 6.18199 33.4487 6.1929 33.4494C6.21409 33.4478 6.23447 33.4405 6.25186 33.4283L6.54878 33.2171C6.55695 33.2109 6.56364 33.2029 6.56837 33.1938C6.5731 33.1847 6.57576 33.1746 6.57616 33.1643C6.57353 33.1459 6.56628 33.1285 6.5551 33.1136L6.0118 32.3683L6.88781 32.0854C6.90156 32.08 6.91347 32.0708 6.92207 32.0588C6.93067 32.0468 6.9356 32.0326 6.93625 32.0178C6.93732 32.0073 6.93732 31.9966 6.93625 31.9861L6.83096 31.6166C6.81832 31.5807 6.79937 31.5638 6.76989 31.5638H6.73409L5.86019 31.8615V30.9536C5.86152 30.9438 5.8606 30.9338 5.85751 30.9243C5.85441 30.9149 5.84922 30.9063 5.84232 30.8992C5.83543 30.8921 5.827 30.8866 5.8177 30.8832C5.80839 30.8799 5.79843 30.8787 5.78859 30.8797H5.42007C5.41023 30.8787 5.40028 30.8799 5.39097 30.8832C5.38166 30.8866 5.37324 30.8921 5.36634 30.8992C5.35944 30.9063 5.35425 30.9149 5.35116 30.9243C5.34806 30.9338 5.34715 30.9438 5.34848 30.9536V31.8615L4.47247 31.5638H4.43878C4.40719 31.5638 4.38824 31.5807 4.37771 31.6166L4.27242 31.9861V32.0178C4.27185 32.0323 4.27555 32.0466 4.28303 32.059C4.29052 32.0714 4.30147 32.0813 4.31453 32.0875Z" fill="#82848E"/>
<path d="M7.64586 35.4278L8.52187 35.7107L7.97857 36.4688C7.96758 36.4832 7.95969 36.4997 7.95541 36.5173C7.95554 36.5279 7.95831 36.5382 7.96346 36.5475C7.96861 36.5567 7.97598 36.5645 7.98489 36.5701L8.28181 36.7812C8.29981 36.7923 8.31988 36.7995 8.34077 36.8024C8.35156 36.8012 8.36188 36.7973 8.37073 36.791C8.37958 36.7848 8.38667 36.7763 8.39131 36.7665L8.93039 36.019L9.46737 36.7622C9.47201 36.7721 9.4791 36.7805 9.48795 36.7868C9.4968 36.7931 9.50712 36.797 9.51791 36.7981C9.53888 36.7955 9.55901 36.7883 9.57687 36.777L9.87379 36.5659C9.88219 36.5599 9.88904 36.552 9.8938 36.5428C9.89856 36.5336 9.90108 36.5234 9.90116 36.5131C9.90001 36.4976 9.89571 36.4825 9.88853 36.4688L9.34523 35.7213L10.2212 35.4383C10.2355 35.4338 10.2479 35.4248 10.2566 35.4126C10.2653 35.4004 10.2699 35.3858 10.2697 35.3708C10.2707 35.361 10.2707 35.3511 10.2697 35.3412L10.1644 34.9696C10.1518 34.9358 10.1328 34.9189 10.1033 34.9189H10.0675L9.19362 35.2188V34.3087C9.19503 34.299 9.19415 34.289 9.19105 34.2796C9.18795 34.2703 9.18272 34.2618 9.17577 34.2548C9.16882 34.2478 9.16034 34.2426 9.15101 34.2395C9.14167 34.2364 9.13175 34.2355 9.12202 34.2369H8.7514C8.70297 34.2369 8.6798 34.2623 8.6798 34.3087V35.2188L7.80379 34.9189H7.7701C7.75557 34.9187 7.74144 34.9237 7.73025 34.933C7.71906 34.9423 7.71154 34.9552 7.70903 34.9696L7.60374 35.3412V35.3708C7.60503 35.3832 7.60961 35.395 7.61702 35.4051C7.62443 35.4151 7.63439 35.4229 7.64586 35.4278Z" fill="#82848E"/>
<path d="M11.6385 37.8624L12.5145 38.1453L11.9712 38.8906C11.9603 38.9056 11.9531 38.923 11.9501 38.9413C11.95 38.9517 11.9525 38.9619 11.9573 38.9711C11.962 38.9803 11.969 38.9882 11.9775 38.9941L12.2744 39.2053C12.2927 39.2173 12.3137 39.2246 12.3355 39.2264C12.3545 39.2264 12.3692 39.2158 12.3839 39.1926L12.9251 38.4451L13.4684 39.1926C13.4724 39.2023 13.4791 39.2106 13.4877 39.2166C13.4963 39.2226 13.5064 39.226 13.5169 39.2264C13.5387 39.2248 13.5598 39.2176 13.5779 39.2053L13.8727 38.9941C13.8812 38.988 13.8882 38.9801 13.8933 38.971C13.8984 38.9619 13.9014 38.9517 13.9022 38.9413C13.8982 38.9233 13.8911 38.9062 13.8812 38.8906L13.3379 38.1453L14.2118 37.8624C14.2262 37.8579 14.2389 37.8489 14.248 37.8368C14.2571 37.8247 14.2621 37.81 14.2623 37.7948C14.2641 37.785 14.2641 37.775 14.2623 37.7652L14.157 37.3936C14.157 37.3577 14.1254 37.3408 14.0981 37.3408H14.0623L13.1862 37.6406V36.7306C13.1862 36.682 13.1631 36.6567 13.1168 36.6567H12.7524C12.7428 36.656 12.7331 36.6574 12.724 36.661C12.715 36.6645 12.7068 36.67 12.7002 36.6771C12.6935 36.6842 12.6885 36.6926 12.6855 36.7019C12.6826 36.7111 12.6817 36.721 12.683 36.7306V37.6406L11.8069 37.3408H11.7712C11.7567 37.3412 11.7428 37.3467 11.732 37.3564C11.7212 37.366 11.7142 37.3792 11.7122 37.3936L11.6048 37.7652V37.7948C11.6038 37.808 11.6064 37.8213 11.6124 37.8332C11.6183 37.8451 11.6273 37.8552 11.6385 37.8624Z" fill="#82848E"/>
<path d="M16.0754 39.2686L16.9514 39.5516L16.4165 40.2969C16.4056 40.3119 16.3984 40.3293 16.3955 40.3476C16.3954 40.358 16.3978 40.3682 16.4026 40.3774C16.4074 40.3866 16.4143 40.3945 16.4229 40.4004L16.7198 40.6115C16.738 40.6236 16.759 40.6308 16.7808 40.6326C16.7998 40.6326 16.8145 40.6221 16.8293 40.5989L17.3705 39.8514L17.9138 40.5989C17.9178 40.6085 17.9245 40.6169 17.933 40.6229C17.9416 40.6288 17.9517 40.6322 17.9622 40.6326C17.984 40.6311 18.0051 40.6238 18.0233 40.6115L18.3181 40.4004C18.3265 40.3943 18.3335 40.3864 18.3386 40.3773C18.3437 40.3681 18.3468 40.358 18.3475 40.3476C18.3446 40.3293 18.3374 40.3119 18.3265 40.2969L17.7832 39.5516L18.6571 39.2686C18.6716 39.2642 18.6842 39.2552 18.6933 39.2431C18.7024 39.2309 18.7074 39.2162 18.7076 39.2011C18.7095 39.1913 18.7095 39.1813 18.7076 39.1715L18.6023 38.7999C18.6 38.7857 18.5928 38.7727 18.5821 38.7631C18.5714 38.7535 18.5577 38.7479 18.5434 38.7471H18.5076L17.6316 39.0469V38.1369C17.6316 38.0883 17.6084 38.063 17.5621 38.063H17.1978C17.1881 38.0623 17.1784 38.0637 17.1694 38.0672C17.1603 38.0708 17.1522 38.0763 17.1455 38.0834C17.1388 38.0904 17.1339 38.0989 17.1309 38.1082C17.1279 38.1174 17.127 38.1272 17.1283 38.1369V39.0469L16.2523 38.7471H16.2165C16.202 38.7475 16.1881 38.753 16.1773 38.7626C16.1665 38.7723 16.1595 38.7855 16.1575 38.7999L16.0501 39.1715V39.2011C16.0482 39.2136 16.0496 39.2263 16.054 39.2381C16.0584 39.25 16.0658 39.2605 16.0754 39.2686Z" fill="#82848E"/>
<path d="M20.7292 39.636L21.6031 39.9189L21.0598 40.6664C21.05 40.6812 21.0429 40.6977 21.0387 40.715C21.0389 40.7255 21.0416 40.7359 21.0468 40.7451C21.0519 40.7543 21.0593 40.7621 21.0682 40.7677L21.363 40.9789C21.3819 40.9897 21.4026 40.9969 21.4241 41C21.4347 40.9992 21.4449 40.9954 21.4534 40.989C21.462 40.9827 21.4686 40.974 21.4725 40.9641L22.0137 40.2166L22.557 40.9641C22.5718 40.9873 22.5865 41 22.6054 41C22.6272 40.9978 22.6481 40.9906 22.6665 40.9789L22.9634 40.7677C22.9718 40.7617 22.9787 40.7538 22.9834 40.7446C22.9882 40.7355 22.9907 40.7253 22.9908 40.715C22.9877 40.6973 22.9805 40.6807 22.9697 40.6664L22.4265 39.9189L23.3025 39.636C23.3164 39.6309 23.3284 39.6217 23.3371 39.6097C23.3457 39.5976 23.3505 39.5833 23.3509 39.5684C23.3519 39.5586 23.3519 39.5487 23.3509 39.5389L23.2435 39.1672C23.2411 39.1532 23.2338 39.1405 23.2231 39.1313C23.2123 39.122 23.1987 39.1168 23.1845 39.1166H23.1487L22.2664 39.4248V38.5148C22.2664 38.4662 22.2433 38.443 22.1969 38.443H21.8326C21.8231 38.4419 21.8134 38.4431 21.8043 38.4464C21.7953 38.4496 21.7871 38.4549 21.7804 38.4618C21.7737 38.4688 21.7686 38.4771 21.7656 38.4863C21.7626 38.4955 21.7618 38.5052 21.7631 38.5148V39.4248L20.8871 39.125H20.8513C20.8367 39.1249 20.8226 39.1303 20.8117 39.14C20.8008 39.1498 20.7939 39.1632 20.7924 39.1778L20.6871 39.5473V39.5769C20.6882 39.5896 20.6927 39.6018 20.7001 39.6122C20.7075 39.6226 20.7176 39.6308 20.7292 39.636Z" fill="#82848E"/>
<path d="M25.3809 38.88L26.2569 39.163L25.7115 39.9083C25.7016 39.9239 25.6945 39.941 25.6905 39.959C25.6908 39.9695 25.6936 39.9798 25.6987 39.989C25.7039 39.9982 25.7111 40.006 25.7199 40.0118L26.0169 40.2229C26.0344 40.2349 26.0547 40.2422 26.0758 40.2441C26.0863 40.2436 26.0964 40.2402 26.105 40.2343C26.1135 40.2283 26.1202 40.22 26.1243 40.2103L26.6654 39.4628L27.2087 40.2103C27.2135 40.2198 27.2207 40.228 27.2295 40.2339C27.2384 40.2398 27.2486 40.2433 27.2593 40.2441C27.2805 40.2425 27.3008 40.2352 27.3182 40.2229L27.6152 40.0118C27.6233 40.0056 27.63 39.9976 27.6347 39.9885C27.6395 39.9793 27.6421 39.9693 27.6425 39.959C27.6396 39.9407 27.6324 39.9233 27.6215 39.9083L27.0782 39.163L27.9542 38.88C27.9681 38.875 27.9801 38.8658 27.9888 38.8537C27.9974 38.8417 28.0022 38.8273 28.0026 38.8125C28.0038 38.8027 28.0038 38.7927 28.0026 38.7829L27.8973 38.4113C27.8847 38.3775 27.8636 38.3585 27.8363 38.3585H27.8005L26.9266 38.6583V37.7567C26.9279 37.7469 26.927 37.7369 26.9239 37.7275C26.9208 37.718 26.9156 37.7094 26.9087 37.7023C26.9018 37.6952 26.8934 37.6897 26.8841 37.6864C26.8748 37.683 26.8648 37.6818 26.855 37.6828H26.4907C26.481 37.6821 26.4713 37.6836 26.4622 37.6871C26.4532 37.6906 26.445 37.6961 26.4384 37.7032C26.4317 37.7103 26.4267 37.7188 26.4237 37.728C26.4208 37.7373 26.4199 37.7471 26.4212 37.7567V38.6668L25.5388 38.3691H25.503C25.4886 38.3694 25.4747 38.3749 25.4639 38.3846C25.4531 38.3943 25.4461 38.4075 25.4441 38.4218L25.3388 38.7935V38.823C25.3403 38.8354 25.3449 38.8471 25.3523 38.8571C25.3597 38.8671 25.3696 38.875 25.3809 38.88Z" fill="#82848E"/>
<path d="M29.5756 36.7411L30.4516 37.024L29.9083 37.7715C29.8976 37.7858 29.8904 37.8025 29.8873 37.8201C29.887 37.8305 29.8893 37.8408 29.8941 37.85C29.8989 37.8593 29.906 37.8671 29.9146 37.8729L30.2116 38.084C30.2303 38.0951 30.251 38.1023 30.2726 38.1051C30.2916 38.1051 30.3063 38.0925 30.3211 38.0692L30.8622 37.3218L31.4055 38.0692C31.4095 38.0792 31.4161 38.0878 31.4246 38.0941C31.4332 38.1005 31.4434 38.1043 31.454 38.1051C31.4756 38.1026 31.4965 38.0954 31.515 38.084L31.8099 37.8729C31.8183 37.8667 31.8253 37.8588 31.8304 37.8497C31.8355 37.8406 31.8385 37.8305 31.8393 37.8201C31.8362 37.8025 31.829 37.7858 31.8183 37.7715L31.275 37.024L32.1489 36.7411C32.1643 36.739 32.1786 36.7318 32.1897 36.7208C32.2007 36.7097 32.2078 36.6954 32.21 36.6799C32.2116 36.6701 32.2116 36.6601 32.21 36.6503L32.1047 36.2787C32.1022 36.2647 32.095 36.252 32.0843 36.2427C32.0735 36.2335 32.0599 36.2283 32.0457 36.228H32.0099L31.1339 36.5278V35.6241C31.1339 35.5756 31.1107 35.5502 31.0644 35.5502H30.7001C30.6904 35.5495 30.6807 35.551 30.6717 35.5545C30.6626 35.558 30.6545 35.5635 30.6478 35.5706C30.6412 35.5777 30.6362 35.5862 30.6332 35.5954C30.6302 35.6047 30.6293 35.6145 30.6306 35.6241V36.5342L29.7546 36.2344H29.7188C29.7045 36.2342 29.6907 36.2393 29.6798 36.2486C29.669 36.2579 29.6619 36.2709 29.6598 36.285L29.5524 36.6567V36.6862C29.5523 36.6965 29.5543 36.7067 29.5583 36.7161C29.5622 36.7256 29.5682 36.7341 29.5756 36.7411Z" fill="#82848E"/>
<path d="M33.1302 33.7027L34.0041 33.9857L33.4608 34.7331C33.4501 34.7474 33.4429 34.7641 33.4397 34.7817C33.4399 34.7922 33.4426 34.8026 33.4478 34.8118C33.4529 34.8211 33.4603 34.8288 33.4692 34.8345L33.764 35.0456C33.7829 35.0564 33.8036 35.0636 33.8251 35.0667C33.8357 35.0659 33.8459 35.0621 33.8544 35.0557C33.863 35.0494 33.8696 35.0408 33.8735 35.0308L34.4147 34.2834L34.958 35.0308C34.9728 35.0541 34.9875 35.0667 35.0064 35.0667C35.0282 35.0645 35.0491 35.0573 35.0675 35.0456L35.3644 34.8345C35.3728 34.8285 35.3797 34.8206 35.3844 34.8114C35.3892 34.8022 35.3917 34.792 35.3918 34.7817C35.3887 34.7641 35.3815 34.7474 35.3707 34.7331L34.8274 33.9857L35.7035 33.7027C35.7174 33.6976 35.7294 33.6885 35.7381 33.6764C35.7467 33.6644 35.7515 33.65 35.7519 33.6352C35.7529 33.6253 35.7529 33.6154 35.7519 33.6056L35.6445 33.234C35.6421 33.22 35.6348 33.2073 35.6241 33.198C35.6133 33.1888 35.5997 33.1836 35.5855 33.1833H35.5497L34.6737 33.4831V32.5731C34.6737 32.5245 34.6506 32.4992 34.6042 32.4992H34.2399C34.2304 32.4988 34.2208 32.5005 34.2119 32.5042C34.2031 32.5078 34.1951 32.5134 34.1885 32.5203C34.1819 32.5273 34.1769 32.5357 34.1738 32.5448C34.1707 32.5539 34.1695 32.5635 34.1704 32.5731V33.4831L33.2944 33.1833H33.2586C33.2444 33.1831 33.2305 33.1882 33.2197 33.1975C33.2088 33.2068 33.2017 33.2198 33.1997 33.234L33.0944 33.6056V33.6352C33.0934 33.6487 33.0962 33.6622 33.1026 33.6741C33.1089 33.6861 33.1185 33.696 33.1302 33.7027Z" fill="#82848E"/>
<path d="M35.8572 29.9232L36.7332 30.2061L36.1899 30.9536C36.1792 30.9679 36.172 30.9845 36.1689 31.0021C36.1688 31.0128 36.1712 31.0234 36.176 31.0329C36.1808 31.0424 36.1877 31.0507 36.1963 31.057L36.4932 31.2682C36.5119 31.2793 36.5327 31.2865 36.5543 31.2893C36.5732 31.2893 36.5879 31.2766 36.6027 31.2534L37.1439 30.5059L37.6851 31.2534C37.689 31.2633 37.6956 31.272 37.7041 31.2783C37.7127 31.2847 37.7229 31.2885 37.7335 31.2893C37.7551 31.2868 37.776 31.2796 37.7946 31.2682L38.0894 31.057C38.0979 31.0505 38.1049 31.0422 38.11 31.0328C38.1151 31.0233 38.1181 31.0129 38.1189 31.0021C38.1147 30.9849 38.1076 30.9684 38.0978 30.9536L37.5545 30.2061L38.4284 29.9232C38.4429 29.9187 38.4556 29.9098 38.4646 29.8976C38.4737 29.8855 38.4787 29.8708 38.4789 29.8556C38.4806 29.8458 38.4806 29.8358 38.4789 29.8261L38.3737 29.4544C38.3712 29.4404 38.364 29.4277 38.3532 29.4185C38.3425 29.4092 38.3289 29.404 38.3147 29.4038H38.2789L37.3966 29.712V28.802C37.3966 28.7534 37.3734 28.7302 37.3271 28.7302H36.9628C36.9532 28.7291 36.9435 28.7303 36.9345 28.7335C36.9254 28.7368 36.9172 28.7421 36.9105 28.749C36.9038 28.756 36.8988 28.7643 36.8958 28.7735C36.8928 28.7827 36.8919 28.7924 36.8933 28.802V29.712L36.0173 29.4122H35.9815C35.9669 29.4121 35.9528 29.4175 35.9419 29.4272C35.931 29.437 35.9241 29.4504 35.9225 29.465L35.8151 29.8345V29.8641C35.8165 29.8767 35.821 29.8888 35.8284 29.8992C35.8358 29.9095 35.8457 29.9178 35.8572 29.9232Z" fill="#82848E"/>
<path d="M37.6261 25.5905L38.5021 25.8734L37.9567 26.6209C37.9464 26.6362 37.9393 26.6534 37.9356 26.6715C37.936 26.6821 37.9388 26.6924 37.9439 26.7015C37.9491 26.7107 37.9563 26.7185 37.9651 26.7243L38.262 26.9355C38.2796 26.9474 38.2999 26.9547 38.321 26.9566C38.3318 26.9555 38.3421 26.9516 38.351 26.9453C38.3598 26.939 38.3669 26.9305 38.3715 26.9207L38.9106 26.1753L39.4539 26.9207C39.4586 26.9305 39.4656 26.939 39.4745 26.9453C39.4833 26.9516 39.4937 26.9555 39.5045 26.9566C39.5256 26.955 39.546 26.9477 39.5634 26.9355L39.8603 26.7243C39.8685 26.7181 39.8752 26.7101 39.8799 26.701C39.8847 26.6919 39.8873 26.6818 39.8877 26.6715C39.8851 26.6531 39.8778 26.6357 39.8667 26.6209L39.3234 25.8734L40.1994 25.5905C40.2134 25.5856 40.2257 25.5765 40.2343 25.5644C40.243 25.5523 40.2477 25.5378 40.2478 25.5229C40.2488 25.5131 40.2488 25.5032 40.2478 25.4933L40.1425 25.1238C40.1299 25.0879 40.1088 25.071 40.0814 25.071H40.0456L39.1591 25.3772V24.4693C39.1604 24.4594 39.1595 24.4494 39.1564 24.44C39.1533 24.4306 39.1481 24.422 39.1412 24.4148C39.1343 24.4077 39.1259 24.4023 39.1166 24.3989C39.1073 24.3955 39.0974 24.3943 39.0875 24.3954H38.7379C38.7283 24.3946 38.7186 24.3961 38.7095 24.3996C38.7005 24.4032 38.6923 24.4087 38.6857 24.4157C38.679 24.4228 38.674 24.4313 38.671 24.4405C38.6681 24.4498 38.6672 24.4596 38.6685 24.4693V25.3772L37.7924 25.0774H37.7588C37.7438 25.0767 37.7292 25.0819 37.7178 25.0917C37.7065 25.1015 37.6993 25.1152 37.6977 25.1302L37.5924 25.4997V25.5292C37.5923 25.5415 37.5954 25.5535 37.6013 25.5642C37.6072 25.5749 37.6157 25.584 37.6261 25.5905Z" fill="#82848E"/>
<path d="M38.3757 20.9262L39.2518 21.2091L38.7085 21.9566C38.6977 21.9709 38.6905 21.9875 38.6874 22.0051C38.6873 22.0158 38.6898 22.0263 38.6945 22.0359C38.6993 22.0454 38.7062 22.0537 38.7148 22.06L39.0117 22.2712C39.0298 22.2819 39.0499 22.289 39.0707 22.2923C39.0814 22.2912 39.0918 22.2873 39.1006 22.281C39.1095 22.2747 39.1166 22.2662 39.1212 22.2564L39.6603 21.5089L40.2036 22.2564C40.2082 22.2662 40.2153 22.2747 40.2242 22.281C40.233 22.2873 40.2433 22.2912 40.2541 22.2923C40.2752 22.2901 40.2954 22.2828 40.3131 22.2712L40.61 22.06C40.6185 22.0535 40.6255 22.0452 40.6306 22.0357C40.6357 22.0263 40.6387 22.0158 40.6395 22.0051C40.6353 21.9878 40.6282 21.9714 40.6184 21.9566L40.073 21.2091L40.949 20.9262C40.9635 20.9217 40.9762 20.9128 40.9853 20.9006C40.9943 20.8885 40.9993 20.8738 40.9996 20.8586C41.0001 20.8487 41.0001 20.8389 40.9996 20.829L40.8943 20.4574C40.8816 20.4236 40.8627 20.4067 40.8332 20.4067H40.7995L39.9235 20.7066V19.7965C39.9249 19.7868 39.924 19.7768 39.9209 19.7674C39.9178 19.7581 39.9126 19.7496 39.9057 19.7426C39.8987 19.7356 39.8902 19.7304 39.8809 19.7273C39.8716 19.7242 39.8616 19.7233 39.8519 19.7247H39.4897C39.4413 19.7247 39.4181 19.7501 39.4181 19.7965V20.7066L38.5274 20.4215H38.4916C38.46 20.4215 38.441 20.4384 38.4305 20.4743L38.3252 20.8438V20.8734C38.3283 20.8858 38.3346 20.8972 38.3435 20.9065C38.3524 20.9157 38.3635 20.9225 38.3757 20.9262Z" fill="#82848E"/>
<path d="M20.5755 2.19736L21.4515 2.47396L20.9082 3.21932C20.8973 3.23432 20.8901 3.25168 20.8871 3.26999C20.887 3.28037 20.8895 3.2906 20.8942 3.29981C20.899 3.30901 20.906 3.3169 20.9145 3.32278L21.2114 3.53393C21.2297 3.54598 21.2507 3.55324 21.2725 3.55504C21.2827 3.55397 21.2926 3.55031 21.301 3.5444C21.3095 3.5385 21.3163 3.53053 21.3209 3.52126L21.86 2.77379L22.4054 3.5297C22.4094 3.53938 22.4161 3.54771 22.4247 3.5537C22.4333 3.55968 22.4434 3.56308 22.4538 3.56349C22.4757 3.56197 22.4968 3.55469 22.5149 3.54237L22.8097 3.33122C22.8182 3.32511 22.8252 3.31722 22.8303 3.3081C22.8354 3.29898 22.8384 3.28886 22.8392 3.27844C22.8352 3.26045 22.828 3.2433 22.8181 3.22776L22.2748 2.47396L23.1551 2.19736C23.1695 2.1929 23.1822 2.18396 23.1913 2.17182C23.2004 2.15968 23.2054 2.14497 23.2056 2.12979C23.2073 2.1193 23.2073 2.10861 23.2056 2.09812L23.1003 1.72861C23.0877 1.69272 23.0687 1.67583 23.0414 1.67583H23.0056L22.1295 1.97566V1.07405C22.1295 1.02549 22.1064 1.00015 22.0601 1.00015H21.681C21.6713 0.999494 21.6615 1.00097 21.6523 1.00448C21.6432 1.008 21.635 1.01346 21.6282 1.02049C21.6213 1.02752 21.6161 1.03595 21.6129 1.0452C21.6097 1.05445 21.6085 1.0643 21.6094 1.07405V1.9841L20.7355 1.68427H20.6997C20.6681 1.68427 20.6492 1.70116 20.6407 1.73706L20.5333 2.10868V2.13824C20.5347 2.1509 20.5393 2.16299 20.5467 2.17335C20.554 2.18371 20.564 2.19198 20.5755 2.19736Z" fill="#82848E"/>
<path d="M18.8345 16.1821H17.6145V17.4695H17.2311V14.5543H19.0322V14.8707H17.6145V15.8678H18.8345V16.1821Z" fill="#82848E"/>
<path d="M20.7574 16.7087H19.5394L19.2658 17.4695H18.8705L19.9807 14.5543H20.3161L21.4284 17.4695H21.035L20.7574 16.7087ZM19.6552 16.3924H20.6436L20.1484 15.0289L19.6552 16.3924Z" fill="#82848E"/>
<path d="M22.2311 17.4695H21.8477V14.5543H22.2311V17.4695Z" fill="#82848E"/>
<path d="M24.0003 16.2902H23.3173V17.4695H22.932V14.5543H23.8944C24.2219 14.5543 24.4735 14.6291 24.6492 14.7786C24.8263 14.9281 24.9148 15.1457 24.9148 15.4313C24.9148 15.6128 24.8655 15.771 24.767 15.9058C24.6698 16.0406 24.5341 16.1414 24.3597 16.2082L25.0426 17.4455V17.4695H24.6312L24.0003 16.2902ZM23.3173 15.9759H23.9064C24.0968 15.9759 24.2479 15.9265 24.3597 15.8277C24.4728 15.729 24.5294 15.5968 24.5294 15.4313C24.5294 15.2511 24.4755 15.113 24.3677 15.0168C24.2612 14.9207 24.1067 14.872 23.9044 14.8707H23.3173V15.9759Z" fill="#82848E"/>
<path d="M16.3445 22.3259V19.4107H17.1652C17.4181 19.4107 17.6418 19.4668 17.8361 19.5789C18.0305 19.6911 18.1802 19.8506 18.2854 20.0575C18.3919 20.2643 18.4458 20.5019 18.4471 20.7702V20.9564C18.4471 21.2314 18.3939 21.4723 18.2874 21.6792C18.1822 21.8861 18.0311 22.045 17.8341 22.1558C17.6384 22.2665 17.4101 22.3233 17.1492 22.3259H16.3445ZM16.7279 19.7271V22.0116H17.1312C17.4268 22.0116 17.6564 21.9195 17.8201 21.7353C17.9852 21.5511 18.0678 21.2888 18.0678 20.9484V20.7782C18.0678 20.4472 17.9899 20.1903 17.8341 20.0074C17.6797 19.8232 17.4601 19.7298 17.1752 19.7271H16.7279Z" fill="#82848E"/>
<path d="M20.5897 21.5651H19.3717L19.0981 22.3259H18.7027L19.813 19.4107H20.1484L21.2606 22.3259H20.8673L20.5897 21.5651ZM19.4875 21.2488H20.4759L19.9807 19.8853L19.4875 21.2488Z" fill="#82848E"/>
<path d="M23.4012 19.7271H22.4667V22.3259H22.0853V19.7271H21.1528V19.4107H23.4012V19.7271Z" fill="#82848E"/>
<path d="M25.2782 21.5651H24.0602L23.7866 22.3259H23.3912L24.5014 19.4107H24.8369L25.9491 22.3259H25.5558L25.2782 21.5651ZM24.176 21.2488H25.1644L24.6692 19.8853L24.176 21.2488Z" fill="#82848E"/>
<path d="M14.0442 25.8829C13.7154 25.7881 13.4758 25.672 13.3253 25.5345C13.1762 25.3957 13.1017 25.2249 13.1017 25.022C13.1017 24.7924 13.1929 24.6028 13.3753 24.4534C13.559 24.3025 13.7973 24.2271 14.0901 24.2271C14.2898 24.2271 14.4675 24.2658 14.6233 24.3432C14.7803 24.4206 14.9015 24.5274 14.9867 24.6636C15.0732 24.7997 15.1165 24.9486 15.1165 25.1101H14.7311C14.7311 24.9339 14.6752 24.7957 14.5634 24.6956C14.4515 24.5942 14.2938 24.5434 14.0901 24.5434C13.9011 24.5434 13.7533 24.5855 13.6468 24.6696C13.5417 24.7523 13.4891 24.8678 13.4891 25.016C13.4891 25.1348 13.539 25.2355 13.6388 25.3183C13.74 25.3997 13.9111 25.4745 14.152 25.5425C14.3943 25.6106 14.5833 25.686 14.7191 25.7688C14.8562 25.8502 14.9574 25.9457 15.0226 26.0551C15.0892 26.1646 15.1225 26.2934 15.1225 26.4415C15.1225 26.6778 15.0306 26.8673 14.8469 27.0102C14.6632 27.1516 14.4176 27.2224 14.1101 27.2224C13.9104 27.2224 13.724 27.1843 13.551 27.1083C13.3779 27.0308 13.2441 26.9254 13.1496 26.7919C13.0564 26.6584 13.0098 26.5069 13.0098 26.3374H13.3952C13.3952 26.5136 13.4598 26.6531 13.5889 26.7559C13.7194 26.8573 13.8931 26.908 14.1101 26.908C14.3124 26.908 14.4675 26.8667 14.5753 26.7839C14.6832 26.7011 14.7371 26.5884 14.7371 26.4455C14.7371 26.3027 14.6872 26.1926 14.5873 26.1152C14.4875 26.0364 14.3064 25.959 14.0442 25.8829Z" fill="#82848E"/>
<path d="M17.8521 25.8188C17.8521 26.1045 17.8042 26.3541 17.7083 26.5677C17.6125 26.7799 17.4767 26.9421 17.301 27.0542C17.1253 27.1663 16.9203 27.2224 16.686 27.2224C16.457 27.2224 16.254 27.1663 16.0769 27.0542C15.8999 26.9407 15.7621 26.7799 15.6636 26.5717C15.5664 26.3621 15.5165 26.1198 15.5138 25.8449V25.6346C15.5138 25.3543 15.5624 25.1067 15.6596 24.8918C15.7568 24.6769 15.8939 24.5127 16.0709 24.3993C16.2493 24.2845 16.453 24.2271 16.682 24.2271C16.9149 24.2271 17.1199 24.2838 17.297 24.3973C17.4754 24.5094 17.6125 24.6729 17.7083 24.8878C17.8042 25.1014 17.8521 25.3503 17.8521 25.6346V25.8188ZM17.4707 25.6306C17.4707 25.2849 17.4015 25.02 17.263 24.8358C17.1246 24.6502 16.9309 24.5575 16.682 24.5575C16.4397 24.5575 16.2487 24.6502 16.1089 24.8358C15.9704 25.02 15.8992 25.2763 15.8952 25.6046V25.8188C15.8952 26.1539 15.9651 26.4175 16.1049 26.6097C16.246 26.8006 16.4397 26.896 16.686 26.896C16.9336 26.896 17.1253 26.8059 17.261 26.6257C17.3968 26.4442 17.4667 26.1846 17.4707 25.8469V25.6306Z" fill="#82848E"/>
<path d="M20.5658 26.2573C20.5298 26.5657 20.416 26.8039 20.2243 26.9721C20.0339 27.139 19.7803 27.2224 19.4635 27.2224C19.1201 27.2224 18.8445 27.0989 18.6368 26.852C18.4305 26.605 18.3273 26.2747 18.3273 25.8609V25.5806C18.3273 25.3096 18.3753 25.0714 18.4711 24.8658C18.5683 24.6602 18.7054 24.5027 18.8824 24.3933C19.0595 24.2825 19.2645 24.2271 19.4975 24.2271C19.8063 24.2271 20.0539 24.3139 20.2403 24.4874C20.4266 24.6596 20.5351 24.8985 20.5658 25.2042H20.1804C20.1471 24.9719 20.0745 24.8037 19.9627 24.6996C19.8522 24.5955 19.6971 24.5434 19.4975 24.5434C19.2525 24.5434 19.0602 24.6342 18.9204 24.8157C18.7819 24.9973 18.7127 25.2556 18.7127 25.5906V25.8729C18.7127 26.1893 18.7786 26.4409 18.9104 26.6277C19.0422 26.8146 19.2266 26.908 19.4635 26.908C19.6765 26.908 19.8396 26.86 19.9527 26.7639C20.0672 26.6664 20.1431 26.4976 20.1804 26.2573H20.5658Z" fill="#82848E"/>
<path d="M21.5023 27.1823H21.1189V24.2671H21.5023V27.1823Z" fill="#82848E"/>
<path d="M23.8485 25.8349H22.5885V26.868H24.0522V27.1823H22.2051V24.2671H24.0322V24.5835H22.5885V25.5205H23.8485V25.8349Z" fill="#82848E"/>
<path d="M26.5781 24.5835H25.6436V27.1823H25.2622V24.5835H24.3297V24.2671H26.5781V24.5835Z" fill="#82848E"/>
<path d="M27.928 25.7307L28.6867 24.2671H29.122L28.1197 26.0951V27.1823H27.7363V26.0951L26.7339 24.2671H27.1732L27.928 25.7307Z" fill="#82848E"/>
<path d="M37.6008 16.1099L38.4768 16.3928L37.9335 17.1382C37.9226 17.1532 37.9154 17.1705 37.9124 17.1888C37.9123 17.1992 37.9148 17.2095 37.9196 17.2187C37.9243 17.2279 37.9313 17.2357 37.9398 17.2416L38.2367 17.4528C38.2544 17.4644 38.2746 17.4717 38.2957 17.4739C38.3063 17.4732 38.3166 17.4697 38.3255 17.4637C38.3343 17.4578 38.3415 17.4497 38.3462 17.4401L38.8853 16.6926L39.4286 17.4401C39.4334 17.4497 39.4405 17.4578 39.4494 17.4637C39.4583 17.4697 39.4685 17.4732 39.4792 17.4739C39.5004 17.4726 39.5209 17.4653 39.5381 17.4528L39.835 17.2416C39.8435 17.2355 39.8505 17.2276 39.8556 17.2185C39.8607 17.2094 39.8637 17.1993 39.8645 17.1888C39.8605 17.1708 39.8534 17.1537 39.8435 17.1382L39.2981 16.3928L40.1741 16.1099C40.1885 16.1054 40.2012 16.0965 40.2103 16.0843C40.2194 16.0722 40.2244 16.0575 40.2246 16.0423C40.2254 16.0325 40.2254 16.0226 40.2246 16.0127L40.1193 15.6411C40.1067 15.6052 40.0877 15.5883 40.0582 15.5883H40.0246L39.1485 15.8882V14.9781C39.1499 14.9683 39.149 14.9583 39.1459 14.9488C39.1428 14.9394 39.1376 14.9308 39.1307 14.9237C39.1238 14.9166 39.1154 14.9111 39.106 14.9078C39.0967 14.9044 39.0868 14.9032 39.0769 14.9042H38.7147C38.7049 14.9032 38.695 14.9044 38.6856 14.9078C38.6763 14.9111 38.6679 14.9166 38.661 14.9237C38.6541 14.9308 38.6489 14.9394 38.6458 14.9488C38.6427 14.9583 38.6418 14.9683 38.6432 14.9781V15.8882L37.7692 15.5883H37.7334C37.7019 15.5883 37.6829 15.6073 37.6724 15.6411L37.5671 16.0127V16.0423C37.5661 16.0556 37.5687 16.0688 37.5747 16.0807C37.5806 16.0926 37.5896 16.1027 37.6008 16.1099Z" stroke="#82848E" stroke-width="0.5" stroke-miterlimit="10"/>
<path d="M35.7898 11.7962L36.6637 12.0791L36.1183 12.8202C36.1086 12.8351 36.1015 12.8515 36.0973 12.8688C36.0974 12.8794 36.1002 12.8897 36.1053 12.8989C36.1105 12.9082 36.1179 12.916 36.1268 12.9216L36.4216 13.1327C36.4404 13.1436 36.4611 13.1507 36.4826 13.1538C36.4933 13.153 36.5034 13.1492 36.512 13.1429C36.5205 13.1365 36.5272 13.1279 36.5311 13.118L37.0723 12.3705L37.6156 13.118C37.62 13.1275 37.6268 13.1358 37.6352 13.1421C37.6437 13.1483 37.6536 13.1524 37.664 13.1538C37.6857 13.1516 37.7066 13.1444 37.7251 13.1327L38.022 12.9216C38.0304 12.9156 38.0372 12.9077 38.042 12.8985C38.0468 12.8893 38.0493 12.8791 38.0494 12.8688C38.0462 12.8512 38.039 12.8345 38.0283 12.8202L37.485 12.0728L38.361 11.7898C38.3749 11.7847 38.387 11.7756 38.3956 11.7635C38.4043 11.7515 38.4091 11.7371 38.4094 11.7223C38.4104 11.7124 38.4104 11.7025 38.4094 11.6927L38.302 11.3211C38.2996 11.3071 38.2924 11.2944 38.2816 11.2851C38.2709 11.2759 38.2573 11.2707 38.2431 11.2704H38.2073L37.3334 11.5702V10.6602C37.3348 10.6504 37.3339 10.6405 37.3308 10.6311C37.3277 10.6218 37.3225 10.6133 37.3155 10.6063C37.3086 10.5993 37.3001 10.5941 37.2908 10.591C37.2814 10.5879 37.2715 10.587 37.2618 10.5884H36.8975C36.8879 10.5873 36.8782 10.5885 36.8692 10.5918C36.8601 10.595 36.8519 10.6003 36.8452 10.6072C36.8385 10.6142 36.8335 10.6225 36.8305 10.6317C36.8275 10.6409 36.8266 10.6506 36.828 10.6602V11.5702L35.952 11.2704H35.9162C35.9016 11.2703 35.8875 11.2757 35.8766 11.2854C35.8657 11.2952 35.8588 11.3086 35.8572 11.3232L35.7519 11.6927V11.7223C35.7498 11.737 35.7523 11.752 35.7591 11.7653C35.7659 11.7785 35.7767 11.7893 35.7898 11.7962Z" stroke="#82848E" stroke-width="0.5" stroke-miterlimit="10"/>
<path d="M33.0207 8.04193L33.8946 8.32487L33.3492 9.07022C33.3393 9.08575 33.3322 9.10291 33.3282 9.1209C33.3285 9.13142 33.3313 9.14172 33.3365 9.15091C33.3416 9.1601 33.3489 9.16791 33.3577 9.17368L33.6546 9.38483C33.6721 9.3968 33.6924 9.40407 33.7135 9.40595C33.7244 9.40525 33.735 9.40153 33.7439 9.39519C33.7528 9.38885 33.7598 9.38015 33.7641 9.37005L34.3158 8.62892L34.8591 9.37427C34.8634 9.38437 34.8703 9.39307 34.8793 9.39941C34.8882 9.40575 34.8987 9.40947 34.9096 9.41017C34.9308 9.40859 34.9512 9.40129 34.9686 9.38905L35.2655 9.17791C35.2737 9.17168 35.2804 9.16372 35.2851 9.15459C35.2898 9.14546 35.2925 9.1354 35.2929 9.12512C35.2899 9.1068 35.2827 9.08945 35.2718 9.07444L34.7285 8.32909L35.6045 8.04615C35.6183 8.04083 35.6302 8.03161 35.6388 8.01961C35.6474 8.00761 35.6523 7.99335 35.653 7.97859C35.654 7.96806 35.654 7.95744 35.653 7.94691L35.5477 7.5774C35.535 7.54151 35.514 7.52462 35.4866 7.52462H35.4508L34.5769 7.82445V6.91862C34.5782 6.90879 34.5773 6.89878 34.5742 6.88935C34.5711 6.87992 34.5659 6.87132 34.559 6.8642C34.5521 6.85708 34.5437 6.85163 34.5344 6.84825C34.5251 6.84488 34.5152 6.84367 34.5053 6.84472H34.141C34.1313 6.84401 34.1216 6.84547 34.1126 6.84899C34.1035 6.85252 34.0954 6.85802 34.0887 6.8651C34.0821 6.87218 34.0771 6.88065 34.0741 6.88991C34.0711 6.89917 34.0702 6.90898 34.0715 6.91862V7.82867L33.1955 7.52884H33.1618C33.1469 7.52822 33.1322 7.53333 33.1209 7.54313C33.1095 7.55294 33.1023 7.5667 33.1007 7.58163L32.9955 7.95114V7.98281C32.9949 7.99394 32.997 8.00503 33.0013 8.01527C33.0057 8.02551 33.0123 8.03462 33.0207 8.04193Z" stroke="#82848E" stroke-width="0.5" stroke-miterlimit="10"/>
<path d="M29.4388 5.04154L30.3148 5.32448L29.7715 6.0635C29.7608 6.0778 29.7535 6.09444 29.7504 6.11206C29.7503 6.12244 29.7528 6.13267 29.7575 6.14188C29.7623 6.15108 29.7693 6.15897 29.7778 6.16485L30.0747 6.376C30.093 6.38805 30.114 6.39531 30.1358 6.39711C30.1547 6.39711 30.1695 6.39711 30.1842 6.36333L30.7359 5.62853L31.2792 6.376C31.2832 6.38568 31.2899 6.394 31.2985 6.39999C31.3071 6.40597 31.3172 6.40937 31.3277 6.40978C31.3495 6.40826 31.3706 6.40098 31.3887 6.38866L31.6835 6.17752C31.692 6.1714 31.699 6.16351 31.7041 6.15439C31.7092 6.14527 31.7122 6.13515 31.713 6.12473C31.7089 6.10744 31.7017 6.09101 31.692 6.07617L31.1487 5.3287L32.0226 5.04576C32.037 5.0413 32.0497 5.03236 32.0588 5.02022C32.0679 5.00808 32.0729 4.99337 32.0731 4.9782C32.0747 4.96841 32.0747 4.95842 32.0731 4.94864L31.9678 4.57702C31.9655 4.5628 31.9583 4.54983 31.9476 4.54023C31.9369 4.53064 31.9232 4.52499 31.9089 4.52423H31.8731L30.9971 4.82406V3.91823C30.9971 3.86967 30.9739 3.84433 30.9276 3.84433H30.5633C30.5536 3.84362 30.5439 3.84508 30.5348 3.8486C30.5258 3.85213 30.5176 3.85763 30.511 3.86471C30.5043 3.87179 30.4993 3.88026 30.4964 3.88952C30.4934 3.89878 30.4925 3.90859 30.4938 3.91823V4.82828L29.6178 4.52845H29.582C29.5675 4.52881 29.5536 4.53432 29.5428 4.54399C29.532 4.55366 29.525 4.56686 29.523 4.58124L29.4156 4.95286V4.98242C29.4148 4.99338 29.4165 5.00438 29.4205 5.0146C29.4245 5.02483 29.4308 5.03403 29.4388 5.04154Z" stroke="#82848E" stroke-width="0.5" stroke-miterlimit="10"/>
<path d="M25.2292 2.94905L26.1031 3.23199L25.5598 3.97945C25.5491 3.99376 25.5419 4.0104 25.5388 4.02802C25.5385 4.03843 25.5409 4.04873 25.5457 4.05797C25.5504 4.06721 25.5575 4.07507 25.5662 4.08081L25.8631 4.29195C25.8819 4.30278 25.9027 4.30994 25.9242 4.31307C25.9431 4.31307 25.9578 4.3004 25.9726 4.27717L26.5243 3.52971L27.0676 4.27717C27.0715 4.2871 27.0781 4.29573 27.0867 4.30208C27.0952 4.30843 27.1054 4.31223 27.116 4.31307C27.1377 4.31086 27.1586 4.30363 27.1771 4.29195L27.474 4.08081C27.4819 4.07431 27.4884 4.06628 27.4931 4.05721C27.4978 4.04814 27.5006 4.03821 27.5014 4.02802C27.4983 4.0104 27.4911 3.99376 27.4803 3.97945L26.937 3.23199L27.8109 2.94905C27.8254 2.94459 27.8381 2.93565 27.8472 2.92351C27.8563 2.91137 27.8613 2.89666 27.8615 2.88149C27.8625 2.87166 27.8625 2.86175 27.8615 2.85193L27.7372 2.47397C27.7348 2.45998 27.7276 2.44727 27.7168 2.43802C27.7061 2.42878 27.6924 2.42357 27.6783 2.42329H27.6425L26.7665 2.72313V1.82575C26.7665 1.77718 26.7433 1.75185 26.697 1.75185H26.3327C26.3231 1.7515 26.3135 1.75321 26.3047 1.75686C26.2958 1.76051 26.2878 1.76602 26.2812 1.77302C26.2747 1.78001 26.2696 1.78833 26.2665 1.79743C26.2634 1.80652 26.2623 1.81618 26.2632 1.82575V2.73579L25.3872 2.43596H25.3514C25.3371 2.43582 25.3232 2.44087 25.3124 2.45019C25.3016 2.45951 25.2945 2.47247 25.2924 2.48664L25.185 2.85826V2.88782C25.186 2.90114 25.1906 2.91393 25.1984 2.92475C25.2063 2.93556 25.2169 2.94398 25.2292 2.94905Z" stroke="#82848E" stroke-width="0.5" stroke-miterlimit="10"/>
<path d="M15.9238 2.60908L16.7998 2.89624L16.2565 3.64371C16.2453 3.65854 16.238 3.67597 16.2354 3.69438C16.2353 3.70475 16.2378 3.71499 16.2425 3.7242C16.2473 3.7334 16.2543 3.74129 16.2628 3.74717L16.5597 3.95832C16.5774 3.96997 16.5976 3.97721 16.6187 3.97943C16.6295 3.9783 16.6398 3.97441 16.6486 3.96812C16.6575 3.96183 16.6646 3.95337 16.6692 3.94354L17.2083 3.19818L17.7516 3.95198C17.7562 3.96181 17.7633 3.97028 17.7722 3.97656C17.781 3.98285 17.7913 3.98675 17.8021 3.98788C17.8234 3.98662 17.8438 3.9793 17.8611 3.96676L18.158 3.75561C18.1663 3.74931 18.1731 3.74137 18.1782 3.73229C18.1833 3.72321 18.1864 3.71318 18.1875 3.70283C18.1838 3.68472 18.1767 3.6675 18.1664 3.65215L17.621 2.89624L18.497 2.6133C18.5115 2.60884 18.5242 2.5999 18.5333 2.58776C18.5423 2.57562 18.5474 2.56091 18.5476 2.54574C18.5482 2.53589 18.5482 2.52602 18.5476 2.51618L18.4423 2.14667C18.4296 2.11077 18.4107 2.09388 18.3812 2.09388H18.3475L17.4694 2.39582V1.48577C17.4708 1.47602 17.4699 1.46607 17.4668 1.45671C17.4637 1.44735 17.4585 1.43885 17.4516 1.43188C17.4446 1.42491 17.4361 1.41966 17.4268 1.41655C17.4175 1.41345 17.4075 1.41257 17.3978 1.41398H17.0356C16.9872 1.41398 16.964 1.43932 16.964 1.48577V2.39582L16.0901 2.09599H16.0543C16.0227 2.09599 16.0038 2.11288 15.9932 2.14878L15.888 2.51829V2.54785C15.8881 2.56029 15.8915 2.57248 15.8978 2.58321C15.9041 2.59395 15.913 2.60286 15.9238 2.60908Z" stroke="#82848E" stroke-width="0.5" stroke-miterlimit="10"/>
<path d="M11.5016 4.06179L12.3776 4.34473L11.8343 5.09219C11.8231 5.10702 11.8159 5.12446 11.8132 5.14286C11.8131 5.15324 11.8156 5.16348 11.8204 5.17268C11.8251 5.18189 11.8321 5.18977 11.8406 5.19565L12.1375 5.4068C12.1558 5.41886 12.1768 5.42612 12.1986 5.42791C12.2176 5.42791 12.2323 5.41525 12.247 5.39202L12.7882 4.64667L13.3315 5.39202C13.3354 5.40195 13.342 5.41058 13.3506 5.41693C13.3592 5.42327 13.3693 5.42708 13.38 5.42791C13.4018 5.4264 13.4229 5.41911 13.441 5.4068L13.7358 5.19565C13.7441 5.18934 13.751 5.18141 13.756 5.17233C13.7611 5.16324 13.7643 5.15322 13.7653 5.14286C13.7617 5.12476 13.7545 5.10754 13.7443 5.09219L13.201 4.34473L14.0749 4.06179C14.0893 4.05732 14.102 4.04838 14.1111 4.03624C14.1202 4.0241 14.1252 4.00939 14.1254 3.99422C14.127 3.98443 14.127 3.97445 14.1254 3.96466L14.0201 3.59515C14.0201 3.55925 13.9885 3.54236 13.9612 3.54236H13.9254L13.0472 3.84853V2.94059C13.0472 2.88992 13.0241 2.86669 12.9777 2.86669H12.6134C12.6038 2.86598 12.5941 2.86744 12.585 2.87096C12.576 2.87449 12.5678 2.87999 12.5612 2.88707C12.5545 2.89415 12.5495 2.90262 12.5465 2.91188C12.5436 2.92114 12.5427 2.93095 12.544 2.94059V3.84853L11.6679 3.5487H11.6321C11.6175 3.54861 11.6034 3.55397 11.5925 3.56372C11.5816 3.57347 11.5747 3.58693 11.5732 3.60148L11.4658 3.97099V4.00055C11.466 4.013 11.4693 4.02518 11.4756 4.03592C11.4819 4.04665 11.4908 4.05557 11.5016 4.06179Z" stroke="#82848E" stroke-width="0.5" stroke-miterlimit="10"/>
<path d="M7.53635 6.53434L8.41447 6.81728L7.87117 7.56474C7.86045 7.57905 7.85324 7.59568 7.85012 7.6133C7.84983 7.62371 7.85219 7.63402 7.85698 7.64326C7.86177 7.65249 7.86883 7.66035 7.87749 7.66609L8.17441 7.87724C8.19255 7.88796 8.21256 7.89512 8.23337 7.89835C8.24416 7.89723 8.25448 7.89333 8.26333 7.88704C8.27218 7.88076 8.27927 7.87229 8.28391 7.86246L8.82089 7.11922L9.36418 7.86668C9.36882 7.87651 9.37591 7.88498 9.38476 7.89126C9.39362 7.89755 9.40393 7.90145 9.41472 7.90258C9.43577 7.90036 9.45599 7.89312 9.47368 7.88146L9.7706 7.67031C9.77916 7.6643 9.78625 7.65644 9.79135 7.6473C9.79646 7.63816 9.79944 7.62798 9.80008 7.61753C9.79591 7.60024 9.78879 7.58381 9.77903 7.56896L9.23362 6.8215L10.1096 6.53856C10.1241 6.5341 10.1368 6.52516 10.1459 6.51302C10.1549 6.50088 10.16 6.48617 10.1602 6.47099C10.1608 6.46115 10.1608 6.45128 10.1602 6.44143L10.0465 6.06348C10.0338 6.0297 10.0149 6.0128 9.98539 6.0128H9.9517L9.07569 6.31263V5.41103C9.0771 5.40128 9.07623 5.39132 9.07313 5.38197C9.07003 5.37261 9.06479 5.36411 9.05784 5.35714C9.05089 5.35017 9.04241 5.34492 9.03308 5.34181C9.02375 5.3387 9.01382 5.33783 9.00409 5.33924H8.6419C8.59346 5.33924 8.5703 5.36458 8.5703 5.41103V6.32108L7.69639 6.02125H7.66059C7.62901 6.02125 7.61006 6.03814 7.59953 6.07404L7.49424 6.44355V6.47311C7.49523 6.48614 7.49965 6.49867 7.50705 6.50942C7.51445 6.52018 7.52456 6.52878 7.53635 6.53434Z" stroke="#82848E" stroke-width="0.5" stroke-miterlimit="10"/>
<path d="M4.24294 9.90426L5.11895 10.1872L4.57565 10.9347C4.56493 10.949 4.55772 10.9656 4.55459 10.9832C4.5545 10.9936 4.55694 11.0038 4.56172 11.013C4.56649 11.0222 4.57345 11.0301 4.58197 11.036L4.87889 11.2472C4.89658 11.2588 4.9168 11.2661 4.93785 11.2683C4.94848 11.2676 4.95874 11.2641 4.96761 11.2581C4.97647 11.2522 4.98364 11.2441 4.98839 11.2345L5.52747 10.4976L6.07287 11.245C6.07689 11.2547 6.08358 11.2631 6.09216 11.269C6.10075 11.275 6.11086 11.2784 6.12131 11.2788C6.14257 11.2776 6.16303 11.2703 6.18027 11.2577L6.47719 11.0466C6.48564 11.0405 6.49265 11.0326 6.49774 11.0234C6.50283 11.0143 6.50588 11.0042 6.50667 10.9938C6.50249 10.9765 6.49537 10.9601 6.48561 10.9452L5.94231 10.1978L6.81622 9.91482C6.83068 9.91036 6.84337 9.90141 6.85245 9.88927C6.86153 9.87713 6.86654 9.86242 6.86676 9.84725C6.86837 9.83746 6.86837 9.82748 6.86676 9.81769L6.75304 9.44185C6.74041 9.40806 6.72146 9.38906 6.69408 9.38906H6.65828L5.78227 9.691V8.78095C5.78227 8.73239 5.75911 8.70705 5.71278 8.70705H5.34848C5.33873 8.70639 5.32895 8.70787 5.31982 8.71138C5.31069 8.71489 5.30244 8.72036 5.29562 8.72739C5.28881 8.73442 5.28361 8.74285 5.28037 8.7521C5.27713 8.76135 5.27594 8.7712 5.27688 8.78095V9.691L4.41351 9.39117H4.37771C4.34612 9.39117 4.32717 9.41017 4.31664 9.44396L4.20293 9.80713V9.83669C4.20258 9.85059 4.20616 9.8643 4.21323 9.87625C4.22031 9.8882 4.23061 9.89791 4.24294 9.90426Z" stroke="#82848E" stroke-width="0.5" stroke-miterlimit="10"/>
<path d="M2.07815 14.1019L2.95416 14.3848L2.41087 15.1302C2.39968 15.145 2.39243 15.1625 2.38981 15.1809C2.38971 15.1912 2.39216 15.2015 2.39693 15.2107C2.4017 15.2199 2.40866 15.2278 2.41718 15.2337L2.7141 15.4448C2.73237 15.4569 2.75337 15.4641 2.77517 15.4659C2.79412 15.4659 2.80886 15.4659 2.8236 15.43L3.36058 14.6889L3.90598 15.4342C3.90967 15.4443 3.91622 15.4531 3.92483 15.4595C3.93344 15.4658 3.94372 15.4696 3.95441 15.4701C3.97627 15.4686 3.99734 15.4613 4.01548 15.449L4.31029 15.2379C4.31874 15.2318 4.32576 15.2239 4.33085 15.2147C4.33594 15.2056 4.33899 15.1955 4.33977 15.1851C4.33612 15.167 4.32897 15.1498 4.31872 15.1344L3.78174 14.3848L4.65564 14.1019C4.66994 14.0972 4.68245 14.0881 4.69149 14.0761C4.70052 14.064 4.70565 14.0494 4.70618 14.0343C4.70812 14.0239 4.70812 14.0131 4.70618 14.0027L4.60089 13.6332C4.58826 13.5973 4.56931 13.5804 4.54193 13.5804H4.50613L3.63012 13.8802V12.9723C3.63012 12.9237 3.60696 12.8984 3.56063 12.8984H3.18369C3.17394 12.8977 3.16416 12.8992 3.15503 12.9027C3.1459 12.9062 3.13765 12.9117 3.13083 12.9187C3.12402 12.9257 3.11882 12.9342 3.11558 12.9434C3.11235 12.9527 3.11116 12.9625 3.1121 12.9723V13.8802L2.23819 13.5825H2.20239C2.18779 13.5824 2.17368 13.5877 2.16278 13.5975C2.15189 13.6072 2.14499 13.6207 2.14343 13.6353L2.03603 14.0048V14.0364C2.03651 14.0501 2.04068 14.0635 2.0481 14.075C2.05551 14.0865 2.06589 14.0958 2.07815 14.1019Z" stroke="#82848E" stroke-width="0.5" stroke-miterlimit="10"/>
<path d="M1.04423 18.6711L1.91814 18.954L1.37484 19.6994C1.36493 19.7149 1.35781 19.7321 1.35378 19.7501C1.3541 19.7606 1.35694 19.7709 1.36208 19.7801C1.36721 19.7893 1.37448 19.7971 1.38326 19.8028L1.67808 20.014C1.6965 20.0257 1.71742 20.033 1.73914 20.0351C1.74959 20.0347 1.7597 20.0313 1.76829 20.0253C1.77687 20.0193 1.78356 20.011 1.78758 20.0013L2.32877 19.2539L2.86996 19.9992C2.8847 20.0224 2.89944 20.033 2.91839 20.033C2.94031 20.0318 2.96146 20.0245 2.97946 20.0119L3.27637 19.8007C3.28454 19.7945 3.29123 19.7865 3.29596 19.7774C3.3007 19.7683 3.30336 19.7582 3.30375 19.7479C3.30079 19.7296 3.29358 19.7123 3.28269 19.6973L2.7394 18.9519L3.61541 18.669C3.62931 18.6639 3.64137 18.6547 3.65001 18.6427C3.65865 18.6306 3.66347 18.6162 3.66384 18.6014C3.66503 18.5916 3.66503 18.5817 3.66384 18.5718L3.55644 18.2002C3.55407 18.186 3.54693 18.173 3.53621 18.1634C3.5255 18.1539 3.51183 18.1482 3.49748 18.1474H3.46168L2.58146 18.4578V17.5478C2.58405 17.5381 2.58437 17.5279 2.58241 17.5181C2.58044 17.5082 2.57624 17.4989 2.57014 17.491C2.56403 17.483 2.55617 17.4766 2.54718 17.4721C2.53819 17.4677 2.52831 17.4654 2.51829 17.4654H2.14556C2.13589 17.4647 2.12617 17.4662 2.11713 17.4697C2.10809 17.4732 2.09994 17.4787 2.09329 17.4858C2.08663 17.4929 2.08163 17.5014 2.07865 17.5106C2.07568 17.5199 2.07479 17.5297 2.07607 17.5393V18.4494L1.20006 18.1496H1.16426C1.14979 18.1499 1.13591 18.1554 1.12511 18.1651C1.11431 18.1748 1.10729 18.188 1.1053 18.2023L1.00001 18.574V18.6035C0.999765 18.6179 1.00385 18.6321 1.01174 18.6441C1.01963 18.6562 1.03095 18.6656 1.04423 18.6711Z" stroke="#82848E" stroke-width="0.5" stroke-miterlimit="10"/>
<path d="M1.06525 23.3353L1.94126 23.6183L1.39797 24.3657C1.38725 24.38 1.38003 24.3967 1.37691 24.4143C1.37662 24.4247 1.37899 24.435 1.38378 24.4443C1.38857 24.4535 1.39563 24.4614 1.40429 24.4671L1.7012 24.6782C1.71992 24.6894 1.7407 24.6966 1.76227 24.6994C1.78122 24.6994 1.79597 24.6867 1.81071 24.6635L2.35189 23.916L2.89519 24.6635C2.8991 24.6734 2.90571 24.682 2.91428 24.6884C2.92284 24.6947 2.93301 24.6985 2.94362 24.6994C2.96527 24.6969 2.98611 24.6897 3.00469 24.6782L3.2995 24.4671C3.30795 24.461 3.31497 24.4531 3.32006 24.444C3.32515 24.4348 3.3282 24.4247 3.32898 24.4143C3.32481 24.397 3.31769 24.3806 3.30793 24.3657L2.76463 23.6183L3.63854 23.3353C3.653 23.3309 3.66568 23.3219 3.67476 23.3098C3.68384 23.2977 3.68885 23.2829 3.68907 23.2678C3.69068 23.258 3.69068 23.248 3.68907 23.2382L3.58378 22.8666C3.58134 22.8526 3.57413 22.8399 3.56337 22.8306C3.55262 22.8214 3.53899 22.8162 3.52482 22.8159H3.48902L2.61301 23.1157V22.2057C2.61301 22.1571 2.58985 22.1318 2.54352 22.1318H2.1708C2.16104 22.1311 2.15126 22.1326 2.14213 22.1361C2.13301 22.1396 2.12475 22.1451 2.11794 22.1521C2.11113 22.1592 2.10592 22.1676 2.10269 22.1768C2.09945 22.1861 2.09826 22.1959 2.0992 22.2057V23.1157L1.2253 22.8159H1.1895C1.17521 22.8158 1.16136 22.8208 1.15052 22.8301C1.13968 22.8395 1.13257 22.8524 1.13053 22.8666L1.02314 23.2382V23.2678C1.02299 23.2819 1.02687 23.2958 1.03434 23.3077C1.0418 23.3197 1.05253 23.3293 1.06525 23.3353Z" stroke="#82848E" stroke-width="0.5" stroke-miterlimit="10"/>
<path d="M2.14977 27.8898L3.02578 28.1728L2.48248 28.9202C2.47176 28.9345 2.46454 28.9512 2.46142 28.9688C2.46133 28.9792 2.46377 28.9894 2.46855 28.9986C2.47332 29.0078 2.48027 29.0157 2.4888 29.0216L2.78572 29.2327C2.80341 29.2444 2.82363 29.2516 2.84468 29.2538C2.85531 29.2531 2.86557 29.2496 2.87443 29.2437C2.8833 29.2378 2.89047 29.2296 2.89522 29.2201L3.4343 28.4726L3.9776 29.2201C3.98235 29.2296 3.98951 29.2378 3.99838 29.2437C4.00724 29.2496 4.0175 29.2531 4.02813 29.2538C4.04939 29.2526 4.06985 29.2453 4.0871 29.2327L4.38401 29.0216C4.39218 29.0153 4.39887 29.0074 4.4036 28.9983C4.40834 28.9891 4.41099 28.9791 4.41139 28.9688C4.40827 28.9512 4.40105 28.9345 4.39033 28.9202L3.84704 28.1728L4.72305 27.8898C4.73729 27.8853 4.7497 27.8763 4.75843 27.8641C4.76715 27.8519 4.77173 27.8372 4.77148 27.8223C4.77246 27.8124 4.77246 27.8025 4.77148 27.7927L4.66619 27.4211C4.65355 27.3873 4.6346 27.3683 4.60512 27.3683H4.56932L3.69542 27.6681V26.7581C3.69675 26.7482 3.69584 26.7382 3.69274 26.7288C3.68965 26.7194 3.68446 26.7108 3.67756 26.7036C3.67066 26.6965 3.66224 26.6911 3.65293 26.6877C3.64362 26.6843 3.63367 26.6831 3.62382 26.6842H3.25531C3.24546 26.6831 3.23551 26.6843 3.2262 26.6877C3.21689 26.6911 3.20847 26.6965 3.20157 26.7036C3.19467 26.7108 3.18948 26.7194 3.18639 26.7288C3.18329 26.7382 3.18238 26.7482 3.18371 26.7581V27.6681L2.3077 27.3767H2.27401C2.24242 27.3767 2.22347 27.3957 2.21294 27.4295L2.10765 27.8011V27.8307C2.10857 27.8435 2.11298 27.8558 2.12042 27.8662C2.12785 27.8766 2.138 27.8848 2.14977 27.8898Z" stroke="#82848E" stroke-width="0.5" stroke-miterlimit="10"/>
<path d="M4.31453 32.0875L5.19054 32.3704L4.64514 33.1158C4.63489 33.1311 4.62774 33.1483 4.62408 33.1664C4.6244 33.177 4.62725 33.1873 4.63238 33.1964C4.63751 33.2056 4.64478 33.2135 4.65357 33.2192L4.95048 33.4304C4.96802 33.4423 4.98832 33.4496 5.00945 33.4515C5.02036 33.4508 5.03087 33.4471 5.03979 33.4407C5.04872 33.4344 5.05571 33.4257 5.05998 33.4156L5.59907 32.6681L6.14236 33.4135C6.14664 33.4236 6.15363 33.4323 6.16255 33.4386C6.17148 33.445 6.18199 33.4487 6.1929 33.4494C6.21409 33.4478 6.23447 33.4405 6.25186 33.4283L6.54878 33.2171C6.55695 33.2109 6.56364 33.2029 6.56837 33.1938C6.5731 33.1847 6.57576 33.1746 6.57616 33.1643C6.57353 33.1459 6.56628 33.1285 6.5551 33.1136L6.0118 32.3683L6.88781 32.0854C6.90156 32.08 6.91347 32.0708 6.92207 32.0588C6.93067 32.0468 6.9356 32.0326 6.93625 32.0178C6.93732 32.0073 6.93732 31.9966 6.93625 31.9861L6.83096 31.6166C6.81832 31.5807 6.79937 31.5638 6.76989 31.5638H6.73409L5.86019 31.8615V30.9536C5.86152 30.9438 5.8606 30.9338 5.85751 30.9243C5.85441 30.9149 5.84922 30.9063 5.84232 30.8992C5.83543 30.8921 5.827 30.8866 5.8177 30.8832C5.80839 30.8799 5.79843 30.8787 5.78859 30.8797H5.42007C5.41023 30.8787 5.40028 30.8799 5.39097 30.8832C5.38166 30.8866 5.37324 30.8921 5.36634 30.8992C5.35944 30.9063 5.35425 30.9149 5.35116 30.9243C5.34806 30.9338 5.34715 30.9438 5.34848 30.9536V31.8615L4.47247 31.5638H4.43878C4.40719 31.5638 4.38824 31.5807 4.37771 31.6166L4.27242 31.9861V32.0178C4.27185 32.0323 4.27555 32.0466 4.28303 32.059C4.29052 32.0714 4.30147 32.0813 4.31453 32.0875Z" stroke="#82848E" stroke-width="0.5" stroke-miterlimit="10"/>
<path d="M7.64586 35.4278L8.52187 35.7107L7.97857 36.4688C7.96758 36.4832 7.95969 36.4997 7.95541 36.5173C7.95554 36.5279 7.95831 36.5382 7.96346 36.5475C7.96861 36.5567 7.97598 36.5645 7.98489 36.5701L8.28181 36.7812C8.29981 36.7923 8.31988 36.7995 8.34077 36.8024C8.35156 36.8012 8.36188 36.7973 8.37073 36.791C8.37958 36.7848 8.38667 36.7763 8.39131 36.7665L8.93039 36.019L9.46737 36.7622C9.47201 36.7721 9.4791 36.7805 9.48795 36.7868C9.4968 36.7931 9.50712 36.797 9.51791 36.7981C9.53888 36.7955 9.55901 36.7883 9.57687 36.777L9.87379 36.5659C9.88219 36.5599 9.88904 36.552 9.8938 36.5428C9.89856 36.5336 9.90108 36.5234 9.90116 36.5131C9.90001 36.4976 9.89571 36.4825 9.88853 36.4688L9.34523 35.7213L10.2212 35.4383C10.2355 35.4338 10.2479 35.4248 10.2566 35.4126C10.2653 35.4004 10.2699 35.3858 10.2697 35.3708C10.2707 35.361 10.2707 35.3511 10.2697 35.3412L10.1644 34.9696C10.1518 34.9358 10.1328 34.9189 10.1033 34.9189H10.0675L9.19362 35.2188V34.3087C9.19503 34.299 9.19415 34.289 9.19105 34.2796C9.18795 34.2703 9.18272 34.2618 9.17577 34.2548C9.16882 34.2478 9.16034 34.2426 9.15101 34.2395C9.14167 34.2364 9.13175 34.2355 9.12202 34.2369H8.7514C8.70297 34.2369 8.6798 34.2623 8.6798 34.3087V35.2188L7.80379 34.9189H7.7701C7.75557 34.9187 7.74144 34.9237 7.73025 34.933C7.71906 34.9423 7.71154 34.9552 7.70903 34.9696L7.60374 35.3412V35.3708C7.60503 35.3832 7.60961 35.395 7.61702 35.4051C7.62443 35.4151 7.63439 35.4229 7.64586 35.4278Z" stroke="#82848E" stroke-width="0.5" stroke-miterlimit="10"/>
<path d="M11.6385 37.8624L12.5145 38.1453L11.9712 38.8906C11.9603 38.9056 11.9531 38.923 11.9501 38.9413C11.95 38.9517 11.9525 38.9619 11.9573 38.9711C11.962 38.9803 11.969 38.9882 11.9775 38.9941L12.2744 39.2053C12.2927 39.2173 12.3137 39.2246 12.3355 39.2264C12.3545 39.2264 12.3692 39.2158 12.3839 39.1926L12.9251 38.4451L13.4684 39.1926C13.4724 39.2023 13.4791 39.2106 13.4877 39.2166C13.4963 39.2226 13.5064 39.226 13.5169 39.2264C13.5387 39.2248 13.5598 39.2176 13.5779 39.2053L13.8727 38.9941C13.8812 38.988 13.8882 38.9801 13.8933 38.971C13.8984 38.9619 13.9014 38.9517 13.9022 38.9413C13.8982 38.9233 13.8911 38.9062 13.8812 38.8906L13.3379 38.1453L14.2118 37.8624C14.2262 37.8579 14.2389 37.8489 14.248 37.8368C14.2571 37.8247 14.2621 37.81 14.2623 37.7948C14.2641 37.785 14.2641 37.775 14.2623 37.7652L14.157 37.3936C14.157 37.3577 14.1254 37.3408 14.0981 37.3408H14.0623L13.1862 37.6406V36.7306C13.1862 36.682 13.1631 36.6567 13.1168 36.6567H12.7524C12.7428 36.656 12.7331 36.6574 12.724 36.661C12.715 36.6645 12.7068 36.67 12.7002 36.6771C12.6935 36.6842 12.6885 36.6926 12.6855 36.7019C12.6826 36.7111 12.6817 36.721 12.683 36.7306V37.6406L11.8069 37.3408H11.7712C11.7567 37.3412 11.7428 37.3467 11.732 37.3564C11.7212 37.366 11.7142 37.3792 11.7122 37.3936L11.6048 37.7652V37.7948C11.6038 37.808 11.6064 37.8213 11.6124 37.8332C11.6183 37.8451 11.6273 37.8552 11.6385 37.8624Z" stroke="#82848E" stroke-width="0.5" stroke-miterlimit="10"/>
<path d="M16.0754 39.2686L16.9514 39.5516L16.4165 40.2969C16.4056 40.3119 16.3984 40.3293 16.3955 40.3476C16.3954 40.358 16.3978 40.3682 16.4026 40.3774C16.4074 40.3866 16.4143 40.3945 16.4229 40.4004L16.7198 40.6115C16.738 40.6236 16.759 40.6308 16.7808 40.6326C16.7998 40.6326 16.8145 40.6221 16.8293 40.5989L17.3705 39.8514L17.9138 40.5989C17.9178 40.6085 17.9245 40.6169 17.933 40.6229C17.9416 40.6288 17.9517 40.6322 17.9622 40.6326C17.984 40.6311 18.0051 40.6238 18.0233 40.6115L18.3181 40.4004C18.3265 40.3943 18.3335 40.3864 18.3386 40.3773C18.3437 40.3681 18.3468 40.358 18.3475 40.3476C18.3446 40.3293 18.3374 40.3119 18.3265 40.2969L17.7832 39.5516L18.6571 39.2686C18.6716 39.2642 18.6842 39.2552 18.6933 39.2431C18.7024 39.2309 18.7074 39.2162 18.7076 39.2011C18.7095 39.1913 18.7095 39.1813 18.7076 39.1715L18.6023 38.7999C18.6 38.7857 18.5928 38.7727 18.5821 38.7631C18.5714 38.7535 18.5577 38.7479 18.5434 38.7471H18.5076L17.6316 39.0469V38.1369C17.6316 38.0883 17.6084 38.063 17.5621 38.063H17.1978C17.1881 38.0623 17.1784 38.0637 17.1694 38.0672C17.1603 38.0708 17.1522 38.0763 17.1455 38.0834C17.1388 38.0904 17.1339 38.0989 17.1309 38.1082C17.1279 38.1174 17.127 38.1272 17.1283 38.1369V39.0469L16.2523 38.7471H16.2165C16.202 38.7475 16.1881 38.753 16.1773 38.7626C16.1665 38.7723 16.1595 38.7855 16.1575 38.7999L16.0501 39.1715V39.2011C16.0482 39.2136 16.0496 39.2263 16.054 39.2381C16.0584 39.25 16.0658 39.2605 16.0754 39.2686Z" stroke="#82848E" stroke-width="0.5" stroke-miterlimit="10"/>
<path d="M20.7292 39.636L21.6031 39.9189L21.0598 40.6664C21.05 40.6812 21.0429 40.6977 21.0387 40.715C21.0389 40.7255 21.0416 40.7359 21.0468 40.7451C21.0519 40.7543 21.0593 40.7621 21.0682 40.7677L21.363 40.9789C21.3819 40.9897 21.4026 40.9969 21.4241 41C21.4347 40.9992 21.4449 40.9954 21.4534 40.989C21.462 40.9827 21.4686 40.974 21.4725 40.9641L22.0137 40.2166L22.557 40.9641C22.5718 40.9873 22.5865 41 22.6054 41C22.6272 40.9978 22.6481 40.9906 22.6665 40.9789L22.9634 40.7677C22.9718 40.7617 22.9787 40.7538 22.9834 40.7446C22.9882 40.7355 22.9907 40.7253 22.9908 40.715C22.9877 40.6973 22.9805 40.6807 22.9697 40.6664L22.4265 39.9189L23.3025 39.636C23.3164 39.6309 23.3284 39.6217 23.3371 39.6097C23.3457 39.5976 23.3505 39.5833 23.3509 39.5684C23.3519 39.5586 23.3519 39.5487 23.3509 39.5389L23.2435 39.1672C23.2411 39.1532 23.2338 39.1405 23.2231 39.1313C23.2123 39.122 23.1987 39.1168 23.1845 39.1166H23.1487L22.2664 39.4248V38.5148C22.2664 38.4662 22.2433 38.443 22.1969 38.443H21.8326C21.8231 38.4419 21.8134 38.4431 21.8043 38.4464C21.7953 38.4496 21.7871 38.4549 21.7804 38.4618C21.7737 38.4688 21.7686 38.4771 21.7656 38.4863C21.7626 38.4955 21.7618 38.5052 21.7631 38.5148V39.4248L20.8871 39.125H20.8513C20.8367 39.1249 20.8226 39.1303 20.8117 39.14C20.8008 39.1498 20.7939 39.1632 20.7924 39.1778L20.6871 39.5473V39.5769C20.6882 39.5896 20.6927 39.6018 20.7001 39.6122C20.7075 39.6226 20.7176 39.6308 20.7292 39.636Z" stroke="#82848E" stroke-width="0.5" stroke-miterlimit="10"/>
<path d="M25.3809 38.88L26.2569 39.163L25.7115 39.9083C25.7016 39.9239 25.6945 39.941 25.6905 39.959C25.6908 39.9695 25.6936 39.9798 25.6987 39.989C25.7039 39.9982 25.7111 40.006 25.7199 40.0118L26.0169 40.2229C26.0344 40.2349 26.0547 40.2422 26.0758 40.2441C26.0863 40.2436 26.0964 40.2402 26.105 40.2343C26.1135 40.2283 26.1202 40.22 26.1243 40.2103L26.6654 39.4628L27.2087 40.2103C27.2135 40.2198 27.2207 40.228 27.2295 40.2339C27.2384 40.2398 27.2486 40.2433 27.2593 40.2441C27.2805 40.2425 27.3008 40.2352 27.3182 40.2229L27.6152 40.0118C27.6233 40.0056 27.63 39.9976 27.6347 39.9885C27.6395 39.9793 27.6421 39.9693 27.6425 39.959C27.6396 39.9407 27.6324 39.9233 27.6215 39.9083L27.0782 39.163L27.9542 38.88C27.9681 38.875 27.9801 38.8658 27.9888 38.8537C27.9974 38.8417 28.0022 38.8273 28.0026 38.8125C28.0038 38.8027 28.0038 38.7927 28.0026 38.7829L27.8973 38.4113C27.8847 38.3775 27.8636 38.3585 27.8363 38.3585H27.8005L26.9266 38.6583V37.7567C26.9279 37.7469 26.927 37.7369 26.9239 37.7275C26.9208 37.718 26.9156 37.7094 26.9087 37.7023C26.9018 37.6952 26.8934 37.6897 26.8841 37.6864C26.8748 37.683 26.8648 37.6818 26.855 37.6828H26.4907C26.481 37.6821 26.4713 37.6836 26.4622 37.6871C26.4532 37.6906 26.445 37.6961 26.4384 37.7032C26.4317 37.7103 26.4267 37.7188 26.4237 37.728C26.4208 37.7373 26.4199 37.7471 26.4212 37.7567V38.6668L25.5388 38.3691H25.503C25.4886 38.3694 25.4747 38.3749 25.4639 38.3846C25.4531 38.3943 25.4461 38.4075 25.4441 38.4218L25.3388 38.7935V38.823C25.3403 38.8354 25.3449 38.8471 25.3523 38.8571C25.3597 38.8671 25.3696 38.875 25.3809 38.88Z" stroke="#82848E" stroke-width="0.5" stroke-miterlimit="10"/>
<path d="M29.5756 36.7411L30.4516 37.024L29.9083 37.7715C29.8976 37.7858 29.8904 37.8025 29.8873 37.8201C29.887 37.8305 29.8893 37.8408 29.8941 37.85C29.8989 37.8593 29.906 37.8671 29.9146 37.8729L30.2116 38.084C30.2303 38.0951 30.251 38.1023 30.2726 38.1051C30.2916 38.1051 30.3063 38.0925 30.3211 38.0692L30.8622 37.3218L31.4055 38.0692C31.4095 38.0792 31.4161 38.0878 31.4246 38.0941C31.4332 38.1005 31.4434 38.1043 31.454 38.1051C31.4756 38.1026 31.4965 38.0954 31.515 38.084L31.8099 37.8729C31.8183 37.8667 31.8253 37.8588 31.8304 37.8497C31.8355 37.8406 31.8385 37.8305 31.8393 37.8201C31.8362 37.8025 31.829 37.7858 31.8183 37.7715L31.275 37.024L32.1489 36.7411C32.1643 36.739 32.1786 36.7318 32.1897 36.7208C32.2007 36.7097 32.2078 36.6954 32.21 36.6799C32.2116 36.6701 32.2116 36.6601 32.21 36.6503L32.1047 36.2787C32.1022 36.2647 32.095 36.252 32.0843 36.2427C32.0735 36.2335 32.0599 36.2283 32.0457 36.228H32.0099L31.1339 36.5278V35.6241C31.1339 35.5756 31.1107 35.5502 31.0644 35.5502H30.7001C30.6904 35.5495 30.6807 35.551 30.6717 35.5545C30.6626 35.558 30.6545 35.5635 30.6478 35.5706C30.6412 35.5777 30.6362 35.5862 30.6332 35.5954C30.6302 35.6047 30.6293 35.6145 30.6306 35.6241V36.5342L29.7546 36.2344H29.7188C29.7045 36.2342 29.6907 36.2393 29.6798 36.2486C29.669 36.2579 29.6619 36.2709 29.6598 36.285L29.5524 36.6567V36.6862C29.5523 36.6965 29.5543 36.7067 29.5583 36.7161C29.5622 36.7256 29.5682 36.7341 29.5756 36.7411Z" stroke="#82848E" stroke-width="0.5" stroke-miterlimit="10"/>
<path d="M33.1302 33.7027L34.0041 33.9857L33.4608 34.7331C33.4501 34.7474 33.4429 34.7641 33.4397 34.7817C33.4399 34.7922 33.4426 34.8026 33.4478 34.8118C33.4529 34.8211 33.4603 34.8288 33.4692 34.8345L33.764 35.0456C33.7829 35.0564 33.8036 35.0636 33.8251 35.0667C33.8357 35.0659 33.8459 35.0621 33.8544 35.0557C33.863 35.0494 33.8696 35.0408 33.8735 35.0308L34.4147 34.2834L34.958 35.0308C34.9728 35.0541 34.9875 35.0667 35.0064 35.0667C35.0282 35.0645 35.0491 35.0573 35.0675 35.0456L35.3644 34.8345C35.3728 34.8285 35.3797 34.8206 35.3844 34.8114C35.3892 34.8022 35.3917 34.792 35.3918 34.7817C35.3887 34.7641 35.3815 34.7474 35.3707 34.7331L34.8274 33.9857L35.7035 33.7027C35.7174 33.6976 35.7294 33.6885 35.7381 33.6764C35.7467 33.6644 35.7515 33.65 35.7519 33.6352C35.7529 33.6253 35.7529 33.6154 35.7519 33.6056L35.6445 33.234C35.6421 33.22 35.6348 33.2073 35.6241 33.198C35.6133 33.1888 35.5997 33.1836 35.5855 33.1833H35.5497L34.6737 33.4831V32.5731C34.6737 32.5245 34.6506 32.4992 34.6042 32.4992H34.2399C34.2304 32.4988 34.2208 32.5005 34.2119 32.5042C34.2031 32.5078 34.1951 32.5134 34.1885 32.5203C34.1819 32.5273 34.1769 32.5357 34.1738 32.5448C34.1707 32.5539 34.1695 32.5635 34.1704 32.5731V33.4831L33.2944 33.1833H33.2586C33.2444 33.1831 33.2305 33.1882 33.2197 33.1975C33.2088 33.2068 33.2017 33.2198 33.1997 33.234L33.0944 33.6056V33.6352C33.0934 33.6487 33.0962 33.6622 33.1026 33.6741C33.1089 33.6861 33.1185 33.696 33.1302 33.7027Z" stroke="#82848E" stroke-width="0.5" stroke-miterlimit="10"/>
<path d="M35.8572 29.9232L36.7332 30.2061L36.1899 30.9536C36.1792 30.9679 36.172 30.9845 36.1689 31.0021C36.1688 31.0128 36.1712 31.0234 36.176 31.0329C36.1808 31.0424 36.1877 31.0507 36.1963 31.057L36.4932 31.2682C36.5119 31.2793 36.5327 31.2865 36.5543 31.2893C36.5732 31.2893 36.5879 31.2766 36.6027 31.2534L37.1439 30.5059L37.6851 31.2534C37.689 31.2633 37.6956 31.272 37.7041 31.2783C37.7127 31.2847 37.7229 31.2885 37.7335 31.2893C37.7551 31.2868 37.776 31.2796 37.7946 31.2682L38.0894 31.057C38.0979 31.0505 38.1049 31.0422 38.11 31.0328C38.1151 31.0233 38.1181 31.0129 38.1189 31.0021C38.1147 30.9849 38.1076 30.9684 38.0978 30.9536L37.5545 30.2061L38.4284 29.9232C38.4429 29.9187 38.4556 29.9098 38.4646 29.8976C38.4737 29.8855 38.4787 29.8708 38.4789 29.8556C38.4806 29.8458 38.4806 29.8358 38.4789 29.8261L38.3737 29.4544C38.3712 29.4404 38.364 29.4277 38.3532 29.4185C38.3425 29.4092 38.3289 29.404 38.3147 29.4038H38.2789L37.3966 29.712V28.802C37.3966 28.7534 37.3734 28.7302 37.3271 28.7302H36.9628C36.9532 28.7291 36.9435 28.7303 36.9345 28.7335C36.9254 28.7368 36.9172 28.7421 36.9105 28.749C36.9038 28.756 36.8988 28.7643 36.8958 28.7735C36.8928 28.7827 36.8919 28.7924 36.8933 28.802V29.712L36.0173 29.4122H35.9815C35.9669 29.4121 35.9528 29.4175 35.9419 29.4272C35.931 29.437 35.9241 29.4504 35.9225 29.465L35.8151 29.8345V29.8641C35.8165 29.8767 35.821 29.8888 35.8284 29.8992C35.8358 29.9095 35.8457 29.9178 35.8572 29.9232Z" stroke="#82848E" stroke-width="0.5" stroke-miterlimit="10"/>
<path d="M37.6261 25.5905L38.5021 25.8734L37.9567 26.6209C37.9464 26.6362 37.9393 26.6534 37.9356 26.6715C37.936 26.6821 37.9388 26.6924 37.9439 26.7015C37.9491 26.7107 37.9563 26.7185 37.9651 26.7243L38.262 26.9355C38.2796 26.9474 38.2999 26.9547 38.321 26.9566C38.3318 26.9555 38.3421 26.9516 38.351 26.9453C38.3598 26.939 38.3669 26.9305 38.3715 26.9207L38.9106 26.1753L39.4539 26.9207C39.4586 26.9305 39.4656 26.939 39.4745 26.9453C39.4833 26.9516 39.4937 26.9555 39.5045 26.9566C39.5256 26.955 39.546 26.9477 39.5634 26.9355L39.8603 26.7243C39.8685 26.7181 39.8752 26.7101 39.8799 26.701C39.8847 26.6919 39.8873 26.6818 39.8877 26.6715C39.8851 26.6531 39.8778 26.6357 39.8667 26.6209L39.3234 25.8734L40.1994 25.5905C40.2134 25.5856 40.2257 25.5765 40.2343 25.5644C40.243 25.5523 40.2477 25.5378 40.2478 25.5229C40.2488 25.5131 40.2488 25.5032 40.2478 25.4933L40.1425 25.1238C40.1299 25.0879 40.1088 25.071 40.0814 25.071H40.0456L39.1591 25.3772V24.4693C39.1604 24.4594 39.1595 24.4494 39.1564 24.44C39.1533 24.4306 39.1481 24.422 39.1412 24.4148C39.1343 24.4077 39.1259 24.4023 39.1166 24.3989C39.1073 24.3955 39.0974 24.3943 39.0875 24.3954H38.7379C38.7283 24.3946 38.7186 24.3961 38.7095 24.3996C38.7005 24.4032 38.6923 24.4087 38.6857 24.4157C38.679 24.4228 38.674 24.4313 38.671 24.4405C38.6681 24.4498 38.6672 24.4596 38.6685 24.4693V25.3772L37.7924 25.0774H37.7588C37.7438 25.0767 37.7292 25.0819 37.7178 25.0917C37.7065 25.1015 37.6993 25.1152 37.6977 25.1302L37.5924 25.4997V25.5292C37.5923 25.5415 37.5954 25.5535 37.6013 25.5642C37.6072 25.5749 37.6157 25.584 37.6261 25.5905Z" stroke="#82848E" stroke-width="0.5" stroke-miterlimit="10"/>
<path d="M38.3757 20.9262L39.2518 21.2091L38.7085 21.9566C38.6977 21.9709 38.6905 21.9875 38.6874 22.0051C38.6873 22.0158 38.6898 22.0263 38.6945 22.0359C38.6993 22.0454 38.7062 22.0537 38.7148 22.06L39.0117 22.2712C39.0298 22.2819 39.0499 22.289 39.0707 22.2923C39.0814 22.2912 39.0918 22.2873 39.1006 22.281C39.1095 22.2747 39.1166 22.2662 39.1212 22.2564L39.6603 21.5089L40.2036 22.2564C40.2082 22.2662 40.2153 22.2747 40.2242 22.281C40.233 22.2873 40.2433 22.2912 40.2541 22.2923C40.2752 22.2901 40.2954 22.2828 40.3131 22.2712L40.61 22.06C40.6185 22.0535 40.6255 22.0452 40.6306 22.0357C40.6357 22.0263 40.6387 22.0158 40.6395 22.0051C40.6353 21.9878 40.6282 21.9714 40.6184 21.9566L40.073 21.2091L40.949 20.9262C40.9635 20.9217 40.9762 20.9128 40.9853 20.9006C40.9943 20.8885 40.9993 20.8738 40.9996 20.8586C41.0001 20.8487 41.0001 20.8389 40.9996 20.829L40.8943 20.4574C40.8816 20.4236 40.8627 20.4067 40.8332 20.4067H40.7995L39.9235 20.7066V19.7965C39.9249 19.7868 39.924 19.7768 39.9209 19.7674C39.9178 19.7581 39.9126 19.7496 39.9057 19.7426C39.8987 19.7356 39.8902 19.7304 39.8809 19.7273C39.8716 19.7242 39.8616 19.7233 39.8519 19.7247H39.4897C39.4413 19.7247 39.4181 19.7501 39.4181 19.7965V20.7066L38.5274 20.4215H38.4916C38.46 20.4215 38.441 20.4384 38.4305 20.4743L38.3252 20.8438V20.8734C38.3283 20.8858 38.3346 20.8972 38.3435 20.9065C38.3524 20.9157 38.3635 20.9225 38.3757 20.9262Z" stroke="#82848E" stroke-width="0.5" stroke-miterlimit="10"/>
<path d="M20.5755 2.19736L21.4515 2.47396L20.9082 3.21932C20.8973 3.23432 20.8901 3.25168 20.8871 3.26999C20.887 3.28037 20.8895 3.2906 20.8942 3.29981C20.899 3.30901 20.906 3.3169 20.9145 3.32278L21.2114 3.53393C21.2297 3.54598 21.2507 3.55324 21.2725 3.55504C21.2827 3.55397 21.2926 3.55031 21.301 3.5444C21.3095 3.5385 21.3163 3.53053 21.3209 3.52126L21.86 2.77379L22.4054 3.5297C22.4094 3.53938 22.4161 3.54771 22.4247 3.5537C22.4333 3.55968 22.4434 3.56308 22.4538 3.56349C22.4757 3.56197 22.4968 3.55469 22.5149 3.54237L22.8097 3.33122C22.8182 3.32511 22.8252 3.31722 22.8303 3.3081C22.8354 3.29898 22.8384 3.28886 22.8392 3.27844C22.8352 3.26045 22.828 3.2433 22.8181 3.22776L22.2748 2.47396L23.1551 2.19736C23.1695 2.1929 23.1822 2.18396 23.1913 2.17182C23.2004 2.15968 23.2054 2.14497 23.2056 2.12979C23.2073 2.1193 23.2073 2.10861 23.2056 2.09812L23.1003 1.72861C23.0877 1.69272 23.0687 1.67583 23.0414 1.67583H23.0056L22.1295 1.97566V1.07405C22.1295 1.02549 22.1064 1.00015 22.0601 1.00015H21.681C21.6713 0.999494 21.6615 1.00097 21.6523 1.00448C21.6432 1.008 21.635 1.01346 21.6282 1.02049C21.6213 1.02752 21.6161 1.03595 21.6129 1.0452C21.6097 1.05445 21.6085 1.0643 21.6094 1.07405V1.9841L20.7355 1.68427H20.6997C20.6681 1.68427 20.6492 1.70116 20.6407 1.73706L20.5333 2.10868V2.13824C20.5347 2.1509 20.5393 2.16299 20.5467 2.17335C20.554 2.18371 20.564 2.19198 20.5755 2.19736Z" stroke="#82848E" stroke-width="0.5" stroke-miterlimit="10"/>
<path d="M18.8345 16.1821H17.6145V17.4695H17.2311V14.5543H19.0322V14.8707H17.6145V15.8678H18.8345V16.1821Z" stroke="#82848E" stroke-width="0.5" stroke-miterlimit="10"/>
<path d="M20.7574 16.7087H19.5394L19.2658 17.4695H18.8705L19.9807 14.5543H20.3161L21.4284 17.4695H21.035L20.7574 16.7087ZM19.6552 16.3924H20.6436L20.1484 15.0289L19.6552 16.3924Z" stroke="#82848E" stroke-width="0.5" stroke-miterlimit="10"/>
<path d="M22.2311 17.4695H21.8477V14.5543H22.2311V17.4695Z" stroke="#82848E" stroke-width="0.5" stroke-miterlimit="10"/>
<path d="M24.0003 16.2902H23.3173V17.4695H22.932V14.5543H23.8944C24.2219 14.5543 24.4735 14.6291 24.6492 14.7786C24.8263 14.9281 24.9148 15.1457 24.9148 15.4313C24.9148 15.6128 24.8655 15.771 24.767 15.9058C24.6698 16.0406 24.5341 16.1414 24.3597 16.2082L25.0426 17.4455V17.4695H24.6312L24.0003 16.2902ZM23.3173 15.9759H23.9064C24.0968 15.9759 24.2479 15.9265 24.3597 15.8277C24.4728 15.729 24.5294 15.5968 24.5294 15.4313C24.5294 15.2511 24.4755 15.113 24.3677 15.0168C24.2612 14.9207 24.1067 14.872 23.9044 14.8707H23.3173V15.9759Z" stroke="#82848E" stroke-width="0.5" stroke-miterlimit="10"/>
<path d="M16.3445 22.3259V19.4107H17.1652C17.4181 19.4107 17.6418 19.4668 17.8361 19.5789C18.0305 19.6911 18.1802 19.8506 18.2854 20.0575C18.3919 20.2643 18.4458 20.5019 18.4471 20.7702V20.9564C18.4471 21.2314 18.3939 21.4723 18.2874 21.6792C18.1822 21.8861 18.0311 22.045 17.8341 22.1558C17.6384 22.2665 17.4101 22.3233 17.1492 22.3259H16.3445ZM16.7279 19.7271V22.0116H17.1312C17.4268 22.0116 17.6564 21.9195 17.8201 21.7353C17.9852 21.5511 18.0678 21.2888 18.0678 20.9484V20.7782C18.0678 20.4472 17.9899 20.1903 17.8341 20.0074C17.6797 19.8232 17.4601 19.7298 17.1752 19.7271H16.7279Z" stroke="#82848E" stroke-width="0.5" stroke-miterlimit="10"/>
<path d="M20.5897 21.5651H19.3717L19.0981 22.3259H18.7027L19.813 19.4107H20.1484L21.2606 22.3259H20.8673L20.5897 21.5651ZM19.4875 21.2488H20.4759L19.9807 19.8853L19.4875 21.2488Z" stroke="#82848E" stroke-width="0.5" stroke-miterlimit="10"/>
<path d="M23.4012 19.7271H22.4667V22.3259H22.0853V19.7271H21.1528V19.4107H23.4012V19.7271Z" stroke="#82848E" stroke-width="0.5" stroke-miterlimit="10"/>
<path d="M25.2782 21.5651H24.0602L23.7866 22.3259H23.3912L24.5014 19.4107H24.8369L25.9491 22.3259H25.5558L25.2782 21.5651ZM24.176 21.2488H25.1644L24.6692 19.8853L24.176 21.2488Z" stroke="#82848E" stroke-width="0.5" stroke-miterlimit="10"/>
<path d="M14.0442 25.8829C13.7154 25.7881 13.4758 25.672 13.3253 25.5345C13.1762 25.3957 13.1017 25.2249 13.1017 25.022C13.1017 24.7924 13.1929 24.6028 13.3753 24.4534C13.559 24.3025 13.7973 24.2271 14.0901 24.2271C14.2898 24.2271 14.4675 24.2658 14.6233 24.3432C14.7803 24.4206 14.9015 24.5274 14.9867 24.6636C15.0732 24.7997 15.1165 24.9486 15.1165 25.1101H14.7311C14.7311 24.9339 14.6752 24.7957 14.5634 24.6956C14.4515 24.5942 14.2938 24.5434 14.0901 24.5434C13.9011 24.5434 13.7533 24.5855 13.6468 24.6696C13.5417 24.7523 13.4891 24.8678 13.4891 25.016C13.4891 25.1348 13.539 25.2355 13.6388 25.3183C13.74 25.3997 13.9111 25.4745 14.152 25.5425C14.3943 25.6106 14.5833 25.686 14.7191 25.7688C14.8562 25.8502 14.9574 25.9457 15.0226 26.0551C15.0892 26.1646 15.1225 26.2934 15.1225 26.4415C15.1225 26.6778 15.0306 26.8673 14.8469 27.0102C14.6632 27.1516 14.4176 27.2224 14.1101 27.2224C13.9104 27.2224 13.724 27.1843 13.551 27.1083C13.3779 27.0308 13.2441 26.9254 13.1496 26.7919C13.0564 26.6584 13.0098 26.5069 13.0098 26.3374H13.3952C13.3952 26.5136 13.4598 26.6531 13.5889 26.7559C13.7194 26.8573 13.8931 26.908 14.1101 26.908C14.3124 26.908 14.4675 26.8667 14.5753 26.7839C14.6832 26.7011 14.7371 26.5884 14.7371 26.4455C14.7371 26.3027 14.6872 26.1926 14.5873 26.1152C14.4875 26.0364 14.3064 25.959 14.0442 25.8829Z" stroke="#82848E" stroke-width="0.5" stroke-miterlimit="10"/>
<path d="M17.8521 25.8188C17.8521 26.1045 17.8042 26.3541 17.7083 26.5677C17.6125 26.7799 17.4767 26.9421 17.301 27.0542C17.1253 27.1663 16.9203 27.2224 16.686 27.2224C16.457 27.2224 16.254 27.1663 16.0769 27.0542C15.8999 26.9407 15.7621 26.7799 15.6636 26.5717C15.5664 26.3621 15.5165 26.1198 15.5138 25.8449V25.6346C15.5138 25.3543 15.5624 25.1067 15.6596 24.8918C15.7568 24.6769 15.8939 24.5127 16.0709 24.3993C16.2493 24.2845 16.453 24.2271 16.682 24.2271C16.9149 24.2271 17.1199 24.2838 17.297 24.3973C17.4754 24.5094 17.6125 24.6729 17.7083 24.8878C17.8042 25.1014 17.8521 25.3503 17.8521 25.6346V25.8188ZM17.4707 25.6306C17.4707 25.2849 17.4015 25.02 17.263 24.8358C17.1246 24.6502 16.9309 24.5575 16.682 24.5575C16.4397 24.5575 16.2487 24.6502 16.1089 24.8358C15.9704 25.02 15.8992 25.2763 15.8952 25.6046V25.8188C15.8952 26.1539 15.9651 26.4175 16.1049 26.6097C16.246 26.8006 16.4397 26.896 16.686 26.896C16.9336 26.896 17.1253 26.8059 17.261 26.6257C17.3968 26.4442 17.4667 26.1846 17.4707 25.8469V25.6306Z" stroke="#82848E" stroke-width="0.5" stroke-miterlimit="10"/>
<path d="M20.5658 26.2573C20.5298 26.5657 20.416 26.8039 20.2243 26.9721C20.0339 27.139 19.7803 27.2224 19.4635 27.2224C19.1201 27.2224 18.8445 27.0989 18.6368 26.852C18.4305 26.605 18.3273 26.2747 18.3273 25.8609V25.5806C18.3273 25.3096 18.3753 25.0714 18.4711 24.8658C18.5683 24.6602 18.7054 24.5027 18.8824 24.3933C19.0595 24.2825 19.2645 24.2271 19.4975 24.2271C19.8063 24.2271 20.0539 24.3139 20.2403 24.4874C20.4266 24.6596 20.5351 24.8985 20.5658 25.2042H20.1804C20.1471 24.9719 20.0745 24.8037 19.9627 24.6996C19.8522 24.5955 19.6971 24.5434 19.4975 24.5434C19.2525 24.5434 19.0602 24.6342 18.9204 24.8157C18.7819 24.9973 18.7127 25.2556 18.7127 25.5906V25.8729C18.7127 26.1893 18.7786 26.4409 18.9104 26.6277C19.0422 26.8146 19.2266 26.908 19.4635 26.908C19.6765 26.908 19.8396 26.86 19.9527 26.7639C20.0672 26.6664 20.1431 26.4976 20.1804 26.2573H20.5658Z" stroke="#82848E" stroke-width="0.5" stroke-miterlimit="10"/>
<path d="M21.5023 27.1823H21.1189V24.2671H21.5023V27.1823Z" stroke="#82848E" stroke-width="0.5" stroke-miterlimit="10"/>
<path d="M23.8485 25.8349H22.5885V26.868H24.0522V27.1823H22.2051V24.2671H24.0322V24.5835H22.5885V25.5205H23.8485V25.8349Z" stroke="#82848E" stroke-width="0.5" stroke-miterlimit="10"/>
<path d="M26.5781 24.5835H25.6436V27.1823H25.2622V24.5835H24.3297V24.2671H26.5781V24.5835Z" stroke="#82848E" stroke-width="0.5" stroke-miterlimit="10"/>
<path d="M27.928 25.7307L28.6867 24.2671H29.122L28.1197 26.0951V27.1823H27.7363V26.0951L26.7339 24.2671H27.1732L27.928 25.7307Z" stroke="#82848E" stroke-width="0.5" stroke-miterlimit="10"/>
</svg>
