<svg width="24" height="24" viewBox="0 0 24 24" fill="none" xmlns="http://www.w3.org/2000/svg">
<path d="M23.2497 1.35424V1.35434L23.25 3.5022V3.50239C23.2501 3.66631 23.1858 3.82131 23.075 3.93385L23.075 3.93388L14.5225 12.6213L14.5225 12.6213C14.1332 13.0168 13.9164 13.5508 13.9164 14.1052V22.6448C13.9164 23.0525 13.5468 23.3215 13.1944 23.232L13.1944 23.232L10.5278 22.5548C10.2738 22.4903 10.0832 22.2534 10.0832 21.9676V14.1052C10.0832 13.5509 9.86653 13.0168 9.47711 12.6213L0.924992 3.93381L0.924979 3.9338C0.814274 3.82134 0.75 3.66633 0.75 3.50225V1.35442C0.75 1.00946 1.02222 0.75 1.33331 0.75H22.6664C22.9776 0.75 23.2497 1.00945 23.2497 1.35424Z" stroke="currentColor" stroke-width="1.5" stroke-linecap="round" stroke-linejoin="round" />
</svg>
