<svg width="24" height="24" viewBox="0 0 24 24" fill="none" xmlns="http://www.w3.org/2000/svg">
<path fill-rule="evenodd" clip-rule="evenodd" d="M11.9981 1.5C10.9116 1.5 9.8637 1.66505 8.87803 1.97144C9.86422 2.72488 10.5005 3.91295 10.5005 5.25041C10.5005 7.52828 8.65393 9.37484 6.37606 9.37484C4.77137 9.37484 3.3812 8.45877 2.69933 7.12085C1.9334 8.57814 1.5 10.2375 1.5 11.9981C1.5 17.7961 6.20016 22.4962 11.9981 22.4962C14.4666 22.4962 16.7362 21.6442 18.5287 20.2182C16.8909 19.4875 15.7495 17.8455 15.7495 15.9361C15.7495 13.3477 17.8479 11.2493 20.4364 11.2493C21.1738 11.2493 21.8718 11.4199 22.4927 11.7235C22.3471 6.05249 17.7042 1.5 11.9981 1.5ZM22.4 13.4259C21.8584 13.0015 21.1773 12.7493 20.4364 12.7493C18.6763 12.7493 17.2495 14.1761 17.2495 15.9361C17.2495 17.4679 18.3309 18.7483 19.7718 19.0538C21.1628 17.5221 22.1074 15.5776 22.4 13.4259ZM3.72425 5.53565C4.62957 4.37822 5.77247 3.41559 7.07958 2.72114C8.18752 3.02843 9.0005 4.04528 9.0005 5.25041C9.0005 6.69985 7.82551 7.87484 6.37606 7.87484C5.02165 7.87484 3.90602 6.84823 3.76642 5.53118L3.72425 5.53565ZM0 11.9981C0 5.37174 5.37174 0 11.9981 0C18.6245 0 23.9962 5.37174 23.9962 11.9981C23.9962 18.6245 18.6245 23.9962 11.9981 23.9962C5.37174 23.9962 0 18.6245 0 11.9981ZM15.3242 7.50336C15.6321 7.78047 15.657 8.25469 15.3799 8.56256L15.3694 8.57425C15.0923 8.88212 14.618 8.90706 14.3102 8.62995C14.0023 8.35284 13.9774 7.87862 14.2545 7.57075L14.265 7.55906C14.5421 7.25119 15.0163 7.22625 15.3242 7.50336ZM9.74924 12.3735C8.0926 12.3735 6.74962 13.7164 6.74962 15.3731C6.74962 17.0298 8.0926 18.3727 9.74924 18.3727C11.4059 18.3727 12.7489 17.0298 12.7489 15.3731C12.7489 13.7164 11.4059 12.3735 9.74924 12.3735ZM8.24962 15.3731C8.24962 14.5449 8.92101 13.8735 9.74924 13.8735C10.5775 13.8735 11.2489 14.5449 11.2489 15.3731C11.2489 16.2014 10.5775 16.8727 9.74924 16.8727C8.92101 16.8727 8.24962 16.2013 8.24962 15.3731Z" fill="currentColor"/>
</svg>
