<svg width="129" height="32" viewBox="0 0 129 32" fill="none" xmlns="http://www.w3.org/2000/svg">
<path d="M30.6077 27.9288H33.7579V20.7681H40.9838V18.2084H33.7579V13.6322H41.748V11.0725H30.6077V27.9288Z" fill="currentColor"/>
<path d="M48.1185 28.1839C50.1649 28.1839 51.3876 27.2539 51.948 26.1921H52.0499V27.9288H55.0048V19.4677C55.0048 16.1261 52.1942 15.1219 49.7063 15.1219C46.9637 15.1219 44.8579 16.3071 44.1786 18.6117L47.0486 19.0068C47.3543 18.1426 48.2204 17.4018 49.7233 17.4018C51.1498 17.4018 51.931 18.1097 51.931 19.3525V19.4019C51.931 20.2578 51.0055 20.299 48.7044 20.5377C46.174 20.8011 43.7541 21.5336 43.7541 24.3814C43.7541 26.867 45.6306 28.1839 48.1185 28.1839ZM48.9167 25.9946C47.6345 25.9946 46.7175 25.4267 46.7175 24.332C46.7175 23.188 47.7449 22.7106 49.1204 22.5213C49.9271 22.4143 51.5404 22.2167 51.9395 21.904V23.3937C51.9395 24.8012 50.7677 25.9946 48.9167 25.9946Z" fill="currentColor"/>
<path d="M58.0956 27.9288H61.1694V15.2865H58.0956V27.9288ZM59.6409 13.4923C60.6174 13.4923 61.4156 12.768 61.4156 11.8791C61.4156 10.9819 60.6174 10.2576 59.6409 10.2576C58.656 10.2576 57.8578 10.9819 57.8578 11.8791C57.8578 12.768 58.656 13.4923 59.6409 13.4923Z" fill="currentColor"/>
<path d="M64.3302 27.9288H67.404V20.4965C67.404 18.8916 68.6522 17.7557 70.3419 17.7557C70.8598 17.7557 71.5052 17.8463 71.7684 17.9286V15.1878C71.4882 15.1384 71.0042 15.1055 70.6646 15.1055C69.1701 15.1055 67.9219 15.9285 67.4464 17.3936H67.3106V15.2865H64.3302V27.9288Z" fill="currentColor"/>
<path d="M78.1134 28.151C80.355 28.151 81.3655 26.8588 81.8495 25.937H82.0363V27.9288H85.0591V11.0725H81.9769V17.3771H81.8495C81.3825 16.4635 80.423 15.1219 78.1219 15.1219C75.1075 15.1219 72.7385 17.4101 72.7385 21.6241C72.7385 25.7888 75.0396 28.151 78.1134 28.151ZM78.971 25.7065C76.9416 25.7065 75.8717 23.9781 75.8717 21.6077C75.8717 19.2537 76.9246 17.5664 78.971 17.5664C80.9494 17.5664 82.0363 19.1549 82.0363 21.6077C82.0363 24.0604 80.9324 25.7065 78.971 25.7065Z" fill="currentColor"/>
<path d="M88.3346 27.9288H91.4084V20.4965C91.4084 18.8916 92.6566 17.7557 94.3463 17.7557C94.8643 17.7557 95.5096 17.8463 95.7728 17.9286V15.1878C95.4926 15.1384 95.0086 15.1055 94.669 15.1055C93.1745 15.1055 91.9263 15.9285 91.4508 17.3936H91.315V15.2865H88.3346V27.9288Z" fill="currentColor"/>
<path d="M97.8149 27.9288H100.889V15.2865H97.8149V27.9288ZM99.3603 13.4923C100.337 13.4923 101.135 12.768 101.135 11.8791C101.135 10.9819 100.337 10.2576 99.3603 10.2576C98.3753 10.2576 97.5772 10.9819 97.5772 11.8791C97.5772 12.768 98.3753 13.4923 99.3603 13.4923Z" fill="currentColor"/>
<path d="M115.699 15.2865H112.43L109.424 24.6777H109.289L106.291 15.2865H103.014L107.658 27.9288H111.055L115.699 15.2865Z" fill="currentColor"/>
<path d="M123.157 28.1757C126.197 28.1757 128.285 26.7354 128.829 24.5378L125.959 24.225C125.543 25.295 124.524 25.8547 123.199 25.8547C121.212 25.8547 119.896 24.5872 119.871 22.4225H128.956V21.5089C128.956 17.0726 126.205 15.1219 122.995 15.1219C119.259 15.1219 116.822 17.7804 116.822 21.6817C116.822 25.6489 119.225 28.1757 123.157 28.1757ZM119.879 20.4142C119.973 18.801 121.204 17.443 123.038 17.443C124.804 17.443 125.993 18.694 126.01 20.4142H119.879Z" fill="currentColor"/>
<path fill-rule="evenodd" clip-rule="evenodd" d="M14.3104 1.89538C13.8791 1.53984 13.216 1.83701 13.216 2.38586V6.05418L21.5825 9.87403C22.2805 10.1927 22.726 10.8734 22.726 11.6214V24.2724C22.726 25.7324 21.1193 26.6645 19.7918 25.9746L19.4654 25.8049V26.8018C19.4654 28.0958 18.1784 29.0238 16.8998 28.6516L6.65008 25.6683C5.80748 25.4231 5.23053 24.6713 5.23053 23.8185V11.9374H1.99258C1.62576 11.9374 1.32839 12.2257 1.32839 12.5813V29.6178C1.32839 29.9733 1.62576 30.2616 1.99258 30.2616H23.2468C23.6136 30.2616 23.911 29.9733 23.911 29.6178V10.106C23.911 9.9172 23.8255 9.73789 23.6771 9.61556L14.3104 1.89538ZM5.23053 10.6498H1.99258C0.89211 10.6498 0 11.5145 0 12.5813V29.6178C0 30.6845 0.892111 31.5492 1.99258 31.5492H23.2468C24.3473 31.5492 25.2394 30.6845 25.2394 29.6178V10.106C25.2394 9.53953 24.9828 9.00159 24.5376 8.63461L15.1709 0.91443C13.8768 -0.152181 11.8876 0.7393 11.8876 2.38586V5.44768L8.07218 3.70572C6.75055 3.10231 5.23053 4.03697 5.23053 5.45305V10.6498ZM6.55892 11.9374V23.8185C6.55892 24.1027 6.75124 24.3534 7.0321 24.4351L17.2818 27.4184C17.708 27.5424 18.137 27.2331 18.137 26.8018V25.1145L12.9386 22.4126C12.2914 22.0763 11.8876 21.4222 11.8876 20.7104V11.9374H6.55892ZM11.8876 10.6498H6.55892V5.45305C6.55892 4.98102 7.0656 4.66947 7.50614 4.8706L11.8876 6.87101V10.6498ZM13.216 11.9374V20.7104C13.216 20.9477 13.3506 21.1657 13.5663 21.2778L18.137 23.6535V12.5813C18.137 12.2257 17.8397 11.9374 17.4728 11.9374H13.216ZM19.4654 24.3439V12.5813C19.4654 11.5145 18.5733 10.6498 17.4728 10.6498H13.216V7.4775L21.0165 11.0389C21.2491 11.1452 21.3976 11.3721 21.3976 11.6214V24.2724C21.3976 24.7591 20.862 25.0698 20.4196 24.8398L19.4654 24.3439Z" fill="currentColor"/>
</svg>