<svg viewBox="0 0 400 200" fill="none" xmlns="http://www.w3.org/2000/svg">
<path d="M37.5 81.272H64.6468V88.2534H45.4986V97.1186H64.2832V104.1H45.4986V120.057H37.5V81.272Z" fill="#EEF0FF"/>
<path d="M93.4481 116.068C92.6401 117.804 91.509 119.042 90.0547 119.78C88.6004 120.482 86.9038 120.833 84.9647 120.833C83.1469 120.833 81.43 120.519 79.8141 119.891C78.2386 119.263 76.8449 118.34 75.633 117.121C74.4211 115.902 73.4516 114.424 72.7244 112.688C72.0377 110.952 71.6943 108.976 71.6943 106.76V105.873C71.6943 103.694 72.0377 101.736 72.7244 99.9998C73.4112 98.2637 74.3403 96.7862 75.5118 95.5672C76.6833 94.3482 78.0366 93.4248 79.5717 92.7968C81.1472 92.1319 82.8237 91.7995 84.6011 91.7995C86.7422 91.7995 88.4591 92.1319 89.7518 92.7968C91.0849 93.4617 92.1352 94.496 92.9027 95.8997H93.9934V92.5752H101.628V111.746C101.628 112.854 102.174 113.409 103.265 113.409H104.416V120.057H99.2047C97.8312 120.057 96.7 119.688 95.8113 118.949C94.963 118.211 94.5388 117.25 94.5388 116.068H93.4481ZM86.6614 114.184C88.8832 114.184 90.6607 113.519 91.9938 112.19C93.3269 110.823 93.9934 108.976 93.9934 106.649V105.984C93.9934 103.657 93.3269 101.828 91.9938 100.499C90.6607 99.1318 88.8832 98.4484 86.6614 98.4484C84.4396 98.4484 82.6621 99.1318 81.329 100.499C79.9959 101.828 79.3293 103.657 79.3293 105.984V106.649C79.3293 108.976 79.9959 110.823 81.329 112.19C82.6621 113.519 84.4396 114.184 86.6614 114.184Z" fill="#EEF0FF"/>
<path d="M111.645 113.409H121.825V99.2241H112.372V92.5752H129.46V113.409H138.186V120.057H111.645V113.409ZM131.339 84.4302C131.339 85.169 131.177 85.8708 130.854 86.5357C130.571 87.1637 130.167 87.7178 129.642 88.198C129.117 88.6412 128.491 89.0106 127.764 89.3061C127.077 89.5647 126.35 89.694 125.582 89.694C124.774 89.694 124.027 89.5647 123.34 89.3061C122.653 89.0106 122.047 88.6412 121.522 88.198C120.997 87.7178 120.573 87.1637 120.25 86.5357C119.967 85.8708 119.826 85.169 119.826 84.4302C119.826 83.6915 119.967 83.0081 120.25 82.3802C120.573 81.7153 120.997 81.1612 121.522 80.7179C122.047 80.2377 122.653 79.8683 123.34 79.6098C124.027 79.3143 124.774 79.1665 125.582 79.1665C126.35 79.1665 127.077 79.3143 127.764 79.6098C128.491 79.8683 129.117 80.2377 129.642 80.7179C130.167 81.1612 130.571 81.7153 130.854 82.3802C131.177 83.0081 131.339 83.6915 131.339 84.4302Z" fill="#EEF0FF"/>
<path d="M146.748 92.5752H159.473V96.5646H160.564C161.13 95.0501 162.079 93.8865 163.412 93.0739C164.786 92.2243 166.422 91.7995 168.32 91.7995C171.31 91.7995 173.713 92.6675 175.531 94.4036C177.349 96.1028 178.258 98.707 178.258 102.216V103.435L170.381 104.1V103.324C170.381 101.81 169.956 100.609 169.108 99.7228C168.26 98.7993 166.987 98.3376 165.291 98.3376C163.594 98.3376 162.261 98.8732 161.291 99.9444C160.322 101.016 159.837 102.549 159.837 104.543V113.409H166.745V120.057H146.021V113.409H152.202V99.2241H146.748V92.5752Z" fill="#EEF0FF"/>
<path d="M206.878 116.068H205.787C205.464 116.696 205.06 117.306 204.575 117.897C204.131 118.451 203.525 118.949 202.757 119.393C202.03 119.836 201.141 120.187 200.091 120.445C199.081 120.704 197.849 120.833 196.395 120.833C194.536 120.833 192.799 120.538 191.183 119.947C189.608 119.319 188.214 118.414 187.002 117.232C185.831 116.013 184.902 114.535 184.215 112.799C183.569 111.063 183.245 109.068 183.245 106.815V105.818C183.245 103.601 183.589 101.625 184.275 99.889C185.003 98.1529 185.972 96.6938 187.184 95.5118C188.436 94.2928 189.87 93.3694 191.486 92.7414C193.143 92.1135 194.88 91.7995 196.698 91.7995C199.121 91.7995 201.04 92.2243 202.454 93.0739C203.868 93.8865 204.979 95.0501 205.787 96.5646H206.878V81.272H214.513V120.057H206.878V116.068ZM198.879 114.184C201.262 114.184 203.181 113.501 204.636 112.134C206.13 110.73 206.878 108.902 206.878 106.649V105.984C206.878 103.731 206.13 101.921 204.636 100.554C203.181 99.1502 201.262 98.4484 198.879 98.4484C196.496 98.4484 194.557 99.1318 193.062 100.499C191.608 101.828 190.88 103.657 190.88 105.984V106.649C190.88 108.976 191.608 110.823 193.062 112.19C194.557 113.519 196.496 114.184 198.879 114.184Z" fill="#EEF0FF"/>
<path d="M220.954 92.5752H233.679V96.5646H234.77C235.336 95.0501 236.285 93.8865 237.618 93.0739C238.991 92.2243 240.628 91.7995 242.526 91.7995C245.516 91.7995 247.919 92.6675 249.737 94.4036C251.555 96.1028 252.464 98.707 252.464 102.216V103.435L244.586 104.1V103.324C244.586 101.81 244.162 100.609 243.314 99.7228C242.466 98.7993 241.193 98.3376 239.496 98.3376C237.8 98.3376 236.467 98.8732 235.497 99.9444C234.528 101.016 234.043 102.549 234.043 104.543V113.409H240.951V120.057H220.227V113.409H226.408V99.2241H220.954V92.5752Z" fill="#EEF0FF"/>
<path d="M260.057 113.409H270.237V99.2241H260.784V92.5752H277.872V113.409H286.598V120.057H260.057V113.409ZM279.75 84.4302C279.75 85.169 279.589 85.8708 279.266 86.5357C278.983 87.1637 278.579 87.7178 278.054 88.198C277.528 88.6412 276.902 89.0106 276.175 89.3061C275.488 89.5647 274.761 89.694 273.994 89.694C273.186 89.694 272.438 89.5647 271.752 89.3061C271.065 89.0106 270.459 88.6412 269.934 88.198C269.409 87.7178 268.984 87.1637 268.661 86.5357C268.379 85.8708 268.237 85.169 268.237 84.4302C268.237 83.6915 268.379 83.0081 268.661 82.3802C268.984 81.7153 269.409 81.1612 269.934 80.7179C270.459 80.2377 271.065 79.8683 271.752 79.6098C272.438 79.3143 273.186 79.1665 273.994 79.1665C274.761 79.1665 275.488 79.3143 276.175 79.6098C276.902 79.8683 277.528 80.2377 278.054 80.7179C278.579 81.1612 278.983 81.7153 279.266 82.3802C279.589 83.0081 279.75 83.6915 279.75 84.4302Z" fill="#EEF0FF"/>
<path d="M294.493 92.5752H302.734L309.824 116.733H310.915L318.004 92.5752H326.245L317.641 120.057H303.098L294.493 92.5752Z" fill="#EEF0FF"/>
<path d="M340.443 108.588C340.484 109.401 340.686 110.158 341.049 110.86C341.453 111.525 341.978 112.116 342.625 112.633C343.311 113.113 344.079 113.501 344.927 113.796C345.816 114.055 346.745 114.184 347.715 114.184C349.613 114.184 351.068 113.889 352.078 113.298C353.087 112.67 353.815 111.931 354.259 111.081L360.803 114.406C360.44 115.108 359.935 115.846 359.288 116.622C358.642 117.361 357.794 118.044 356.743 118.672C355.734 119.3 354.481 119.817 352.987 120.224C351.532 120.63 349.815 120.833 347.836 120.833C345.574 120.833 343.513 120.501 341.655 119.836C339.797 119.171 338.181 118.211 336.808 116.955C335.474 115.699 334.424 114.166 333.657 112.356C332.929 110.546 332.566 108.496 332.566 106.206V105.873C332.566 103.768 332.95 101.847 333.717 100.111C334.525 98.3745 335.616 96.897 336.989 95.678C338.363 94.4591 339.958 93.5171 341.776 92.8522C343.635 92.1504 345.614 91.7995 347.715 91.7995C350.3 91.7995 352.522 92.2243 354.38 93.0739C356.238 93.8865 357.774 94.9393 358.985 96.2321C360.197 97.488 361.086 98.8917 361.652 100.443C362.217 101.958 362.5 103.435 362.5 104.876V108.588H340.443ZM347.654 98.116C345.715 98.116 344.14 98.5777 342.928 99.5012C341.716 100.388 340.928 101.422 340.564 102.604H354.744C354.501 101.311 353.734 100.24 352.441 99.3904C351.189 98.5408 349.593 98.116 347.654 98.116Z" fill="#EEF0FF"/>
</svg>
