<svg width="24" height="24" viewBox="0 0 24 24" fill="none" xmlns="http://www.w3.org/2000/svg">
<path fill-rule="evenodd" clip-rule="evenodd" d="M12 1.5C6.20101 1.5 1.5 6.20101 1.5 12C1.5 14.4999 2.37369 16.7958 3.83238 18.599C5.1714 17.5925 7.78536 16.2001 11.9998 16.2001C16.2144 16.2001 18.8285 17.5926 20.1675 18.5992C21.6263 16.796 22.5 14.5 22.5 12C22.5 6.20101 17.7989 1.5 12 1.5ZM0 12C0 14.8909 1.02229 17.5431 2.7251 19.6147L2.72498 19.6149H2.72524C4.92607 22.2923 8.26361 24 12 24C18.6274 24 24 18.6274 24 12C24 5.37258 18.6274 0 12 0C5.37258 0 0 5.37258 0 12ZM4.98763 19.6149H4.77066C6.6534 21.4029 9.19858 22.5 12 22.5C14.8014 22.5 17.3466 21.4029 19.2293 19.6149H19.012C18.8233 19.4843 18.6089 19.3475 18.3679 19.2098C17.0908 18.4799 15.0273 17.7001 11.9998 17.7001C8.97224 17.7001 6.90881 18.4799 5.6317 19.2098C5.39072 19.3475 5.17635 19.4843 4.98763 19.6149ZM14.1005 8.40006C14.1005 9.55992 13.1604 10.5001 12.0005 10.5001C10.8407 10.5001 9.90051 9.55992 9.90051 8.40006C9.90051 7.24025 10.8407 6.30006 12.0005 6.30006C13.1603 6.30006 14.1005 7.24025 14.1005 8.40006ZM12.0005 12.0001C13.9888 12.0001 15.6005 10.3883 15.6005 8.40006C15.6005 6.41184 13.9888 4.80006 12.0005 4.80006C10.0122 4.80006 8.40051 6.41184 8.40051 8.40006C8.40051 10.3883 10.0122 12.0001 12.0005 12.0001Z" />
</svg>
