<svg width="56" height="64" viewBox="0 0 56 64" fill="none" xmlns="http://www.w3.org/2000/svg">
<path d="M6.43377 0.969727H40.1783L55.1831 15.7796V55.2728C55.1831 60.2094 51.2532 63.0303 48.7524 63.0303H8.38243C3.23794 63.0303 0.165527 59.5042 0.165527 57.0358V8.37468C0.165527 3.297 4.29023 1.2048 6.43377 0.969727Z" fill="#494B50"/>
<path d="M11.627 31.3507C11.627 29.4012 12.1632 27.8987 13.2355 26.8431C14.1681 25.9239 15.3544 25.4643 16.7947 25.4643C18.7219 25.4643 20.131 26.0805 21.0221 27.3128C21.5142 28.0047 21.7785 28.6992 21.8147 29.3962H19.4213C19.2658 28.8608 19.0664 28.4568 18.8229 28.184C18.3877 27.6992 17.7427 27.4568 16.8879 27.4568C16.0176 27.4568 15.3311 27.8002 14.8286 28.4871C14.3261 29.1689 14.0748 30.1361 14.0748 31.3886C14.0748 32.6411 14.339 33.5805 14.8675 34.2068C15.4011 34.828 16.0771 35.1386 16.8957 35.1386C17.735 35.1386 18.3748 34.8709 18.8151 34.3356C19.0586 34.0477 19.2607 33.6159 19.4213 33.0401H21.7914C21.5842 34.2573 21.0532 35.2472 20.1984 36.0098C19.3487 36.7724 18.2582 37.1537 16.9268 37.1537C15.2793 37.1537 13.9842 36.6386 13.0413 35.6083C12.0984 34.5729 11.627 33.1537 11.627 31.3507Z" fill="#CED0DD"/>
<path d="M25.6766 33.3962C25.7491 33.9063 25.8916 34.2876 26.104 34.5401C26.4925 34.9997 27.1583 35.2295 28.1011 35.2295C28.6658 35.2295 29.1243 35.1689 29.4766 35.0477C30.1449 34.8154 30.4791 34.3835 30.4791 33.7522C30.4791 33.3835 30.3133 33.0982 29.9817 32.8962C29.6502 32.6992 29.1295 32.525 28.4198 32.3734L27.2075 32.1083C26.0159 31.8457 25.1922 31.5603 24.7363 31.2522C23.9644 30.7371 23.5784 29.9315 23.5784 28.8356C23.5784 27.8356 23.9514 27.0047 24.6974 26.3431C25.4435 25.6815 26.5392 25.3507 27.9846 25.3507C29.1917 25.3507 30.22 25.6638 31.0697 26.2901C31.9245 26.9113 32.3726 27.8154 32.414 29.0022H30.1138C30.0724 28.3305 29.7719 27.8532 29.2124 27.5704C28.8394 27.3835 28.3757 27.2901 27.8214 27.2901C27.2049 27.2901 26.7127 27.4113 26.3449 27.6537C25.9771 27.8962 25.7932 28.2345 25.7932 28.6689C25.7932 29.0679 25.9745 29.3659 26.3371 29.5628C26.5703 29.6941 27.0676 29.8482 27.8292 30.025L29.803 30.4871C30.6682 30.6891 31.3209 30.9593 31.7613 31.2977C32.4451 31.8229 32.787 32.583 32.787 33.578C32.787 34.5982 32.3855 35.4467 31.5825 36.1234C30.7847 36.7952 29.6553 37.131 28.1944 37.131C26.7024 37.131 25.5289 36.8002 24.6741 36.1386C23.8193 35.4719 23.3919 34.5578 23.3919 33.3962H25.6766Z" fill="#CED0DD"/>
<path d="M36.6101 33.3962C36.6826 33.9063 36.8251 34.2876 37.0375 34.5401C37.426 34.9997 38.0917 35.2295 39.0346 35.2295C39.5993 35.2295 40.0578 35.1689 40.4101 35.0477C41.0784 34.8154 41.4125 34.3835 41.4125 33.7522C41.4125 33.3835 41.2468 33.0982 40.9152 32.8962C40.5836 32.6992 40.063 32.525 39.3532 32.3734L38.1409 32.1083C36.9494 31.8457 36.1257 31.5603 35.6698 31.2522C34.8979 30.7371 34.5119 29.9315 34.5119 28.8356C34.5119 27.8356 34.8849 27.0047 35.6309 26.3431C36.3769 25.6815 37.4726 25.3507 38.918 25.3507C40.1251 25.3507 41.1535 25.6638 42.0031 26.2901C42.8579 26.9113 43.3061 27.8154 43.3475 29.0022H41.0473C41.0059 28.3305 40.7054 27.8532 40.1459 27.5704C39.7729 27.3835 39.3092 27.2901 38.7549 27.2901C38.1384 27.2901 37.6462 27.4113 37.2784 27.6537C36.9105 27.8962 36.7266 28.2345 36.7266 28.6689C36.7266 29.0679 36.908 29.3659 37.2706 29.5628C37.5037 29.6941 38.0011 29.8482 38.7626 30.025L40.7365 30.4871C41.6016 30.6891 42.2544 30.9593 42.6947 31.2977C43.3786 31.8229 43.7205 32.583 43.7205 33.578C43.7205 34.5982 43.319 35.4467 42.516 36.1234C41.7182 36.7952 40.5888 37.131 39.1279 37.131C37.6358 37.131 36.4624 36.8002 35.6076 36.1386C34.7528 35.4719 34.3254 34.5578 34.3254 33.3962H36.6101Z" fill="#CED0DD"/>
</svg>
