<svg width="56" height="64" viewBox="0 0 56 64" fill="none" xmlns="http://www.w3.org/2000/svg">
<path d="M6.43444 0.331177H40.1786L55.1833 15.4855V55.8971C55.1833 60.9485 51.2535 63.835 48.7527 63.835H8.38308C3.23864 63.835 0.16626 60.2269 0.16626 57.7011V7.90834C0.16626 2.71257 4.29092 0.571722 6.43444 0.331177Z" fill="#494B50"/>
<path d="M11.6277 31.4187C11.6277 29.4239 12.1581 27.8864 13.2189 26.8063C14.1414 25.8657 15.315 25.3955 16.7396 25.3955C18.6461 25.3955 20.04 26.0259 20.9215 27.2869C21.4083 27.9949 21.6697 28.7055 21.7055 29.4187H19.3379C19.1842 28.8709 18.9869 28.4575 18.746 28.1784C18.3155 27.6823 17.6775 27.4342 16.8319 27.4342C15.9709 27.4342 15.2919 27.7856 14.7948 28.4885C14.2977 29.1861 14.0491 30.1758 14.0491 31.4575C14.0491 32.7391 14.3105 33.7004 14.8332 34.3412C15.3611 34.9768 16.0299 35.2947 16.8396 35.2947C17.6698 35.2947 18.3027 35.0208 18.7383 34.473C18.9792 34.1784 19.179 33.7365 19.3379 33.1474H21.6825C21.4775 34.3929 20.9522 35.4058 20.1066 36.1861C19.2662 36.9665 18.1874 37.3567 16.8703 37.3567C15.2406 37.3567 13.9595 36.8296 13.0267 35.7753C12.094 34.7159 11.6277 33.2637 11.6277 31.4187Z" fill="#CED0DD"/>
<path d="M25.5258 33.5117C25.5975 34.0337 25.7384 34.4239 25.9486 34.6823C26.3329 35.1526 26.9914 35.3877 27.9242 35.3877C28.4828 35.3877 28.9363 35.3257 29.2848 35.2017C29.9459 34.9639 30.2764 34.5221 30.2764 33.8761C30.2764 33.4988 30.1124 33.2068 29.7844 33.0001C29.4565 32.7986 28.9414 32.6203 28.2393 32.4652L27.0401 32.1939C25.8614 31.9252 25.0466 31.6332 24.5956 31.3179C23.832 30.7908 23.4502 29.9665 23.4502 28.8451C23.4502 27.8218 23.8192 26.9717 24.5572 26.2947C25.2951 25.6177 26.379 25.2792 27.8088 25.2792C29.0029 25.2792 30.0202 25.5996 30.8606 26.2404C31.7062 26.8761 32.1495 27.8011 32.1905 29.0156H29.9151C29.8741 28.3283 29.5769 27.8399 29.0234 27.5505C28.6544 27.3593 28.1958 27.2637 27.6474 27.2637C27.0376 27.2637 26.5507 27.3877 26.1869 27.6358C25.823 27.8838 25.6411 28.2301 25.6411 28.6745C25.6411 29.0828 25.8204 29.3877 26.1792 29.5893C26.4098 29.7236 26.9018 29.8812 27.6551 30.0621L29.6076 30.535C30.4635 30.7417 31.1092 31.0182 31.5448 31.3644C32.2213 31.9019 32.5595 32.6797 32.5595 33.6978C32.5595 34.7417 32.1623 35.6099 31.368 36.3024C30.5788 36.9898 29.4616 37.3334 28.0164 37.3334C26.5405 37.3334 25.3797 36.9949 24.5341 36.3179C23.6885 35.6358 23.2657 34.7004 23.2657 33.5117H25.5258Z" fill="#CED0DD"/>
<path d="M41.2611 25.6125H43.721L39.8543 37.0389H37.6173L33.7891 25.6125H36.3182L38.7781 34.2869L41.2611 25.6125Z" fill="#CED0DD"/>
</svg>
