<svg width="56" height="56" xmlns="http://www.w3.org/2000/svg">

 <g>
  <title>background</title>
  <rect fill="none" id="canvas_background" height="58" width="58" y="-1" x="-1"/>
 </g>
 <g>
  <title>Layer 1</title>
  <path stroke="null" id="svg_1" fill-rule="evenodd" fill="#4b4b55" d="m4.257599,43.334618c0,2.216358 1.79534,4.012029 4.011477,4.012029l40.117088,0c2.216358,0 4.011477,-1.795671 4.011477,-4.012029l0,-27.078574c0,-2.216468 -1.795119,-4.011698 -4.011477,-4.011698l-20.058489,0l0,-1.805054c0,-1.223754 -0.982779,-2.206754 -2.206533,-2.206754l-10.630745,0c-1.223754,0 -2.206533,0.983 -2.206533,2.206754l0,29.886939c0,1.10277 -0.902638,2.005959 -2.005738,2.005959c-1.103432,0 -2.00607,-0.903189 -2.00607,-2.005959l0,-25.574656c0,-1.383816 -1.123412,-2.507228 -2.507228,-2.507228c-1.383816,0 -2.507228,1.123412 -2.507228,2.507228l0,28.583043z" clip-rule="evenodd"/>
 </g>
</svg>