<svg  viewBox="0 0 24 28" fill="none" xmlns="http://www.w3.org/2000/svg">
<path d="M2.99172 0.666504H17.303L23.6666 7.03014V23.9998C23.6666 26.121 22 27.3332 20.9394 27.3332H3.81816C1.63634 27.3332 0.333313 25.818 0.333313 24.7574V3.84832C0.333313 1.6665 2.08263 0.767514 2.99172 0.666504Z" fill="#494B50"/>
<path d="M5.27848 12.1224V15.2539H6.28185C6.79532 15.2539 7.15333 15.0206 7.35589 14.554C7.46659 14.298 7.52194 13.9931 7.52194 13.6393C7.52194 13.151 7.43832 12.7767 7.27109 12.5163C7.10622 12.2537 6.77647 12.1224 6.28185 12.1224H5.27848ZM6.46557 11.2891C6.78825 11.2934 7.05676 11.3281 7.27109 11.3932C7.63617 11.5039 7.93177 11.7068 8.15788 12.002C8.33924 12.2407 8.4629 12.4989 8.52885 12.7767C8.5948 13.0545 8.62777 13.3192 8.62777 13.571C8.62777 14.209 8.48881 14.7493 8.21088 15.1921C7.83402 15.7888 7.25225 16.0872 6.46557 16.0872H4.22211V11.2891H6.46557Z" fill="#CED0DD"/>
<path d="M11.8992 15.3711C12.3302 15.3711 12.6717 15.2246 12.9238 14.9316C13.1781 14.6387 13.3053 14.222 13.3053 13.6816C13.3053 13.1434 13.1781 12.7279 12.9238 12.4349C12.6717 12.1398 12.3302 11.9922 11.8992 11.9922C11.4682 11.9922 11.1243 12.1387 10.8676 12.4316C10.6108 12.7246 10.4825 13.1413 10.4825 13.6816C10.4825 14.222 10.6108 14.6387 10.8676 14.9316C11.1243 15.2246 11.4682 15.3711 11.8992 15.3711ZM14.3935 13.6816C14.3935 14.5432 14.1309 15.2029 13.6056 15.6608C13.2123 16.0341 12.6435 16.2207 11.8992 16.2207C11.1549 16.2207 10.5861 16.0341 10.1928 15.6608C9.66516 15.2029 9.40136 14.5432 9.40136 13.6816C9.40136 12.8027 9.66516 12.143 10.1928 11.7025C10.5861 11.3292 11.1549 11.1426 11.8992 11.1426C12.6435 11.1426 13.2123 11.3292 13.6056 11.7025C14.1309 12.143 14.3935 12.8027 14.3935 13.6816Z" fill="#CED0DD"/>
<path d="M15.1459 13.7272C15.1459 12.8895 15.3897 12.2439 15.8772 11.7904C16.3012 11.3954 16.8406 11.1979 17.4953 11.1979C18.3715 11.1979 19.0122 11.4627 19.4173 11.9922C19.6411 12.2895 19.7612 12.5879 19.7777 12.8874H18.6895C18.6188 12.6573 18.5282 12.4837 18.4175 12.3665C18.2196 12.1582 17.9264 12.054 17.5377 12.054C17.142 12.054 16.83 12.2016 16.6015 12.4967C16.373 12.7897 16.2588 13.2053 16.2588 13.7435C16.2588 14.2817 16.3789 14.6853 16.6192 14.9544C16.8618 15.2214 17.1691 15.3548 17.5413 15.3548C17.9228 15.3548 18.2137 15.2398 18.4139 15.0098C18.5246 14.8861 18.6165 14.7005 18.6895 14.4531H19.7671C19.6729 14.9761 19.4314 15.4015 19.0428 15.7292C18.6565 16.0569 18.1607 16.2207 17.5554 16.2207C16.8064 16.2207 16.2176 15.9993 15.7889 15.5566C15.3602 15.1118 15.1459 14.502 15.1459 13.7272Z" fill="#CED0DD"/>
</svg>
