<svg width="56" height="64" viewBox="0 0 56 64" fill="none" xmlns="http://www.w3.org/2000/svg">
<path d="M6.75939 0.969727H40.5036L55.5082 15.7796V55.2728C55.5082 60.2094 51.5784 63.0303 49.0777 63.0303H8.70804C3.56359 63.0303 0.491211 59.5042 0.491211 57.0358V8.37468C0.491211 3.297 4.61587 1.2048 6.75939 0.969727Z" fill="#494B50"/>
<path d="M12.7109 25.5H20.875V27.5234H15.1016V30.1719H20.1562V32.1719H15.1016V37H12.7109V25.5Z" fill="#CED0DD"/>
<path d="M27.5859 35.2812C28.5391 35.2812 29.2943 34.9297 29.8516 34.2266C30.4141 33.5234 30.6953 32.5234 30.6953 31.2266C30.6953 29.9349 30.4141 28.9375 29.8516 28.2344C29.2943 27.526 28.5391 27.1719 27.5859 27.1719C26.6328 27.1719 25.8724 27.5234 25.3047 28.2266C24.737 28.9297 24.4531 29.9297 24.4531 31.2266C24.4531 32.5234 24.737 33.5234 25.3047 34.2266C25.8724 34.9297 26.6328 35.2812 27.5859 35.2812ZM33.1016 31.2266C33.1016 33.2943 32.5208 34.8776 31.3594 35.9766C30.4896 36.8724 29.2318 37.3203 27.5859 37.3203C25.9401 37.3203 24.6823 36.8724 23.8125 35.9766C22.6458 34.8776 22.0625 33.2943 22.0625 31.2266C22.0625 29.1172 22.6458 27.5339 23.8125 26.4766C24.6823 25.5807 25.9401 25.1328 27.5859 25.1328C29.2318 25.1328 30.4896 25.5807 31.3594 26.4766C32.5208 27.5339 33.1016 29.1172 33.1016 31.2266Z" fill="#CED0DD"/>
<path d="M34.9453 25.4844H37.3516V34.9297H43.0547V37H34.9453V25.4844Z" fill="#CED0DD"/>
</svg>
