<svg width="56" height="64" viewBox="0 0 56 64" fill="none" xmlns="http://www.w3.org/2000/svg">
<path d="M6.31848 0.331177H40.0627L55.0673 15.4855V55.8971C55.0673 60.9485 51.1375 63.835 48.6367 63.835H8.26712C3.12267 63.835 0.050293 60.2269 0.050293 57.7011V7.90834C0.050293 2.71257 4.17496 0.571722 6.31848 0.331177Z" fill="#494B50"/>
<path d="M22.4944 29.1396C22.3035 28.3593 21.8371 27.8141 21.0952 27.504C20.6806 27.3334 20.2197 27.2482 19.7124 27.2482C18.7414 27.2482 17.9422 27.597 17.3149 28.2947C16.6931 28.9872 16.3821 30.0311 16.3821 31.4265C16.3821 32.8321 16.7203 33.827 17.3968 34.411C18.0732 34.9949 18.8423 35.2869 19.7042 35.2869C20.5497 35.2869 21.2425 35.0569 21.7825 34.597C22.3225 34.1319 22.6553 33.5247 22.7808 32.7753H19.9906V30.8683H25.0145V37.0001H23.3453L23.0917 35.5737C22.6062 36.1164 22.1698 36.4988 21.7825 36.721C21.117 37.1086 20.2988 37.3024 19.3278 37.3024C17.7295 37.3024 16.4203 36.7779 15.4003 35.7288C14.3365 34.6745 13.8047 33.2327 13.8047 31.4032C13.8047 29.5531 14.342 28.0699 15.4166 26.9536C16.4912 25.8373 17.9122 25.2792 19.6796 25.2792C21.2125 25.2792 22.4426 25.6487 23.3699 26.3877C24.3027 27.1216 24.8373 28.0389 24.9736 29.1396H22.4944Z" fill="#CED0DD"/>
<path d="M30.0709 37.0001H27.5671V25.5737H30.0709V37.0001Z" fill="#CED0DD"/>
<path d="M32.7626 25.5893H41.3132V27.597H35.2664V30.2249H40.5604V32.2094H35.2664V37.0001H32.7626V25.5893Z" fill="#CED0DD"/>
</svg>
