<svg width="56" height="64" viewBox="0 0 56 64" fill="none" xmlns="http://www.w3.org/2000/svg">
<path d="M6.8756 0.969727H40.6198L55.6244 15.7796V55.2728C55.6244 60.2094 51.6946 63.0303 49.1939 63.0303H8.82425C3.6798 63.0303 0.607422 59.5042 0.607422 57.0358V8.37468C0.607422 3.297 4.73208 1.2048 6.8756 0.969727Z" fill="#494B50"/>
<path d="M5.19263 36.5174V25.3507H7.68929V29.6083H12.4043V25.3507H14.9091V36.5174H12.4043V31.5325H7.68929V36.5174H5.19263Z" fill="#CED0DD"/>
<path d="M26.4262 25.3507V27.328H22.8163V36.5174H20.2787V27.328H16.6524V25.3507H26.4262Z" fill="#CED0DD"/>
<path d="M36.2406 25.3507H39.8669V36.5174H37.5176V28.9643C37.5176 28.7472 37.5203 28.4441 37.5257 28.0553C37.5312 27.6613 37.5339 27.3583 37.5339 27.1462L35.2501 36.5174H32.8026L30.5351 27.1462C30.5351 27.3583 30.5378 27.6613 30.5433 28.0553C30.5487 28.4441 30.5515 28.7472 30.5515 28.9643V36.5174H28.2022V25.3507H31.8694L34.0632 34.131L36.2406 25.3507Z" fill="#CED0DD"/>
<path d="M42.5433 25.3507H45.0645V34.5098H51.0401V36.5174H42.5433V25.3507Z" fill="#CED0DD"/>
</svg>
