<svg width="64" height="72" viewBox="0 0 64 72" fill="none" xmlns="http://www.w3.org/2000/svg">
<g filter="url(#filter0_d)">
<path d="M10.8766 0.331177H44.6208L59.6254 15.4855V55.8971C59.6254 60.9485 55.6956 63.835 53.1948 63.835H12.8252C7.68078 63.835 4.6084 60.2269 4.6084 57.7011V7.90834C4.6084 2.71257 8.73306 0.571722 10.8766 0.331177Z" fill="#494B50"/>
<path d="M18.4058 32.6668V32.9303C18.4272 33.8141 18.5262 34.4368 18.7028 34.7986C18.8848 35.1551 19.2701 35.3334 19.8588 35.3334C20.4421 35.3334 20.8275 35.1371 21.0148 34.7443C21.1271 34.5117 21.1833 34.119 21.1833 33.566V25.5737H23.6558V33.5272C23.6558 34.4988 23.4819 35.2688 23.134 35.8373C22.5453 36.7986 21.483 37.2792 19.9471 37.2792C18.4112 37.2792 17.381 36.8916 16.8565 36.1164C16.3321 35.336 16.0698 34.274 16.0698 32.9303V32.6668H18.4058Z" fill="#CED0DD"/>
<path d="M33.1038 29.2094C33.1038 28.6151 32.9406 28.1913 32.6142 27.9381C32.2931 27.6849 31.8408 27.5582 31.2575 27.5582H28.9536V30.9226H31.2575C31.8408 30.9226 32.2931 30.7856 32.6142 30.5117C32.9406 30.2378 33.1038 29.8037 33.1038 29.2094ZM35.5522 29.1939C35.5522 30.5427 35.199 31.4962 34.4926 32.0544C33.7862 32.6125 32.7774 32.8916 31.4662 32.8916H28.9536V37.0001H26.4972V25.5737H31.6509C32.8389 25.5737 33.7862 25.8683 34.4926 26.4575C35.199 27.0466 35.5522 27.9588 35.5522 29.1939Z" fill="#CED0DD"/>
<path d="M45.6906 29.1396C45.5033 28.3593 45.0457 27.8141 44.3179 27.504C43.9112 27.3334 43.459 27.2482 42.9613 27.2482C42.0087 27.2482 41.2247 27.597 40.6092 28.2947C39.9991 28.9872 39.6941 30.0311 39.6941 31.4265C39.6941 32.8321 40.0259 33.827 40.6895 34.411C41.3531 34.9949 42.1077 35.2869 42.9532 35.2869C43.7828 35.2869 44.4624 35.0569 44.9922 34.597C45.522 34.1319 45.8485 33.5247 45.9716 32.7753H43.2342V30.8683H48.1631V37.0001H46.5255L46.2766 35.5737C45.8003 36.1164 45.3722 36.4988 44.9922 36.721C44.3393 37.1086 43.5366 37.3024 42.584 37.3024C41.0159 37.3024 39.7315 36.7779 38.7308 35.7288C37.6872 34.6745 37.1654 33.2327 37.1654 31.4032C37.1654 29.5531 37.6926 28.0699 38.7468 26.9536C39.8011 25.8373 41.1952 25.2792 42.9292 25.2792C44.433 25.2792 45.6398 25.6487 46.5496 26.3877C47.4647 27.1216 47.9892 28.0389 48.123 29.1396H45.6906Z" fill="#CED0DD"/>
</g>
<defs>
<filter id="filter0_d" x="0.608398" y="0.331177" width="63.017" height="71.5039" filterUnits="userSpaceOnUse" color-interpolation-filters="sRGB">
<feFlood flood-opacity="0" result="BackgroundImageFix"/>
<feColorMatrix in="SourceAlpha" type="matrix" values="0 0 0 0 0 0 0 0 0 0 0 0 0 0 0 0 0 0 127 0"/>
<feOffset dy="4"/>
<feGaussianBlur stdDeviation="2"/>
<feColorMatrix type="matrix" values="0 0 0 0 0 0 0 0 0 0 0 0 0 0 0 0 0 0 0.25 0"/>
<feBlend mode="normal" in2="BackgroundImageFix" result="effect1_dropShadow"/>
<feBlend mode="normal" in="SourceGraphic" in2="effect1_dropShadow" result="shape"/>
</filter>
</defs>
</svg>
