<svg  viewBox="0 0 24 28" fill="none" xmlns="http://www.w3.org/2000/svg">
<path d="M2.99194 0.38916H17.3031L23.6667 6.7528V23.7225C23.6667 25.8437 22 27.0558 20.9394 27.0558H3.81837C1.63657 27.0558 0.333557 25.5407 0.333557 24.4801V3.57098C0.333557 1.38916 2.08286 0.49017 2.99194 0.38916Z" fill="#494B50"/>
<path d="M3.2509 13.5046V13.6113C3.25981 13.9692 3.30104 14.2213 3.37458 14.3678C3.45035 14.5122 3.61081 14.5844 3.85595 14.5844C4.09886 14.5844 4.25932 14.5049 4.33732 14.3458C4.38412 14.2517 4.40752 14.0926 4.40752 13.8687V10.6325H5.43711V13.853C5.43711 14.2464 5.36468 14.5582 5.21982 14.7884C4.97468 15.1777 4.53231 15.3723 3.89272 15.3723C3.25313 15.3723 2.82413 15.2153 2.60573 14.9014C2.38734 14.5855 2.27814 14.1554 2.27814 13.6113V13.5046H3.2509Z" fill="#CED0DD"/>
<path d="M7.34238 13.8311C7.37358 14.0424 7.43487 14.2004 7.52624 14.305C7.69338 14.4955 7.97975 14.5907 8.38534 14.5907C8.62825 14.5907 8.82548 14.5656 8.97702 14.5153C9.26451 14.4191 9.40825 14.2402 9.40825 13.9786C9.40825 13.8258 9.33693 13.7076 9.19431 13.6239C9.05168 13.5423 8.82771 13.4701 8.5224 13.4073L8.00092 13.2974C7.48835 13.1886 7.13401 13.0704 6.9379 12.9427C6.60585 12.7293 6.43982 12.3955 6.43982 11.9414C6.43982 11.5271 6.60027 11.1828 6.92119 10.9087C7.2421 10.6346 7.71344 10.4975 8.3352 10.4975C8.85445 10.4975 9.29682 10.6272 9.6623 10.8867C10.03 11.1441 10.2228 11.5187 10.2406 12.0105H9.25113C9.23331 11.7321 9.10405 11.5344 8.86337 11.4172C8.70291 11.3398 8.50346 11.3011 8.265 11.3011C7.9998 11.3011 7.78809 11.3513 7.62986 11.4517C7.47164 11.5522 7.39252 11.6924 7.39252 11.8724C7.39252 12.0377 7.47052 12.1611 7.62652 12.2427C7.72681 12.2972 7.94075 12.361 8.26834 12.4342L9.11742 12.6257C9.48959 12.7094 9.77039 12.8214 9.95981 12.9616C10.254 13.1792 10.4011 13.4941 10.4011 13.9064C10.4011 14.3291 10.2284 14.6807 9.88293 14.9611C9.53973 15.2394 9.05391 15.3786 8.42546 15.3786C7.78363 15.3786 7.27887 15.2415 6.91116 14.9674C6.54345 14.6911 6.35959 14.3124 6.35959 13.8311H7.34238Z" fill="#CED0DD"/>
<path d="M13.4797 14.5687C13.8875 14.5687 14.2106 14.4275 14.4491 14.145C14.6898 13.8624 14.8101 13.4607 14.8101 12.9396C14.8101 12.4206 14.6898 12.0199 14.4491 11.7374C14.2106 11.4528 13.8875 11.3105 13.4797 11.3105C13.0718 11.3105 12.7465 11.4517 12.5036 11.7342C12.2607 12.0167 12.1392 12.4185 12.1392 12.9396C12.1392 13.4607 12.2607 13.8624 12.5036 14.145C12.7465 14.4275 13.0718 14.5687 13.4797 14.5687ZM15.8397 12.9396C15.8397 13.7704 15.5912 14.4065 15.0943 14.8481C14.7221 15.208 14.1839 15.388 13.4797 15.388C12.7755 15.388 12.2373 15.208 11.8651 14.8481C11.3659 14.4065 11.1163 13.7704 11.1163 12.9396C11.1163 12.0921 11.3659 11.4559 11.8651 11.0311C12.2373 10.6712 12.7755 10.4912 13.4797 10.4912C14.1839 10.4912 14.7221 10.6712 15.0943 11.0311C15.5912 11.4559 15.8397 12.0921 15.8397 12.9396Z" fill="#CED0DD"/>
<path d="M16.7488 10.6325H17.8286L19.7908 13.8624V10.6325H20.7502V15.2593H19.7206L17.7082 11.9728V15.2593H16.7488V10.6325Z" fill="#CED0DD"/>
</svg>
