<svg width="56" height="64" viewBox="0 0 56 64" fill="none" xmlns="http://www.w3.org/2000/svg">
<path d="M6.87658 0.331177H40.6208L55.6254 15.4855V55.8971C55.6254 60.9485 51.6956 63.835 49.1948 63.835H8.82522C3.68078 63.835 0.608398 60.2269 0.608398 57.7011V7.90834C0.608398 2.71257 4.73306 0.571722 6.87658 0.331177Z" fill="#494B50"/>
<path d="M19.8324 25.2792H23.3343V36.7055H21.0656V28.9768C21.0656 28.7546 21.0682 28.4445 21.0735 28.0466C21.0788 27.6435 21.0814 27.3334 21.0814 27.1164L18.8759 36.7055H16.5124L14.3227 27.1164C14.3227 27.3334 14.3254 27.6435 14.3306 28.0466C14.3359 28.4445 14.3385 28.7546 14.3385 28.9768V36.7055H12.0698V25.2792H15.6112L17.7297 34.2637L19.8324 25.2792Z" fill="#CED0DD"/>
<path d="M32.48 28.9148C32.48 28.3205 32.3192 27.8967 31.9978 27.6435C31.6816 27.3903 31.2363 27.2637 30.6618 27.2637H28.3931V30.628H30.6618C31.2363 30.628 31.6816 30.4911 31.9978 30.2172C32.3192 29.9433 32.48 29.5091 32.48 28.9148ZM34.891 28.8993C34.891 30.2482 34.5431 31.2017 33.8475 31.7598C33.1519 32.3179 32.1585 32.597 30.8674 32.597H28.3931V36.7055H25.9742V25.2792H31.0492C32.2191 25.2792 33.1519 25.5737 33.8475 26.1629C34.5431 26.752 34.891 27.6642 34.891 28.8993Z" fill="#CED0DD"/>
<path d="M38.4478 33.2559C38.4478 33.7055 38.5216 34.0776 38.6692 34.3722C38.9432 34.9148 39.4412 35.1861 40.1632 35.1861C40.6059 35.1861 40.9906 35.0389 41.3173 34.7443C41.6493 34.4445 41.8153 34.0156 41.8153 33.4575C41.8153 32.7184 41.5097 32.2249 40.8984 31.9768C40.5505 31.8373 40.0025 31.7675 39.2541 31.7675V30.1862C39.9867 30.1758 40.4978 30.106 40.7877 29.9768C41.2883 29.7598 41.5387 29.3205 41.5387 28.659C41.5387 28.2301 41.4095 27.8812 41.1513 27.6125C40.8984 27.3438 40.54 27.2094 40.0763 27.2094C39.544 27.2094 39.1514 27.3748 38.8984 27.7055C38.6507 28.0363 38.5322 28.4781 38.5427 29.0311H36.44C36.4611 28.473 36.5586 27.9433 36.7325 27.442C36.9169 27.0027 37.2068 26.597 37.602 26.2249C37.8971 25.9613 38.2476 25.7598 38.6534 25.6203C39.0592 25.4807 39.5572 25.411 40.1474 25.411C41.2435 25.411 42.1263 25.69 42.7955 26.2482C43.4701 26.8011 43.8074 27.5453 43.8074 28.4807C43.8074 29.1422 43.6071 29.7004 43.2066 30.1551C42.9536 30.4394 42.6901 30.6332 42.4161 30.7365C42.6216 30.7365 42.9167 30.9097 43.3015 31.2559C43.8759 31.7779 44.1631 32.4911 44.1631 33.3955C44.1631 34.3464 43.8258 35.1836 43.1513 35.9071C42.482 36.6254 41.4886 36.9846 40.1711 36.9846C38.548 36.9846 37.4202 36.4652 36.7878 35.4265C36.4558 34.8735 36.2714 34.15 36.2345 33.2559H38.4478Z" fill="#CED0DD"/>
</svg>
