<svg width="56" height="64" viewBox="0 0 56 64" fill="none" xmlns="http://www.w3.org/2000/svg">
<path d="M6.76037 0.331177H40.5046L55.5092 15.4855V55.8971C55.5092 60.9485 51.5794 63.835 49.0786 63.835H8.70901C3.56457 63.835 0.492188 60.2269 0.492188 57.7011V7.90834C0.492188 2.71257 4.61685 0.571722 6.76037 0.331177Z" fill="#494B50"/>
<path d="M19.6895 24.3879H23.1794V35.4062H20.9185V27.9536C20.9185 27.7393 20.9211 27.4403 20.9264 27.0565C20.9316 26.6678 20.9342 26.3688 20.9342 26.1595L18.7363 35.4062H16.3809L14.1988 26.1595C14.1988 26.3688 14.2014 26.6678 14.2066 27.0565C14.2119 27.4403 14.2145 27.7393 14.2145 27.9536V35.4062H11.9536V24.3879H15.4828L17.5941 33.0516L19.6895 24.3879Z" fill="#CED0DD"/>
<path d="M32.2936 27.8938C32.2936 27.3207 32.1334 26.912 31.8131 26.6678C31.498 26.4237 31.0542 26.3016 30.4817 26.3016H28.2208V29.5457H30.4817C31.0542 29.5457 31.498 29.4137 31.8131 29.1496C32.1334 28.8854 32.2936 28.4668 32.2936 27.8938ZM34.6963 27.8788C34.6963 29.1795 34.3497 30.0989 33.6565 30.6371C32.9632 31.1753 31.9732 31.4444 30.6866 31.4444H28.2208V35.4062H25.8102V24.3879H30.8677C32.0336 24.3879 32.9632 24.672 33.6565 25.2401C34.3497 25.8082 34.6963 26.6878 34.6963 27.8788Z" fill="#CED0DD"/>
<path d="M44.0469 33.074H42.7549V35.4062H40.557V33.074H36.0352V31.2127L40.2341 24.6346H42.7549V31.407H44.0469V33.074ZM40.557 31.407V26.7276L37.6974 31.407H40.557Z" fill="#CED0DD"/>
</svg>
