<svg  viewBox="0 0 24 28" fill="none" xmlns="http://www.w3.org/2000/svg">
<path d="M2.99194 0.38916H17.3031L23.6667 6.7528V23.7225C23.6667 25.8437 22 27.0558 20.9394 27.0558H3.81837C1.63657 27.0558 0.333557 25.5407 0.333557 24.4801V3.57098C0.333557 1.38916 2.08286 0.49017 2.99194 0.38916Z" fill="#494B50"/>
<path d="M8.01892 12.3919C8.01892 12.1424 7.94914 11.9644 7.80957 11.8581C7.67229 11.7517 7.47896 11.6986 7.22956 11.6986H6.24458V13.1113H7.22956C7.47896 13.1113 7.67229 13.0538 7.80957 12.9388C7.94914 12.8238 8.01892 12.6415 8.01892 12.3919ZM9.06568 12.3854C9.06568 12.9518 8.91467 13.3522 8.61265 13.5866C8.31064 13.821 7.87935 13.9382 7.3188 13.9382H6.24458V15.6634H5.1944V10.8652H7.39773C7.90567 10.8652 8.31064 10.9889 8.61265 11.2363C8.91467 11.4837 9.06568 11.8668 9.06568 12.3854Z" fill="#CED0DD"/>
<path d="M11.0252 11.6986V14.8301H11.9999C12.4987 14.8301 12.8464 14.5968 13.0432 14.1302C13.1507 13.8741 13.2045 13.5692 13.2045 13.2155C13.2045 12.7272 13.1233 12.3529 12.9608 12.0924C12.8007 11.8299 12.4804 11.6986 11.9999 11.6986H11.0252ZM12.1783 10.8652C12.4918 10.8696 12.7526 10.9043 12.9608 10.9694C13.3155 11.0801 13.6026 11.283 13.8223 11.5781C13.9984 11.8168 14.1186 12.0751 14.1826 12.3529C14.2467 12.6306 14.2787 12.8954 14.2787 13.1471C14.2787 13.7852 14.1437 14.3255 13.8738 14.7682C13.5077 15.365 12.9425 15.6634 12.1783 15.6634H9.99904V10.8652H12.1783Z" fill="#CED0DD"/>
<path d="M15.219 10.8717H18.8054V11.7148H16.2691V12.8184H18.4896V13.6517H16.2691V15.6634H15.219V10.8717Z" fill="#CED0DD"/>
</svg>
