<svg  viewBox="0 0 24 28" fill="none" xmlns="http://www.w3.org/2000/svg">
<path d="M2.99194 0.38916H17.3031L23.6667 6.7528V23.7225C23.6667 25.8437 22 27.0558 20.9394 27.0558H3.81837C1.63657 27.0558 0.333557 25.5407 0.333557 24.4801V3.57098C0.333557 1.38916 2.08286 0.49017 2.99194 0.38916Z" fill="#494B50"/>
<path d="M7.84891 12.0827C7.84891 11.842 7.78333 11.6704 7.65216 11.5679C7.52314 11.4653 7.34145 11.4141 7.10707 11.4141H6.18137V12.7764H7.10707C7.34145 12.7764 7.52314 12.7209 7.65216 12.61C7.78333 12.4991 7.84891 12.3233 7.84891 12.0827ZM8.83266 12.0764C8.83266 12.6226 8.69074 13.0086 8.40691 13.2347C8.12307 13.4607 7.71774 13.5737 7.19093 13.5737H6.18137V15.2373H5.1944V10.6105H7.26511C7.74247 10.6105 8.12307 10.7298 8.40691 10.9683C8.69074 11.2069 8.83266 11.5762 8.83266 12.0764Z" fill="#CED0DD"/>
<path d="M9.69372 10.6105H10.7355L12.6288 13.8405V10.6105H13.5545V15.2373H12.5611L10.6194 11.9508V15.2373H9.69372V10.6105Z" fill="#CED0DD"/>
<path d="M17.8119 12.0544C17.7367 11.7384 17.5528 11.5176 17.2604 11.3921C17.097 11.323 16.9153 11.2885 16.7153 11.2885C16.3326 11.2885 16.0175 11.4298 15.7703 11.7123C15.5251 11.9927 15.4026 12.4154 15.4026 12.9804C15.4026 13.5496 15.5359 13.9524 15.8025 14.1889C16.0692 14.4254 16.3723 14.5436 16.7121 14.5436C17.0454 14.5436 17.3185 14.4505 17.5313 14.2642C17.7442 14.0759 17.8754 13.83 17.9248 13.5266H16.825V12.7544H18.8054V15.2373H18.1474L18.0474 14.6597C17.856 14.8795 17.684 15.0343 17.5313 15.1243C17.269 15.2813 16.9465 15.3597 16.5637 15.3597C15.9337 15.3597 15.4176 15.1473 15.0155 14.7225C14.5962 14.2956 14.3866 13.7118 14.3866 12.971C14.3866 12.2218 14.5984 11.6212 15.022 11.1692C15.4456 10.7172 16.0057 10.4912 16.7024 10.4912C17.3066 10.4912 17.7915 10.6408 18.1571 10.9401C18.5248 11.2372 18.7355 11.6087 18.7892 12.0544H17.8119Z" fill="#CED0DD"/>
</svg>
