<svg width="56" height="64" viewBox="0 0 56 64" fill="none" xmlns="http://www.w3.org/2000/svg">
<path d="M6.87658 0.331177H40.6208L55.6254 15.4855V55.8971C55.6254 60.9485 51.6956 63.835 49.1948 63.835H8.82522C3.68078 63.835 0.608398 60.2269 0.608398 57.7011V7.90834C0.608398 2.71257 4.73306 0.571722 6.87658 0.331177Z" fill="#494B50"/>
<path d="M18.5852 29.2482C18.5852 28.6539 18.4242 28.2301 18.1023 27.9768C17.7856 27.7236 17.3396 27.597 16.7644 27.597H14.4923V30.9613H16.7644C17.3396 30.9613 17.7856 30.8244 18.1023 30.5505C18.4242 30.2766 18.5852 29.8425 18.5852 29.2482ZM20.9997 29.2327C20.9997 30.5815 20.6514 31.535 19.9548 32.0931C19.2581 32.6513 18.2632 32.9303 16.9702 32.9303H14.4923V37.0389H12.0698V25.6125H17.1523C18.3239 25.6125 19.2581 25.9071 19.9548 26.4962C20.6514 27.0854 20.9997 27.9975 20.9997 29.2327Z" fill="#CED0DD"/>
<path d="M24.9181 33.5117C24.992 34.0337 25.1372 34.4239 25.3536 34.6823C25.7494 35.1526 26.4276 35.3877 27.3881 35.3877C27.9634 35.3877 28.4305 35.3257 28.7894 35.2017C29.4702 34.9639 29.8106 34.5221 29.8106 33.8761C29.8106 33.4988 29.6417 33.2068 29.3039 33.0001C28.9662 32.7986 28.4358 32.6203 27.7127 32.4652L26.4777 32.1939C25.2638 31.9252 24.4247 31.6332 23.9602 31.3179C23.1739 30.7908 22.7807 29.9665 22.7807 28.8451C22.7807 27.8218 23.1607 26.9717 23.9207 26.2947C24.6807 25.6177 25.7969 25.2792 27.2694 25.2792C28.4991 25.2792 29.5467 25.5996 30.4123 26.2404C31.2831 26.8761 31.7396 27.8011 31.7818 29.0156H29.4385C29.3963 28.3283 29.0902 27.8399 28.5202 27.5505C28.1402 27.3593 27.6678 27.2637 27.1031 27.2637C26.4751 27.2637 25.9737 27.3877 25.599 27.6358C25.2243 27.8838 25.0369 28.2301 25.0369 28.6745C25.0369 29.0828 25.2216 29.3877 25.5911 29.5893C25.8286 29.7236 26.3352 29.8812 27.111 30.0621L29.1219 30.535C30.0032 30.7417 30.6682 31.0182 31.1168 31.3644C31.8135 31.9019 32.1618 32.6797 32.1618 33.6978C32.1618 34.7417 31.7528 35.6099 30.9348 36.3024C30.122 36.9898 28.9714 37.3334 27.4831 37.3334C25.9631 37.3334 24.7677 36.9949 23.8969 36.3179C23.0261 35.6358 22.5907 34.7004 22.5907 33.5117H24.9181Z" fill="#CED0DD"/>
<path d="M36.6581 27.597V35.0544H38.9065C40.057 35.0544 40.8592 34.4988 41.3131 33.3877C41.5612 32.7779 41.6852 32.0518 41.6852 31.2094C41.6852 30.0466 41.4978 29.1551 41.1231 28.535C40.7537 27.9097 40.0148 27.597 38.9065 27.597H36.6581ZM39.3181 25.6125C40.0412 25.6228 40.6428 25.7055 41.1231 25.8606C41.9412 26.1241 42.6035 26.6073 43.1102 27.3102C43.5166 27.8787 43.7936 28.4936 43.9414 29.1551C44.0892 29.8166 44.1631 30.4471 44.1631 31.0466C44.1631 32.566 43.8517 33.8528 43.2289 34.9071C42.3845 36.3283 41.0809 37.0389 39.3181 37.0389H34.2911V25.6125H39.3181Z" fill="#CED0DD"/>
</svg>
