<svg width="24" height="24" viewBox="0 0 24 24" fill="none" xmlns="http://www.w3.org/2000/svg">
<path d="M6.595 4H15.1816L18.9996 7.81818V18C18.9996 19.2727 17.9997 20 17.3633 20H7.09086C5.7818 20 5 19.0909 5 18.4545V5.90909C5 4.6 6.04956 4.06061 6.595 4Z" fill="#494B50"/>
<path d="M8.49035 12.0613C8.50857 12.1881 8.54436 12.2829 8.59771 12.3457C8.6953 12.4599 8.86251 12.5171 9.09934 12.5171C9.24117 12.5171 9.35633 12.502 9.44482 12.4719C9.61268 12.4141 9.69661 12.3068 9.69661 12.1498C9.69661 12.0582 9.65497 11.9872 9.57169 11.937C9.48841 11.888 9.35763 11.8447 9.17936 11.807L8.87487 11.7411C8.57558 11.6758 8.36869 11.6049 8.25418 11.5283C8.06029 11.4002 7.96335 11.2 7.96335 10.9275C7.96335 10.6789 8.05704 10.4724 8.24442 10.3079C8.4318 10.1434 8.70701 10.0612 9.07006 10.0612C9.37325 10.0612 9.63155 10.139 9.84495 10.2947C10.0597 10.4491 10.1722 10.6739 10.1826 10.9689H9.60487C9.59446 10.8019 9.51899 10.6833 9.37845 10.613C9.28476 10.5665 9.1683 10.5433 9.02907 10.5433C8.87422 10.5433 8.7506 10.5734 8.65821 10.6337C8.56583 10.694 8.51963 10.7781 8.51963 10.8861C8.51963 10.9853 8.56517 11.0593 8.65626 11.1083C8.71482 11.141 8.83974 11.1793 9.03102 11.2232L9.5268 11.3381C9.7441 11.3883 9.90806 11.4555 10.0187 11.5396C10.1904 11.6702 10.2763 11.8591 10.2763 12.1065C10.2763 12.3601 10.1755 12.5711 9.97377 12.7393C9.77338 12.9063 9.48971 12.9898 9.12276 12.9898C8.748 12.9898 8.45327 12.9076 8.23856 12.7431C8.02386 12.5773 7.9165 12.3501 7.9165 12.0613H8.49035Z" fill="#CED0DD"/>
<path d="M12.4858 10.1421H13.1103L12.1286 12.9182H11.5606L10.5885 10.1421H11.2307L11.8553 12.2496L12.4858 10.1421Z" fill="#CED0DD"/>
<path d="M15.4818 11.0085C15.4362 10.8189 15.325 10.6864 15.148 10.6111C15.0491 10.5697 14.9392 10.549 14.8182 10.549C14.5865 10.549 14.3959 10.6337 14.2463 10.8032C14.0979 10.9715 14.0237 11.2251 14.0237 11.5641C14.0237 11.9056 14.1044 12.1473 14.2658 12.2892C14.4271 12.4311 14.6106 12.502 14.8162 12.502C15.0179 12.502 15.1832 12.4461 15.312 12.3344C15.4408 12.2214 15.5202 12.0739 15.5501 11.8918H14.8845V11.4285H16.083V12.9182H15.6848L15.6243 12.5717C15.5085 12.7035 15.4044 12.7964 15.312 12.8504C15.1532 12.9446 14.958 12.9917 14.7264 12.9917C14.3452 12.9917 14.0329 12.8642 13.7895 12.6094C13.5358 12.3532 13.4089 12.0029 13.4089 11.5584C13.4089 11.1089 13.5371 10.7486 13.7934 10.4774C14.0498 10.2062 14.3887 10.0706 14.8103 10.0706C15.176 10.0706 15.4694 10.1603 15.6906 10.3399C15.9132 10.5182 16.0407 10.7411 16.0732 11.0085H15.4818Z" fill="#CED0DD"/>
</svg>
