<svg width="56" height="64" viewBox="0 0 56 64" fill="none" xmlns="http://www.w3.org/2000/svg">
<path d="M6.75945 0.969727H40.504L55.5088 15.7796V55.2728C55.5088 60.2094 51.5789 63.0303 49.0781 63.0303H8.70812C3.56362 63.0303 0.491211 59.5042 0.491211 57.0358V8.37468C0.491211 3.297 4.61591 1.2048 6.75945 0.969727Z" fill="#494B50"/>
<path d="M20.7317 25.3507V27.328H17.4892V36.5174H15.2099V27.328H11.9526V25.3507H20.7317Z" fill="#CED0DD"/>
<path d="M24.4372 36.5174H22.1873V25.3507H24.4372V36.5174Z" fill="#CED0DD"/>
<path d="M26.8559 25.3659H34.5395V27.328H29.1059V29.8962H33.863V31.8356H29.1059V36.5174H26.8559V25.3659Z" fill="#CED0DD"/>
<path d="M36.3627 25.3659H44.0462V27.328H38.6126V29.8962H43.3698V31.8356H38.6126V36.5174H36.3627V25.3659Z" fill="#CED0DD"/>
</svg>
