<svg width="56" height="64" viewBox="0 0 56 64" fill="none" xmlns="http://www.w3.org/2000/svg">
<path d="M6.76037 0.331177H40.5046L55.5092 15.4855V55.8971C55.5092 60.9485 51.5794 63.835 49.0786 63.835H8.70901C3.56457 63.835 0.492188 60.2269 0.492188 57.7011V7.90834C0.492188 2.71257 4.61685 0.571722 6.76037 0.331177Z" fill="#494B50"/>
<path d="M21.7944 25.2792V27.3024H18.1598V36.7055H15.6048V27.3024H11.9536V25.2792H21.7944Z" fill="#CED0DD"/>
<path d="M25.5606 36.7055H22.61L26.5167 30.8838L22.7996 25.2792H25.8326L28.0002 28.9924L30.2256 25.2792H33.1597L29.4426 30.7908L33.3904 36.7055H30.308L28.0002 32.8141L25.5606 36.7055Z" fill="#CED0DD"/>
<path d="M44.0469 25.2792V27.3024H40.4122V36.7055H37.8572V27.3024H34.2061V25.2792H44.0469Z" fill="#CED0DD"/>
</svg>
