<svg width="56" height="64" viewBox="0 0 56 64" fill="none" xmlns="http://www.w3.org/2000/svg">
<path d="M6.4331 0.330444H40.1779L55.1829 15.4848V55.8963C55.1829 60.9478 51.253 63.8343 48.7522 63.8343H8.38178C3.23723 63.8343 0.164795 60.2261 0.164795 57.7004V7.90761C0.164795 2.71184 4.28954 0.570989 6.4331 0.330444Z" fill="#494B50"/>
<path d="M11.9763 24.3872L13.5514 30.6962L13.8906 32.4528L14.2379 30.7336L15.5788 24.3872H18.2039L19.6175 30.6962L19.9809 32.4528L20.3444 30.7635L21.9357 24.3872H24.4639L21.1118 35.4055H18.737L17.2993 28.962L16.8792 26.8316L16.4592 28.962L15.0214 35.4055H12.7113L9.33496 24.3872H11.9763Z" fill="#CED0DD"/>
<path d="M28.6557 31.2419H31.6767L30.1904 26.9063L28.6557 31.2419ZM28.8092 24.3872H31.6201L35.8365 35.4055H33.1387L32.3713 33.1405H27.9853L27.1614 35.4055H24.5605L28.8092 24.3872Z" fill="#CED0DD"/>
<path d="M43.4289 24.3872H46.0137L41.9508 35.4055H39.6003L35.5777 24.3872H38.2352L40.8199 32.7518L43.4289 24.3872Z" fill="#CED0DD"/>
</svg>
