<svg width="56" height="64" viewBox="0 0 56 64" fill="none" xmlns="http://www.w3.org/2000/svg">
<path d="M6.43444 0.331177H40.1786L55.1833 15.4855V55.8971C55.1833 60.9485 51.2535 63.835 48.7527 63.835H8.38308C3.23864 63.835 0.16626 60.2269 0.16626 57.7011V7.90834C0.16626 2.71257 4.29092 0.571722 6.43444 0.331177Z" fill="#494B50"/>
<path d="M14.5284 37.0389H11.6277L15.4683 31.2172L11.814 25.6125H14.7958L16.9267 29.3257L19.1144 25.6125H21.9989L18.3446 31.1241L22.2257 37.0389H19.1954L16.9267 33.1474L14.5284 37.0389Z" fill="#CED0DD"/>
<path d="M24.0242 25.6125H26.5197V34.9846H32.4345V37.0389H24.0242V25.6125Z" fill="#CED0DD"/>
<path d="M36.3072 33.5117C36.3828 34.0337 36.5314 34.4239 36.7528 34.6823C37.1579 35.1526 37.8521 35.3877 38.8352 35.3877C39.4239 35.3877 39.902 35.3257 40.2693 35.2017C40.9661 34.9639 41.3145 34.5221 41.3145 33.8761C41.3145 33.4988 41.1417 33.2068 40.796 33.0001C40.4502 32.7986 39.9074 32.6203 39.1674 32.4652L37.9034 32.1939C36.661 31.9252 35.8021 31.6332 35.3268 31.3179C34.5219 30.7908 34.1195 29.9665 34.1195 28.8451C34.1195 27.8218 34.5084 26.9717 35.2863 26.2947C36.0641 25.6177 37.2066 25.2792 38.7136 25.2792C39.9722 25.2792 41.0444 25.5996 41.9303 26.2404C42.8216 26.8761 43.2888 27.8011 43.332 29.0156H40.9337C40.8905 28.3283 40.5772 27.8399 39.9938 27.5505C39.6049 27.3593 39.1214 27.2637 38.5435 27.2637C37.9007 27.2637 37.3875 27.3877 37.004 27.6358C36.6205 27.8838 36.4287 28.2301 36.4287 28.6745C36.4287 29.0828 36.6178 29.3877 36.9959 29.5893C37.239 29.7236 37.7575 29.8812 38.5516 30.0621L40.6096 30.535C41.5117 30.7417 42.1923 31.0182 42.6514 31.3644C43.3644 31.9019 43.721 32.6797 43.721 33.6978C43.721 34.7417 43.3023 35.6099 42.4651 36.3024C41.6332 36.9898 40.4557 37.3334 38.9324 37.3334C37.3767 37.3334 36.1532 36.9949 35.262 36.3179C34.3707 35.6358 33.9251 34.7004 33.9251 33.5117H36.3072Z" fill="#CED0DD"/>
</svg>
