<svg  viewBox="0 0 24 28" fill="none" xmlns="http://www.w3.org/2000/svg">
<path d="M2.99194 0.38916H17.3031L23.6667 6.7528V23.7225C23.6667 25.8437 22 27.0558 20.9394 27.0558H3.81837C1.63657 27.0558 0.333557 25.5407 0.333557 24.4801V3.57098C0.333557 1.38916 2.08286 0.49017 2.99194 0.38916Z" fill="#494B50"/>
<path d="M7.13898 14.8171L9.49301 11.7148H7.19775V10.8652H10.6809V11.6693L8.29589 14.8171H10.687V15.6634H7.13898V14.8171Z" fill="#CED0DD"/>
<path d="M12.3326 15.6634H11.386V10.8652H12.3326V15.6634Z" fill="#CED0DD"/>
<path d="M15.9176 12.3919C15.9176 12.1424 15.8547 11.9644 15.7289 11.8581C15.6052 11.7517 15.4309 11.6986 15.2062 11.6986H14.3184V13.1113H15.2062C15.4309 13.1113 15.6052 13.0538 15.7289 12.9388C15.8547 12.8238 15.9176 12.6415 15.9176 12.3919ZM16.8611 12.3854C16.8611 12.9518 16.725 13.3522 16.4528 13.5866C16.1806 13.821 15.7918 13.9382 15.2866 13.9382H14.3184V15.6634H13.3718V10.8652H15.3577C15.8156 10.8652 16.1806 10.9889 16.4528 11.2363C16.725 11.4837 16.8611 11.8668 16.8611 12.3854Z" fill="#CED0DD"/>
</svg>
