<svg viewBox="0 0 172 93" xmlns="http://www.w3.org/2000/svg">
  <path
    d="M121.539.329v17.063L93.384 45.547a1.207 1.207 0 00-.1 1.593l.1.113 28.155 28.155v17.064L84.316 55.248l-36.5 36.502a2.467 2.467 0 01-3.332.144l-.156-.144L.722 48.145a2.467 2.467 0 01-.144-3.332l.144-.157L44.328 1.051a2.467 2.467 0 013.331-.144l.157.144 36.5 36.5L121.539.33zm3.696 0L169.6 44.694c.893.893.94 2.311.141 3.26l-.14.153-44.366 44.365V75.408l28.155-28.155c.435-.435.468-1.119.1-1.592l-.1-.114-28.155-28.155V.33zm-79.92 17.19l-.115.102L17.292 45.53a1.234 1.234 0 00-.102 1.628l.102.116L45.2 75.18a1.234 1.234 0 001.628.103l.116-.103L74.85 47.273a1.234 1.234 0 00.103-1.628l-.103-.116L46.944 17.62a1.234 1.234 0 00-1.628-.102z"
    fill="currentColor" />
  <path d="M148.602 47.312l-23.367 23.367v-48.15l23.367 23.367a1.001 1.001 0 010 1.416z" fill="currentColor" />
</svg>