<svg viewBox="0 0 18 20" fill="none" xmlns="http://www.w3.org/2000/svg">
<path d="M7.19004 8.38989C6.62004 8.38989 6.17004 8.88989 6.17004 9.49989C6.17004 10.1099 6.63004 10.6099 7.19004 10.6099C7.76004 10.6099 8.21004 10.1099 8.21004 9.49989C8.22004 8.88989 7.76004 8.38989 7.19004 8.38989ZM10.84 8.38989C10.27 8.38989 9.82004 8.88989 9.82004 9.49989C9.82004 10.1099 10.28 10.6099 10.84 10.6099C11.41 10.6099 11.86 10.1099 11.86 9.49989C11.86 8.88989 11.41 8.38989 10.84 8.38989Z" fill="#82848E"/>
<path d="M15.7 0H2.3C1.17 0 0.25 0.92 0.25 2.06V15.58C0.25 16.72 1.17 17.64 2.3 17.64H13.64L13.11 15.79L14.39 16.98L15.6 18.1L17.75 20V2.06C17.75 0.92 16.83 0 15.7 0ZM11.84 13.06C11.84 13.06 11.48 12.63 11.18 12.25C12.49 11.88 12.99 11.06 12.99 11.06C12.58 11.33 12.19 11.52 11.84 11.65C11.34 11.86 10.86 12 10.39 12.08C9.53355 12.2377 8.65521 12.2343 7.8 12.07C7.29792 11.9718 6.80587 11.8278 6.33 11.64C6.07916 11.5435 5.83525 11.4299 5.6 11.3C5.57 11.28 5.54 11.27 5.51 11.25C5.49 11.24 5.48 11.23 5.47 11.22C5.29 11.12 5.19 11.05 5.19 11.05C5.19 11.05 5.67 11.85 6.94 12.23C6.64 12.61 6.27 13.06 6.27 13.06C4.06 12.99 3.22 11.54 3.22 11.54C3.22 8.32 4.66 5.71 4.66 5.71C6.1 4.63 7.47 4.66 7.47 4.66L7.57 4.78C5.77 5.3 4.94 6.09 4.94 6.09C4.94 6.09 5.16 5.97 5.53 5.8C6.6 5.33 7.45 5.2 7.8 5.17C7.86 5.16 7.91 5.15 7.97 5.15C9.7041 4.91529 11.4677 5.24487 13 6.09C13 6.09 12.21 5.34 10.51 4.82L10.65 4.66C10.65 4.66 12.02 4.63 13.46 5.71C13.46 5.71 14.9 8.32 14.9 11.54C14.9 11.54 14.05 12.99 11.84 13.06Z" fill="#82848E"/>
</svg>
