<svg viewBox="0 0 17 14" fill="none" xmlns="http://www.w3.org/2000/svg">
<path d="M2.57082 3.05756C2.58043 2.96191 2.56732 2.86533 2.53257 2.7757C2.49782 2.68607 2.4424 2.6059 2.37082 2.54173L0.895822 0.764225V0.497559H5.47749L9.01915 8.26423L12.1325 0.497559H16.5V0.763392L15.2375 1.97256C15.1847 2.01371 15.1438 2.06827 15.1192 2.13055C15.0946 2.19283 15.0871 2.26057 15.0975 2.32673V11.2151C15.0869 11.2812 15.0943 11.349 15.1189 11.4113C15.1436 11.4737 15.1845 11.5282 15.2375 11.5692L16.47 12.7784V13.0442H10.2733V12.7784L11.5475 11.5392C11.6742 11.4142 11.6742 11.3767 11.6742 11.1859V4.00089L8.12499 13.0151H7.64582L3.51416 4.00089V10.0417C3.47999 10.2959 3.56416 10.5517 3.74332 10.7359L5.40332 12.7501V13.0159H0.696655V12.7501L2.35666 10.7359C2.44399 10.6449 2.50883 10.5347 2.54602 10.4142C2.5832 10.2937 2.5917 10.1661 2.57082 10.0417V3.05756Z" fill="#82848E"/>
</svg>
