<svg viewBox="0 0 56 56" fill="none" xmlns="http://www.w3.org/2000/svg">
<path d="M28 56C20.5211 56 13.4894 53.0875 8.20099 47.799C2.91254 42.5106 0 35.4789 0 28C0 21.6281 2.08539 15.6248 6.03058 10.6389C6.31171 10.2838 6.82739 10.2236 7.18286 10.5047C7.53833 10.7858 7.59814 11.3015 7.31702 11.657C3.60339 16.3503 1.64062 22.0015 1.64062 28C1.64062 35.041 4.38226 41.6603 9.36096 46.639C14.3397 51.6177 20.959 54.3594 28 54.3594C35.041 54.3594 41.6603 51.6177 46.639 46.639C51.6177 41.6603 54.3594 35.041 54.3594 28C54.3594 20.959 51.6177 14.3397 46.639 9.36096C41.6603 4.38226 35.041 1.64062 28 1.64062C21.0641 1.64062 14.5157 4.31262 9.56049 9.164C9.23706 9.48059 8.71753 9.47546 8.40051 9.15161C8.0835 8.82776 8.08905 8.30865 8.41248 7.99164C13.6761 2.8382 20.6326 0 28 0C35.4789 0 42.5106 2.91254 47.799 8.20099C53.0875 13.4894 56 20.5211 56 28C56 35.4789 53.0875 42.5106 47.799 47.799C42.5106 53.0875 35.4789 56 28 56Z" fill="#82848E"/>
<path d="M26.3394 43.4299C25.2747 43.4299 24.2659 43.0856 23.4221 42.4349L10.6095 32.5514C9.59902 31.7717 8.95217 30.645 8.78896 29.3791C8.62532 28.1132 8.96498 26.8596 9.74428 25.8488C10.524 24.8383 11.6507 24.1919 12.9166 24.0283C14.1825 23.8651 15.4365 24.2043 16.4469 24.984L25.7587 32.1673L38.9273 17.594C39.7827 16.6468 40.9563 16.0896 42.2308 16.0251C43.5057 15.9606 44.7293 16.396 45.6765 17.2517C46.6237 18.1075 47.1809 19.2812 47.2454 20.5561C47.3099 21.8305 46.8741 23.0542 46.0183 24.0014L43.8325 26.4204C43.5288 26.7567 43.0101 26.7827 42.6738 26.479C42.338 26.1752 42.3115 25.6565 42.6153 25.3207L44.8011 22.9016C45.9611 21.6178 45.8688 19.6204 44.5764 18.4694C42.7465 16.839 40.7064 18.0716 40.1445 18.6937L26.4675 33.8302C26.1804 34.148 25.6972 34.1912 25.358 33.9297L15.4446 26.2829C14.7815 25.771 12.4372 25.005 11.0435 26.8507C9.64986 28.6968 10.9478 30.7403 11.6113 31.2522L24.424 41.1356C24.9782 41.5633 25.6404 41.7889 26.3394 41.7889C27.2259 41.7889 28.0753 41.4121 28.6691 40.755L40.3548 27.8222C40.6585 27.486 41.1772 27.4599 41.5134 27.7637C41.8493 28.067 41.8757 28.5861 41.572 28.922L29.8864 41.8551C28.9819 42.8557 27.689 43.4299 26.3394 43.4299Z" fill="#82848E"/>
</svg>
