<svg width="56" height="56" viewBox="0 0 56 56" fill="none" xmlns="http://www.w3.org/2000/svg">
<g clip-path="url(#clip0)">
<path d="M53.9555 35.3952C53.7836 35.3952 53.6316 35.2836 53.5774 35.1174C53.4131 34.6152 53.2143 34.1199 52.9865 33.6453C52.9106 33.487 52.9411 33.2963 53.0631 33.1705C53.86 32.3476 53.86 31.0083 53.0631 30.1854L51.1 28.1581C50.3031 27.3353 49.0064 27.3353 48.2093 28.1581C48.2082 28.1592 48.207 28.1604 48.2061 28.1615C48.0844 28.2845 47.9016 28.3149 47.7495 28.2372C47.2897 28.0019 46.8101 27.7967 46.3239 27.6271C46.163 27.571 46.055 27.414 46.055 27.2366C46.055 26.0726 45.138 25.1258 44.011 25.1258H41.2349C40.1078 25.1258 39.1909 26.0727 39.1909 27.2366C39.1909 27.414 39.0828 27.571 38.9218 27.6271C38.4357 27.7967 37.9561 28.0019 37.4964 28.2372C37.343 28.3158 37.1585 28.284 37.0369 28.1586C37.0346 28.1562 37.0324 28.1539 37.03 28.1516C36.2326 27.3351 34.9404 27.3373 34.1457 28.1581L32.1827 30.1853C31.3858 31.0082 31.3858 32.3474 32.1831 33.1707C32.3047 33.2962 32.3353 33.487 32.2592 33.6453C32.0316 34.1199 31.8328 34.6152 31.6684 35.1174C31.6141 35.2835 31.4621 35.3951 31.2903 35.3951C30.1632 35.3951 29.2463 36.342 29.2463 37.5059V40.3727C29.2463 41.5366 30.1633 42.4835 31.2903 42.4835C31.4622 42.4835 31.6142 42.5951 31.6684 42.7613C31.8327 43.2635 32.0315 43.7588 32.2592 44.2333C32.3352 44.3916 32.3047 44.5824 32.1827 44.7082C31.3858 45.5312 31.3858 46.8704 32.1827 47.6933L34.1458 49.7205C34.9406 50.5412 36.2323 50.5432 37.0297 49.7274C37.0321 49.7249 37.0345 49.7224 37.0369 49.72C37.1585 49.5946 37.343 49.5632 37.4964 49.6413C37.956 49.8766 38.4355 50.0818 38.9219 50.2515C39.0828 50.3076 39.1909 50.4645 39.1909 50.6419C39.1909 51.8059 40.1079 52.7527 41.2349 52.7527H44.011C45.1381 52.7527 46.055 51.8057 46.055 50.6419C46.055 50.4645 46.163 50.3075 46.3239 50.2515C46.8102 50.0818 47.2899 49.8766 47.7495 49.6413C47.9012 49.5635 48.0843 49.594 48.2058 49.7169L48.2093 49.7205C49.0062 50.5433 50.3029 50.5434 51.1001 49.7205L53.0631 47.6933C53.86 46.8704 53.86 45.5312 53.0627 44.7079C52.9411 44.5823 52.9105 44.3916 52.9866 44.2333C53.2142 43.7587 53.413 43.2634 53.5774 42.7612C53.6317 42.5951 53.7837 42.4835 53.9555 42.4835C55.0826 42.4835 55.9995 41.5365 55.9995 40.3727V37.5059C55.9995 36.3421 55.0825 35.3952 53.9555 35.3952ZM54.3563 40.3728C54.3563 40.6011 54.1765 40.7869 53.9554 40.7869C53.0781 40.7869 52.3005 41.3623 52.0205 42.2185C51.8797 42.649 51.7093 43.0734 51.5142 43.4801C51.1248 44.2914 51.2801 45.2671 51.9011 45.9083C52.0575 46.0697 52.0575 46.3324 51.9011 46.4938L49.9382 48.5209C49.7828 48.6814 49.5308 48.6824 49.3742 48.524C49.3731 48.5228 49.3719 48.5217 49.3709 48.5205C48.7503 47.8798 47.8056 47.7193 47.02 48.1213C46.626 48.3229 46.215 48.4987 45.7983 48.6442C44.969 48.9334 44.4119 49.7363 44.4119 50.6423C44.4119 50.8705 44.2321 51.0563 44.011 51.0563H41.2349C41.0138 51.0563 40.834 50.8705 40.834 50.6423C40.834 49.7363 40.2767 48.9333 39.4476 48.6442C39.0309 48.4989 38.6198 48.3229 38.2258 48.1213C37.9373 47.9736 37.6274 47.9019 37.32 47.9019C36.793 47.9019 36.2734 48.1128 35.8815 48.514C35.8791 48.5164 35.8769 48.5186 35.8746 48.521C35.7183 48.6825 35.4639 48.6825 35.3076 48.521L33.3446 46.4938C33.1882 46.3324 33.1882 46.0697 33.3449 45.9079C33.9654 45.2672 34.1207 44.2916 33.7316 43.4803C33.5364 43.0734 33.3659 42.649 33.2252 42.2186C32.9452 41.3623 32.1676 40.7869 31.2903 40.7869C31.0692 40.7869 30.8894 40.6011 30.8894 40.3728V37.506C30.8894 37.2777 31.0692 37.092 31.2903 37.092C32.1676 37.092 32.9452 36.5167 33.2252 35.6604C33.3659 35.23 33.5364 34.8055 33.7316 34.3987C34.1207 33.5874 33.9654 32.6117 33.3446 31.9707C33.1882 31.8092 33.1882 31.5465 33.3446 31.3851L35.3075 29.3581C35.464 29.1967 35.7183 29.1969 35.8746 29.3581C35.8767 29.3602 35.8787 29.3623 35.8809 29.3645C36.5015 30.0002 37.4427 30.1584 38.2259 29.7576C38.6199 29.5559 39.0309 29.3801 39.4475 29.2347C40.2768 28.9456 40.834 28.1426 40.834 27.2366C40.834 27.0083 41.0138 26.8225 41.2349 26.8225H44.011C44.2321 26.8225 44.4119 27.0083 44.4119 27.2366C44.4119 28.1425 44.9691 28.9455 45.7983 29.2347C46.2149 29.38 46.626 29.5559 47.02 29.7576C47.8057 30.1596 48.7503 29.999 49.3708 29.3584C49.372 29.3573 49.3731 29.356 49.3742 29.3549C49.5308 29.1965 49.7829 29.1977 49.9381 29.3579L51.9011 31.3851C52.0575 31.5465 52.0575 31.8092 51.9007 31.971C51.2801 32.6119 51.1248 33.5875 51.5141 34.3987C51.7093 34.8055 51.8797 35.23 52.0205 35.6603C52.3005 36.5167 53.0781 37.092 53.9554 37.092C54.1765 37.092 54.3563 37.2777 54.3563 37.506V40.3728Z" fill="#82848E"/>
<path d="M42.6235 32.5163C39.1938 32.5163 36.4036 35.3977 36.4036 38.9394C36.4036 42.4811 39.1938 45.3625 42.6235 45.3625C46.0533 45.3625 48.8435 42.4811 48.8435 38.9394C48.8435 35.3977 46.0533 32.5163 42.6235 32.5163ZM42.6235 43.6658C40.0998 43.6658 38.0467 41.5456 38.0467 38.9395C38.0467 36.3335 40.0999 34.2132 42.6235 34.2132C45.1471 34.2132 47.2004 36.3335 47.2004 38.9395C47.2004 41.5456 45.1472 43.6658 42.6235 43.6658Z" fill="#82848E"/>
<path d="M31.1518 50.4987L25.3817 53.9388C25.221 54.0346 25.0526 54.1109 24.8796 54.169V28.4897L46.415 15.6502C46.4528 15.8339 46.4731 16.0227 46.4731 16.2142V24.8609C46.4731 25.3294 46.8409 25.7093 47.2946 25.7093C47.7484 25.7093 48.1161 25.3294 48.1161 24.8609V16.2142C48.1161 14.6437 47.2918 13.1649 45.9709 12.3774L26.2032 0.591662C24.8802 -0.197164 23.2362 -0.197277 21.913 0.591662L2.14517 12.3774C0.837484 13.157 0 14.6278 0 16.2142V39.7857C0 41.3635 0.821953 42.8337 2.14517 43.6226L21.913 55.4083C23.2361 56.1971 24.88 56.1973 26.2032 55.4083L31.9733 51.9681C32.3661 51.7339 32.5009 51.215 32.2739 50.8092C32.0472 50.4035 31.5445 50.2643 31.1518 50.4987ZM23.2365 54.1689C23.0636 54.1109 22.8951 54.0346 22.7345 53.9388L2.96669 42.1531C2.15031 41.6663 1.64314 40.7592 1.64314 39.7857V16.2142C1.64314 16.0227 1.66348 15.8339 1.70122 15.6502L23.2365 28.4897V54.1689ZM2.52273 14.1807C2.65792 14.0551 2.80602 13.9425 2.96669 13.8467L22.7345 2.06111C23.5511 1.57442 24.5654 1.57442 25.3817 2.06111L45.1495 13.8469C45.3101 13.9426 45.4583 14.0552 45.5935 14.1808L24.058 27.0204L2.52273 14.1807Z" fill="#82848E"/>
</g>
<defs>
<clipPath id="clip0">
<rect width="56" height="56" fill="white"/>
</clipPath>
</defs>
</svg>
