<svg width="34" height="34" viewBox="0 0 34 34" fill="none" xmlns="http://www.w3.org/2000/svg">
<rect x="17" y="0.0289917" width="4.36364" height="4.36357" rx="0.5" transform="rotate(45 17 0.0289917)" />
<rect x="12.3721" y="4.65717" width="4.36364" height="4.36357" rx="0.5" transform="rotate(45 12.3721 4.65717)" />
<rect x="7.74414" y="9.28528" width="4.36364" height="4.36357" rx="0.5" transform="rotate(45 7.74414 9.28528)" />
<rect x="3.11523" y="13.914" width="4.36364" height="4.36357" rx="0.5" transform="rotate(45 3.11523 13.914)" />
<rect x="21.6299" y="4.65833" width="4.36364" height="4.36357" rx="0.5" transform="rotate(45 21.6299 4.65833)" />
<rect x="17.002" y="9.28717" width="4.36364" height="4.36357" rx="0.5" transform="rotate(45 17.002 9.28717)" />
<rect x="12.374" y="13.9153" width="4.36364" height="4.36357" rx="0.5" transform="rotate(45 12.374 13.9153)" />
<rect x="7.74512" y="18.544" width="4.36364" height="4.36357" rx="0.5" transform="rotate(45 7.74512 18.544)" />
<rect x="26.2568" y="9.28558" width="4.36364" height="4.36357" rx="0.5" transform="rotate(45 26.2568 9.28558)" />
<rect x="21.6279" y="13.9131" width="4.36364" height="4.36357" rx="0.5" transform="rotate(45 21.6279 13.9131)" />
<rect x="17" y="18.5412" width="4.36364" height="4.36357" rx="0.5" transform="rotate(45 17 18.5412)" />
<rect x="12.3711" y="23.1699" width="4.36364" height="4.36357" rx="0.5" transform="rotate(45 12.3711 23.1699)" />
<rect x="30.8857" y="13.9149" width="4.36364" height="4.36357" rx="0.5" transform="rotate(45 30.8857 13.9149)" />
<rect x="26.2578" y="18.5431" width="4.36364" height="4.36357" rx="0.5" transform="rotate(45 26.2578 18.5431)" />
<rect x="21.6299" y="23.1712" width="4.36364" height="4.36357" rx="0.5" transform="rotate(45 21.6299 23.1712)" />
<rect x="17.001" y="27.7999" width="4.36364" height="4.36357" rx="0.5" transform="rotate(45 17.001 27.7999)" />
</svg>
