<svg width="25" height="25" viewBox="0 0 25 25" fill="none" xmlns="http://www.w3.org/2000/svg">
<path fill-rule="evenodd" clip-rule="evenodd" d="M9.74659 12.5C9.74659 13.9728 10.9793 15.1667 12.5 15.1667C14.0207 15.1667 15.2534 13.9728 15.2534 12.5C15.2534 11.0272 14.0207 9.83333 12.5 9.83333C10.9793 9.83333 9.74659 11.0272 9.74659 12.5ZM11.1233 12.5C11.1233 13.2364 11.7397 13.8333 12.5 13.8333C13.2603 13.8333 13.8767 13.2364 13.8767 12.5C13.8767 11.7636 13.2603 11.1667 12.5 11.1667C11.7397 11.1667 11.1233 11.7636 11.1233 12.5Z" fill="#82848E"/>
<path fill-rule="evenodd" clip-rule="evenodd" d="M12.5 6.5C8.65106 6.5 5.41697 9.04955 4.5 12.5C5.41697 15.9505 8.65106 18.5 12.5 18.5C16.3489 18.5 19.583 15.9505 20.5 12.5C19.583 9.04955 16.3489 6.5 12.5 6.5ZM12.5 17.1667C15.5808 17.1667 18.1918 15.2054 19.0688 12.5C18.1918 9.79458 15.5808 7.83333 12.5 7.83333C9.41923 7.83333 6.80823 9.79458 5.93121 12.5C6.80823 15.2054 9.41923 17.1667 12.5 17.1667Z" fill="#82848E"/>
<line x1="1" y1="-1" x2="19.6155" y2="-1" transform="matrix(-0.630593 0.776114 0.776114 0.630593 19.5 4.5)" stroke="#82848E" stroke-width="2" stroke-linecap="round"/>
</svg>
