<svg width="17" height="17" viewBox="0 0 17 17" fill="none" xmlns="http://www.w3.org/2000/svg">
<path fill-rule="evenodd" clip-rule="evenodd" d="M8.00213 0C3.58267 0 0 3.58267 0 8.00213C0 12.4215 3.58267 16.0043 8.00213 16.0043C12.4215 16.0043 16.0043 12.4215 16.0043 8.00213C16.0043 3.58267 12.4215 0 8.00213 0ZM1.5 8.00213C1.5 4.4111 4.4111 1.5 8.00213 1.5C11.5931 1.5 14.5043 4.4111 14.5043 8.00213C14.5043 11.5931 11.5931 14.5043 8.00213 14.5043C4.4111 14.5043 1.5 11.5931 1.5 8.00213ZM8.51103 4.1806C8.8189 4.45771 8.84383 4.93193 8.56672 5.2398L8.55928 5.24806C8.28217 5.55593 7.80795 5.58087 7.50008 5.30376C7.19222 5.02665 7.16728 4.55243 7.44439 4.24457L7.45183 4.2363C7.72894 3.92843 8.20316 3.90349 8.51103 4.1806ZM8.00183 6.88971C8.41605 6.88971 8.75183 7.22549 8.75183 7.63971V11.2658C8.75183 11.68 8.41605 12.0158 8.00183 12.0158C7.58762 12.0158 7.25183 11.68 7.25183 11.2658V7.63971C7.25183 7.22549 7.58762 6.88971 8.00183 6.88971Z" fill="#82848E"/>
</svg>
