<svg width="32" height="32" viewBox="0 0 32 32" fill="none" xmlns="http://www.w3.org/2000/svg">
<path fill-rule="evenodd" clip-rule="evenodd" d="M16 5.5C10.201 5.5 5.5 10.201 5.5 16C5.5 18.4999 6.37369 20.7958 7.83238 22.599C9.1714 21.5925 11.7854 20.2001 15.9998 20.2001C20.2144 20.2001 22.8285 21.5926 24.1675 22.5992C25.6263 20.796 26.5 18.5 26.5 16C26.5 10.201 21.7989 5.5 16 5.5ZM4 16C4 18.8909 5.02229 21.5431 6.7251 23.6147L6.72498 23.6149H6.72524C8.92607 26.2923 12.2636 28 16 28C22.6274 28 28 22.6274 28 16C28 9.37258 22.6274 4 16 4C9.37258 4 4 9.37258 4 16ZM8.98763 23.6149H8.77066C10.6534 25.4029 13.1986 26.5 16 26.5C18.8014 26.5 21.3466 25.4029 23.2293 23.6149H23.012C22.8233 23.4843 22.6089 23.3475 22.3679 23.2098C21.0908 22.4799 19.0273 21.7001 15.9998 21.7001C12.9722 21.7001 10.9088 22.4799 9.6317 23.2098C9.39072 23.3475 9.17635 23.4843 8.98763 23.6149ZM18.1005 12.4001C18.1005 13.5599 17.1604 14.5001 16.0005 14.5001C14.8407 14.5001 13.9005 13.5599 13.9005 12.4001C13.9005 11.2403 14.8407 10.3001 16.0005 10.3001C17.1603 10.3001 18.1005 11.2403 18.1005 12.4001ZM16.0005 16.0001C17.9888 16.0001 19.6005 14.3883 19.6005 12.4001C19.6005 10.4118 17.9888 8.80006 16.0005 8.80006C14.0122 8.80006 12.4005 10.4118 12.4005 12.4001C12.4005 14.3883 14.0122 16.0001 16.0005 16.0001Z" fill="#82848E"/>
</svg>
