<svg width="24" height="24" viewBox="0 0 24 24" fill="none" xmlns="http://www.w3.org/2000/svg">
<path fill-rule="evenodd" clip-rule="evenodd" d="M18.1834 16.3909C21.2866 12.4054 21.0063 6.63932 17.3425 2.9755C13.3752 -0.991835 6.94284 -0.991834 2.9755 2.9755C-0.991835 6.94284 -0.991835 13.3752 2.9755 17.3425C6.63932 21.0063 12.4054 21.2866 16.3909 18.1834C16.4081 18.2028 16.426 18.2218 16.4446 18.2404L21.8322 23.6281C22.3281 24.124 23.1321 24.124 23.6281 23.6281C24.124 23.1321 24.124 22.3281 23.6281 21.8322L18.2404 16.4446C18.2218 16.426 18.2028 16.4081 18.1834 16.3909ZM15.5466 4.77138C18.5221 7.74688 18.5221 12.5711 15.5466 15.5466C12.5711 18.5221 7.74688 18.5221 4.77138 15.5466C1.79587 12.5711 1.79587 7.74688 4.77138 4.77138C7.74688 1.79587 12.5711 1.79587 15.5466 4.77138Z" fill="#EEF0FF"/>
</svg>
