<svg width="20" height="20" viewBox="0 0 20 20" fill="none" xmlns="http://www.w3.org/2000/svg">
<g clip-path="url(#clip0)">
<path fill-rule="evenodd" clip-rule="evenodd" d="M11.3378 -0.125C16.1894 -0.125 20.1225 3.80807 20.1225 8.65975C20.1225 13.5114 16.1894 17.4445 11.3378 17.4445C9.18235 17.4445 7.20722 16.6675 5.67907 15.3795L1.15539 19.9032C0.862498 20.196 0.387624 20.196 0.0947309 19.9032C-0.198162 19.6103 -0.198162 19.1354 0.0947309 18.8425L4.61837 14.3189C3.33014 12.7907 2.55301 10.8154 2.55301 8.65975C2.55301 3.80807 6.48609 -0.125 11.3378 -0.125ZM18.6225 8.65975C18.6225 4.63649 15.361 1.375 11.3378 1.375C7.31451 1.375 4.05301 4.63649 4.05301 8.65975C4.05301 10.6682 4.86469 12.4855 6.17977 13.804L6.17979 13.804C7.49939 15.1271 9.32247 15.9445 11.3378 15.9445C15.361 15.9445 18.6225 12.683 18.6225 8.65975Z" fill="#494B50"/>
</g>
<defs>
<clipPath id="clip0">
<rect width="20" height="20" fill="white"/>
</clipPath>
</defs>
</svg>
