<svg width="17" height="19" viewBox="0 0 17 19" fill="none" xmlns="http://www.w3.org/2000/svg">
<path d="M3.61111 17.5002C2.26105 17.5002 1.16668 16.4257 1.16668 15.1002C1.16668 13.7747 2.26105 12.7002 3.61111 12.7002C4.96117 12.7002 6.05554 13.7747 6.05554 15.1002C6.05554 16.4257 4.96117 17.5002 3.61111 17.5002Z" stroke="#82848E" stroke-width="1.5" stroke-linecap="round" stroke-linejoin="round"/>
<path d="M3.61111 6.29998C2.26105 6.29998 1.16668 5.22546 1.16668 3.89999C1.16668 2.57452 2.26105 1.5 3.61111 1.5C4.96117 1.5 6.05554 2.57452 6.05554 3.89999C6.05554 5.22546 4.96117 6.29998 3.61111 6.29998Z" stroke="#82848E" stroke-width="1.5" stroke-linecap="round" stroke-linejoin="round"/>
<path d="M13.3889 11.9001C12.0389 11.9001 10.9445 10.8256 10.9445 9.50009C10.9445 8.17457 12.0389 7.1001 13.3889 7.1001C14.739 7.1001 15.8334 8.17457 15.8334 9.50009C15.8334 10.8256 14.739 11.9001 13.3889 11.9001Z" stroke="#82848E" stroke-width="1.5" stroke-linecap="round" stroke-linejoin="round"/>
<path d="M5.64825 5.1001L11.3519 8.30008" stroke="#82848E" stroke-width="1.5"/>
<path d="M11.3519 10.7002L5.64825 13.9002" stroke="#82848E" stroke-width="1.5"/>
</svg>
