<svg width="32" height="32" viewBox="0 0 32 32" fill="none" xmlns="http://www.w3.org/2000/svg">
<circle cx="16" cy="16" r="16" fill="#DBB889" fill-opacity="0.25"/>
<path d="M15.924 11.96C16.644 11.96 17.276 12.084 17.82 12.332C18.364 12.58 18.828 12.948 19.212 13.436L18.288 14.504C17.96 14.088 17.6 13.784 17.208 13.592C16.824 13.392 16.376 13.292 15.864 13.292C15.528 13.292 15.248 13.336 15.024 13.424C14.808 13.512 14.648 13.628 14.544 13.772C14.448 13.916 14.4 14.076 14.4 14.252C14.4 14.468 14.484 14.652 14.652 14.804C14.82 14.948 15.108 15.068 15.516 15.164L16.992 15.5C17.776 15.676 18.336 15.94 18.672 16.292C19.016 16.636 19.188 17.084 19.188 17.636C19.188 18.156 19.052 18.604 18.78 18.98C18.508 19.348 18.128 19.632 17.64 19.832C17.152 20.024 16.592 20.12 15.96 20.12C15.408 20.12 14.9 20.056 14.436 19.928C13.98 19.792 13.572 19.608 13.212 19.376C12.852 19.144 12.552 18.876 12.312 18.572L13.248 17.456C13.432 17.712 13.66 17.94 13.932 18.14C14.204 18.34 14.512 18.5 14.856 18.62C15.208 18.732 15.576 18.788 15.96 18.788C16.288 18.788 16.564 18.752 16.788 18.68C17.02 18.6 17.192 18.492 17.304 18.356C17.424 18.212 17.484 18.04 17.484 17.84C17.484 17.632 17.412 17.456 17.268 17.312C17.132 17.16 16.876 17.044 16.5 16.964L14.892 16.604C14.428 16.492 14.028 16.348 13.692 16.172C13.364 15.988 13.112 15.756 12.936 15.476C12.768 15.188 12.684 14.848 12.684 14.456C12.684 13.984 12.812 13.56 13.068 13.184C13.324 12.808 13.692 12.512 14.172 12.296C14.66 12.072 15.244 11.96 15.924 11.96Z" fill="#DBB889"/>
</svg>
