<svg width="24" height="24" viewBox="0 0 24 24" fill="none" xmlns="http://www.w3.org/2000/svg">
<path d="M10.5 16.4791C10.5 17.3076 11.1716 17.9791 12 17.9791C12.8284 17.9791 13.5 17.3076 13.5 16.4791V5L17.7348 9.23476C18.173 9.67296 18.8677 9.71947 19.3604 9.34359C19.9559 8.8893 20.0145 8.01429 19.4849 7.48468L12.6868 0.686591C12.3044 0.304172 11.6872 0.295087 11.2937 0.666084L4.0723 7.47433C3.51128 8.00325 3.56016 8.90953 4.17482 9.37504C4.65322 9.73736 5.32188 9.70738 5.76593 9.3037L10.5 5V16.4791Z" fill="#82848E"/>
<path d="M0 16.5C0 15.6716 0.671573 15 1.5 15C2.32843 15 3 15.6716 3 16.5V20C3 20.5523 3.44772 21 4 21H20C20.5523 21 21 20.5523 21 20V16.5C21 15.6716 21.6716 15 22.5 15C23.3284 15 24 15.6716 24 16.5V21C24 22.6569 22.6569 24 21 24H3C1.34315 24 0 22.6569 0 21V16.5Z" fill="#82848E"/>
</svg>
