<svg xmlns="http://www.w3.org/2000/svg" xmlns:xlink="http://www.w3.org/1999/xlink" width="15px" height="15px" viewBox="0 0 15 15" version="1.1">
<g id="surface1" >
<path fill="#5B48D1" style=" stroke:none;fill-rule:evenodd;fill-opacity:1;" d="M 7.5 1.25 C 4.046875 1.25 1.25 4.046875 1.25 7.5 C 1.25 10.953125 4.046875 13.75 7.5 13.75 C 10.953125 13.75 13.75 10.953125 13.75 7.5 C 13.75 4.046875 10.953125 1.25 7.5 1.25 Z M 7.5 12.5 C 4.742188 12.5 2.5 10.257812 2.5 7.5 C 2.5 4.742188 4.742188 2.5 7.5 2.5 C 10.257812 2.5 12.5 4.742188 12.5 7.5 C 12.5 10.257812 10.257812 12.5 7.5 12.5 Z M 8.28125 5 C 8.28125 5.453125 7.953125 5.78125 7.507812 5.78125 C 7.042969 5.78125 6.71875 5.453125 6.71875 4.992188 C 6.71875 4.546875 7.050781 4.21875 7.507812 4.21875 C 7.953125 4.21875 8.28125 4.546875 8.28125 5 Z M 6.875 6.875 L 8.125 6.875 L 8.125 10.625 L 6.875 10.625 Z M 6.875 6.875 "/>
</g>
</svg>

