<svg width="34" height="34" viewBox="0 0 34 34" fill="none" xmlns="http://www.w3.org/2000/svg">
<rect x="17.0002" y="0.0289917" width="4.36364" height="4.36357" rx="0.5" transform="rotate(45 17.0002 0.0289917)" fill="#9AA8FF"/>
<rect x="12.372" y="4.65717" width="4.36364" height="4.36357" rx="0.5" transform="rotate(45 12.372 4.65717)" fill="#9AA8FF"/>
<rect x="7.7439" y="9.28528" width="4.36364" height="4.36357" rx="0.5" transform="rotate(45 7.7439 9.28528)" fill="#9AA8FF"/>
<rect x="3.11517" y="13.914" width="4.36364" height="4.36357" rx="0.5" transform="rotate(45 3.11517 13.914)" fill="#9AA8FF"/>
<rect x="21.6295" y="4.65833" width="4.36364" height="4.36357" rx="0.5" transform="rotate(45 21.6295 4.65833)" fill="#9AA8FF"/>
<rect x="17.0021" y="9.28717" width="4.36364" height="4.36357" rx="0.5" transform="rotate(45 17.0021 9.28717)" fill="#9AA8FF"/>
<rect x="12.3739" y="13.9153" width="4.36364" height="4.36357" rx="0.5" transform="rotate(45 12.3739 13.9153)" fill="#9AA8FF"/>
<rect x="7.74518" y="18.544" width="4.36364" height="4.36357" rx="0.5" transform="rotate(45 7.74518 18.544)" fill="#9AA8FF"/>
<rect x="26.2568" y="9.28558" width="4.36364" height="4.36357" rx="0.5" transform="rotate(45 26.2568 9.28558)" fill="#9AA8FF"/>
<rect x="21.6279" y="13.9131" width="4.36364" height="4.36357" rx="0.5" transform="rotate(45 21.6279 13.9131)" fill="#9AA8FF"/>
<rect x="16.9998" y="18.5412" width="4.36364" height="4.36357" rx="0.5" transform="rotate(45 16.9998 18.5412)" fill="#9AA8FF"/>
<rect x="12.3711" y="23.1699" width="4.36364" height="4.36357" rx="0.5" transform="rotate(45 12.3711 23.1699)" fill="#9AA8FF"/>
<rect x="30.8861" y="13.9149" width="4.36364" height="4.36357" rx="0.5" transform="rotate(45 30.8861 13.9149)" fill="#9AA8FF"/>
<rect x="26.2579" y="18.5431" width="4.36364" height="4.36357" rx="0.5" transform="rotate(45 26.2579 18.5431)" fill="#9AA8FF"/>
<rect x="21.6298" y="23.1712" width="4.36364" height="4.36357" rx="0.5" transform="rotate(45 21.6298 23.1712)" fill="#9AA8FF"/>
<rect x="17.0011" y="27.8" width="4.36364" height="4.36357" rx="0.5" transform="rotate(45 17.0011 27.8)" fill="#9AA8FF"/>
</svg>
