<svg width="15" height="14" viewBox="0 0 15 14" fill="none" xmlns="http://www.w3.org/2000/svg">
<path d="M12.8537 2.99984V4.33317M11.5737 2.99984H12.8537H11.5737ZM14.1337 2.99984H12.8537H14.1337ZM12.8537 2.99984V1.6665V2.99984Z" stroke="#5B48D1" stroke-width="1.5" stroke-linecap="round" stroke-linejoin="round"/>
<path d="M13.7494 12.333H1.71737C1.5053 12.333 1.33337 12.1539 1.33337 11.933V6.33301H13.7494C13.9615 6.33301 14.1334 6.51207 14.1334 6.73301V11.933C14.1334 12.1539 13.9615 12.333 13.7494 12.333Z" stroke="#5B48D1" stroke-width="1.5" stroke-linecap="round" stroke-linejoin="round"/>
<path d="M1.33337 6.33317V2.0665C1.33337 1.84559 1.5053 1.6665 1.71737 1.6665H5.67133C5.76299 1.6665 5.85163 1.70066 5.92123 1.7628L7.94553 3.5702C8.0151 3.63234 8.10374 3.6665 8.19545 3.6665H9.01337" stroke="#5B48D1" stroke-width="1.5" stroke-linecap="round" stroke-linejoin="round"/>
</svg>
