<svg width="24" height="22" viewBox="0 0 24 22" fill="none" xmlns="http://www.w3.org/2000/svg">
<path fill-rule="evenodd" clip-rule="evenodd" d="M1.75468 11.3875L4.68482 1.5H19.3133L22.2434 11.3875H1.75468ZM20.7367 1.02382L23.8079 11.3875H23.9979V12.1375V20.5643C23.9979 21.3472 23.3686 21.9975 22.573 21.9975H1.42511C0.629536 21.9975 0.000183105 21.3472 0.000183105 20.5643V12.1375V11.3875H0.190203L3.26145 1.02382L3.26146 1.02381C3.43998 0.421406 3.99159 0 4.62702 0H19.3711C20.0065 0 20.558 0.421452 20.7366 1.02366L20.7367 1.02382ZM1.50018 20.4975V12.8875H22.4979V20.4975H1.50018ZM10.2844 16.1545C10.5814 16.4433 10.588 16.9181 10.2993 17.215L10.2872 17.2275C9.99844 17.5244 9.52361 17.5311 9.22664 17.2423C8.92967 16.9536 8.92302 16.4787 9.21178 16.1818L9.22386 16.1694C9.51262 15.8724 9.98744 15.8657 10.2844 16.1545ZM5.78579 16.1545C6.08277 16.4432 6.08946 16.918 5.80071 17.215L5.78864 17.2274C5.4999 17.5244 5.02507 17.5311 4.72808 17.2424C4.4311 16.9536 4.42442 16.4788 4.71316 16.1818L4.72523 16.1694C5.01398 15.8724 5.4888 15.8657 5.78579 16.1545Z" fill="#362F68"/>
</svg>
