<svg width="24" height="22" viewBox="0 0 24 22" fill="none" xmlns="http://www.w3.org/2000/svg">
<path fill-rule="evenodd" clip-rule="evenodd" d="M1.75462 11.3875L4.68476 1.5H19.3132L22.2434 11.3875H1.75462ZM20.7366 1.02382L23.8078 11.3875H23.9979V12.1375V20.5643C23.9979 21.3472 23.3686 21.9975 22.5729 21.9975H1.42505C0.629475 21.9975 0.00012207 21.3472 0.00012207 20.5643V12.1375V11.3875H0.190142L3.26139 1.02382L3.2614 1.02381C3.43992 0.421406 3.99153 0 4.62695 0H19.371C20.0065 0 20.5579 0.421452 20.7366 1.02366L20.7366 1.02382ZM1.50012 20.4975V12.8875H22.4979V20.4975H1.50012ZM10.2843 16.1545C10.5813 16.4433 10.5879 16.9181 10.2992 17.215L10.2871 17.2275C9.99834 17.5244 9.52351 17.5311 9.22654 17.2423C8.92957 16.9536 8.92292 16.4787 9.21168 16.1818L9.22376 16.1694C9.51252 15.8724 9.98734 15.8657 10.2843 16.1545ZM5.78575 16.1545C6.08273 16.4432 6.08941 16.918 5.80067 17.215L5.7886 17.2274C5.49985 17.5244 5.02503 17.5311 4.72804 17.2424C4.43105 16.9536 4.42437 16.4788 4.71311 16.1818L4.72519 16.1694C5.01393 15.8724 5.48876 15.8657 5.78575 16.1545Z" fill="#82848E"/>
</svg>
