<svg width="4" height="26" viewBox="0 0 4 26" fill="none" xmlns="http://www.w3.org/2000/svg">
<path d="M2 13.9228C2.5522 13.9228 3 13.5095 3 12.9997C3 12.49 2.5522 12.0767 2 12.0767C1.4478 12.0767 1 12.49 1 12.9997C1 13.5095 1.4478 13.9228 2 13.9228Z" fill="#28282B" stroke="#28282B" stroke-width="1.5" stroke-linecap="round" stroke-linejoin="round"/>
<path d="M2 25C2.5522 25 3 24.5866 3 24.0769C3 23.5672 2.5522 23.1538 2 23.1538C1.4478 23.1538 1 23.5672 1 24.0769C1 24.5866 1.4478 25 2 25Z" fill="#28282B" stroke="#28282B" stroke-width="1.5" stroke-linecap="round" stroke-linejoin="round"/>
<path d="M2 2.84615C2.5522 2.84615 3 2.43287 3 1.92308C3 1.41328 2.5522 1 2 1C1.4478 1 1 1.41328 1 1.92308C1 2.43287 1.4478 2.84615 2 2.84615Z" fill="#28282B" stroke="#28282B" stroke-width="1.5" stroke-linecap="round" stroke-linejoin="round"/>
</svg>
