<svg width="4" height="26" viewBox="0 0 4 26" fill="none" xmlns="http://www.w3.org/2000/svg">
<path d="M2.00024 13.9231C2.55244 13.9231 3.00024 13.5097 3.00024 13C3.00024 12.4903 2.55244 12.0769 2.00024 12.0769C1.44804 12.0769 1.00024 12.4903 1.00024 13C1.00024 13.5097 1.44804 13.9231 2.00024 13.9231Z" fill="#CED0DD" stroke="#CED0DD" stroke-width="1.5" stroke-linecap="round" stroke-linejoin="round"/>
<path d="M2.00024 25.0002C2.55244 25.0002 3.00024 24.5869 3.00024 24.0771C3.00024 23.5674 2.55244 23.1541 2.00024 23.1541C1.44804 23.1541 1.00024 23.5674 1.00024 24.0771C1.00024 24.5869 1.44804 25.0002 2.00024 25.0002Z" fill="#CED0DD" stroke="#CED0DD" stroke-width="1.5" stroke-linecap="round" stroke-linejoin="round"/>
<path d="M2.00024 2.84615C2.55244 2.84615 3.00024 2.43287 3.00024 1.92308C3.00024 1.41328 2.55244 1 2.00024 1C1.44804 1 1.00024 1.41328 1.00024 1.92308C1.00024 2.43287 1.44804 2.84615 2.00024 2.84615Z" fill="#CED0DD" stroke="#CED0DD" stroke-width="1.5" stroke-linecap="round" stroke-linejoin="round"/>
</svg>
