<svg width="24" height="24" viewBox="0 0 24 24" fill="none" xmlns="http://www.w3.org/2000/svg">
<path fill-rule="evenodd" clip-rule="evenodd" d="M11.9982 1.5C10.9117 1.5 9.86376 1.66505 8.87809 1.97144C9.86428 2.72488 10.5006 3.91295 10.5006 5.25041C10.5006 7.52828 8.65399 9.37484 6.37613 9.37484C4.77143 9.37484 3.38126 8.45877 2.69939 7.12085C1.93346 8.57814 1.50006 10.2375 1.50006 11.9981C1.50006 17.7961 6.20023 22.4962 11.9982 22.4962C14.4667 22.4962 16.7362 21.6442 18.5288 20.2182C16.891 19.4875 15.7496 17.8455 15.7496 15.9361C15.7496 13.3477 17.8479 11.2493 20.4364 11.2493C21.1739 11.2493 21.8719 11.4199 22.4928 11.7235C22.3472 6.05249 17.7043 1.5 11.9982 1.5ZM22.4 13.4259C21.8585 13.0015 21.1774 12.7493 20.4364 12.7493C18.6764 12.7493 17.2496 14.1761 17.2496 15.9361C17.2496 17.4679 18.331 18.7483 19.7718 19.0538C21.1629 17.5221 22.1074 15.5776 22.4 13.4259ZM3.72432 5.53565C4.62963 4.37822 5.77253 3.41559 7.07964 2.72114C8.18758 3.02843 9.00056 4.04528 9.00056 5.25041C9.00056 6.69985 7.82557 7.87484 6.37613 7.87484C5.02171 7.87484 3.90608 6.84823 3.76648 5.53118L3.72432 5.53565ZM6.10352e-05 11.9981C6.10352e-05 5.37174 5.3718 0 11.9982 0C18.6245 0 23.9963 5.37174 23.9963 11.9981C23.9963 18.6245 18.6245 23.9962 11.9982 23.9962C5.3718 23.9962 6.10352e-05 18.6245 6.10352e-05 11.9981ZM15.3243 7.50336C15.6321 7.78047 15.6571 8.25469 15.38 8.56256L15.3694 8.57425C15.0923 8.88212 14.6181 8.90706 14.3102 8.62995C14.0024 8.35284 13.9774 7.87862 14.2545 7.57075L14.2651 7.55906C14.5422 7.25119 15.0164 7.22625 15.3243 7.50336ZM9.7493 12.3735C8.09266 12.3735 6.74968 13.7164 6.74968 15.3731C6.74968 17.0298 8.09266 18.3727 9.7493 18.3727C11.406 18.3727 12.7489 17.0298 12.7489 15.3731C12.7489 13.7164 11.406 12.3735 9.7493 12.3735ZM8.24968 15.3731C8.24968 14.5449 8.92107 13.8735 9.7493 13.8735C10.5776 13.8735 11.2489 14.5449 11.2489 15.3731C11.2489 16.2014 10.5776 16.8727 9.7493 16.8727C8.92107 16.8727 8.24968 16.2013 8.24968 15.3731Z" fill="#5B48D1"/>
</svg>
