<svg width="24" height="24" viewBox="0 0 24 24" fill="none" xmlns="http://www.w3.org/2000/svg">
<path fill-rule="evenodd" clip-rule="evenodd" d="M11.9982 1.5C10.9118 1.5 9.86383 1.66505 8.87815 1.97144C9.86434 2.72488 10.5006 3.91295 10.5006 5.25041C10.5006 7.52828 8.65405 9.37484 6.37619 9.37484C4.77149 9.37484 3.38132 8.45877 2.69945 7.12085C1.93352 8.57814 1.50012 10.2375 1.50012 11.9981C1.50012 17.7961 6.20029 22.4962 11.9982 22.4962C14.4668 22.4962 16.7363 21.6442 18.5288 20.2182C16.891 19.4875 15.7496 17.8455 15.7496 15.9361C15.7496 13.3477 17.848 11.2493 20.4365 11.2493C21.1739 11.2493 21.8719 11.4199 22.4928 11.7235C22.3472 6.05249 17.7044 1.5 11.9982 1.5ZM22.4001 13.4259C21.8586 13.0015 21.1774 12.7493 20.4365 12.7493C18.6764 12.7493 17.2496 14.1761 17.2496 15.9361C17.2496 17.4679 18.3311 18.7483 19.7719 19.0538C21.1629 17.5221 22.1075 15.5776 22.4001 13.4259ZM3.72438 5.53565C4.62969 4.37822 5.77259 3.41559 7.0797 2.72114C8.18764 3.02843 9.00062 4.04528 9.00062 5.25041C9.00062 6.69985 7.82563 7.87484 6.37619 7.87484C5.02177 7.87484 3.90614 6.84823 3.76654 5.53118L3.72438 5.53565ZM0.00012207 11.9981C0.00012207 5.37174 5.37186 0 11.9982 0C18.6246 0 23.9963 5.37174 23.9963 11.9981C23.9963 18.6245 18.6246 23.9962 11.9982 23.9962C5.37186 23.9962 0.00012207 18.6245 0.00012207 11.9981ZM15.3243 7.50336C15.6322 7.78047 15.6571 8.25469 15.38 8.56256L15.3695 8.57425C15.0924 8.88212 14.6182 8.90706 14.3103 8.62995C14.0024 8.35284 13.9775 7.87862 14.2546 7.57075L14.2651 7.55906C14.5422 7.25119 15.0165 7.22625 15.3243 7.50336ZM9.74936 12.3735C8.09272 12.3735 6.74974 13.7164 6.74974 15.3731C6.74974 17.0298 8.09272 18.3727 9.74936 18.3727C11.406 18.3727 12.749 17.0298 12.749 15.3731C12.749 13.7164 11.406 12.3735 9.74936 12.3735ZM8.24974 15.3731C8.24974 14.5449 8.92113 13.8735 9.74936 13.8735C10.5776 13.8735 11.249 14.5449 11.249 15.3731C11.249 16.2014 10.5776 16.8727 9.74936 16.8727C8.92113 16.8727 8.24974 16.2013 8.24974 15.3731Z" fill="#9AA8FF"/>
</svg>
