<svg viewBox="0 0 24 24" xmlns="http://www.w3.org/2000/svg">
<g clip-path="url(#clip0)">
<path d="M9.98335 4.33757C10.0686 4.42125 10.1803 4.46314 10.2919 4.46314C10.4035 4.46314 10.5152 4.42125 10.6004 4.33757L10.9089 4.03457L11.2174 4.33757C11.3026 4.42125 11.4143 4.46314 11.5259 4.46314C11.6375 4.46314 11.7492 4.42125 11.8344 4.33757C12.0048 4.17021 12.0048 3.89892 11.8344 3.73157L11.5259 3.42856L11.8344 3.12556C12.0048 2.95821 12.0048 2.68692 11.8344 2.51956C11.664 2.3522 11.3878 2.3522 11.2174 2.51956L10.9089 2.82256L10.6004 2.51956C10.43 2.3522 10.1538 2.3522 9.98335 2.51956C9.81295 2.68692 9.81295 2.95821 9.98335 3.12556L10.2919 3.42856L9.98335 3.73157C9.81284 3.89903 9.81284 4.17021 9.98335 4.33757Z"/>
<path d="M15.7098 5.5715C15.9508 5.5715 16.1462 5.37962 16.1462 5.14293C16.1462 4.90623 15.9508 4.71436 15.7098 4.71436C15.4688 4.71436 15.2734 4.90623 15.2734 5.14293C15.2734 5.37962 15.4688 5.5715 15.7098 5.5715Z"/>
<path d="M14.4007 0.857141C14.6417 0.857141 14.8371 0.665264 14.8371 0.428571C14.8371 0.191878 14.6417 0 14.4007 0C14.1597 0 13.9644 0.191878 13.9644 0.428571C13.9644 0.665264 14.1597 0.857141 14.4007 0.857141Z"/>
<path d="M21.8182 6.85719H9.34396L8.49502 5.12737C8.48356 5.1039 8.46993 5.08172 8.45455 5.06083C8.0808 4.55854 7.47567 4.25897 6.8352 4.25897H1.97345C0.885055 4.25897 0 5.11322 0 6.16322V20.7191C0 21.7315 0.788182 22.5607 1.80153 22.6883C1.98949 23.4453 2.68407 24 3.49091 24H20.9455C21.8055 24 22.5177 23.385 22.6606 22.5801C23.441 22.2945 24 21.5713 24 20.7192V9.00004C24 7.81858 23.0211 6.85719 21.8182 6.85719ZM23.1273 20.7192C23.1273 21.3465 22.5912 21.8572 21.9324 21.8572H6.62858C6.38738 21.8572 6.19222 22.0489 6.19222 22.2858C6.19222 22.5227 6.38738 22.7143 6.62858 22.7143H21.6968C21.5453 22.9692 21.2669 23.1429 20.9455 23.1429H3.49091C3.17345 23.1429 2.88982 22.9713 2.73709 22.7143H4.37476C4.61596 22.7143 4.81113 22.5227 4.81113 22.2858C4.81113 22.0489 4.61596 21.8572 4.37476 21.8572H2.0676C1.4088 21.8572 0.872727 21.3465 0.872727 20.7192V6.16322C0.872727 5.58562 1.36658 5.11612 1.97345 5.11612H6.8352C7.18549 5.11612 7.51658 5.27308 7.728 5.53804L8.37535 6.85719H6.10909C5.86789 6.85719 5.67273 7.04887 5.67273 7.28576C5.67273 7.52265 5.86789 7.71433 6.10909 7.71433H21.8182C22.54 7.71433 23.1273 8.29108 23.1273 9.00004V20.7192Z"/>
<path d="M11.9002 14.148L14.4975 13.1539C14.6748 13.0861 14.7869 12.9133 14.7745 12.7266C14.7622 12.54 14.6279 12.383 14.443 12.3382L8.47671 10.9006C8.32377 10.8655 8.16308 10.9111 8.0553 11.0233C7.94751 11.1355 7.90955 11.2962 7.95602 11.4435L9.71937 17.0454C9.77522 17.2237 9.94224 17.346 10.1323 17.3476H10.1361C10.3245 17.3476 10.4919 17.2288 10.5507 17.0529L11.3106 14.7807L15.0491 18.4203C15.1343 18.5031 15.2451 18.5446 15.3563 18.5446C15.4688 18.5446 15.5809 18.5023 15.6661 18.4177C15.8358 18.2495 15.8349 17.9782 15.6636 17.8117L11.9002 14.148ZM10.1487 15.5076L9.01693 11.9133L12.8939 12.8475L10.9575 13.5887C10.9566 13.5891 10.9559 13.5901 10.9549 13.5905C10.9008 13.6116 10.8499 13.6429 10.8063 13.6863C10.805 13.6876 10.8046 13.6894 10.8034 13.6907C10.7921 13.7022 10.7869 13.7177 10.7769 13.7303C10.749 13.766 10.7232 13.8022 10.7084 13.8431C10.7067 13.8472 10.7029 13.85 10.7016 13.8542L10.1487 15.5076Z"/>
</g>
<defs>
<clipPath id="clip0">
<rect width="24" height="24"/>
</clipPath>
</defs>
</svg>
