<svg width="25" height="24" viewBox="0 0 25 24" fill="none" xmlns="http://www.w3.org/2000/svg">
<path fill-rule="evenodd" clip-rule="evenodd" d="M12.1563 1.5C11.0698 1.5 10.0219 1.66505 9.03623 1.97144C10.0224 2.72488 10.6587 3.91295 10.6587 5.25041C10.6587 7.52828 8.81214 9.37484 6.53427 9.37484C4.92958 9.37484 3.5394 8.45877 2.85753 7.12085C2.0916 8.57814 1.6582 10.2375 1.6582 11.9981C1.6582 17.7961 6.35837 22.4962 12.1563 22.4962C14.6248 22.4962 16.8944 21.6442 18.6869 20.2182C17.0491 19.4875 15.9077 17.8455 15.9077 15.9361C15.9077 13.3477 18.0061 11.2493 20.5946 11.2493C21.332 11.2493 22.03 11.4199 22.6509 11.7235C22.5053 6.05249 17.8625 1.5 12.1563 1.5ZM22.5582 13.4259C22.0167 13.0015 21.3355 12.7493 20.5946 12.7493C18.8345 12.7493 17.4077 14.1761 17.4077 15.9361C17.4077 17.4679 18.4892 18.7483 19.93 19.0538C21.321 17.5221 22.2656 15.5776 22.5582 13.4259ZM3.88246 5.53565C4.78777 4.37822 5.93067 3.41559 7.23778 2.72114C8.34572 3.02843 9.1587 4.04528 9.1587 5.25041C9.1587 6.69985 7.98371 7.87484 6.53427 7.87484C5.17985 7.87484 4.06422 6.84823 3.92462 5.53118L3.88246 5.53565ZM0.158203 11.9981C0.158203 5.37174 5.52994 0 12.1563 0C18.7827 0 24.1544 5.37174 24.1544 11.9981C24.1544 18.6245 18.7827 23.9962 12.1563 23.9962C5.52994 23.9962 0.158203 18.6245 0.158203 11.9981ZM15.4824 7.50336C15.7903 7.78047 15.8152 8.25469 15.5381 8.56256L15.5276 8.57425C15.2505 8.88212 14.7762 8.90706 14.4684 8.62995C14.1605 8.35284 14.1356 7.87862 14.4127 7.57075L14.4232 7.55906C14.7003 7.25119 15.1745 7.22625 15.4824 7.50336ZM9.90744 12.3735C8.2508 12.3735 6.90782 13.7164 6.90782 15.3731C6.90782 17.0298 8.2508 18.3727 9.90744 18.3727C11.5641 18.3727 12.9071 17.0298 12.9071 15.3731C12.9071 13.7164 11.5641 12.3735 9.90744 12.3735ZM8.40782 15.3731C8.40782 14.5449 9.07922 13.8735 9.90744 13.8735C10.7357 13.8735 11.4071 14.5449 11.4071 15.3731C11.4071 16.2014 10.7357 16.8727 9.90744 16.8727C9.07922 16.8727 8.40782 16.2013 8.40782 15.3731Z" fill="#5B48D1"/>
</svg>
