<svg width="17" height="18" viewBox="0 0 17 18" fill="none" xmlns="http://www.w3.org/2000/svg">
<path fill-rule="evenodd" clip-rule="evenodd" d="M8.00213 0.997803C3.58267 0.997803 0 4.58048 0 8.99993C0 13.4193 3.58267 17.0021 8.00213 17.0021C12.4215 17.0021 16.0043 13.4193 16.0043 8.99993C16.0043 4.58047 12.4215 0.997803 8.00213 0.997803ZM1.5 8.99993C1.5 5.4089 4.4111 2.4978 8.00213 2.4978C11.5931 2.4978 14.5043 5.40891 14.5043 8.99993C14.5043 12.5909 11.5931 15.5021 8.00213 15.5021C4.4111 15.5021 1.5 12.5909 1.5 8.99993ZM8.51115 5.17839C8.81902 5.4555 8.84395 5.92972 8.56684 6.23759L8.5594 6.24586C8.28229 6.55373 7.80807 6.57866 7.5002 6.30156C7.19233 6.02445 7.1674 5.55023 7.44451 5.24236L7.45195 5.23409C7.72906 4.92622 8.20328 4.90128 8.51115 5.17839ZM8.00195 7.88745C8.41617 7.88745 8.75195 8.22324 8.75195 8.63745V12.2635C8.75195 12.6777 8.41617 13.0135 8.00195 13.0135C7.58774 13.0135 7.25195 12.6777 7.25195 12.2635V8.63745C7.25195 8.22324 7.58774 7.88745 8.00195 7.88745Z" fill="#362F68"/>
</svg>
