<svg width="17" height="18" viewBox="0 0 17 18" fill="none" xmlns="http://www.w3.org/2000/svg">
<path fill-rule="evenodd" clip-rule="evenodd" d="M8.00213 0.997925C3.58267 0.997925 0 4.5806 0 9.00005C0 13.4195 3.58267 17.0022 8.00213 17.0022C12.4215 17.0022 16.0043 13.4195 16.0043 9.00005C16.0043 4.58059 12.4215 0.997925 8.00213 0.997925ZM1.5 9.00005C1.5 5.40902 4.4111 2.49792 8.00213 2.49792C11.5931 2.49792 14.5043 5.40903 14.5043 9.00005C14.5043 12.591 11.5931 15.5022 8.00213 15.5022C4.4111 15.5022 1.5 12.591 1.5 9.00005ZM8.51115 5.17851C8.81902 5.45562 8.84395 5.92984 8.56684 6.23771L8.5594 6.24598C8.28229 6.55385 7.80807 6.57879 7.5002 6.30168C7.19233 6.02457 7.1674 5.55035 7.44451 5.24248L7.45195 5.23421C7.72906 4.92634 8.20328 4.90141 8.51115 5.17851ZM8.00195 7.88757C8.41617 7.88757 8.75195 8.22336 8.75195 8.63757V12.2636C8.75195 12.6779 8.41617 13.0136 8.00195 13.0136C7.58774 13.0136 7.25195 12.6779 7.25195 12.2636V8.63757C7.25195 8.22336 7.58774 7.88757 8.00195 7.88757Z" fill="#9AA8FF"/>
</svg>
