<svg width="24" height="24" viewBox="0 0 512 512" fill="none" xmlns="http://www.w3.org/2000/svg">

<g transform="translate(0.000000,512.000000) scale(0.100000,-0.100000)"
fill="#362F68" stroke="none">
<path d="M970 5078 c-187 -94 -338 -228 -446 -393 -98 -151 -151 -297 -174
-476 -11 -85 -10 -100 4 -131 19 -39 51 -58 97 -58 41 0 89 48 89 88 0 49 29
199 51 265 81 236 260 432 495 538 72 33 94 59 94 111 0 51 -33 88 -85 94 -33
4 -55 -3 -125 -38z"/>
<path d="M2959 4972 c-64 -22 -133 -66 -175 -114 -16 -18 -157 -215 -313 -438
-156 -223 -288 -409 -292 -414 -4 -5 -13 11 -19 35 -66 243 -321 384 -563 309
-72 -22 -167 -87 -208 -141 -38 -50 -797 -1362 -829 -1433 -44 -97 -87 -236
-112 -358 -19 -96 -22 -144 -22 -318 0 -218 11 -311 60 -507 l25 -103 -109
-157 c-60 -87 -115 -176 -122 -197 -25 -79 5 -190 67 -247 58 -54 1216 -861
1255 -875 77 -27 164 -12 232 40 19 14 80 91 136 170 109 155 101 148 205 161
385 47 791 245 1075 526 117 115 161 171 444 573 216 307 246 354 246 387 0
78 -92 127 -151 80 -15 -11 -132 -170 -260 -353 -277 -393 -319 -448 -443
-565 -268 -254 -611 -414 -966 -453 -138 -14 -146 -17 -169 -41 -11 -12 -69
-91 -128 -176 -73 -103 -116 -156 -131 -160 -16 -4 -36 4 -65 24 -23 17 -289
204 -592 417 -369 259 -553 394 -559 410 -8 21 5 45 109 192 65 92 123 180
129 195 8 23 3 57 -27 176 -53 215 -62 286 -61 493 1 206 18 313 75 477 43
122 37 110 455 832 277 478 386 657 418 688 73 70 175 83 267 35 98 -51 151
-157 129 -257 -6 -25 -73 -223 -150 -441 -77 -219 -140 -410 -140 -425 0 -20
16 -46 56 -91 121 -135 214 -301 255 -458 29 -109 31 -270 5 -381 -16 -71 -16
-79 -2 -108 20 -38 44 -51 94 -51 70 0 99 54 122 230 34 261 -54 553 -242 801
-37 49 -68 93 -68 98 0 6 31 97 69 204 l68 194 449 638 c341 484 458 644 488
664 34 22 51 26 112 26 64 0 77 -3 116 -30 59 -42 92 -105 92 -175 0 -30 -5
-66 -11 -80 -6 -14 -216 -317 -468 -675 -251 -357 -463 -662 -471 -677 -18
-34 -18 -43 1 -83 27 -56 103 -73 149 -32 14 12 281 387 594 832 608 866 602
858 705 886 139 37 255 -82 227 -233 -5 -26 -17 -62 -25 -79 -9 -17 -258 -374
-552 -792 -295 -419 -551 -784 -570 -811 -42 -61 -45 -112 -8 -149 34 -33 67
-40 108 -23 28 11 110 123 482 652 247 352 462 656 478 677 96 124 289 103
361 -40 20 -40 21 -134 1 -172 -7 -15 -139 -205 -291 -422 -664 -943 -654
-928 -654 -964 0 -40 38 -90 75 -99 64 -16 70 -8 459 545 203 288 380 537 395
552 47 51 96 70 171 65 88 -5 137 -36 174 -109 29 -59 33 -113 12 -163 -8 -19
-96 -150 -195 -291 -150 -213 -181 -264 -181 -292 0 -79 105 -124 164 -70 44
40 383 534 400 584 62 178 0 370 -151 474 -49 34 -142 69 -184 69 l-28 0 20
44 c64 145 27 337 -87 450 -53 54 -150 105 -214 113 -46 6 -47 10 -20 55 99
169 80 394 -46 523 -155 160 -413 147 -591 -31 l-62 -62 -25 42 c-35 59 -111
128 -181 161 -79 38 -210 45 -296 17z" stroke="#362F68" stroke-width="90"/>
<path d="M1166 4650 c-201 -102 -344 -315 -349 -522 -2 -67 -1 -71 31 -99 41
-37 89 -39 128 -6 21 19 29 38 41 107 8 46 26 109 40 139 34 72 130 167 211
210 70 36 95 73 85 124 -7 37 -57 77 -96 77 -18 0 -59 -14 -91 -30z"/>
<path d="M4070 2329 c-61 -24 -84 -82 -56 -137 20 -38 44 -52 91 -52 50 0 95
44 95 94 0 65 -72 117 -130 95z"/>
<path d="M4121 1375 c-23 -20 -31 -37 -36 -73 -25 -182 -105 -302 -252 -375
-58 -30 -93 -68 -93 -104 0 -56 48 -103 104 -103 41 0 161 68 229 130 119 109
194 261 204 412 6 75 5 77 -25 107 -39 40 -88 42 -131 6z"/>
<path d="M4589 1352 c-28 -25 -32 -36 -40 -112 -24 -217 -106 -396 -248 -544
-82 -84 -160 -141 -273 -197 -70 -35 -91 -50 -104 -77 -18 -39 -12 -77 18
-109 37 -39 76 -39 163 1 218 101 401 272 518 486 71 130 127 336 127 467 0
47 -4 59 -29 84 -40 39 -89 40 -132 1z"/>
</g>
</svg>
