<svg width="24" height="26" viewBox="0 0 24 26" fill="none" xmlns="http://www.w3.org/2000/svg">
<path d="M11.9999 13.9231C12.5521 13.9231 12.9999 13.5097 12.9999 13C12.9999 12.4903 12.5521 12.0769 11.9999 12.0769C11.4477 12.0769 10.9999 12.4903 10.9999 13C10.9999 13.5097 11.4477 13.9231 11.9999 13.9231Z" fill="#82848E" stroke="#82848E" stroke-width="1.5" stroke-linecap="round" stroke-linejoin="round"/>
<path d="M11.9999 25.0001C12.5521 25.0001 12.9999 24.5867 12.9999 24.077C12.9999 23.5673 12.5521 23.1539 11.9999 23.1539C11.4477 23.1539 10.9999 23.5673 10.9999 24.077C10.9999 24.5867 11.4477 25.0001 11.9999 25.0001Z" fill="#82848E" stroke="#82848E" stroke-width="1.5" stroke-linecap="round" stroke-linejoin="round"/>
<path d="M11.9999 2.84615C12.5521 2.84615 12.9999 2.43287 12.9999 1.92308C12.9999 1.41328 12.5521 1 11.9999 1C11.4477 1 10.9999 1.41328 10.9999 1.92308C10.9999 2.43287 11.4477 2.84615 11.9999 2.84615Z" fill="#82848E" stroke="#82848E" stroke-width="1.5" stroke-linecap="round" stroke-linejoin="round"/>
</svg>
