<svg width="24" height="18" viewBox="0 0 24 18" fill="none" xmlns="http://www.w3.org/2000/svg">
<path fill-rule="evenodd" clip-rule="evenodd" d="M12.75 0.75C12.75 0.335786 12.4142 0 12 0C11.5858 0 11.25 0.335786 11.25 0.75V5.14885C11.25 5.56306 11.5858 5.89885 12 5.89885C12.4142 5.89885 12.75 5.56306 12.75 5.14885V0.75ZM12 8.44808L12.5271 7.91461L12 7.39367L11.4728 7.91461L12 8.44808ZM10.9028 10.8212C11.2983 10.3165 11.6956 9.86507 12 9.53407C12.3044 9.86507 12.7016 10.3165 13.0971 10.8212C13.5052 11.3419 13.8991 11.904 14.1877 12.4383C14.4864 12.9916 14.625 13.4302 14.625 13.7267C14.625 15.2859 13.4205 16.4958 12 16.4958C10.5794 16.4958 9.375 15.2859 9.375 13.7267C9.375 13.4302 9.51356 12.9916 9.81228 12.4383C10.1008 11.904 10.4947 11.3419 10.9028 10.8212ZM12 8.44808C11.4728 7.91461 11.4727 7.91469 11.4726 7.91479L11.4724 7.91506L11.4716 7.91582L11.4691 7.91825L11.4606 7.9267L11.4298 7.95763C11.4033 7.98433 11.3651 8.02303 11.317 8.07257C11.2208 8.17159 11.0845 8.31419 10.9213 8.49105C10.5958 8.84394 10.1599 9.33728 9.72215 9.89596C9.2865 10.4519 8.83666 11.0881 8.4924 11.7256C8.15832 12.3444 7.875 13.0514 7.875 13.7267C7.875 16.0546 9.69251 17.9958 12 17.9958C14.3074 17.9958 16.125 16.0546 16.125 13.7267C16.125 13.0514 15.8416 12.3444 15.5076 11.7256C15.1633 11.0881 14.7135 10.4519 14.2778 9.89596C13.84 9.33728 13.4041 8.84394 13.0786 8.49105C12.9155 8.31419 12.7791 8.17159 12.6829 8.07257C12.6348 8.02303 12.5967 7.98433 12.5702 7.95763L12.5393 7.9267L12.5308 7.91825L12.5284 7.91582L12.5276 7.91506L12.5273 7.91479C12.5272 7.91469 12.5271 7.91461 12 8.44808ZM1.90069 4.07465C2.19024 3.77844 2.66508 3.77305 2.96128 4.06259L6.33626 7.36173C6.63246 7.65128 6.63786 8.12612 6.34831 8.42232C6.05876 8.71852 5.58392 8.72392 5.28772 8.43437L1.91274 5.13524C1.61654 4.84569 1.61114 4.37085 1.90069 4.07465ZM22.0867 5.13524C22.3829 4.84569 22.3883 4.37085 22.0988 4.07465C21.8093 3.77844 21.3344 3.77305 21.0382 4.06259L17.6632 7.36173C17.367 7.65128 17.3616 8.12612 17.6512 8.42232C17.9407 8.71852 18.4156 8.72392 18.7118 8.43437L22.0867 5.13524ZM0 15.0461C0 14.6319 0.335786 14.2961 0.75 14.2961H5.24997C5.66418 14.2961 5.99997 14.6319 5.99997 15.0461C5.99997 15.4603 5.66418 15.7961 5.24997 15.7961H0.75C0.335786 15.7961 0 15.4603 0 15.0461ZM18.7498 14.2961C18.3355 14.2961 17.9998 14.6319 17.9998 15.0461C17.9998 15.4603 18.3355 15.7961 18.7498 15.7961H23.2497C23.6639 15.7961 23.9997 15.4603 23.9997 15.0461C23.9997 14.6319 23.6639 14.2961 23.2497 14.2961H18.7498Z" fill="#82848E"/>
</svg>
