<svg width="56" height="56" viewBox="0 0 56 56" fill="none" xmlns="http://www.w3.org/2000/svg">
<path d="M53.9555 35.3953C53.7837 35.3953 53.6317 35.2837 53.5774 35.1174C53.4131 34.6152 53.2144 34.12 52.9866 33.6454C52.9107 33.487 52.9412 33.2964 53.0631 33.1705C53.8601 32.3476 53.8601 31.0084 53.0631 30.1854L51.1001 28.1581C50.3032 27.3353 49.0064 27.3353 48.2094 28.1581C48.2083 28.1593 48.2071 28.1604 48.2061 28.1615C48.0845 28.2845 47.9016 28.3149 47.7496 28.2372C47.2898 28.0019 46.8102 27.7967 46.324 27.6272C46.1631 27.571 46.0551 27.414 46.0551 27.2366C46.0551 26.0727 45.1381 25.1258 44.0111 25.1258H41.235C40.1079 25.1258 39.191 26.0728 39.191 27.2366C39.191 27.414 39.0828 27.571 38.9218 27.6272C38.4358 27.7967 37.9562 28.0019 37.4965 28.2372C37.3431 28.3158 37.1586 28.2841 37.037 28.1586C37.0347 28.1562 37.0325 28.154 37.0301 28.1516C36.2326 27.3351 34.9405 27.3373 34.1458 28.1581L32.1828 30.1853C31.3859 31.0083 31.3859 32.3475 32.1831 33.1708C32.3048 33.2962 32.3354 33.487 32.2593 33.6454C32.0317 34.12 31.8329 34.6152 31.6685 35.1174C31.6142 35.2836 31.4621 35.3951 31.2904 35.3951C30.1633 35.3951 29.2464 36.342 29.2464 37.5059V40.3728C29.2464 41.5367 30.1634 42.4835 31.2904 42.4835C31.4622 42.4835 31.6143 42.5951 31.6685 42.7614C31.8328 43.2635 32.0315 43.7588 32.2593 44.2333C32.3353 44.3917 32.3048 44.5824 32.1828 44.7082C31.3859 45.5312 31.3859 46.8704 32.1828 47.6933L34.1459 49.7205C34.9407 50.5412 36.2324 50.5432 37.0298 49.7274C37.0322 49.7249 37.0346 49.7224 37.037 49.7201C37.1586 49.5946 37.3431 49.5632 37.4965 49.6414C37.9561 49.8766 38.4356 50.0818 38.9219 50.2515C39.0828 50.3076 39.191 50.4645 39.191 50.642C39.191 51.8059 40.108 52.7527 41.235 52.7527H44.0111C45.1382 52.7527 46.0551 51.8058 46.0551 50.642C46.0551 50.4645 46.1631 50.3075 46.324 50.2515C46.8103 50.0818 47.29 49.8766 47.7496 49.6414C47.9013 49.5635 48.0844 49.594 48.2059 49.7169L48.2094 49.7205C49.0063 50.5434 50.303 50.5435 51.1002 49.7205L53.0631 47.6933C53.8601 46.8704 53.8601 45.5312 53.0628 44.7079C52.9412 44.5823 52.9106 44.3917 52.9867 44.2333C53.2143 43.7587 53.413 43.2634 53.5774 42.7613C53.6318 42.5951 53.7838 42.4835 53.9555 42.4835C55.0826 42.4835 55.9995 41.5366 55.9995 40.3728V37.5059C55.9995 36.3421 55.0825 35.3953 53.9555 35.3953ZM54.3564 40.3729C54.3564 40.6011 54.1766 40.7869 53.9554 40.7869C53.0781 40.7869 52.3006 41.3623 52.0206 42.2185C51.8798 42.649 51.7094 43.0734 51.5143 43.4802C51.1249 44.2915 51.2802 45.2671 51.9011 45.9083C52.0576 46.0697 52.0576 46.3324 51.9011 46.4938L49.9383 48.5209C49.7829 48.6814 49.5309 48.6824 49.3743 48.5241C49.3732 48.5228 49.372 48.5217 49.371 48.5206C48.7504 47.8798 47.8057 47.7193 47.0201 48.1213C46.6261 48.3229 46.2151 48.4988 45.7984 48.6443C44.9691 48.9334 44.412 49.7363 44.412 50.6423C44.412 50.8706 44.2322 51.0564 44.0111 51.0564H41.235C41.0139 51.0564 40.834 50.8706 40.834 50.6423C40.834 49.7363 40.2768 48.9333 39.4477 48.6443C39.031 48.4989 38.6199 48.3229 38.2259 48.1213C37.9374 47.9737 37.6275 47.902 37.32 47.902C36.7931 47.902 36.2734 48.1128 35.8815 48.514C35.8791 48.5164 35.8769 48.5187 35.8746 48.521C35.7184 48.6825 35.4639 48.6825 35.3076 48.521L33.3447 46.4938C33.1883 46.3324 33.1883 46.0697 33.345 45.908C33.9655 45.2672 34.1208 44.2916 33.7317 43.4803C33.5364 43.0734 33.366 42.649 33.2253 42.2187C32.9453 41.3623 32.1677 40.7869 31.2904 40.7869C31.0693 40.7869 30.8894 40.6011 30.8894 40.3729V37.506C30.8894 37.2778 31.0693 37.0921 31.2904 37.0921C32.1677 37.0921 32.9453 36.5167 33.2253 35.6605C33.366 35.23 33.5364 34.8056 33.7317 34.3987C34.1208 33.5874 33.9655 32.6118 33.3447 31.9707C33.1883 31.8093 33.1883 31.5466 33.3447 31.3852L35.3075 29.3581C35.4641 29.1967 35.7184 29.1969 35.8746 29.3581C35.8767 29.3602 35.8788 29.3624 35.881 29.3645C36.5016 30.0002 37.4428 30.1584 38.226 29.7576C38.62 29.556 39.031 29.3801 39.4476 29.2348C40.2769 28.9456 40.834 28.1427 40.834 27.2366C40.834 27.0083 41.0139 26.8225 41.235 26.8225H44.0111C44.2322 26.8225 44.412 27.0083 44.412 27.2366C44.412 28.1425 44.9692 28.9455 45.7984 29.2348C46.215 29.38 46.6261 29.556 47.0201 29.7576C47.8058 30.1597 48.7504 29.9991 49.3709 29.3584C49.3721 29.3573 49.3732 29.3561 49.3743 29.3549C49.5309 29.1966 49.783 29.1977 49.9382 29.358L51.9011 31.3852C52.0576 31.5466 52.0576 31.8093 51.9008 31.971C51.2802 32.6119 51.1249 33.5875 51.5142 34.3987C51.7094 34.8056 51.8798 35.23 52.0206 35.6603C52.3006 36.5167 53.0781 37.0921 53.9554 37.0921C54.1766 37.0921 54.3564 37.2778 54.3564 37.506V40.3729Z" fill="#9AA8FF"/>
<path d="M42.6236 32.5163C39.1939 32.5163 36.4036 35.3977 36.4036 38.9394C36.4036 42.4811 39.1939 45.3625 42.6236 45.3625C46.0534 45.3625 48.8436 42.4811 48.8436 38.9394C48.8436 35.3977 46.0534 32.5163 42.6236 32.5163ZM42.6236 43.6658C40.0999 43.6658 38.0468 41.5456 38.0468 38.9395C38.0468 36.3335 40.1 34.2132 42.6236 34.2132C45.1472 34.2132 47.2005 36.3335 47.2005 38.9395C47.2005 41.5456 45.1473 43.6658 42.6236 43.6658Z" fill="#9AA8FF"/>
<path d="M31.1518 50.4987L25.3817 53.9389C25.221 54.0347 25.0526 54.1109 24.8796 54.1691V28.4897L46.415 15.6502C46.4528 15.834 46.4731 16.0227 46.4731 16.2143V24.861C46.4731 25.3295 46.8409 25.7093 47.2946 25.7093C47.7484 25.7093 48.1161 25.3295 48.1161 24.861V16.2143C48.1161 14.6437 47.2918 13.1649 45.9709 12.3774L26.2032 0.591692C24.8802 -0.197134 23.2362 -0.197247 21.913 0.591692L2.14517 12.3774C0.837484 13.157 0 14.6278 0 16.2143V39.7858C0 41.3635 0.821953 42.8338 2.14517 43.6226L21.913 55.4083C23.2361 56.1972 24.88 56.1974 26.2032 55.4083L31.9733 51.9682C32.3661 51.7339 32.5009 51.215 32.2739 50.8092C32.0472 50.4035 31.5445 50.2644 31.1518 50.4987ZM23.2365 54.169C23.0636 54.1109 22.8951 54.0347 22.7345 53.9389L2.96669 42.1531C2.15031 41.6663 1.64314 40.7592 1.64314 39.7858V16.2143C1.64314 16.0227 1.66348 15.834 1.70122 15.6502L23.2365 28.4897V54.169ZM2.52273 14.1808C2.65792 14.0552 2.80602 13.9426 2.96669 13.8468L22.7345 2.06114C23.5511 1.57445 24.5654 1.57445 25.3817 2.06114L45.1495 13.8469C45.3101 13.9427 45.4583 14.0553 45.5935 14.1809L24.058 27.0204L2.52273 14.1808Z" fill="#9AA8FF"/>
</svg>
