<svg width="56" height="56" viewBox="0 0 56 56" fill="none" xmlns="http://www.w3.org/2000/svg">
<path d="M23.2945 10.121C23.4933 10.3163 23.7539 10.414 24.0143 10.414C24.2747 10.414 24.5354 10.3163 24.7342 10.121L25.4541 9.41401L26.1739 10.121C26.3727 10.3163 26.6334 10.414 26.8938 10.414C27.1542 10.414 27.4148 10.3163 27.6136 10.121C28.0112 9.73051 28.0112 9.09751 27.6136 8.70701L26.8938 8L27.6136 7.293C28.0112 6.9025 28.0112 6.2695 27.6136 5.879C27.216 5.4885 26.5715 5.4885 26.1739 5.879L25.4541 6.586L24.7342 5.879C24.3366 5.4885 23.6921 5.4885 23.2945 5.879C22.8969 6.2695 22.8969 6.9025 23.2945 7.293L24.0143 8L23.2945 8.70701C22.8966 9.09776 22.8966 9.73051 23.2945 10.121Z" fill="#9AA8FF"/>
<path d="M36.6552 13.0001C37.2175 13.0001 37.6734 12.5524 37.6734 12.0001C37.6734 11.4478 37.2175 11.0001 36.6552 11.0001C36.0928 11.0001 35.637 11.4478 35.637 12.0001C35.637 12.5524 36.0928 13.0001 36.6552 13.0001Z" fill="#9AA8FF"/>
<path d="M33.6007 2C34.163 2 34.6189 1.55228 34.6189 0.999998C34.6189 0.447714 34.163 0 33.6007 0C33.0383 0 32.5825 0.447714 32.5825 0.999998C32.5825 1.55228 33.0383 2 33.6007 2Z" fill="#9AA8FF"/>
<path d="M50.9085 16.0001H21.802L19.8212 11.9638C19.7944 11.9091 19.7626 11.8573 19.7267 11.8086C18.8547 10.6366 17.4427 9.93759 15.9482 9.93759H4.60418C2.06458 9.93759 -0.000549316 11.9308 -0.000549316 14.3808V48.3446C-0.000549316 50.7068 1.83854 52.6416 4.20301 52.9393C4.6416 54.7056 6.26229 56.0001 8.14491 56.0001H48.8722C50.879 56.0001 52.5407 54.5651 52.8741 52.6868C54.6952 52.0206 55.9995 50.3331 55.9995 48.3448V21.0001C55.9995 18.2433 53.7154 16.0001 50.9085 16.0001ZM53.9631 48.3448C53.9631 49.8086 52.7122 51.0001 51.175 51.0001H15.4661C14.9033 51.0001 14.448 51.4473 14.448 52.0001C14.448 52.5528 14.9033 53.0001 15.4661 53.0001H50.6252C50.2719 53.5948 49.6223 54.0001 48.8722 54.0001H8.14491C7.40418 54.0001 6.74236 53.5996 6.38599 53.0001H10.2072C10.77 53.0001 11.2254 52.5528 11.2254 52.0001C11.2254 51.4473 10.77 51.0001 10.2072 51.0001H4.82385C3.28665 51.0001 2.03581 49.8086 2.03581 48.3448V14.3808C2.03581 13.0331 3.18814 11.9376 4.60418 11.9376H15.9482C16.7656 11.9376 17.5381 12.3038 18.0315 12.9221L19.5419 16.0001H14.254C13.6912 16.0001 13.2358 16.4473 13.2358 17.0001C13.2358 17.5528 13.6912 18.0001 14.254 18.0001H50.9085C52.5929 18.0001 53.9631 19.3458 53.9631 21.0001V48.3448Z" fill="#9AA8FF"/>
<path d="M27.7671 33.012L33.8275 30.6925C34.2412 30.5342 34.5026 30.131 34.4738 29.6955C34.4451 29.26 34.1317 28.8937 33.7003 28.7892L19.7789 25.4347C19.4221 25.3527 19.0471 25.4592 18.7956 25.721C18.5441 25.9827 18.4556 26.3577 18.564 26.7015L22.6785 39.7727C22.8088 40.1887 23.1985 40.474 23.6419 40.4777H23.6508C24.0904 40.4777 24.4812 40.2005 24.6184 39.7902L26.3913 34.4882L35.1145 42.9807C35.3133 43.174 35.5719 43.2707 35.8313 43.2707C36.0938 43.2707 36.3554 43.172 36.5542 42.9747C36.9501 42.5822 36.948 41.9492 36.5484 41.5607L27.7671 33.012ZM23.6804 36.1845L21.0394 27.7977L30.0857 29.9775L25.5676 31.707C25.5653 31.708 25.5637 31.7102 25.5614 31.7112C25.4352 31.7605 25.3163 31.8335 25.2148 31.9347C25.2117 31.9377 25.2107 31.942 25.2079 31.945C25.1814 31.9717 25.1694 32.008 25.146 32.0375C25.0809 32.1207 25.0208 32.2052 24.9862 32.3005C24.9824 32.3102 24.9734 32.3167 24.9704 32.3265L23.6804 36.1845Z" fill="#9AA8FF"/>
</svg>
