<svg viewBox="0 0 24 25" fill="none" xmlns="http://www.w3.org/2000/svg">
<path fill-rule="evenodd" clip-rule="evenodd" d="M4 12.5163C4 8.08547 7.59188 4.49359 12.0227 4.49359C16.4535 4.49359 20.0454 8.08547 20.0454 12.5163C20.0454 16.9471 16.4535 20.539 12.0227 20.539C7.59188 20.539 4 16.9471 4 12.5163ZM12.0227 5.99359C8.42031 5.99359 5.5 8.9139 5.5 12.5163C5.5 16.1186 8.42031 19.039 12.0227 19.039C15.625 19.039 18.5454 16.1186 18.5454 12.5163C18.5454 8.9139 15.6251 5.99359 12.0227 5.99359ZM10.9514 9.47485C10.7475 9.64784 10.5911 9.91451 10.5911 10.3349C10.5911 10.7491 10.2553 11.0849 9.84112 11.0849C9.4269 11.0849 9.09112 10.7491 9.09112 10.3349C9.09112 9.48247 9.43475 8.79452 9.98093 8.33109C10.5108 7.88149 11.1906 7.67565 11.8413 7.67566C12.492 7.67566 13.1717 7.8815 13.7016 8.33109C14.2478 8.79452 14.5914 9.48248 14.5914 10.3349C14.5914 10.9304 14.4379 11.3947 14.1814 11.7794C13.97 12.0964 13.6955 12.341 13.497 12.518L13.434 12.5743C13.212 12.7741 13.0657 12.921 12.9599 13.1079C12.8615 13.2818 12.7731 13.5377 12.7731 13.9715C12.7731 14.3857 12.4373 14.7215 12.0231 14.7215C11.6089 14.7215 11.2731 14.3857 11.2731 13.9715C11.2731 13.3143 11.412 12.7974 11.6545 12.369C11.8897 11.9536 12.1979 11.6687 12.4306 11.4593L12.4747 11.4196L12.4748 11.4196L12.4748 11.4196C12.7019 11.2154 12.8334 11.0972 12.9333 10.9474C13.0177 10.8207 13.0914 10.6486 13.0914 10.3349C13.0914 9.91452 12.935 9.64784 12.7312 9.47485C12.511 9.28803 12.1907 9.17566 11.8413 9.17566C11.4919 9.17566 11.1716 9.28803 10.9514 9.47485ZM12.5872 17.3813C12.8645 17.0736 12.8397 16.5994 12.532 16.3221C12.2242 16.0449 11.75 16.0696 11.4728 16.3774L11.4653 16.3856C11.1881 16.6934 11.2128 17.1676 11.5206 17.4449C11.8283 17.7221 12.3025 17.6974 12.5798 17.3896L12.5872 17.3813Z" fill="#82848E"/>
</svg>
