<svg width="21" height="20" viewBox="0 0 21 20" fill="none" xmlns="http://www.w3.org/2000/svg">
<path fill-rule="evenodd" clip-rule="evenodd" d="M11.5024 -0.125C16.3541 -0.125 20.2872 3.80807 20.2872 8.65975C20.2872 13.5114 16.3541 17.4445 11.5024 17.4445C9.34696 17.4445 7.37178 16.6674 5.84362 15.3794L1.31982 19.9032C1.02693 20.1961 0.552053 20.1961 0.25916 19.9032C-0.0337338 19.6103 -0.0337333 19.1354 0.25916 18.8425L4.78294 14.3187C3.49477 12.7905 2.71768 10.8153 2.71768 8.65975C2.71768 3.80807 6.65076 -0.125 11.5024 -0.125ZM18.7872 8.65975C18.7872 4.63649 15.5257 1.375 11.5024 1.375C7.47918 1.375 4.21768 4.63649 4.21768 8.65975C4.21768 10.6682 5.02936 12.4855 6.34444 13.804L6.34446 13.804C7.66406 15.1271 9.48714 15.9445 11.5024 15.9445C15.5257 15.9445 18.7872 12.683 18.7872 8.65975Z" fill="#B2BAC4"/>
</svg>
