<svg width="20" height="20" viewBox="0 0 20 20" fill="none" xmlns="http://www.w3.org/2000/svg">
<g clip-path="url(#clip0_3393_68845)">
<path fill-rule="evenodd" clip-rule="evenodd" d="M11.3379 -0.125C16.1896 -0.125 20.1226 3.80807 20.1226 8.65975C20.1226 13.5114 16.1896 17.4445 11.3379 17.4445C9.18241 17.4445 7.20723 16.6674 5.67907 15.3794L1.15527 19.9032C0.862376 20.1961 0.387502 20.1961 0.0946088 19.9032C-0.198285 19.6103 -0.198284 19.1354 0.0946088 18.8425L4.61839 14.3187C3.33022 12.7905 2.55313 10.8153 2.55313 8.65975C2.55313 3.80807 6.48621 -0.125 11.3379 -0.125ZM18.6226 8.65975C18.6226 4.63649 15.3611 1.375 11.3379 1.375C7.31463 1.375 4.05313 4.63649 4.05313 8.65975C4.05313 10.6682 4.86481 12.4855 6.17989 13.804L6.17991 13.804C7.49951 15.1271 9.32259 15.9445 11.3379 15.9445C15.3611 15.9445 18.6226 12.683 18.6226 8.65975Z" fill="#494B50"/>
</g>
<defs>
<clipPath id="clip0_3393_68845">
<rect width="20" height="20" fill="white"/>
</clipPath>
</defs>
</svg>
