<svg width="24" height="26" viewBox="0 0 24 26" fill="none" xmlns="http://www.w3.org/2000/svg">
<path d="M19.3332 25.0007C21.3582 25.0007 22.9998 23.389 22.9998 21.4008C22.9998 19.4125 21.3582 17.8008 19.3332 17.8008C17.3081 17.8008 15.6665 19.4125 15.6665 21.4008C15.6665 23.389 17.3081 25.0007 19.3332 25.0007Z" stroke="#5B48D1" stroke-width="1.5" stroke-linecap="round" stroke-linejoin="round"/>
<path d="M19.3332 8.19997C21.3582 8.19997 22.9998 6.58819 22.9998 4.59998C22.9998 2.61177 21.3582 1 19.3332 1C17.3081 1 15.6665 2.61177 15.6665 4.59998C15.6665 6.58819 17.3081 8.19997 19.3332 8.19997Z" stroke="#5B48D1" stroke-width="1.5" stroke-linecap="round" stroke-linejoin="round"/>
<path d="M4.66665 16.5984C6.69168 16.5984 8.3333 14.9867 8.3333 12.9984C8.3333 11.0101 6.69168 9.39844 4.66665 9.39844C2.64162 9.39844 1 11.0101 1 12.9984C1 14.9867 2.64162 16.5984 4.66665 16.5984Z" stroke="#5B48D1" stroke-width="1.5" stroke-linecap="round" stroke-linejoin="round"/>
<path d="M16.2777 6.39844L7.72217 11.1984" stroke="#5B48D1" stroke-width="1.5"/>
<path d="M7.72217 14.8008L16.2777 19.6008" stroke="#5B48D1" stroke-width="1.5"/>
</svg>
