<svg width="24" height="26" viewBox="0 0 24 26" fill="none" xmlns="http://www.w3.org/2000/svg">
<path d="M19.3336 25.0007C21.3587 25.0007 23.0003 23.389 23.0003 21.4008C23.0003 19.4125 21.3587 17.8008 19.3336 17.8008C17.3086 17.8008 15.667 19.4125 15.667 21.4008C15.667 23.389 17.3086 25.0007 19.3336 25.0007Z" stroke="#9AA8FF" stroke-width="1.5" stroke-linecap="round" stroke-linejoin="round"/>
<path d="M19.3336 8.19997C21.3587 8.19997 23.0003 6.58819 23.0003 4.59998C23.0003 2.61177 21.3587 1 19.3336 1C17.3086 1 15.667 2.61177 15.667 4.59998C15.667 6.58819 17.3086 8.19997 19.3336 8.19997Z" stroke="#9AA8FF" stroke-width="1.5" stroke-linecap="round" stroke-linejoin="round"/>
<path d="M4.66665 16.5984C6.69168 16.5984 8.3333 14.9867 8.3333 12.9984C8.3333 11.0101 6.69168 9.39844 4.66665 9.39844C2.64162 9.39844 1 11.0101 1 12.9984C1 14.9867 2.64162 16.5984 4.66665 16.5984Z" stroke="#9AA8FF" stroke-width="1.5" stroke-linecap="round" stroke-linejoin="round"/>
<path d="M16.2777 6.39844L7.72217 11.1984" stroke="#9AA8FF" stroke-width="1.5"/>
<path d="M7.72217 14.8008L16.2777 19.6008" stroke="#9AA8FF" stroke-width="1.5"/>
</svg>
