<svg width="16" height="16" viewBox="0 0 16 16" fill="none" xmlns="http://www.w3.org/2000/svg">
<path d="M0.510638 0C0.228621 0 0 0.252108 0 0.563098C0 0.874089 0.228621 1.1262 0.510638 1.1262H15.4894C15.7714 1.1262 16 0.874089 16 0.563098C16 0.252108 15.7714 0 15.4894 0H0.510638Z" fill="#5B48D1"/>
<path d="M0.510638 3.00319C0.228621 3.00319 0 3.2553 0 3.56629C0 3.87728 0.228621 4.12939 0.510638 4.12939H12.766C13.048 4.12939 13.2766 3.87728 13.2766 3.56629C13.2766 3.2553 13.048 3.00319 12.766 3.00319H0.510638Z" fill="#5B48D1"/>
<path d="M0 6.56948C0 6.25849 0.228621 6.00638 0.510638 6.00638H9.3617C9.64372 6.00638 9.87234 6.25849 9.87234 6.56948C9.87234 6.88047 9.64372 7.13258 9.3617 7.13258H0.510638C0.228621 7.13258 0 6.88047 0 6.56948Z" fill="#5B48D1"/>
<path d="M0.510638 9.00957C0.228621 9.00957 0 9.26168 0 9.57267C0 9.88366 0.228621 10.1358 0.510638 10.1358H5.95745C6.23946 10.1358 6.46809 9.88366 6.46809 9.57267C6.46809 9.26168 6.23946 9.00957 5.95745 9.00957H0.510638Z" fill="#5B48D1"/>
<path d="M12.766 6.00638C13.048 6.00638 13.2766 6.25849 13.2766 6.56948V13.8442L15.1283 11.8023C15.3277 11.5824 15.651 11.5824 15.8504 11.8023C16.0499 12.0222 16.0499 12.3787 15.8504 12.5986L12.766 16L9.68148 12.5986C9.48206 12.3787 9.48206 12.0222 9.68148 11.8023C9.88089 11.5824 10.2042 11.5824 10.4036 11.8023L12.2553 13.8442V6.56948C12.2553 6.25849 12.4839 6.00638 12.766 6.00638Z" fill="#5B48D1"/>
</svg>
