<svg width="25" height="24" viewBox="0 0 25 24" fill="none" xmlns="http://www.w3.org/2000/svg">
<path fill-rule="evenodd" clip-rule="evenodd" d="M12.0013 1.5C6.20235 1.5 1.50134 6.20101 1.50134 12C1.50134 14.4999 2.37503 16.7958 3.83372 18.599C5.17275 17.5925 7.7867 16.2001 12.0011 16.2001C16.2158 16.2001 18.8298 17.5926 20.1688 18.5992C21.6276 16.796 22.5013 14.5 22.5013 12C22.5013 6.20101 17.8003 1.5 12.0013 1.5ZM0.00134277 12C0.00134277 14.8909 1.02364 17.5431 2.72645 19.6147L2.72632 19.6149H2.72659C4.92741 22.2923 8.26496 24 12.0013 24C18.6287 24 24.0013 18.6274 24.0013 12C24.0013 5.37258 18.6287 0 12.0013 0C5.37392 0 0.00134277 5.37258 0.00134277 12ZM4.98897 19.6149H4.77201C6.65474 21.4029 9.19992 22.5 12.0013 22.5C14.8027 22.5 17.3479 21.4029 19.2307 19.6149H19.0133C18.8246 19.4843 18.6102 19.3475 18.3693 19.2098C17.0921 18.4799 15.0287 17.7001 12.0011 17.7001C8.97358 17.7001 6.91015 18.4799 5.63305 19.2098C5.39207 19.3475 5.17769 19.4843 4.98897 19.6149ZM14.1019 8.40006C14.1019 9.55992 13.1617 10.5001 12.0019 10.5001C10.842 10.5001 9.90186 9.55992 9.90186 8.40006C9.90186 7.24025 10.842 6.30006 12.0019 6.30006C13.1617 6.30006 14.1019 7.24025 14.1019 8.40006ZM12.0019 12.0001C13.9901 12.0001 15.6019 10.3883 15.6019 8.40006C15.6019 6.41184 13.9901 4.80006 12.0019 4.80006C10.0136 4.80006 8.40186 6.41184 8.40186 8.40006C8.40186 10.3883 10.0136 12.0001 12.0019 12.0001Z" fill="#5B48D1"/>
</svg>
