<svg width="24" height="24" viewBox="0 0 24 24" fill="none" xmlns="http://www.w3.org/2000/svg">
<path d="M19.0553 17.8492V10.191C19.0553 6.33166 15.8593 3.13568 12 3.13568C8.14073 3.13568 4.94475 6.33166 4.94475 10.191V17.8492C4.94475 18.2111 4.64324 18.4523 4.34173 18.4523H3.0151C2.59299 18.4523 2.29148 18.7538 2.29148 19.1759C2.29148 19.5377 2.59299 19.8392 3.0151 19.8392H20.9849C21.4071 19.8392 21.7086 19.5377 21.7086 19.1759C21.7086 18.7538 21.4071 18.4523 20.9849 18.4523H19.6583C19.3568 18.4523 19.0553 18.2111 19.0553 17.8492ZM9.22615 2.41206C9.40706 1.08543 10.6131 0 12 0C13.387 0 14.593 1.08543 14.7739 2.41206C17.9699 3.55779 20.2613 6.63317 20.2613 10.191V17.2462H20.9849C22.0704 17.2462 22.9146 18.0905 22.9146 19.1759C22.9146 20.201 22.0704 21.0452 20.9849 21.0452H15.6181C15.2563 22.7337 13.7488 24 12 24C10.2513 24 8.74374 22.7337 8.38193 21.0452H3.0151C1.92967 21.0452 1.08545 20.201 1.08545 19.1759C1.08545 18.0905 1.92967 17.2462 3.0151 17.2462H3.73872V10.191C3.73872 6.63317 6.03017 3.55779 9.22615 2.41206ZM13.387 2.05025C13.1458 1.56784 12.603 1.20603 12 1.20603C11.397 1.20603 10.8543 1.56784 10.6131 2.05025C11.0352 1.98995 11.5176 1.92965 12 1.92965C12.4824 1.92965 12.9648 1.98995 13.387 2.05025ZM9.64826 21.0452C9.94977 22.0704 10.9146 22.794 12 22.794C13.0854 22.794 14.0503 22.0704 14.3518 21.0452H9.64826Z" fill="currentColor"/>
</svg>
