<svg width="143" height="65" viewBox="0 0 143 65" fill="none" xmlns="http://www.w3.org/2000/svg">
<path d="M70.8279 0.649456V64.3504H1.08696V0.649456H70.8279ZM71.4773 0H0.4375V64.9999H71.4773V0.00540917V0Z" fill="#82848E"/>
<path d="M33.3108 11.934V11.8744L33.5219 11.1438C33.5219 11.0734 33.576 11.041 33.6355 11.041H33.7059L35.4378 11.6309V9.85029C35.4352 9.83097 35.4371 9.81133 35.4432 9.79283C35.4493 9.77433 35.4595 9.75744 35.473 9.7434C35.4865 9.72937 35.503 9.71856 35.5213 9.71177C35.5395 9.70497 35.5591 9.70237 35.5785 9.70416H36.2983C36.3903 9.70416 36.4336 9.75287 36.4336 9.85029V11.6417L38.1655 11.0518H38.2358C38.2645 11.0526 38.292 11.0633 38.3137 11.082C38.3354 11.1007 38.3499 11.1264 38.3549 11.1546L38.566 11.8853C38.566 11.9177 38.566 11.934 38.566 11.9448C38.5655 11.9746 38.5559 12.0035 38.5385 12.0277C38.521 12.0519 38.4967 12.0702 38.4686 12.0801L36.7367 12.6213L37.8191 14.0934C37.841 14.122 37.8559 14.1554 37.8624 14.1908C37.8606 14.2113 37.8543 14.2311 37.844 14.2488C37.8337 14.2666 37.8197 14.2819 37.8029 14.2937L37.2183 14.7212C37.1825 14.7438 37.1416 14.7568 37.0993 14.7591C37.0787 14.7581 37.0587 14.7516 37.0416 14.7401C37.0244 14.7287 37.0107 14.7128 37.0019 14.6942L35.9194 13.2221L34.837 14.6942C34.8282 14.7128 34.8145 14.7287 34.7973 14.7401C34.7801 14.7516 34.7602 14.7581 34.7396 14.7591C34.6976 14.7554 34.6569 14.7424 34.6205 14.7212L34.036 14.2937C34.0193 14.2822 34.0056 14.2669 33.9962 14.2489C33.9868 14.231 33.9819 14.2111 33.9819 14.1908C33.9861 14.1547 34.0012 14.1207 34.0252 14.0934L35.1076 12.6213L33.3757 12.0801C33.3519 12.0647 33.333 12.0426 33.3215 12.0167C33.31 11.9907 33.3062 11.962 33.3108 11.934V11.934Z" fill="#82848E"/>
<path d="M43.123 14.472V14.4125L43.3341 13.6818C43.338 13.6531 43.3523 13.6269 43.3742 13.608C43.3962 13.589 43.4242 13.5787 43.4532 13.579H43.5235L45.2608 14.1798V12.3937C45.2583 12.3744 45.2602 12.3548 45.2663 12.3363C45.2724 12.3178 45.2826 12.3009 45.2961 12.2869C45.3096 12.2728 45.3261 12.262 45.3443 12.2552C45.3626 12.2484 45.3821 12.2458 45.4015 12.2476H46.1268C46.1462 12.2458 46.1657 12.2484 46.184 12.2552C46.2022 12.262 46.2187 12.2728 46.2322 12.2869C46.2458 12.3009 46.2559 12.3178 46.262 12.3363C46.2681 12.3548 46.27 12.3744 46.2675 12.3937V14.1798L47.9994 13.5898H48.0643C48.1239 13.5898 48.1617 13.6277 48.1834 13.6927L48.3945 14.4233C48.3969 14.4431 48.3969 14.4631 48.3945 14.4828C48.394 14.5126 48.3844 14.5416 48.3669 14.5657C48.3495 14.5899 48.3251 14.6082 48.297 14.6181L46.5652 15.1594L47.6476 16.6315C47.6716 16.6588 47.6867 16.6928 47.6909 16.7289C47.6905 16.749 47.6854 16.7688 47.676 16.7867C47.6666 16.8045 47.6531 16.8199 47.6368 16.8317L47.0523 17.2593C47.0166 17.2831 46.9758 17.298 46.9332 17.3026C46.9123 17.3 46.8925 17.2922 46.8754 17.2799C46.8584 17.2676 46.8447 17.2512 46.8358 17.2322L45.7533 15.7601L44.6709 17.2322C44.6619 17.2512 44.6483 17.2676 44.6312 17.2799C44.6142 17.2922 44.5943 17.3 44.5735 17.3026C44.5311 17.297 44.4905 17.2822 44.4544 17.2593L43.8699 16.8317C43.8522 16.8209 43.8375 16.8058 43.8271 16.7879C43.8167 16.7699 43.8109 16.7496 43.8104 16.7289C43.8169 16.6934 43.8317 16.66 43.8537 16.6315L44.9361 15.1594L43.2096 14.6181C43.1818 14.6058 43.1584 14.5851 43.1429 14.5589C43.1274 14.5327 43.1204 14.5024 43.123 14.472V14.472Z" fill="#82848E"/>
<path d="M50.4133 21.7949V21.7354L50.6243 21.0047C50.6283 20.976 50.6425 20.9498 50.6645 20.9308C50.6864 20.9119 50.7144 20.9016 50.7434 20.9019H50.8138L52.5402 21.4918V19.7004C52.5377 19.6811 52.5396 19.6614 52.5457 19.6429C52.5518 19.6244 52.562 19.6075 52.5755 19.5935C52.589 19.5795 52.6055 19.5687 52.6237 19.5619C52.642 19.5551 52.6615 19.5525 52.6809 19.5543H53.4008C53.4202 19.5525 53.4397 19.5551 53.458 19.5619C53.4762 19.5687 53.4927 19.5795 53.5062 19.5935C53.5197 19.6075 53.5299 19.6244 53.536 19.6429C53.5421 19.6614 53.544 19.6811 53.5415 19.7004V21.4918L55.268 20.9019H55.3383C55.3667 20.9036 55.3937 20.9146 55.4152 20.9332C55.4367 20.9518 55.4515 20.9769 55.4574 21.0047L55.6685 21.7354C55.6685 21.7678 55.6685 21.7841 55.6685 21.7949C55.6679 21.8247 55.6583 21.8536 55.6409 21.8778C55.6235 21.902 55.5991 21.9203 55.571 21.9302L53.8446 22.4714L54.927 23.9435C54.9471 23.9732 54.9617 24.0062 54.9703 24.0409C54.9685 24.0608 54.9628 24.0801 54.9535 24.0977C54.9442 24.1154 54.9315 24.131 54.9162 24.1438L54.3262 24.5713C54.2909 24.5958 54.2499 24.6107 54.2072 24.6146C54.1863 24.6121 54.1664 24.6043 54.1494 24.592C54.1324 24.5797 54.1187 24.5633 54.1098 24.5443L53.0273 23.0722L51.9449 24.5443C51.9359 24.5633 51.9223 24.5797 51.9052 24.592C51.8882 24.6043 51.8683 24.6121 51.8475 24.6146C51.8068 24.6088 51.768 24.594 51.7338 24.5713L51.1439 24.1438C51.1268 24.1327 51.1129 24.1174 51.1034 24.0994C51.094 24.0814 51.0893 24.0613 51.0898 24.0409C51.0983 24.0062 51.113 23.9732 51.1331 23.9435L52.2155 22.4714L50.4836 21.9302C50.4606 21.9163 50.4418 21.8963 50.4294 21.8724C50.417 21.8486 50.4114 21.8217 50.4133 21.7949Z" fill="#82848E"/>
<path d="M53.1625 31.645V31.5855L53.3736 30.8548C53.3775 30.8261 53.3918 30.7999 53.4137 30.7809C53.4356 30.762 53.4637 30.7517 53.4927 30.752H53.563L55.2895 31.3419V29.5505C55.287 29.5312 55.2888 29.5115 55.2949 29.493C55.301 29.4745 55.3112 29.4576 55.3247 29.4436C55.3383 29.4296 55.3547 29.4188 55.373 29.412C55.3913 29.4052 55.4108 29.4026 55.4302 29.4044H56.15C56.1694 29.4026 56.189 29.4052 56.2072 29.412C56.2255 29.4188 56.242 29.4296 56.2555 29.4436C56.269 29.4576 56.2792 29.4745 56.2853 29.493C56.2914 29.5115 56.2933 29.5312 56.2907 29.5505V31.3419L58.0226 30.752H58.0876C58.1471 30.752 58.185 30.7899 58.2066 30.8548L58.4177 31.5855C58.4202 31.6052 58.4202 31.6252 58.4177 31.645C58.4172 31.6748 58.4076 31.7037 58.3902 31.7279C58.3728 31.7521 58.3484 31.7704 58.3203 31.7803L56.5884 32.3215L57.6708 33.7936C57.6934 33.8218 57.7083 33.8554 57.7141 33.891C57.7137 33.9112 57.7086 33.931 57.6992 33.9488C57.6898 33.9667 57.6764 33.9821 57.66 33.9939L57.0701 34.4214C57.0367 34.4457 56.9975 34.4606 56.9564 34.4647C56.9356 34.4622 56.9157 34.4544 56.8987 34.4421C56.8816 34.4298 56.868 34.4134 56.859 34.3944L55.7766 32.9223L54.6942 34.3944C54.6852 34.4134 54.6715 34.4298 54.6545 34.4421C54.6375 34.4544 54.6176 34.4622 54.5967 34.4647C54.5544 34.4592 54.5137 34.4444 54.4777 34.4214L53.8932 33.9939C53.8755 33.983 53.8607 33.968 53.8503 33.95C53.8399 33.932 53.8342 33.9118 53.8336 33.891C53.8422 33.8562 53.8569 33.8233 53.8769 33.7936L54.9594 32.3215L53.2329 31.7803C53.2098 31.7664 53.1911 31.7464 53.1787 31.7225C53.1662 31.6987 53.1607 31.6718 53.1625 31.645Z" fill="#82848E"/>
<path d="M50.4132 41.7115V41.652L50.6243 40.9214C50.6271 40.8922 50.641 40.8652 50.6632 40.846C50.6853 40.8269 50.7141 40.817 50.7434 40.8185H50.8137L52.5402 41.4085V39.617C52.5402 39.525 52.5889 39.4817 52.6809 39.4763H53.4007C53.4198 39.4736 53.4393 39.4754 53.4576 39.4815C53.4759 39.4876 53.4926 39.4979 53.5062 39.5116C53.5199 39.5252 53.5302 39.5418 53.5363 39.5601C53.5424 39.5785 53.5442 39.5979 53.5414 39.617V41.4139L55.2679 40.8185H55.3383C55.3669 40.8194 55.3944 40.83 55.4161 40.8488C55.4378 40.8675 55.4524 40.8931 55.4573 40.9214L55.6684 41.652C55.6696 41.6718 55.6696 41.6917 55.6684 41.7115C55.6684 41.7408 55.6589 41.7693 55.6414 41.7927C55.6238 41.8161 55.5991 41.8332 55.571 41.8414L53.8445 42.3826L54.927 43.8493C54.9482 43.8803 54.963 43.9153 54.9702 43.9522C54.9655 43.9919 54.9462 44.0286 54.9161 44.055L54.3262 44.4826C54.2907 44.5058 54.2495 44.5189 54.2071 44.5204C54.1859 44.519 54.1656 44.5116 54.1484 44.4992C54.1312 44.4868 54.1178 44.4697 54.1097 44.4501L53.0273 42.978L51.9449 44.4501C51.9368 44.4697 51.9234 44.4868 51.9062 44.4992C51.889 44.5116 51.8686 44.519 51.8474 44.5204C51.807 44.5173 51.768 44.5043 51.7338 44.4826L51.1439 44.055C51.1272 44.0436 51.1135 44.0282 51.1041 44.0103C51.0946 43.9924 51.0897 43.9724 51.0897 43.9522C51.097 43.9153 51.1118 43.8803 51.133 43.8493L52.2155 42.3826L50.4836 41.8414C50.4605 41.8289 50.4416 41.81 50.4291 41.7869C50.4166 41.7639 50.4111 41.7377 50.4132 41.7115V41.7115Z" fill="#82848E"/>
<path d="M43.123 48.9471V48.8876L43.3341 48.1569C43.338 48.1282 43.3523 48.102 43.3742 48.0831C43.3961 48.0641 43.4242 48.0538 43.4532 48.0541H43.5235L45.25 48.644V46.8688C45.2475 46.8495 45.2493 46.8299 45.2554 46.8114C45.2615 46.7929 45.2717 46.776 45.2852 46.762C45.2987 46.7479 45.3152 46.7371 45.3335 46.7303C45.3518 46.7235 45.3713 46.7209 45.3907 46.7227H46.1268C46.1462 46.7209 46.1657 46.7235 46.184 46.7303C46.2022 46.7371 46.2187 46.7479 46.2322 46.762C46.2457 46.776 46.2559 46.7929 46.262 46.8114C46.2681 46.8299 46.27 46.8495 46.2675 46.8688V48.6603L47.9994 48.0703H48.0643C48.1238 48.0703 48.1617 48.1028 48.1834 48.1732L48.3944 48.9038C48.3969 48.9236 48.3969 48.9436 48.3944 48.9633C48.3939 48.9931 48.3843 49.0221 48.3669 49.0462C48.3495 49.0704 48.3251 49.0887 48.297 49.0986L46.5651 49.6399L47.6476 51.112C47.6716 51.1393 47.6867 51.1733 47.6909 51.2094C47.6904 51.2295 47.6853 51.2493 47.6759 51.2672C47.6665 51.285 47.6531 51.3005 47.6367 51.3122L47.0522 51.7398C47.0166 51.7636 46.9758 51.7785 46.9332 51.7831C46.9123 51.7805 46.8924 51.7727 46.8754 51.7604C46.8584 51.7481 46.8447 51.7317 46.8357 51.7127L45.7533 50.2406L44.6709 51.7127C44.6619 51.7317 44.6483 51.7481 44.6312 51.7604C44.6142 51.7727 44.5943 51.7805 44.5735 51.7831C44.5311 51.7775 44.4905 51.7627 44.4544 51.7398L43.8699 51.3122C43.8522 51.3014 43.8375 51.2863 43.8271 51.2684C43.8167 51.2504 43.8109 51.2301 43.8104 51.2094C43.8169 51.1739 43.8317 51.1405 43.8537 51.112L44.9361 49.6399L43.2096 49.0986C43.1808 49.0861 43.1568 49.0645 43.1412 49.0372C43.1256 49.0099 43.1192 48.9783 43.123 48.9471V48.9471Z" fill="#82848E"/>
<path d="M33.2945 51.6484V51.5889L33.5056 50.8582C33.5056 50.7879 33.5597 50.7554 33.6193 50.7554H33.6896L35.4215 51.3453V49.5539C35.419 49.5346 35.4209 49.515 35.427 49.4965C35.4331 49.478 35.4432 49.4611 35.4568 49.447C35.4703 49.433 35.4868 49.4222 35.505 49.4154C35.5233 49.4086 35.5428 49.406 35.5622 49.4078H36.282C36.3741 49.4078 36.4173 49.4565 36.4173 49.5539V51.3453L38.1492 50.7554H38.2196C38.2482 50.7562 38.2757 50.7669 38.2974 50.7856C38.3191 50.8044 38.3337 50.83 38.3387 50.8582L38.5497 51.5889C38.551 51.6087 38.551 51.6286 38.5497 51.6484C38.5497 51.6777 38.5402 51.7062 38.5227 51.7296C38.5051 51.753 38.4804 51.7701 38.4523 51.7783L36.7204 52.3195L37.8029 53.7916C37.8229 53.8213 37.8376 53.8543 37.8462 53.889C37.8447 53.9103 37.8387 53.9311 37.8284 53.9498C37.8181 53.9685 37.8038 53.9847 37.7866 53.9973L37.2021 54.4194C37.1665 54.4433 37.1256 54.4581 37.083 54.4627C37.0618 54.4613 37.0415 54.4539 37.0243 54.4415C37.0071 54.429 36.9937 54.412 36.9856 54.3924L35.9032 52.9203L34.8208 54.3924C34.8127 54.412 34.7993 54.429 34.7821 54.4415C34.7649 54.4539 34.7445 54.4613 34.7233 54.4627C34.6812 54.4564 34.6407 54.4417 34.6043 54.4194L34.0198 53.9973C34.0023 53.9853 33.9881 53.9691 33.9787 53.9502C33.9692 53.9312 33.9647 53.9102 33.9656 53.889C33.9715 53.8534 33.9864 53.8198 34.0089 53.7916L35.0914 52.3195L33.3595 51.7783C33.3374 51.7651 33.3196 51.7458 33.3081 51.7228C33.2966 51.6998 33.2919 51.674 33.2945 51.6484Z" fill="#82848E"/>
<path d="M22.979 48.9471V48.8876L23.1846 48.1569C23.1846 48.092 23.2442 48.0541 23.3037 48.0541H23.3741L25.106 48.644V46.8688C25.1034 46.8495 25.1053 46.8299 25.1114 46.8114C25.1175 46.7929 25.1277 46.776 25.1412 46.762C25.1547 46.7479 25.1712 46.7371 25.1895 46.7303C25.2077 46.7235 25.2273 46.7209 25.2467 46.7227H25.9611C25.9805 46.7209 26 46.7235 26.0183 46.7303C26.0365 46.7371 26.053 46.7479 26.0666 46.762C26.0801 46.776 26.0902 46.7929 26.0963 46.8114C26.1024 46.8299 26.1043 46.8495 26.1018 46.8688V48.6603L27.8337 48.0703H27.904C27.9582 48.0703 27.996 48.1028 28.0231 48.1732L28.2288 48.9038C28.2312 48.9236 28.2312 48.9436 28.2288 48.9633C28.2283 48.9931 28.2187 49.0221 28.2012 49.0462C28.1838 49.0704 28.1594 49.0887 28.1313 49.0986L26.3995 49.6399L27.4819 51.112C27.5027 51.1406 27.5157 51.1742 27.5198 51.2094C27.5194 51.2295 27.5142 51.2493 27.5048 51.2672C27.4955 51.285 27.482 51.3005 27.4656 51.3122L26.8811 51.7398C26.8455 51.7636 26.8047 51.7785 26.7621 51.7831C26.7412 51.7805 26.7213 51.7727 26.7043 51.7604C26.6873 51.7481 26.6736 51.7317 26.6647 51.7127L25.5822 50.2406L24.4998 51.7127C24.4908 51.7317 24.4772 51.7481 24.4601 51.7604C24.4431 51.7727 24.4232 51.7805 24.4024 51.7831C24.3602 51.7767 24.3197 51.762 24.2833 51.7398L23.6988 51.3122C23.6811 51.3014 23.6664 51.2863 23.656 51.2684C23.6456 51.2504 23.6398 51.2301 23.6393 51.2094C23.6458 51.1739 23.6606 51.1405 23.6826 51.112L24.765 49.6399L23.0331 49.0986C23.0102 49.0815 22.9929 49.0579 22.9833 49.031C22.9737 49.0041 22.9722 48.9749 22.979 48.9471V48.9471Z" fill="#82848E"/>
<path d="M15.7862 41.7115V41.652L15.9919 40.9214C15.9919 40.851 16.0514 40.8185 16.111 40.8185H16.1813L17.9132 41.4085V39.617C17.9132 39.525 17.9565 39.4817 18.0539 39.4763H18.7683C18.7874 39.4736 18.8069 39.4754 18.8252 39.4815C18.8435 39.4876 18.8602 39.4979 18.8738 39.5116C18.8875 39.5252 18.8977 39.5418 18.9039 39.5601C18.91 39.5785 18.9117 39.5979 18.909 39.617V41.4139L20.6409 40.8185H20.7113C20.7654 40.8185 20.8033 40.851 20.8303 40.9214L21.036 41.652C21.0391 41.6717 21.0391 41.6918 21.036 41.7115C21.036 41.7408 21.0265 41.7693 21.0089 41.7927C20.9914 41.8161 20.9667 41.8332 20.9386 41.8414L19.2067 42.3826L20.2891 43.8493C20.3096 43.8802 20.3226 43.9154 20.327 43.9522C20.3258 43.9722 20.3204 43.9917 20.3111 44.0094C20.3017 44.0272 20.2887 44.0427 20.2729 44.055L19.6884 44.4826C19.6526 44.5051 19.6116 44.5181 19.5693 44.5204C19.5481 44.519 19.5278 44.5116 19.5105 44.4992C19.4933 44.4868 19.4799 44.4697 19.4719 44.4501L18.3895 42.978L17.307 44.4501C17.299 44.4697 17.2856 44.4868 17.2684 44.4992C17.2512 44.5116 17.2308 44.519 17.2096 44.5204C17.1676 44.5167 17.127 44.5038 17.0906 44.4826L16.506 44.055C16.4893 44.0436 16.4757 44.0282 16.4662 44.0103C16.4568 43.9924 16.4519 43.9724 16.4519 43.9522C16.4564 43.9154 16.4694 43.8802 16.4898 43.8493L17.5722 42.3826L15.8404 41.8414C15.8203 41.8268 15.8046 41.807 15.7951 41.7841C15.7855 41.7612 15.7825 41.7361 15.7862 41.7115V41.7115Z" fill="#82848E"/>
<path d="M13.1506 31.645V31.5855L13.3617 30.8548C13.3644 30.8266 13.3775 30.8004 13.3985 30.7813C13.4196 30.7623 13.4469 30.7518 13.4753 30.752H13.5457L15.2776 31.3419V29.5505C15.275 29.5312 15.2769 29.5115 15.283 29.493C15.2891 29.4745 15.2993 29.4576 15.3128 29.4436C15.3263 29.4296 15.3428 29.4188 15.3611 29.412C15.3793 29.4052 15.3989 29.4026 15.4183 29.4044H16.1381C16.2301 29.4044 16.2734 29.4531 16.2734 29.5505V31.3419L18.0053 30.752H18.0756C18.104 30.7537 18.131 30.7647 18.1525 30.7833C18.174 30.8019 18.1888 30.827 18.1947 30.8548L18.4058 31.5855C18.4058 31.6179 18.4058 31.6342 18.4058 31.645C18.4053 31.6748 18.3957 31.7037 18.3783 31.7279C18.3608 31.7521 18.3364 31.7704 18.3084 31.7803L16.5765 32.3215L17.6589 33.7936C17.679 33.8233 17.6936 33.8562 17.7022 33.891C17.7004 33.9115 17.6941 33.9313 17.6838 33.949C17.6735 33.9668 17.6595 33.9821 17.6427 33.9939L17.0581 34.4214C17.0225 34.4452 16.9817 34.4601 16.9391 34.4647C16.9182 34.4622 16.8984 34.4544 16.8813 34.4421C16.8643 34.4298 16.8506 34.4134 16.8417 34.3944L15.7592 32.9223L14.6768 34.3944C14.6678 34.4134 14.6542 34.4298 14.6371 34.4421C14.6201 34.4544 14.6002 34.4622 14.5794 34.4647C14.5372 34.4584 14.4967 34.4436 14.4603 34.4214L13.8758 33.9939C13.8588 33.9828 13.8448 33.9675 13.8354 33.9495C13.8259 33.9315 13.8212 33.9114 13.8217 33.891C13.8275 33.8554 13.8425 33.8218 13.865 33.7936L14.9474 32.3215L13.2155 31.7803C13.1935 31.7657 13.1758 31.7454 13.1644 31.7216C13.1529 31.6978 13.1482 31.6713 13.1506 31.645V31.645Z" fill="#82848E"/>
<path d="M15.7863 21.7949V21.7354L15.9919 21.0047C15.9919 20.9398 16.0514 20.9019 16.111 20.9019H16.1813L17.9132 21.4918V19.7004C17.9107 19.6811 17.9126 19.6614 17.9187 19.6429C17.9248 19.6244 17.9349 19.6075 17.9485 19.5935C17.962 19.5795 17.9785 19.5687 17.9967 19.5619C18.015 19.5551 18.0345 19.5525 18.0539 19.5543H18.7683C18.8658 19.5543 18.9091 19.603 18.9091 19.7004V21.4918L20.6409 20.9019H20.7113C20.7654 20.9019 20.8033 20.9398 20.8304 21.0047L21.036 21.7354C21.0385 21.7551 21.0385 21.7751 21.036 21.7949C21.0355 21.8247 21.0259 21.8536 21.0085 21.8778C20.9911 21.902 20.9667 21.9203 20.9386 21.9302L19.2067 22.4714L20.2892 23.9435C20.3085 23.9729 20.3214 24.0061 20.327 24.0409C20.3266 24.0611 20.3215 24.0809 20.3121 24.0987C20.3027 24.1166 20.2893 24.132 20.2729 24.1438L19.6884 24.5713C19.6528 24.5952 19.6119 24.61 19.5693 24.6146C19.5485 24.6121 19.5286 24.6043 19.5116 24.592C19.4945 24.5797 19.4809 24.5633 19.4719 24.5443L18.3895 23.0722L17.3071 24.5443C17.2981 24.5633 17.2844 24.5797 17.2674 24.592C17.2504 24.6043 17.2305 24.6121 17.2096 24.6146C17.1675 24.6083 17.127 24.5936 17.0906 24.5713L16.5061 24.1438C16.489 24.1327 16.4751 24.1174 16.4656 24.0994C16.4561 24.0814 16.4514 24.0613 16.4519 24.0409C16.4575 24.0061 16.4704 23.9729 16.4898 23.9435L17.5723 22.4714L15.8404 21.9302C15.8203 21.9143 15.8047 21.8935 15.7952 21.8698C15.7857 21.846 15.7826 21.8202 15.7863 21.7949Z" fill="#82848E"/>
<path d="M22.8546 14.472V14.4125L23.0656 13.6818C23.0684 13.6536 23.0815 13.6274 23.1025 13.6084C23.1236 13.5894 23.1509 13.5789 23.1793 13.579H23.2497L25.0194 14.1798V12.3937C25.0169 12.3744 25.0188 12.3548 25.0249 12.3363C25.031 12.3178 25.0412 12.3009 25.0547 12.2869C25.0682 12.2728 25.0847 12.262 25.1029 12.2552C25.1212 12.2484 25.1408 12.2458 25.1602 12.2476H25.88C25.972 12.2476 26.0153 12.2963 26.0153 12.3937V14.1798L27.7472 13.5898H27.8175C27.8459 13.5916 27.8729 13.6026 27.8944 13.6212C27.9159 13.6397 27.9307 13.6649 27.9366 13.6927L28.1477 14.4233C28.1477 14.4558 28.1477 14.472 28.1477 14.4828C28.1471 14.5126 28.1375 14.5416 28.1201 14.5657C28.1027 14.5899 28.0783 14.6082 28.0502 14.6181L26.3184 15.1594L27.4008 16.6315C27.4227 16.66 27.4376 16.6934 27.4441 16.7289C27.4423 16.7493 27.436 16.7691 27.4257 16.7869C27.4154 16.8046 27.4014 16.8199 27.3845 16.8317L26.8 17.2593C26.7644 17.2831 26.7236 17.298 26.681 17.3026C26.6601 17.3 26.6402 17.2922 26.6232 17.2799C26.6062 17.2676 26.5925 17.2512 26.5835 17.2322L25.5011 15.7601L24.4187 17.2322C24.4097 17.2512 24.3961 17.2676 24.379 17.2799C24.362 17.2922 24.3421 17.3 24.3213 17.3026C24.2791 17.2962 24.2386 17.2815 24.2022 17.2593L23.6177 16.8317C23.6006 16.8206 23.5867 16.8053 23.5772 16.7873C23.5678 16.7693 23.5631 16.7492 23.5636 16.7289C23.5677 16.6928 23.5829 16.6588 23.6069 16.6315L24.6893 15.1594L22.9574 14.6181C22.9265 14.6086 22.8997 14.5891 22.8811 14.5626C22.8624 14.5362 22.8531 14.5043 22.8546 14.472V14.472Z" fill="#82848E"/>
<path d="M142.512 0.00537109H71.4719V64.9998H142.512V0.00537109Z" fill="#82848E"/>
<path d="M87.0372 22.5253H89.1641V21.9354H87.0372V20.42H89.8731V19.8301H86.4418V24.95H87.0372V22.5253Z" fill="#2A2F3D" stroke="#2A2F3D" stroke-width="0.58" stroke-miterlimit="10"/>
<path d="M93.9701 19.8301L92.13 24.95H92.7632L93.3044 23.4075H95.1446L95.6858 24.95H96.319L94.4518 19.8301H93.9701ZM93.4885 22.8284L94.2083 20.7285L94.9281 22.8284H93.4885Z" fill="#2A2F3D" stroke="#2A2F3D" stroke-width="0.58" stroke-miterlimit="10"/>
<path d="M101.953 24.36H100.773V20.42H101.915V19.8301H99.0304V20.42H100.172V24.36H98.9926V24.95H101.953V24.36Z" fill="#2A2F3D" stroke="#2A2F3D" stroke-width="0.58" stroke-miterlimit="10"/>
<path d="M105.736 22.8393H107.111L108.042 24.9717H108.707L107.712 22.7311L108.134 22.5092L108.491 21.968L108.686 21.2644L108.475 20.5337L107.934 19.9925L107.268 19.8193H105.119V24.9392H105.715L105.736 22.8393ZM105.736 20.4417H107.208L107.63 20.5662L107.939 20.8747L108.063 21.3077L107.939 21.7298L107.733 22.0383L107.3 22.2494H105.736V20.4417Z" fill="#2A2F3D" stroke="#2A2F3D" stroke-width="0.58" stroke-miterlimit="10"/>
<path d="M89.5051 31.0443L89.0072 30.5356L88.2008 30.2217H86.3174V35.3416H88.2008L89.0072 35.0277L89.5051 34.5243L89.819 33.8857L89.9814 33.2525V32.3108L89.819 31.6775L89.5051 31.0443ZM89.3807 33.2092L89.2454 33.7504L89.0072 34.2158L88.6771 34.5568L88.0817 34.8004H86.9181V30.8603H88.0926L88.6663 31.0984L89.0072 31.4448L89.2508 31.9103L89.3807 32.4515V33.2092Z" fill="#2A2F3D" stroke="#2A2F3D" stroke-width="0.58" stroke-miterlimit="10"/>
<path d="M93.9701 30.2217L92.13 35.3416H92.7632L93.3044 33.7991H95.1446L95.6858 35.3416H96.319L94.4518 30.2217H93.9701ZM93.4885 33.22L94.2083 31.1201L94.9281 33.22H93.4885Z" fill="#2A2F3D" stroke="#2A2F3D" stroke-width="0.58" stroke-miterlimit="10"/>
<path d="M100.162 35.3416H100.757V30.8116H102.435V30.2217H98.511V30.8116H100.162V35.3416Z" fill="#2A2F3D" stroke="#2A2F3D" stroke-width="0.58" stroke-miterlimit="10"/>
<path d="M106.51 30.2217L104.643 35.3416H105.276L105.817 33.7991H107.663L108.204 35.3416H108.837L106.97 30.2217H106.51ZM106.023 33.22L106.743 31.1201L107.468 33.22H106.023Z" fill="#2A2F3D" stroke="#2A2F3D" stroke-width="0.58" stroke-miterlimit="10"/>
<path d="M88.926 43.0807L87.4052 42.664L87.0371 42.3988L86.9451 42.2418L86.8802 41.9225L86.9884 41.5491L87.2536 41.2839L87.6866 41.1432H88.2549L88.9043 41.3163L89.3156 41.5599L89.6404 41.0566L89.1695 40.7697L88.336 40.5532H87.5783L86.9181 40.7697L86.458 41.2514L86.2632 41.863L86.3606 42.4583L86.5987 42.8371L87.14 43.2214L88.6121 43.6219L88.9476 43.8167L89.1154 44.1469V44.5799L89.0126 44.7909L88.8394 44.9912L88.2982 45.2023H87.6812L87.0317 45.0074L86.734 44.8072L86.5987 44.634L86.1658 45.0507L86.3335 45.251L86.7665 45.554L87.5513 45.7922H88.401L89.1857 45.5053L89.5321 45.1048L89.7107 44.7206V44.017L89.4834 43.465L88.926 43.0807Z" fill="#2A2F3D" stroke="#2A2F3D" stroke-width="0.58" stroke-miterlimit="10"/>
<path d="M95.7508 41.2947L95.2367 40.813L94.5169 40.5532H93.8999L93.1801 40.813L92.6659 41.2947L92.3358 41.9387L92.1896 42.5882V43.7193L92.3303 44.358L92.6713 45.0291L93.1584 45.527L93.8945 45.8084H94.5439L95.28 45.527L95.7671 45.0291L96.0972 44.3742L96.2379 43.7356V42.6044L96.0918 41.955L95.7508 41.2947ZM95.6264 43.6544L95.5127 44.1956L95.2583 44.6935L94.9336 45.0128L94.3924 45.2077H93.9702L93.4561 45.0128L93.1314 44.6935L92.877 44.1956L92.7633 43.6544V42.6369L92.8716 42.1552L93.1368 41.614L93.4777 41.3055L93.9702 41.1323H94.3924L94.8903 41.3055L95.2259 41.614L95.491 42.1552L95.5993 42.6369L95.6264 43.6544Z" fill="#2A2F3D" stroke="#2A2F3D" stroke-width="0.58" stroke-miterlimit="10"/>
<path d="M99.3607 42.2039L99.6042 41.7222L99.9506 41.3759L100.465 41.1432H101.033L101.574 41.3759L101.796 41.5545L102.045 41.8359L102.473 41.4354L102.191 41.0999L101.867 40.8509L101.12 40.5532H100.362L99.6042 40.8834L99.1063 41.3705L98.7924 42.0091L98.6571 42.6423V43.7031L98.7924 44.3201L99.1063 44.9641L99.588 45.4512L100.362 45.7922H101.12L101.867 45.4945L102.191 45.2456L102.473 44.91L102.045 44.5095L101.802 44.7909L101.58 44.9695L101.033 45.2023H100.465L99.9452 44.9587L99.6042 44.6123L99.3607 44.1361L99.2524 43.6544V42.6856L99.3607 42.2039Z" fill="#2A2F3D" stroke="#2A2F3D" stroke-width="0.58" stroke-miterlimit="10"/>
<path d="M107.04 41.2027H108.188V40.6128H105.298V41.2027H106.44V45.1428H105.26V45.7327H108.22V45.1428H107.04V41.2027Z" fill="#2A2F3D" stroke="#2A2F3D" stroke-width="0.58" stroke-miterlimit="10"/>
<path d="M111.516 45.7327H114.802V45.1428H112.112V43.308H113.995V42.7127H112.112V41.2027H114.802V40.6128H111.516V45.7327Z" fill="#2A2F3D" stroke="#2A2F3D" stroke-width="0.58" stroke-miterlimit="10"/>
<path d="M117.318 41.2027H118.963V45.7327H119.564V41.2027H121.242V40.6128H117.318V41.2027Z" fill="#2A2F3D" stroke="#2A2F3D" stroke-width="0.58" stroke-miterlimit="10"/>
<path d="M126.946 40.6128L125.55 42.8534L124.154 40.6128H123.439L125.252 43.4434V45.7327H125.848V43.4434L127.661 40.6128H126.946Z" fill="#2A2F3D" stroke="#2A2F3D" stroke-width="0.58" stroke-miterlimit="10"/>
</svg>