<svg width="24" height="24" viewBox="0 0 24 24" fill="none" xmlns="http://www.w3.org/2000/svg">
<g clip-path="url(#clip0)">
<path fill-rule="evenodd" clip-rule="evenodd" d="M3.24975 1.5C2.28339 1.5 1.5 2.28339 1.5 3.24974V20.7479C1.5 21.7121 2.27985 22.4941 3.24319 22.4976L16.5557 8.6665C16.6971 8.51961 16.8922 8.4366 17.0961 8.4366C17.2999 8.4366 17.495 8.51961 17.6364 8.6665L22.4977 13.7172V3.24974C22.4977 2.28339 21.7143 1.5 20.748 1.5H3.24975ZM23.9977 15.5677V3.24974C23.9977 1.45496 22.5427 0 20.748 0H3.24975C1.45496 0 0 1.45496 0 3.24974V20.7479C0 22.5427 1.45496 23.9977 3.24975 23.9977H20.748C22.5427 23.9977 23.9977 22.5427 23.9977 20.7479V15.5881C23.9978 15.5813 23.9978 15.5745 23.9977 15.5677ZM22.4977 15.8802L17.0961 10.2681L5.32511 22.4977H20.748C21.7143 22.4977 22.4977 21.7143 22.4977 20.7479V15.8802ZM7.78043 7.12441C7.41807 7.12441 7.12432 7.41816 7.12432 7.78052C7.12432 8.14287 7.41807 8.43662 7.78043 8.43662C8.14279 8.43662 8.43653 8.14287 8.43653 7.78052C8.43653 7.41816 8.14279 7.12441 7.78043 7.12441ZM5.62432 7.78052C5.62432 6.58973 6.58964 5.62441 7.78043 5.62441C8.97121 5.62441 9.93653 6.58973 9.93653 7.78052C9.93653 8.9713 8.97121 9.93662 7.78043 9.93662C6.58964 9.93662 5.62432 8.9713 5.62432 7.78052Z" fill="currentColor"/>
</g>
<defs>
<clipPath id="clip0">
<rect width="24" height="24" fill="white"/>
</clipPath>
</defs>
</svg>
