<svg width="146" height="24" viewBox="0 0 146 24" fill="none" xmlns="http://www.w3.org/2000/svg">
<path d="M35.2019 4.18042V16.7902H41.5774V20.0207H31.4965V4.18042H35.2019Z" fill="#82848E"/>
<path d="M46.22 7.35962H42.874V20.0207H46.22V7.35962Z" fill="#82848E"/>
<path d="M51.5257 7.3596V9.12248H51.5985C51.9729 8.43348 52.5472 7.87406 53.2458 7.51792C53.8893 7.1921 54.5998 7.0207 55.3211 7.01729C56.0736 6.99094 56.8236 7.11909 57.5247 7.39383C58.0618 7.6209 58.5296 7.98542 58.8811 8.4507C59.2281 8.94079 59.4659 9.49963 59.5785 10.0895C59.7157 10.7942 59.7817 11.511 59.7753 12.2289V20.0164H56.4293V12.8707C56.4807 12.0628 56.3184 11.2555 55.9586 10.5302C55.7745 10.2635 55.522 10.0513 55.2277 9.91577C54.9333 9.78026 54.6079 9.72646 54.2856 9.76003C53.9104 9.72841 53.5333 9.78999 53.1876 9.93929C52.842 10.0886 52.5386 10.321 52.3045 10.6158C51.8766 11.1806 51.6926 12.1091 51.6926 13.397V20.0207H48.3508V7.3596H51.5257Z" fill="#82848E"/>
<path d="M69.8734 20.0207V18.2578H69.805C69.4245 18.9002 68.8445 19.4005 68.1533 19.6827C67.5084 20.0033 66.7984 20.1717 66.0781 20.1747C65.3264 20.1992 64.5774 20.0741 63.8745 19.8068C63.336 19.5903 62.867 19.2307 62.5181 18.767C62.1724 18.3433 61.9333 17.843 61.8207 17.3079C61.6834 16.6032 61.6175 15.8864 61.6238 15.1685V7.35962H64.9699V14.5096C64.9184 15.3175 65.0808 16.1248 65.4406 16.8501C65.6246 17.1168 65.8771 17.329 66.1715 17.4645C66.4659 17.6 66.7913 17.6538 67.1136 17.6203C67.4887 17.6519 67.8659 17.5903 68.2115 17.441C68.5572 17.2917 68.8605 17.0593 69.0947 16.7645C69.5226 16.1997 69.7066 15.2755 69.7066 13.9833V7.35962H73.0569V20.0207H69.8734Z" fill="#82848E"/>
<path d="M78.337 7.3596V9.07113H78.3841C78.791 8.4493 79.3356 7.92954 79.9758 7.55214C80.6277 7.18389 81.3666 6.99768 82.1152 7.01301C82.8444 7.0041 83.566 7.16217 84.2247 7.47512C84.8953 7.8239 85.4123 8.40953 85.6752 9.1182C86.0626 8.53533 86.5631 8.03624 87.1471 7.65056C87.7981 7.21531 88.5679 6.99258 89.3507 7.01301C89.9563 7.01369 90.5587 7.10159 91.1393 7.27402C91.6653 7.42255 92.15 7.69052 92.5556 8.05705C92.9668 8.44813 93.2804 8.93032 93.4712 9.46478C93.709 10.1376 93.8221 10.8481 93.805 11.5614V20.0335H90.4546V12.8365C90.4546 12.4086 90.4546 12.0107 90.4076 11.6384C90.3879 11.298 90.3007 10.9649 90.1509 10.6586C90.0097 10.3828 89.793 10.1528 89.5261 9.99536C89.1804 9.81689 88.7937 9.73276 88.4051 9.75147C88.005 9.73314 87.6081 9.83124 87.2626 10.0339C86.9761 10.2158 86.7405 10.4676 86.578 10.7656C86.4049 11.0858 86.2932 11.4355 86.2486 11.7968C86.1919 12.1821 86.1633 12.5711 86.163 12.9606V20.0207H82.8169V12.9178C82.8169 12.5413 82.8169 12.1733 82.7913 11.8053C82.7808 11.4575 82.7143 11.1136 82.5944 10.7869C82.4787 10.484 82.2726 10.2241 82.0039 10.0424C81.6359 9.82966 81.2129 9.73134 80.7888 9.76002C80.5764 9.76793 80.3661 9.80537 80.164 9.87127C79.8848 9.95725 79.6278 10.1033 79.411 10.2992C79.1385 10.5417 78.9248 10.8431 78.7863 11.1806C78.5943 11.6587 78.5054 12.1719 78.5253 12.6867V20.0207H75.1792V7.3596H78.337Z" fill="#82848E"/>
<path d="M99.4317 4.18042V16.7902H105.807V20.0207H95.7305V4.18042H99.4317Z" fill="#82848E"/>
<path d="M115.289 20.0507L118.541 20.0207C118.541 20.0207 118.498 17.7743 118.498 17.2052V10.6158C118.531 9.96283 118.357 9.31606 118.002 8.76738C117.671 8.30242 117.23 7.92736 116.718 7.67628C116.18 7.40907 115.602 7.23131 115.007 7.14998C114.389 7.06157 113.765 7.01724 113.141 7.01733C112.464 7.01743 111.789 7.08624 111.126 7.22272C110.49 7.35109 109.881 7.58696 109.324 7.92017C108.745 8.26413 108.263 8.75135 107.926 9.33506C107.589 9.91876 107.407 10.5793 107.399 11.2534H110.749C110.751 10.9757 110.81 10.7014 110.923 10.448C111.037 10.1946 111.202 9.96756 111.408 9.78146C111.865 9.47005 112.413 9.31953 112.966 9.35358C113.251 9.34964 113.535 9.36968 113.817 9.41348C114.06 9.44573 114.293 9.52884 114.502 9.65738C114.701 9.78371 114.864 9.96093 114.972 10.1708C115.105 10.4497 115.166 10.7568 115.152 11.0651C115.168 11.2166 115.149 11.3698 115.096 11.5125C115.042 11.6551 114.956 11.7833 114.844 11.8867C114.582 12.0952 114.276 12.2415 113.95 12.3145C113.528 12.4199 113.099 12.4942 112.666 12.537C112.178 12.5841 111.682 12.6483 111.181 12.7296C110.676 12.8129 110.176 12.9243 109.684 13.0633C109.204 13.1905 108.752 13.4036 108.349 13.6923C107.952 13.9839 107.629 14.365 107.407 14.8048C107.143 15.3585 107.017 15.9676 107.039 16.5805C107.022 17.1675 107.131 17.7513 107.36 18.2921C107.569 18.6859 107.877 19.018 108.255 19.2548C108.643 19.5726 109.093 19.8058 109.577 19.9394C110.105 20.0922 110.653 20.1672 111.203 20.1619C111.955 20.1615 112.702 20.0461 113.419 19.8196C114.129 19.6584 114.782 19.3063 115.306 18.8013C115.306 19.0152 115.306 19.4431 115.306 19.4431L115.289 20.0507ZM115.152 15.1215C115.147 15.3834 115.127 15.6448 115.092 15.9045C115.049 16.2453 114.941 16.5749 114.775 16.8758C114.582 17.213 114.305 17.4945 113.971 17.693C113.503 17.9487 112.972 18.0673 112.439 18.0353C112.184 18.0389 111.929 18.0174 111.678 17.9712C111.443 17.9307 111.219 17.8434 111.019 17.7144C110.828 17.5897 110.673 17.4171 110.569 17.2138C110.453 16.9697 110.397 16.7011 110.407 16.4308C110.394 16.152 110.45 15.8744 110.569 15.6221C110.671 15.4172 110.818 15.2374 110.997 15.0958C111.19 14.9502 111.405 14.8374 111.635 14.762C111.878 14.6808 112.127 14.6165 112.379 14.5695C112.645 14.5181 112.91 14.4796 113.179 14.4454C113.449 14.4112 113.701 14.3727 113.945 14.3213C114.178 14.2778 114.407 14.2163 114.63 14.1373C114.826 14.0745 115.007 13.971 115.161 13.8335L115.152 15.1215Z" fill="#82848E"/>
<path d="M132.409 10.6969C132.155 9.93946 131.759 9.2378 131.24 8.63027C130.805 8.11183 130.262 7.69428 129.649 7.40652C129.076 7.15156 128.457 7.01894 127.83 7.01715C127.081 7.01553 126.339 7.16999 125.652 7.4707C124.963 7.76271 124.381 8.2622 123.988 8.89984H123.941V4.19312H120.595V20.0248H123.778V18.3989H123.825C124.169 19.0266 124.743 19.4972 125.426 19.7125C126.191 20.0108 127.008 20.1562 127.83 20.1403C128.457 20.137 129.077 20.0029 129.649 19.7467C130.267 19.4694 130.818 19.0605 131.262 18.5486C131.769 18.0141 132.159 17.3803 132.409 16.6873C132.727 15.7217 132.879 14.7088 132.858 13.6921C132.879 12.6755 132.727 11.6627 132.409 10.6969ZM129.345 15.2411C129.246 15.6957 129.069 16.1299 128.823 16.5247C128.598 16.8838 128.295 17.1879 127.937 17.4147C127.544 17.6324 127.103 17.7466 126.654 17.7466C126.204 17.7466 125.763 17.6324 125.37 17.4147C125.006 17.1902 124.7 16.884 124.476 16.5204C124.229 16.1256 124.053 15.6914 123.954 15.2368C123.845 14.7378 123.79 14.2285 123.791 13.7178C123.789 13.2 123.844 12.6835 123.954 12.1774C124.053 11.7228 124.229 11.2886 124.476 10.8938C124.696 10.5177 125.002 10.1995 125.37 9.96527C125.763 9.74761 126.204 9.63341 126.654 9.63341C127.103 9.63341 127.544 9.74761 127.937 9.96527C128.294 10.1938 128.595 10.4994 128.819 10.8595C129.065 11.2544 129.241 11.6886 129.341 12.1432C129.45 12.6493 129.505 13.1658 129.503 13.6836C129.507 14.1999 129.454 14.715 129.345 15.2197V15.2411Z" fill="#82848E"/>
<path d="M137.278 16.8757C137.418 17.1384 137.616 17.3664 137.856 17.5432C138.1 17.7198 138.376 17.849 138.669 17.924C138.98 18.0053 139.301 18.0456 139.623 18.0438C139.866 18.0466 140.108 18.0222 140.346 17.971C140.595 17.9195 140.835 17.8285 141.056 17.7015C141.268 17.5812 141.449 17.4144 141.587 17.2137C141.734 16.9846 141.807 16.7157 141.796 16.4435C141.796 15.9215 141.463 15.5278 140.795 15.2668C139.885 14.9366 138.951 14.6749 138.001 14.4838C137.513 14.3683 137.038 14.2356 136.576 14.0773C136.136 13.9352 135.719 13.729 135.34 13.4654C134.986 13.216 134.693 12.8898 134.484 12.5113C134.251 12.0795 134.137 11.5937 134.154 11.1035C134.125 10.4057 134.283 9.71263 134.612 9.09674C134.905 8.58622 135.323 8.15906 135.827 7.85588C136.356 7.54503 136.935 7.3306 137.539 7.22261C138.175 7.09833 138.821 7.03671 139.469 7.03862C140.114 7.03696 140.758 7.10148 141.39 7.23116C141.98 7.35194 142.543 7.5765 143.054 7.89438C143.546 8.21148 143.961 8.63386 144.27 9.13097C144.616 9.72417 144.814 10.3919 144.847 11.0778H141.664C141.672 10.8067 141.609 10.5381 141.481 10.2991C141.352 10.0602 141.163 9.85945 140.932 9.71717C140.45 9.4713 139.915 9.34924 139.375 9.36203C139.17 9.36299 138.966 9.37585 138.763 9.40053C138.556 9.42225 138.354 9.47565 138.164 9.55885C137.983 9.63814 137.825 9.76 137.702 9.914C137.557 10.1244 137.492 10.3792 137.518 10.633C137.544 10.8869 137.659 11.1233 137.843 11.3003C138.095 11.5121 138.385 11.6733 138.698 11.7753C139.096 11.9116 139.502 12.023 139.914 12.109C140.372 12.2032 140.834 12.3101 141.304 12.4257C141.786 12.543 142.262 12.6858 142.729 12.8536C143.173 13.006 143.592 13.2253 143.97 13.5039C144.323 13.7747 144.615 14.1174 144.826 14.5095C145.058 14.9674 145.172 15.4766 145.155 15.9899C145.181 16.6607 145.013 17.3247 144.672 17.9026C144.363 18.4472 143.93 18.9117 143.409 19.259C142.866 19.6001 142.261 19.8339 141.629 19.9479C140.958 20.0887 140.274 20.1589 139.588 20.1575C138.892 20.1594 138.198 20.0848 137.518 19.935C136.876 19.8038 136.264 19.5558 135.712 19.2034C135.186 18.8532 134.747 18.3878 134.428 17.8427C134.067 17.2604 133.875 16.5895 133.872 15.9044H137.055C137.045 16.2418 137.122 16.5762 137.278 16.8757Z" fill="#82848E"/>
<path d="M27.5429 16.5933L23.7775 10.0724L23.6063 9.77714H20.5384L21.9076 7.40667L22.0745 7.11143L21.9076 6.81619L18.1337 0.29524L17.9711 0H9.75147L9.58032 0.29524L5.81494 6.81619L5.64379 7.11143L5.81494 7.40667L7.18417 9.77714H4.10768L3.93653 10.0724L0.171154 16.5933L0 16.8886L0.171154 17.1838L3.93653 23.7048L4.10768 24H12.3188L12.4899 23.7048L13.8549 21.3343L15.2241 23.7048L15.3953 24H23.6063L23.7775 23.7048L27.5429 17.1838L27.714 16.8886L27.5429 16.5933ZM16.097 10.2992V10.2692L17.6245 7.22696H20.8636L19.0451 10.2992H16.097ZM19.5201 10.8083L22.772 16.7303H19.5757L17.1924 12.3658L16.3366 10.7869L19.5201 10.8083ZM15.6349 10.1836L13.842 13.4869H10.8469L14.1202 7.22696H17.1581L15.6349 10.1836ZM10.5003 13.1788L8.90426 10.5302L12.2075 4.27884L13.7993 7.03013L10.5003 13.1788ZM10.1922 13.4484H6.34124L4.79658 10.7698L8.64753 10.834L10.1922 13.4484ZM10.573 13.8506H10.6244L13.8677 13.8891L14.7791 15.6648L15.2883 16.6875L8.17258 16.5933L6.61936 13.8335L10.573 13.8506ZM15.1086 15.4894L14.2314 13.6923L15.7975 10.6586H15.8317L16.8501 12.5156L19.212 16.9699L17.5004 20.0806L16.2596 17.7272L15.1086 15.4894ZM17.6759 20.624L19.6484 17.1667L19.6827 17.1153H22.8105L19.5158 23.0629L16.2596 23.1057L17.6759 20.624ZM20.0121 10.8083H23.1271L26.5288 16.7303H23.923H23.2084L20.0121 10.8083ZM17.4919 6.84614H14.1202L12.5284 4.08629H19.2077L20.8508 6.84614H17.4919ZM12.3102 3.71403L11.8652 2.99519L10.5816 0.889998H17.3892L18.9938 3.70547L12.3102 3.71403ZM11.5529 3.20057L11.9807 3.91514L8.62614 10.158L6.80335 7.03013L10.2264 1.07399L11.5529 3.20057ZM7.84739 16.7773L6.24282 19.5415L2.87966 13.795L4.47994 10.9453L7.84739 16.7773ZM6.03316 19.918L5.80638 20.3459L4.45855 22.849L1.03548 16.9485L2.65288 14.1672L6.03316 19.918ZM4.80941 23.08L6.13585 20.5127L6.36691 20.0849H13.3329L11.6427 23.0415L4.80941 23.08ZM6.57657 19.7254L8.1683 16.9656L15.0144 17.0811L13.4099 19.7254H6.57657ZM15.4723 17.1153L15.9216 17.8941L17.2694 20.5384L15.9258 22.9517L14.0389 19.5842L15.4723 17.1153ZM19.9265 23.0544L23.3025 17.1153H23.9187L26.5331 17.1453L23.1057 23.0715L19.9265 23.0544Z" fill="#82848E"/>
</svg>
