<svg width="24" height="24" viewBox="0 0 24 24" fill="none" xmlns="http://www.w3.org/2000/svg">
<path fill-rule="evenodd" clip-rule="evenodd" d="M10.3948 0C4.65559 0 0.00306702 4.65252 0.00306702 10.3917C0.00306702 16.1309 4.65559 20.7834 10.3948 20.7834C12.994 20.7834 15.3714 19.8283 17.1932 18.2513L22.7197 23.7777C23.0126 24.0706 23.4874 24.0706 23.7803 23.7777C24.0732 23.4848 24.0732 23.01 23.7803 22.7171L18.2539 17.1906C19.8313 15.3688 20.7865 12.9912 20.7865 10.3917C20.7865 4.65252 16.1339 0 10.3948 0ZM1.50307 10.3917C1.50307 5.48095 5.48402 1.5 10.3948 1.5C15.3055 1.5 19.2865 5.48095 19.2865 10.3917C19.2865 12.8431 18.2956 15.0616 16.6906 16.6707L16.6905 16.6707C15.08 18.2855 12.8546 19.2834 10.3948 19.2834C5.48402 19.2834 1.50307 15.3024 1.50307 10.3917Z" fill="currentColor"/>
</svg>
