<svg width="20" height="20" viewBox="0 0 20 20" fill="none" xmlns="http://www.w3.org/2000/svg">
<g clip-path="url(#clip0)">
<path fill-rule="evenodd" clip-rule="evenodd" d="M11.3377 -0.125C16.1894 -0.125 20.1225 3.80807 20.1225 8.65975C20.1225 13.5114 16.1894 17.4445 11.3377 17.4445C9.18229 17.4445 7.20716 16.6675 5.67901 15.3795L1.15533 19.9032C0.862437 20.196 0.387563 20.196 0.0946699 19.9032C-0.198224 19.6103 -0.198223 19.1354 0.0946699 18.8425L4.61831 14.3189C3.33008 12.7907 2.55294 10.8154 2.55294 8.65975C2.55294 3.80807 6.48602 -0.125 11.3377 -0.125ZM18.6225 8.65975C18.6225 4.63649 15.361 1.375 11.3377 1.375C7.31445 1.375 4.05294 4.63649 4.05294 8.65975C4.05294 10.6682 4.86463 12.4855 6.17971 13.804L6.17973 13.804C7.49932 15.1271 9.32241 15.9445 11.3377 15.9445C15.361 15.9445 18.6225 12.683 18.6225 8.65975Z" />
</g>
<defs>
<clipPath id="clip0">
<rect width="20" height="20" fill="white"/>
</clipPath>
</defs>
</svg>
