<svg width="153" height="38" viewBox="0 0 153 38" fill="none" xmlns="http://www.w3.org/2000/svg">
<path d="M87.2821 12.3101L84.9901 28.2725C84.989 28.2777 84.9861 28.2823 84.982 28.2856C84.9779 28.2889 84.9729 28.2907 84.9676 28.2907C84.9623 28.2907 84.9572 28.2889 84.9531 28.2856C84.949 28.2823 84.9461 28.2777 84.945 28.2725L82.9321 12.3091C82.9314 12.3034 82.9286 12.2982 82.9244 12.2943C82.9202 12.2905 82.9149 12.2883 82.9091 12.2881H77.1971C77.1913 12.2881 77.1857 12.2902 77.1815 12.2941C77.1772 12.298 77.1745 12.3033 77.174 12.3091L75.1601 28.2725C75.159 28.2777 75.1562 28.2823 75.1521 28.2856C75.148 28.2889 75.1428 28.2907 75.1375 28.2907C75.1323 28.2907 75.1272 28.2889 75.1231 28.2856C75.119 28.2823 75.1162 28.2777 75.1151 28.2725L72.8231 12.3101C72.8226 12.3046 72.8201 12.2995 72.816 12.2958C72.8119 12.2921 72.8066 12.2901 72.8011 12.2901H69.3181C69.3147 12.2902 69.3114 12.291 69.3084 12.2925C69.3054 12.2939 69.3028 12.296 69.3006 12.2985C69.2985 12.301 69.2968 12.304 69.2959 12.3072C69.2949 12.3104 69.2947 12.3138 69.2951 12.3171L72.2021 30.7913C72.2031 30.7967 72.2058 30.8016 72.21 30.805C72.2143 30.8085 72.2196 30.8104 72.2251 30.8103H77.9251C77.9305 30.8106 77.9358 30.8088 77.9399 30.8052C77.944 30.8017 77.9466 30.7967 77.9471 30.7913L80.0271 14.8549C80.0282 14.8497 80.031 14.8451 80.0351 14.8418C80.0392 14.8385 80.0443 14.8366 80.0495 14.8366C80.0548 14.8366 80.06 14.8385 80.0641 14.8418C80.0681 14.8451 80.071 14.8497 80.0721 14.8549L82.1521 30.7913C82.1528 30.7968 82.1556 30.8018 82.1599 30.8053C82.1641 30.8088 82.1696 30.8106 82.1751 30.8103H87.8751C87.8805 30.8102 87.8857 30.8083 87.8899 30.8048C87.894 30.8014 87.8969 30.7966 87.898 30.7913L90.804 12.3171C90.8046 12.3138 90.8045 12.3105 90.8037 12.3073C90.8028 12.3041 90.8014 12.3011 90.7993 12.2985C90.7972 12.296 90.7946 12.2939 90.7916 12.2924C90.7886 12.291 90.7854 12.2902 90.7821 12.2901H87.299C87.2935 12.2902 87.2882 12.2923 87.284 12.296C87.2798 12.2996 87.277 12.3046 87.2761 12.3101" fill="#CED0DD"/>
<path d="M151.251 13.1797C150.83 12.7116 150.31 12.3438 149.729 12.1032C149.147 11.8626 148.519 11.7553 147.89 11.7894C147.044 11.7577 146.207 11.9728 145.481 12.4083C144.755 12.8438 144.171 13.481 143.801 14.2422H143.787C143.553 13.5754 143.137 12.987 142.587 12.543C141.918 12.0252 141.088 11.7579 140.242 11.7874C139.428 11.7702 138.627 11.9957 137.942 12.4351C137.364 12.8312 136.909 13.3805 136.626 14.0213V12.3131C136.626 12.307 136.624 12.3012 136.619 12.2969C136.615 12.2925 136.609 12.2901 136.603 12.2901H133.203C133.197 12.2901 133.191 12.2925 133.187 12.2969C133.183 12.3012 133.18 12.307 133.18 12.3131V30.7884C133.18 30.7913 133.181 30.7943 133.182 30.797C133.183 30.7997 133.185 30.8022 133.187 30.8043C133.189 30.8063 133.192 30.8079 133.194 30.809C133.197 30.81 133.2 30.8105 133.203 30.8103H136.603C136.606 30.8105 136.609 30.81 136.612 30.809C136.615 30.8079 136.617 30.8063 136.619 30.8043C136.622 30.8022 136.623 30.7997 136.624 30.797C136.626 30.7943 136.626 30.7913 136.626 30.7884V18.1603C136.587 17.3561 136.813 16.5612 137.267 15.8964C137.469 15.6273 137.735 15.4123 138.04 15.2706C138.345 15.129 138.681 15.0652 139.017 15.0848C139.3 15.0724 139.582 15.1259 139.841 15.2408C140.099 15.3558 140.328 15.5293 140.508 15.7475C140.908 16.246 141.112 16.8726 141.084 17.5106V30.7884C141.084 30.7913 141.085 30.7943 141.086 30.797C141.087 30.7997 141.089 30.8022 141.091 30.8043C141.093 30.8063 141.096 30.8079 141.098 30.809C141.101 30.81 141.104 30.8105 141.107 30.8103H144.507C144.51 30.8105 144.513 30.81 144.516 30.809C144.519 30.8079 144.521 30.8063 144.523 30.8043C144.525 30.8022 144.527 30.7997 144.528 30.797C144.529 30.7943 144.53 30.7913 144.53 30.7884V18.3772C144.457 17.4859 144.692 16.5966 145.196 15.8574C145.398 15.6066 145.656 15.4063 145.949 15.2723C146.243 15.1384 146.563 15.0745 146.885 15.0858C147.185 15.0577 147.487 15.105 147.763 15.2236C148.04 15.3422 148.282 15.5281 148.468 15.7645C148.834 16.3257 149.016 16.9872 148.987 17.6566V30.7884C148.987 30.7913 148.988 30.7943 148.989 30.797C148.99 30.7997 148.992 30.8022 148.994 30.8043C148.996 30.8063 148.999 30.8079 149.001 30.809C149.004 30.81 149.007 30.8105 149.01 30.8103H152.433V16.718C152.486 15.4332 152.068 14.1733 151.256 13.1757" fill="#CED0DD"/>
<path d="M111.404 28.7962L109.251 31.2001C109.246 31.2041 109.241 31.2063 109.234 31.2063C109.228 31.2063 109.223 31.2041 109.218 31.2001L105.424 27.9136C105.42 27.911 105.416 27.9096 105.411 27.9096C105.406 27.9096 105.402 27.911 105.398 27.9136L100.86 30.5624C100.12 30.9945 99.2773 31.2209 98.42 31.2181C97.1338 31.2094 95.8981 30.7153 94.9609 29.8347C94.4778 29.3842 94.0951 28.837 93.8379 28.2287C93.5806 27.6203 93.4546 26.9647 93.468 26.3044C93.4676 25.4391 93.6964 24.5892 94.1313 23.8411C94.5663 23.093 95.1917 22.4734 95.944 22.0454L105.109 16.7749C105.113 16.7729 105.115 16.77 105.118 16.7665C105.12 16.763 105.121 16.759 105.121 16.7549V15.5895C105.121 15.5831 105.118 15.577 105.114 15.5725C105.109 15.568 105.103 15.5655 105.097 15.5655H94.397C94.394 15.5655 94.391 15.5649 94.3883 15.5637C94.3856 15.5625 94.3831 15.5608 94.3811 15.5587C94.379 15.5565 94.3774 15.554 94.3763 15.5512C94.3753 15.5484 94.3749 15.5454 94.375 15.5425V12.313C94.375 12.3072 94.3773 12.3016 94.3815 12.2975C94.3856 12.2933 94.3911 12.291 94.397 12.291H108.371C108.377 12.291 108.383 12.2933 108.387 12.2974C108.391 12.3015 108.394 12.3071 108.394 12.313V26.1475C108.394 26.1539 108.397 26.16 108.402 26.1644L111.402 28.7632C111.404 28.7653 111.406 28.7678 111.407 28.7707C111.409 28.7735 111.409 28.7766 111.409 28.7797C111.409 28.7828 111.409 28.7859 111.407 28.7888C111.406 28.7916 111.404 28.7941 111.402 28.7962H111.404ZM99.223 27.7227L105.111 24.3083C105.114 24.3063 105.118 24.3034 105.12 24.2999C105.122 24.2964 105.123 24.2924 105.123 24.2883V20.5901C105.123 20.5861 105.122 20.5822 105.119 20.5788C105.117 20.5754 105.114 20.5726 105.111 20.5706C105.107 20.5686 105.103 20.5675 105.099 20.5674C105.095 20.5673 105.092 20.5683 105.088 20.5701L97.588 24.8811C97.3312 25.0179 97.1171 25.2229 96.9692 25.4735C96.8214 25.7241 96.7455 26.0105 96.75 26.3014C96.7606 26.7325 96.9367 27.143 97.2418 27.448C97.5469 27.7529 97.9577 27.929 98.389 27.9396C98.6828 27.9449 98.9723 27.8691 99.2259 27.7207" fill="#CED0DD"/>
<path d="M127.779 13.5854C127.22 13.0066 126.548 12.5484 125.804 12.239C125.061 11.9296 124.262 11.7755 123.457 11.7863C122.519 11.7612 121.589 11.9623 120.746 12.3726C119.902 12.7828 119.17 13.3901 118.611 14.1431C118.609 14.1455 118.607 14.1473 118.604 14.1486C118.601 14.1499 118.598 14.1505 118.595 14.1505C118.592 14.1505 118.589 14.1499 118.586 14.1486C118.584 14.1473 118.581 14.1455 118.579 14.1431L116.417 12.1601C116.415 12.1579 116.413 12.1562 116.41 12.155C116.407 12.1538 116.404 12.1532 116.401 12.1532C116.398 12.1532 116.395 12.1538 116.392 12.155C116.39 12.1562 116.387 12.1579 116.385 12.1601L114.255 14.538C114.253 14.54 114.251 14.5425 114.25 14.5452C114.249 14.548 114.248 14.551 114.248 14.554C114.248 14.5569 114.249 14.5599 114.25 14.5627C114.251 14.5654 114.253 14.5679 114.255 14.5699L117.327 17.3556C117.33 17.3577 117.331 17.3604 117.333 17.3633C117.334 17.3663 117.334 17.3694 117.334 17.3726V27.5378C117.334 27.5408 117.334 27.5437 117.333 27.5465C117.332 27.5493 117.33 27.5519 117.328 27.554C117.326 27.5562 117.324 27.5579 117.321 27.559C117.318 27.5602 117.315 27.5608 117.312 27.5608H114.259C114.253 27.5608 114.247 27.5632 114.243 27.5675C114.238 27.5718 114.236 27.5777 114.236 27.5838V30.7763C114.236 30.7824 114.238 30.7882 114.243 30.7925C114.247 30.7968 114.253 30.7993 114.259 30.7993H125.259C125.265 30.7993 125.271 30.7968 125.275 30.7925C125.28 30.7882 125.282 30.7824 125.282 30.7763V27.5858C125.282 27.5797 125.28 27.5738 125.275 27.5695C125.271 27.5652 125.265 27.5628 125.259 27.5628H120.597C120.594 27.5628 120.591 27.5622 120.588 27.561C120.586 27.5599 120.583 27.5582 120.581 27.5561C120.579 27.5539 120.577 27.5514 120.576 27.5486C120.575 27.5458 120.574 27.5428 120.574 27.5398V18.0593C120.559 17.324 120.816 16.609 121.296 16.0514C121.776 15.4938 122.444 15.1329 123.174 15.0377C123.574 15.0005 123.977 15.0469 124.357 15.1739C124.738 15.301 125.087 15.5059 125.384 15.7756C125.681 16.0453 125.919 16.3739 126.082 16.7404C126.244 17.1069 126.329 17.5033 126.33 17.9044V18.9599C126.33 18.9661 126.333 18.972 126.337 18.9765C126.341 18.981 126.347 18.9836 126.353 18.9839H129.553C129.556 18.9839 129.559 18.9832 129.562 18.982C129.565 18.9808 129.568 18.979 129.57 18.9768C129.572 18.9745 129.574 18.9719 129.575 18.969C129.576 18.9661 129.576 18.963 129.576 18.9599V17.9044C129.587 17.0998 129.432 16.3016 129.123 15.5588C128.813 14.8161 128.355 14.1445 127.776 13.5854" fill="#CED0DD"/>
<path d="M65.9522 23.1143C65.7374 22.6052 65.4037 22.1548 64.9792 21.8009C64.5424 21.385 64.0222 21.0665 63.4532 20.8664C62.8861 20.6059 62.2968 20.3972 61.6922 20.2427C61.0852 20.0807 60.4302 19.9108 59.6922 19.7709C58.5852 19.599 57.5156 19.2401 56.5292 18.7094C56.2421 18.5471 56.0017 18.3136 55.8312 18.0314C55.6607 17.7492 55.5659 17.4278 55.5558 17.0983C55.5458 16.7688 55.6209 16.4422 55.7738 16.1502C55.9268 15.8581 56.1525 15.6104 56.4291 15.4309C57.2784 14.9014 58.3015 14.7252 59.2792 14.9402C60.2158 15.1742 61.0766 15.6447 61.7792 16.3065C61.9242 16.4345 63.4062 17.7958 63.3792 17.8268L65.5102 15.4139C65.5102 15.4139 64.4842 14.3754 63.9982 13.9526C62.8586 12.883 61.4422 12.1538 59.9092 11.8476C58.3111 11.5969 56.6746 11.8443 55.2222 12.5563C54.8381 12.7545 54.4757 12.9924 54.1411 13.266C53.5451 13.7349 53.0663 14.336 52.7426 15.0218C52.4189 15.7075 52.2593 16.4591 52.2762 17.2171C52.2177 17.9144 52.3351 18.6153 52.6176 19.2556C52.9001 19.8959 53.3385 20.4552 53.8931 20.8824C55.2066 21.7705 56.6932 22.371 58.2552 22.6445C59.4871 22.8642 60.6896 23.2248 61.8391 23.719C62.1431 23.8169 62.4072 24.0105 62.592 24.2708C62.7767 24.5311 62.8722 24.8442 62.8642 25.1633C62.8837 25.5548 62.7964 25.9443 62.6116 26.2901C62.4268 26.6358 62.1515 26.9249 61.8151 27.1264C61.0036 27.5906 60.0854 27.8361 59.1504 27.8391C58.2154 27.8421 57.2956 27.6024 56.4811 27.1434C55.8217 26.7099 55.2026 26.2181 54.6311 25.6741C54.1711 25.2823 53.7311 24.8615 53.2931 24.4507L53.2762 24.4327L51.2022 26.9315C51.1952 26.9395 52.2162 27.876 52.3022 27.957C53.6223 29.2877 55.2827 30.2305 57.1022 30.6827C57.7769 30.8191 58.4638 30.8861 59.1521 30.8826C60.9776 30.9478 62.7707 30.3886 64.2351 29.2974C64.9201 28.7865 65.471 28.1172 65.8404 27.3469C66.2098 26.5765 66.3867 25.7282 66.3561 24.8745C66.3571 24.264 66.2168 23.6616 65.9462 23.1143" fill="#CED0DD"/>
<path d="M17.454 33.1021V23.3318L8.72705 18.4341L0 23.3318V33.1011L8.72705 37.9988L17.454 33.1021Z" fill="#CED0DD"/>
<path d="M28.8508 10.3971L28.8918 10.4181L33.5009 7.83029V2.60977L28.8508 0L24.2368 2.58978V2.63076V7.8073L28.8508 10.3971Z" fill="#CED0DD"/>
<path d="M19.9771 23.3327V33.1021L28.704 37.9998L37.433 33.1021V23.3327L28.705 18.4351L19.9771 23.3327Z" fill="#CED0DD"/>
<path d="M23.1371 9.7621L21.9932 9.1204V3.36613L18.6521 1.37207L9.93408 6.26975V16.0391L18.6602 20.9368L27.3871 16.0391V12.147L23.1371 9.7621Z" fill="#CED0DD"/>
</svg>
