<svg width="24" height="24" viewBox="0 0 24 24" fill="none" xmlns="http://www.w3.org/2000/svg">
<path fill-rule="evenodd" clip-rule="evenodd" d="M12.0015 0C5.37493 0 0.00302887 5.3719 0.00302887 11.9985C0.00302887 18.625 5.37493 23.997 12.0015 23.997C18.628 23.997 24 18.625 24 11.9985C24 5.3719 18.628 0 12.0015 0ZM1.50303 11.9985C1.50303 6.20033 6.20336 1.5 12.0015 1.5C17.7996 1.5 22.5 6.20033 22.5 11.9985C22.5 17.7966 17.7996 22.497 12.0015 22.497C6.20336 22.497 1.50303 17.7966 1.50303 11.9985ZM12.7523 5.24939C12.7523 4.83518 12.4165 4.49939 12.0023 4.49939C11.588 4.49939 11.2523 4.83518 11.2523 5.24939V11.9985C11.2523 12.4127 11.588 12.7485 12.0023 12.7485H18.7513C19.1656 12.7485 19.5013 12.4127 19.5013 11.9985C19.5013 11.5843 19.1656 11.2485 18.7513 11.2485H12.7523V5.24939Z" fill="currentColor"/>
</svg>
